G04 #@! TF.GenerationSoftware,KiCad,Pcbnew,(5.1.6)-1*
G04 #@! TF.CreationDate,2020-10-08T21:16:19-06:00*
G04 #@! TF.ProjectId,raspi-quad-stepper-motor-module,72617370-692d-4717-9561-642d73746570,A*
G04 #@! TF.SameCoordinates,Original*
G04 #@! TF.FileFunction,Soldermask,Bot*
G04 #@! TF.FilePolarity,Negative*
%FSLAX46Y46*%
G04 Gerber Fmt 4.6, Leading zero omitted, Abs format (unit mm)*
G04 Created by KiCad (PCBNEW (5.1.6)-1) date 2020-10-08 21:16:19*
%MOMM*%
%LPD*%
G01*
G04 APERTURE LIST*
G04 #@! TA.AperFunction,Profile*
%ADD10C,0.100000*%
G04 #@! TD*
%ADD11C,0.150000*%
G04 APERTURE END LIST*
D10*
X105600000Y-93000000D02*
G75*
G03*
X105100000Y-92500000I-500000J0D01*
G01*
X105100000Y-92500000D02*
X101100000Y-92500000D01*
X101099127Y-109500001D02*
G75*
G03*
X100600000Y-110000000I873J-499999D01*
G01*
X105100000Y-109500000D02*
G75*
G03*
X105600000Y-109000000I0J500000D01*
G01*
X100600000Y-92000000D02*
G75*
G03*
X101100000Y-92500000I500000J0D01*
G01*
X100600000Y-76000000D02*
X100600000Y-92000000D01*
X165600000Y-76000000D02*
G75*
G03*
X162600000Y-73000000I-3000000J0D01*
G01*
X162600000Y-129000000D02*
G75*
G03*
X165600000Y-126000000I0J3000000D01*
G01*
X100600000Y-126000000D02*
G75*
G03*
X103600000Y-129000000I3000000J0D01*
G01*
X103600000Y-73000000D02*
G75*
G03*
X100600000Y-76000000I0J-3000000D01*
G01*
X162600000Y-73000000D02*
X103600000Y-73000000D01*
X105100000Y-109500000D02*
X101100000Y-109500000D01*
X105600000Y-93000000D02*
X105600000Y-109000000D01*
X165600000Y-126000000D02*
X165600000Y-76000000D01*
X103600000Y-129000000D02*
X162600000Y-129000000D01*
X100600000Y-110000000D02*
X100600000Y-126000000D01*
D11*
G36*
X162493779Y-124196679D02*
G01*
X162737534Y-124297646D01*
X162739465Y-124298446D01*
X162850769Y-124372817D01*
X162959377Y-124445386D01*
X162960575Y-124446187D01*
X163148613Y-124634225D01*
X163295821Y-124854537D01*
X163296355Y-124855337D01*
X163398121Y-125101021D01*
X163450000Y-125361835D01*
X163450000Y-125627765D01*
X163398121Y-125888579D01*
X163296355Y-126134263D01*
X163149149Y-126354574D01*
X163148613Y-126355375D01*
X162960575Y-126543413D01*
X162739465Y-126691154D01*
X162739464Y-126691155D01*
X162739463Y-126691155D01*
X162493779Y-126792921D01*
X162232965Y-126844800D01*
X161967035Y-126844800D01*
X161706221Y-126792921D01*
X161460537Y-126691155D01*
X161460536Y-126691155D01*
X161460535Y-126691154D01*
X161239425Y-126543413D01*
X161051387Y-126355375D01*
X161050852Y-126354574D01*
X160903645Y-126134263D01*
X160801879Y-125888579D01*
X160750000Y-125627765D01*
X160750000Y-125361835D01*
X160801879Y-125101021D01*
X160903645Y-124855337D01*
X160904180Y-124854537D01*
X161051387Y-124634225D01*
X161239425Y-124446187D01*
X161240624Y-124445386D01*
X161349231Y-124372817D01*
X161460535Y-124298446D01*
X161462466Y-124297646D01*
X161706221Y-124196679D01*
X161967035Y-124144800D01*
X162232965Y-124144800D01*
X162493779Y-124196679D01*
G37*
G36*
X104544779Y-124195879D02*
G01*
X104790463Y-124297645D01*
X104790465Y-124297646D01*
X104791662Y-124298446D01*
X105011574Y-124445386D01*
X105199614Y-124633426D01*
X105347355Y-124854537D01*
X105449121Y-125100221D01*
X105501000Y-125361035D01*
X105501000Y-125626965D01*
X105449121Y-125887779D01*
X105448789Y-125888580D01*
X105347354Y-126133465D01*
X105346819Y-126134265D01*
X105199614Y-126354574D01*
X105011574Y-126542614D01*
X104901769Y-126615983D01*
X104790465Y-126690354D01*
X104790464Y-126690355D01*
X104790463Y-126690355D01*
X104544779Y-126792121D01*
X104283965Y-126844000D01*
X104018035Y-126844000D01*
X103757221Y-126792121D01*
X103511537Y-126690355D01*
X103511536Y-126690355D01*
X103511535Y-126690354D01*
X103400231Y-126615983D01*
X103290426Y-126542614D01*
X103102386Y-126354574D01*
X102955181Y-126134265D01*
X102954646Y-126133465D01*
X102853211Y-125888580D01*
X102852879Y-125887779D01*
X102801000Y-125626965D01*
X102801000Y-125361035D01*
X102852879Y-125100221D01*
X102954645Y-124854537D01*
X103102386Y-124633426D01*
X103290426Y-124445386D01*
X103510338Y-124298446D01*
X103511535Y-124297646D01*
X103511537Y-124297645D01*
X103757221Y-124195879D01*
X104018035Y-124144000D01*
X104283965Y-124144000D01*
X104544779Y-124195879D01*
G37*
G36*
X127778520Y-123422586D02*
G01*
X127942310Y-123490430D01*
X128089717Y-123588924D01*
X128215076Y-123714283D01*
X128313570Y-123861690D01*
X128313571Y-123861692D01*
X128381414Y-124025480D01*
X128415468Y-124196680D01*
X128416000Y-124199358D01*
X128416000Y-124376642D01*
X128381414Y-124550520D01*
X128313570Y-124714310D01*
X128215076Y-124861717D01*
X128089717Y-124987076D01*
X127942310Y-125085570D01*
X127942309Y-125085571D01*
X127942308Y-125085571D01*
X127778520Y-125153414D01*
X127604644Y-125188000D01*
X127427356Y-125188000D01*
X127253480Y-125153414D01*
X127089692Y-125085571D01*
X127089691Y-125085571D01*
X127089690Y-125085570D01*
X126942283Y-124987076D01*
X126816924Y-124861717D01*
X126718430Y-124714310D01*
X126650586Y-124550520D01*
X126616000Y-124376642D01*
X126616000Y-124199358D01*
X126616533Y-124196680D01*
X126650586Y-124025480D01*
X126718429Y-123861692D01*
X126718430Y-123861690D01*
X126816924Y-123714283D01*
X126942283Y-123588924D01*
X127089690Y-123490430D01*
X127253480Y-123422586D01*
X127427356Y-123388000D01*
X127604644Y-123388000D01*
X127778520Y-123422586D01*
G37*
G36*
X122778520Y-123422586D02*
G01*
X122942310Y-123490430D01*
X123089717Y-123588924D01*
X123215076Y-123714283D01*
X123313570Y-123861690D01*
X123313571Y-123861692D01*
X123381414Y-124025480D01*
X123415468Y-124196680D01*
X123416000Y-124199358D01*
X123416000Y-124376642D01*
X123381414Y-124550520D01*
X123313570Y-124714310D01*
X123215076Y-124861717D01*
X123089717Y-124987076D01*
X122942310Y-125085570D01*
X122942309Y-125085571D01*
X122942308Y-125085571D01*
X122778520Y-125153414D01*
X122604644Y-125188000D01*
X122427356Y-125188000D01*
X122253480Y-125153414D01*
X122089692Y-125085571D01*
X122089691Y-125085571D01*
X122089690Y-125085570D01*
X121942283Y-124987076D01*
X121816924Y-124861717D01*
X121718430Y-124714310D01*
X121650586Y-124550520D01*
X121616000Y-124376642D01*
X121616000Y-124199358D01*
X121616533Y-124196680D01*
X121650586Y-124025480D01*
X121718429Y-123861692D01*
X121718430Y-123861690D01*
X121816924Y-123714283D01*
X121942283Y-123588924D01*
X122089690Y-123490430D01*
X122253480Y-123422586D01*
X122427356Y-123388000D01*
X122604644Y-123388000D01*
X122778520Y-123422586D01*
G37*
G36*
X118416000Y-125188000D02*
G01*
X116616000Y-125188000D01*
X116616000Y-123388000D01*
X118416000Y-123388000D01*
X118416000Y-125188000D01*
G37*
G36*
X153987520Y-123422586D02*
G01*
X154151310Y-123490430D01*
X154298717Y-123588924D01*
X154424076Y-123714283D01*
X154522570Y-123861690D01*
X154522571Y-123861692D01*
X154590414Y-124025480D01*
X154624468Y-124196680D01*
X154625000Y-124199358D01*
X154625000Y-124376642D01*
X154590414Y-124550520D01*
X154522570Y-124714310D01*
X154424076Y-124861717D01*
X154298717Y-124987076D01*
X154151310Y-125085570D01*
X154151309Y-125085571D01*
X154151308Y-125085571D01*
X153987520Y-125153414D01*
X153813644Y-125188000D01*
X153636356Y-125188000D01*
X153462480Y-125153414D01*
X153298692Y-125085571D01*
X153298691Y-125085571D01*
X153298690Y-125085570D01*
X153151283Y-124987076D01*
X153025924Y-124861717D01*
X152927430Y-124714310D01*
X152859586Y-124550520D01*
X152825000Y-124376642D01*
X152825000Y-124199358D01*
X152825533Y-124196680D01*
X152859586Y-124025480D01*
X152927429Y-123861692D01*
X152927430Y-123861690D01*
X153025924Y-123714283D01*
X153151283Y-123588924D01*
X153298690Y-123490430D01*
X153462480Y-123422586D01*
X153636356Y-123388000D01*
X153813644Y-123388000D01*
X153987520Y-123422586D01*
G37*
G36*
X148987520Y-123422586D02*
G01*
X149151310Y-123490430D01*
X149298717Y-123588924D01*
X149424076Y-123714283D01*
X149522570Y-123861690D01*
X149522571Y-123861692D01*
X149590414Y-124025480D01*
X149624468Y-124196680D01*
X149625000Y-124199358D01*
X149625000Y-124376642D01*
X149590414Y-124550520D01*
X149522570Y-124714310D01*
X149424076Y-124861717D01*
X149298717Y-124987076D01*
X149151310Y-125085570D01*
X149151309Y-125085571D01*
X149151308Y-125085571D01*
X148987520Y-125153414D01*
X148813644Y-125188000D01*
X148636356Y-125188000D01*
X148462480Y-125153414D01*
X148298692Y-125085571D01*
X148298691Y-125085571D01*
X148298690Y-125085570D01*
X148151283Y-124987076D01*
X148025924Y-124861717D01*
X147927430Y-124714310D01*
X147859586Y-124550520D01*
X147825000Y-124376642D01*
X147825000Y-124199358D01*
X147825533Y-124196680D01*
X147859586Y-124025480D01*
X147927429Y-123861692D01*
X147927430Y-123861690D01*
X148025924Y-123714283D01*
X148151283Y-123588924D01*
X148298690Y-123490430D01*
X148462480Y-123422586D01*
X148636356Y-123388000D01*
X148813644Y-123388000D01*
X148987520Y-123422586D01*
G37*
G36*
X143987520Y-123422586D02*
G01*
X144151310Y-123490430D01*
X144298717Y-123588924D01*
X144424076Y-123714283D01*
X144522570Y-123861690D01*
X144522571Y-123861692D01*
X144590414Y-124025480D01*
X144624468Y-124196680D01*
X144625000Y-124199358D01*
X144625000Y-124376642D01*
X144590414Y-124550520D01*
X144522570Y-124714310D01*
X144424076Y-124861717D01*
X144298717Y-124987076D01*
X144151310Y-125085570D01*
X144151309Y-125085571D01*
X144151308Y-125085571D01*
X143987520Y-125153414D01*
X143813644Y-125188000D01*
X143636356Y-125188000D01*
X143462480Y-125153414D01*
X143298692Y-125085571D01*
X143298691Y-125085571D01*
X143298690Y-125085570D01*
X143151283Y-124987076D01*
X143025924Y-124861717D01*
X142927430Y-124714310D01*
X142859586Y-124550520D01*
X142825000Y-124376642D01*
X142825000Y-124199358D01*
X142825533Y-124196680D01*
X142859586Y-124025480D01*
X142927429Y-123861692D01*
X142927430Y-123861690D01*
X143025924Y-123714283D01*
X143151283Y-123588924D01*
X143298690Y-123490430D01*
X143462480Y-123422586D01*
X143636356Y-123388000D01*
X143813644Y-123388000D01*
X143987520Y-123422586D01*
G37*
G36*
X139625000Y-125188000D02*
G01*
X137825000Y-125188000D01*
X137825000Y-123388000D01*
X139625000Y-123388000D01*
X139625000Y-125188000D01*
G37*
G36*
X132778520Y-123422586D02*
G01*
X132942310Y-123490430D01*
X133089717Y-123588924D01*
X133215076Y-123714283D01*
X133313570Y-123861690D01*
X133313571Y-123861692D01*
X133381414Y-124025480D01*
X133415468Y-124196680D01*
X133416000Y-124199358D01*
X133416000Y-124376642D01*
X133381414Y-124550520D01*
X133313570Y-124714310D01*
X133215076Y-124861717D01*
X133089717Y-124987076D01*
X132942310Y-125085570D01*
X132942309Y-125085571D01*
X132942308Y-125085571D01*
X132778520Y-125153414D01*
X132604644Y-125188000D01*
X132427356Y-125188000D01*
X132253480Y-125153414D01*
X132089692Y-125085571D01*
X132089691Y-125085571D01*
X132089690Y-125085570D01*
X131942283Y-124987076D01*
X131816924Y-124861717D01*
X131718430Y-124714310D01*
X131650586Y-124550520D01*
X131616000Y-124376642D01*
X131616000Y-124199358D01*
X131616533Y-124196680D01*
X131650586Y-124025480D01*
X131718429Y-123861692D01*
X131718430Y-123861690D01*
X131816924Y-123714283D01*
X131942283Y-123588924D01*
X132089690Y-123490430D01*
X132253480Y-123422586D01*
X132427356Y-123388000D01*
X132604644Y-123388000D01*
X132778520Y-123422586D01*
G37*
G36*
X113198891Y-118618205D02*
G01*
X113351202Y-118664408D01*
X113491565Y-118739433D01*
X113614597Y-118840403D01*
X113715567Y-118963435D01*
X113790592Y-119103798D01*
X113836795Y-119256109D01*
X113853000Y-119420640D01*
X113853000Y-121283360D01*
X113836795Y-121447891D01*
X113790592Y-121600202D01*
X113715567Y-121740565D01*
X113614597Y-121863597D01*
X113491565Y-121964567D01*
X113351202Y-122039592D01*
X113198891Y-122085795D01*
X113034360Y-122102000D01*
X111171640Y-122102000D01*
X111007109Y-122085795D01*
X110854798Y-122039592D01*
X110714435Y-121964567D01*
X110591403Y-121863597D01*
X110490433Y-121740565D01*
X110415408Y-121600202D01*
X110369205Y-121447891D01*
X110353000Y-121283360D01*
X110353000Y-119420640D01*
X110369205Y-119256109D01*
X110415408Y-119103798D01*
X110490433Y-118963435D01*
X110591403Y-118840403D01*
X110714435Y-118739433D01*
X110854798Y-118664408D01*
X111007109Y-118618205D01*
X111171640Y-118602000D01*
X113034360Y-118602000D01*
X113198891Y-118618205D01*
G37*
G36*
X161596000Y-119614000D02*
G01*
X159796000Y-119614000D01*
X159796000Y-117814000D01*
X161596000Y-117814000D01*
X161596000Y-119614000D01*
G37*
G36*
X110049505Y-113915803D02*
G01*
X110178366Y-113954893D01*
X110297117Y-114018367D01*
X110401209Y-114103791D01*
X110486633Y-114207883D01*
X110550107Y-114326634D01*
X110589197Y-114455495D01*
X110603000Y-114595640D01*
X110603000Y-116708360D01*
X110589197Y-116848505D01*
X110550107Y-116977366D01*
X110486633Y-117096117D01*
X110401209Y-117200209D01*
X110297117Y-117285633D01*
X110178366Y-117349107D01*
X110049505Y-117388197D01*
X109909360Y-117402000D01*
X108296640Y-117402000D01*
X108156495Y-117388197D01*
X108027634Y-117349107D01*
X107908883Y-117285633D01*
X107804791Y-117200209D01*
X107719367Y-117096117D01*
X107655893Y-116977366D01*
X107616803Y-116848505D01*
X107603000Y-116708360D01*
X107603000Y-114595640D01*
X107616803Y-114455495D01*
X107655893Y-114326634D01*
X107719367Y-114207883D01*
X107804791Y-114103791D01*
X107908883Y-114018367D01*
X108027634Y-113954893D01*
X108156495Y-113915803D01*
X108296640Y-113902000D01*
X109909360Y-113902000D01*
X110049505Y-113915803D01*
G37*
G36*
X116853000Y-117402000D02*
G01*
X113353000Y-117402000D01*
X113353000Y-113902000D01*
X116853000Y-113902000D01*
X116853000Y-117402000D01*
G37*
G36*
X160958520Y-112848586D02*
G01*
X161122310Y-112916430D01*
X161269717Y-113014924D01*
X161395076Y-113140283D01*
X161493570Y-113287690D01*
X161561414Y-113451480D01*
X161596000Y-113625358D01*
X161596000Y-113802642D01*
X161561414Y-113976520D01*
X161493570Y-114140310D01*
X161395076Y-114287717D01*
X161269717Y-114413076D01*
X161122310Y-114511570D01*
X161122309Y-114511571D01*
X161122308Y-114511571D01*
X160958520Y-114579414D01*
X160784644Y-114614000D01*
X160607356Y-114614000D01*
X160433480Y-114579414D01*
X160269692Y-114511571D01*
X160269691Y-114511571D01*
X160269690Y-114511570D01*
X160122283Y-114413076D01*
X159996924Y-114287717D01*
X159898430Y-114140310D01*
X159830586Y-113976520D01*
X159796000Y-113802642D01*
X159796000Y-113625358D01*
X159830586Y-113451480D01*
X159898430Y-113287690D01*
X159996924Y-113140283D01*
X160122283Y-113014924D01*
X160269690Y-112916430D01*
X160433480Y-112848586D01*
X160607356Y-112814000D01*
X160784644Y-112814000D01*
X160958520Y-112848586D01*
G37*
G36*
X160958520Y-107848586D02*
G01*
X161122310Y-107916430D01*
X161269717Y-108014924D01*
X161395076Y-108140283D01*
X161493570Y-108287690D01*
X161561414Y-108451480D01*
X161596000Y-108625358D01*
X161596000Y-108802642D01*
X161561414Y-108976520D01*
X161493570Y-109140310D01*
X161395076Y-109287717D01*
X161269717Y-109413076D01*
X161122310Y-109511570D01*
X161122309Y-109511571D01*
X161122308Y-109511571D01*
X160958520Y-109579414D01*
X160784644Y-109614000D01*
X160607356Y-109614000D01*
X160433480Y-109579414D01*
X160269692Y-109511571D01*
X160269691Y-109511571D01*
X160269690Y-109511570D01*
X160122283Y-109413076D01*
X159996924Y-109287717D01*
X159898430Y-109140310D01*
X159830586Y-108976520D01*
X159796000Y-108802642D01*
X159796000Y-108625358D01*
X159830586Y-108451480D01*
X159898430Y-108287690D01*
X159996924Y-108140283D01*
X160122283Y-108014924D01*
X160269690Y-107916430D01*
X160433480Y-107848586D01*
X160607356Y-107814000D01*
X160784644Y-107814000D01*
X160958520Y-107848586D01*
G37*
G36*
X151027841Y-100104951D02*
G01*
X151023346Y-104140310D01*
X151018600Y-108400000D01*
X147700000Y-108400000D01*
X147700000Y-97000000D01*
X151031300Y-97000000D01*
X151027841Y-100104951D01*
G37*
G36*
X131627841Y-100104951D02*
G01*
X131623346Y-104140310D01*
X131618600Y-108400000D01*
X128300000Y-108400000D01*
X128300000Y-97000000D01*
X131631300Y-97000000D01*
X131627841Y-100104951D01*
G37*
G36*
X160958520Y-102848586D02*
G01*
X161122310Y-102916430D01*
X161269717Y-103014924D01*
X161395076Y-103140283D01*
X161493570Y-103287690D01*
X161561414Y-103451480D01*
X161596000Y-103625358D01*
X161596000Y-103802642D01*
X161561414Y-103976520D01*
X161493570Y-104140310D01*
X161395076Y-104287717D01*
X161269717Y-104413076D01*
X161122310Y-104511570D01*
X161122309Y-104511571D01*
X161122308Y-104511571D01*
X160958520Y-104579414D01*
X160784644Y-104614000D01*
X160607356Y-104614000D01*
X160433480Y-104579414D01*
X160269692Y-104511571D01*
X160269691Y-104511571D01*
X160269690Y-104511570D01*
X160122283Y-104413076D01*
X159996924Y-104287717D01*
X159898430Y-104140310D01*
X159830586Y-103976520D01*
X159796000Y-103802642D01*
X159796000Y-103625358D01*
X159830586Y-103451480D01*
X159898430Y-103287690D01*
X159996924Y-103140283D01*
X160122283Y-103014924D01*
X160269690Y-102916430D01*
X160433480Y-102848586D01*
X160607356Y-102814000D01*
X160784644Y-102814000D01*
X160958520Y-102848586D01*
G37*
G36*
X110696000Y-100196000D02*
G01*
X109096000Y-100196000D01*
X109096000Y-98596000D01*
X110696000Y-98596000D01*
X110696000Y-100196000D01*
G37*
G36*
X112669351Y-98626743D02*
G01*
X112814941Y-98687048D01*
X112945970Y-98774599D01*
X113057401Y-98886030D01*
X113144952Y-99017059D01*
X113205257Y-99162649D01*
X113236000Y-99317206D01*
X113236000Y-99474794D01*
X113205257Y-99629351D01*
X113144952Y-99774941D01*
X113057401Y-99905970D01*
X112945970Y-100017401D01*
X112814941Y-100104952D01*
X112669351Y-100165257D01*
X112514794Y-100196000D01*
X112357206Y-100196000D01*
X112202649Y-100165257D01*
X112057059Y-100104952D01*
X111926030Y-100017401D01*
X111814599Y-99905970D01*
X111727048Y-99774941D01*
X111666743Y-99629351D01*
X111636000Y-99474794D01*
X111636000Y-99317206D01*
X111666743Y-99162649D01*
X111727048Y-99017059D01*
X111814599Y-98886030D01*
X111926030Y-98774599D01*
X112057059Y-98687048D01*
X112202649Y-98626743D01*
X112357206Y-98596000D01*
X112514794Y-98596000D01*
X112669351Y-98626743D01*
G37*
G36*
X117749351Y-98626743D02*
G01*
X117894941Y-98687048D01*
X118025970Y-98774599D01*
X118137401Y-98886030D01*
X118224952Y-99017059D01*
X118285257Y-99162649D01*
X118316000Y-99317206D01*
X118316000Y-99474794D01*
X118285257Y-99629351D01*
X118224952Y-99774941D01*
X118137401Y-99905970D01*
X118025970Y-100017401D01*
X117894941Y-100104952D01*
X117749351Y-100165257D01*
X117594794Y-100196000D01*
X117437206Y-100196000D01*
X117282649Y-100165257D01*
X117137059Y-100104952D01*
X117006030Y-100017401D01*
X116894599Y-99905970D01*
X116807048Y-99774941D01*
X116746743Y-99629351D01*
X116716000Y-99474794D01*
X116716000Y-99317206D01*
X116746743Y-99162649D01*
X116807048Y-99017059D01*
X116894599Y-98886030D01*
X117006030Y-98774599D01*
X117137059Y-98687048D01*
X117282649Y-98626743D01*
X117437206Y-98596000D01*
X117594794Y-98596000D01*
X117749351Y-98626743D01*
G37*
G36*
X115209351Y-98626743D02*
G01*
X115354941Y-98687048D01*
X115485970Y-98774599D01*
X115597401Y-98886030D01*
X115684952Y-99017059D01*
X115745257Y-99162649D01*
X115776000Y-99317206D01*
X115776000Y-99474794D01*
X115745257Y-99629351D01*
X115684952Y-99774941D01*
X115597401Y-99905970D01*
X115485970Y-100017401D01*
X115354941Y-100104952D01*
X115209351Y-100165257D01*
X115054794Y-100196000D01*
X114897206Y-100196000D01*
X114742649Y-100165257D01*
X114597059Y-100104952D01*
X114466030Y-100017401D01*
X114354599Y-99905970D01*
X114267048Y-99774941D01*
X114206743Y-99629351D01*
X114176000Y-99474794D01*
X114176000Y-99317206D01*
X114206743Y-99162649D01*
X114267048Y-99017059D01*
X114354599Y-98886030D01*
X114466030Y-98774599D01*
X114597059Y-98687048D01*
X114742649Y-98626743D01*
X114897206Y-98596000D01*
X115054794Y-98596000D01*
X115209351Y-98626743D01*
G37*
G36*
X161596000Y-98405000D02*
G01*
X159796000Y-98405000D01*
X159796000Y-96605000D01*
X161596000Y-96605000D01*
X161596000Y-98405000D01*
G37*
G36*
X160958520Y-91639586D02*
G01*
X161097630Y-91697207D01*
X161122310Y-91707430D01*
X161269717Y-91805924D01*
X161395076Y-91931283D01*
X161447239Y-92009351D01*
X161493571Y-92078692D01*
X161561414Y-92242480D01*
X161592230Y-92397401D01*
X161596000Y-92416358D01*
X161596000Y-92593642D01*
X161561414Y-92767520D01*
X161493570Y-92931310D01*
X161395076Y-93078717D01*
X161269717Y-93204076D01*
X161122310Y-93302570D01*
X161122309Y-93302571D01*
X161122308Y-93302571D01*
X160958520Y-93370414D01*
X160784644Y-93405000D01*
X160607356Y-93405000D01*
X160433480Y-93370414D01*
X160269692Y-93302571D01*
X160269691Y-93302571D01*
X160269690Y-93302570D01*
X160122283Y-93204076D01*
X159996924Y-93078717D01*
X159898430Y-92931310D01*
X159830586Y-92767520D01*
X159796000Y-92593642D01*
X159796000Y-92416358D01*
X159799771Y-92397401D01*
X159830586Y-92242480D01*
X159898429Y-92078692D01*
X159944761Y-92009351D01*
X159996924Y-91931283D01*
X160122283Y-91805924D01*
X160269690Y-91707430D01*
X160294371Y-91697207D01*
X160433480Y-91639586D01*
X160607356Y-91605000D01*
X160784644Y-91605000D01*
X160958520Y-91639586D01*
G37*
G36*
X110129351Y-91006743D02*
G01*
X110274941Y-91067048D01*
X110405970Y-91154599D01*
X110517401Y-91266030D01*
X110604952Y-91397059D01*
X110665257Y-91542649D01*
X110696000Y-91697206D01*
X110696000Y-91854794D01*
X110665257Y-92009351D01*
X110604952Y-92154941D01*
X110517401Y-92285970D01*
X110405970Y-92397401D01*
X110274941Y-92484952D01*
X110129351Y-92545257D01*
X109974794Y-92576000D01*
X109817206Y-92576000D01*
X109662649Y-92545257D01*
X109517059Y-92484952D01*
X109386030Y-92397401D01*
X109274599Y-92285970D01*
X109187048Y-92154941D01*
X109126743Y-92009351D01*
X109096000Y-91854794D01*
X109096000Y-91697206D01*
X109126743Y-91542649D01*
X109187048Y-91397059D01*
X109274599Y-91266030D01*
X109386030Y-91154599D01*
X109517059Y-91067048D01*
X109662649Y-91006743D01*
X109817206Y-90976000D01*
X109974794Y-90976000D01*
X110129351Y-91006743D01*
G37*
G36*
X112669351Y-91006743D02*
G01*
X112814941Y-91067048D01*
X112945970Y-91154599D01*
X113057401Y-91266030D01*
X113144952Y-91397059D01*
X113205257Y-91542649D01*
X113236000Y-91697206D01*
X113236000Y-91854794D01*
X113205257Y-92009351D01*
X113144952Y-92154941D01*
X113057401Y-92285970D01*
X112945970Y-92397401D01*
X112814941Y-92484952D01*
X112669351Y-92545257D01*
X112514794Y-92576000D01*
X112357206Y-92576000D01*
X112202649Y-92545257D01*
X112057059Y-92484952D01*
X111926030Y-92397401D01*
X111814599Y-92285970D01*
X111727048Y-92154941D01*
X111666743Y-92009351D01*
X111636000Y-91854794D01*
X111636000Y-91697206D01*
X111666743Y-91542649D01*
X111727048Y-91397059D01*
X111814599Y-91266030D01*
X111926030Y-91154599D01*
X112057059Y-91067048D01*
X112202649Y-91006743D01*
X112357206Y-90976000D01*
X112514794Y-90976000D01*
X112669351Y-91006743D01*
G37*
G36*
X115209351Y-91006743D02*
G01*
X115354941Y-91067048D01*
X115485970Y-91154599D01*
X115597401Y-91266030D01*
X115684952Y-91397059D01*
X115745257Y-91542649D01*
X115776000Y-91697206D01*
X115776000Y-91854794D01*
X115745257Y-92009351D01*
X115684952Y-92154941D01*
X115597401Y-92285970D01*
X115485970Y-92397401D01*
X115354941Y-92484952D01*
X115209351Y-92545257D01*
X115054794Y-92576000D01*
X114897206Y-92576000D01*
X114742649Y-92545257D01*
X114597059Y-92484952D01*
X114466030Y-92397401D01*
X114354599Y-92285970D01*
X114267048Y-92154941D01*
X114206743Y-92009351D01*
X114176000Y-91854794D01*
X114176000Y-91697206D01*
X114206743Y-91542649D01*
X114267048Y-91397059D01*
X114354599Y-91266030D01*
X114466030Y-91154599D01*
X114597059Y-91067048D01*
X114742649Y-91006743D01*
X114897206Y-90976000D01*
X115054794Y-90976000D01*
X115209351Y-91006743D01*
G37*
G36*
X117749351Y-91006743D02*
G01*
X117894941Y-91067048D01*
X118025970Y-91154599D01*
X118137401Y-91266030D01*
X118224952Y-91397059D01*
X118285257Y-91542649D01*
X118316000Y-91697206D01*
X118316000Y-91854794D01*
X118285257Y-92009351D01*
X118224952Y-92154941D01*
X118137401Y-92285970D01*
X118025970Y-92397401D01*
X117894941Y-92484952D01*
X117749351Y-92545257D01*
X117594794Y-92576000D01*
X117437206Y-92576000D01*
X117282649Y-92545257D01*
X117137059Y-92484952D01*
X117006030Y-92397401D01*
X116894599Y-92285970D01*
X116807048Y-92154941D01*
X116746743Y-92009351D01*
X116716000Y-91854794D01*
X116716000Y-91697206D01*
X116746743Y-91542649D01*
X116807048Y-91397059D01*
X116894599Y-91266030D01*
X117006030Y-91154599D01*
X117137059Y-91067048D01*
X117282649Y-91006743D01*
X117437206Y-90976000D01*
X117594794Y-90976000D01*
X117749351Y-91006743D01*
G37*
G36*
X115209351Y-87958743D02*
G01*
X115354941Y-88019048D01*
X115485970Y-88106599D01*
X115597401Y-88218030D01*
X115684952Y-88349059D01*
X115745257Y-88494649D01*
X115776000Y-88649206D01*
X115776000Y-88806794D01*
X115745257Y-88961351D01*
X115684952Y-89106941D01*
X115597401Y-89237970D01*
X115485970Y-89349401D01*
X115354941Y-89436952D01*
X115209351Y-89497257D01*
X115054794Y-89528000D01*
X114897206Y-89528000D01*
X114742649Y-89497257D01*
X114597059Y-89436952D01*
X114466030Y-89349401D01*
X114354599Y-89237970D01*
X114267048Y-89106941D01*
X114206743Y-88961351D01*
X114176000Y-88806794D01*
X114176000Y-88649206D01*
X114206743Y-88494649D01*
X114267048Y-88349059D01*
X114354599Y-88218030D01*
X114466030Y-88106599D01*
X114597059Y-88019048D01*
X114742649Y-87958743D01*
X114897206Y-87928000D01*
X115054794Y-87928000D01*
X115209351Y-87958743D01*
G37*
G36*
X110696000Y-89528000D02*
G01*
X109096000Y-89528000D01*
X109096000Y-87928000D01*
X110696000Y-87928000D01*
X110696000Y-89528000D01*
G37*
G36*
X117749351Y-87958743D02*
G01*
X117894941Y-88019048D01*
X118025970Y-88106599D01*
X118137401Y-88218030D01*
X118224952Y-88349059D01*
X118285257Y-88494649D01*
X118316000Y-88649206D01*
X118316000Y-88806794D01*
X118285257Y-88961351D01*
X118224952Y-89106941D01*
X118137401Y-89237970D01*
X118025970Y-89349401D01*
X117894941Y-89436952D01*
X117749351Y-89497257D01*
X117594794Y-89528000D01*
X117437206Y-89528000D01*
X117282649Y-89497257D01*
X117137059Y-89436952D01*
X117006030Y-89349401D01*
X116894599Y-89237970D01*
X116807048Y-89106941D01*
X116746743Y-88961351D01*
X116716000Y-88806794D01*
X116716000Y-88649206D01*
X116746743Y-88494649D01*
X116807048Y-88349059D01*
X116894599Y-88218030D01*
X117006030Y-88106599D01*
X117137059Y-88019048D01*
X117282649Y-87958743D01*
X117437206Y-87928000D01*
X117594794Y-87928000D01*
X117749351Y-87958743D01*
G37*
G36*
X112669351Y-87958743D02*
G01*
X112814941Y-88019048D01*
X112945970Y-88106599D01*
X113057401Y-88218030D01*
X113144952Y-88349059D01*
X113205257Y-88494649D01*
X113236000Y-88649206D01*
X113236000Y-88806794D01*
X113205257Y-88961351D01*
X113144952Y-89106941D01*
X113057401Y-89237970D01*
X112945970Y-89349401D01*
X112814941Y-89436952D01*
X112669351Y-89497257D01*
X112514794Y-89528000D01*
X112357206Y-89528000D01*
X112202649Y-89497257D01*
X112057059Y-89436952D01*
X111926030Y-89349401D01*
X111814599Y-89237970D01*
X111727048Y-89106941D01*
X111666743Y-88961351D01*
X111636000Y-88806794D01*
X111636000Y-88649206D01*
X111666743Y-88494649D01*
X111727048Y-88349059D01*
X111814599Y-88218030D01*
X111926030Y-88106599D01*
X112057059Y-88019048D01*
X112202649Y-87958743D01*
X112357206Y-87928000D01*
X112514794Y-87928000D01*
X112669351Y-87958743D01*
G37*
G36*
X160958520Y-86639586D02*
G01*
X161122310Y-86707430D01*
X161269717Y-86805924D01*
X161395076Y-86931283D01*
X161493570Y-87078690D01*
X161561414Y-87242480D01*
X161596000Y-87416358D01*
X161596000Y-87593642D01*
X161561414Y-87767520D01*
X161493570Y-87931310D01*
X161395076Y-88078717D01*
X161269717Y-88204076D01*
X161122310Y-88302570D01*
X161122309Y-88302571D01*
X161122308Y-88302571D01*
X160958520Y-88370414D01*
X160784644Y-88405000D01*
X160607356Y-88405000D01*
X160433480Y-88370414D01*
X160269692Y-88302571D01*
X160269691Y-88302571D01*
X160269690Y-88302570D01*
X160122283Y-88204076D01*
X159996924Y-88078717D01*
X159898430Y-87931310D01*
X159830586Y-87767520D01*
X159796000Y-87593642D01*
X159796000Y-87416358D01*
X159830586Y-87242480D01*
X159898430Y-87078690D01*
X159996924Y-86931283D01*
X160122283Y-86805924D01*
X160269690Y-86707430D01*
X160433480Y-86639586D01*
X160607356Y-86605000D01*
X160784644Y-86605000D01*
X160958520Y-86639586D01*
G37*
G36*
X160958520Y-81639586D02*
G01*
X161122310Y-81707430D01*
X161269717Y-81805924D01*
X161395076Y-81931283D01*
X161493570Y-82078690D01*
X161493571Y-82078692D01*
X161561414Y-82242480D01*
X161596000Y-82416356D01*
X161596000Y-82593644D01*
X161561414Y-82767520D01*
X161493570Y-82931310D01*
X161395076Y-83078717D01*
X161269717Y-83204076D01*
X161122310Y-83302570D01*
X161122309Y-83302571D01*
X161122308Y-83302571D01*
X160958520Y-83370414D01*
X160784644Y-83405000D01*
X160607356Y-83405000D01*
X160433480Y-83370414D01*
X160269692Y-83302571D01*
X160269691Y-83302571D01*
X160269690Y-83302570D01*
X160122283Y-83204076D01*
X159996924Y-83078717D01*
X159898430Y-82931310D01*
X159830586Y-82767520D01*
X159796000Y-82593644D01*
X159796000Y-82416356D01*
X159830586Y-82242480D01*
X159898429Y-82078692D01*
X159898430Y-82078690D01*
X159996924Y-81931283D01*
X160122283Y-81805924D01*
X160269690Y-81707430D01*
X160433480Y-81639586D01*
X160607356Y-81605000D01*
X160784644Y-81605000D01*
X160958520Y-81639586D01*
G37*
G36*
X152202015Y-81939668D02*
G01*
X152333046Y-81993943D01*
X152333048Y-81993944D01*
X152450973Y-82072739D01*
X152551261Y-82173027D01*
X152630057Y-82290954D01*
X152684332Y-82421985D01*
X152712000Y-82561084D01*
X152712000Y-82702916D01*
X152684332Y-82842015D01*
X152630057Y-82973046D01*
X152630056Y-82973048D01*
X152551261Y-83090973D01*
X152450973Y-83191261D01*
X152333048Y-83270056D01*
X152333047Y-83270057D01*
X152333046Y-83270057D01*
X152202015Y-83324332D01*
X152062916Y-83352000D01*
X151921084Y-83352000D01*
X151781985Y-83324332D01*
X151650954Y-83270057D01*
X151650953Y-83270057D01*
X151650952Y-83270056D01*
X151533027Y-83191261D01*
X151432739Y-83090973D01*
X151353944Y-82973048D01*
X151353943Y-82973046D01*
X151299668Y-82842015D01*
X151272000Y-82702916D01*
X151272000Y-82561084D01*
X151299668Y-82421985D01*
X151353943Y-82290954D01*
X151432739Y-82173027D01*
X151533027Y-82072739D01*
X151650952Y-81993944D01*
X151650954Y-81993943D01*
X151781985Y-81939668D01*
X151921084Y-81912000D01*
X152062916Y-81912000D01*
X152202015Y-81939668D01*
G37*
G36*
X124262015Y-81939668D02*
G01*
X124393046Y-81993943D01*
X124393048Y-81993944D01*
X124510973Y-82072739D01*
X124611261Y-82173027D01*
X124690057Y-82290954D01*
X124744332Y-82421985D01*
X124772000Y-82561084D01*
X124772000Y-82702916D01*
X124744332Y-82842015D01*
X124690057Y-82973046D01*
X124690056Y-82973048D01*
X124611261Y-83090973D01*
X124510973Y-83191261D01*
X124393048Y-83270056D01*
X124393047Y-83270057D01*
X124393046Y-83270057D01*
X124262015Y-83324332D01*
X124122916Y-83352000D01*
X123981084Y-83352000D01*
X123841985Y-83324332D01*
X123710954Y-83270057D01*
X123710953Y-83270057D01*
X123710952Y-83270056D01*
X123593027Y-83191261D01*
X123492739Y-83090973D01*
X123413944Y-82973048D01*
X123413943Y-82973046D01*
X123359668Y-82842015D01*
X123332000Y-82702916D01*
X123332000Y-82561084D01*
X123359668Y-82421985D01*
X123413943Y-82290954D01*
X123492739Y-82173027D01*
X123593027Y-82072739D01*
X123710952Y-81993944D01*
X123710954Y-81993943D01*
X123841985Y-81939668D01*
X123981084Y-81912000D01*
X124122916Y-81912000D01*
X124262015Y-81939668D01*
G37*
G36*
X126802015Y-81939668D02*
G01*
X126933046Y-81993943D01*
X126933048Y-81993944D01*
X127050973Y-82072739D01*
X127151261Y-82173027D01*
X127230057Y-82290954D01*
X127284332Y-82421985D01*
X127312000Y-82561084D01*
X127312000Y-82702916D01*
X127284332Y-82842015D01*
X127230057Y-82973046D01*
X127230056Y-82973048D01*
X127151261Y-83090973D01*
X127050973Y-83191261D01*
X126933048Y-83270056D01*
X126933047Y-83270057D01*
X126933046Y-83270057D01*
X126802015Y-83324332D01*
X126662916Y-83352000D01*
X126521084Y-83352000D01*
X126381985Y-83324332D01*
X126250954Y-83270057D01*
X126250953Y-83270057D01*
X126250952Y-83270056D01*
X126133027Y-83191261D01*
X126032739Y-83090973D01*
X125953944Y-82973048D01*
X125953943Y-82973046D01*
X125899668Y-82842015D01*
X125872000Y-82702916D01*
X125872000Y-82561084D01*
X125899668Y-82421985D01*
X125953943Y-82290954D01*
X126032739Y-82173027D01*
X126133027Y-82072739D01*
X126250952Y-81993944D01*
X126250954Y-81993943D01*
X126381985Y-81939668D01*
X126521084Y-81912000D01*
X126662916Y-81912000D01*
X126802015Y-81939668D01*
G37*
G36*
X129342015Y-81939668D02*
G01*
X129473046Y-81993943D01*
X129473048Y-81993944D01*
X129590973Y-82072739D01*
X129691261Y-82173027D01*
X129770057Y-82290954D01*
X129824332Y-82421985D01*
X129852000Y-82561084D01*
X129852000Y-82702916D01*
X129824332Y-82842015D01*
X129770057Y-82973046D01*
X129770056Y-82973048D01*
X129691261Y-83090973D01*
X129590973Y-83191261D01*
X129473048Y-83270056D01*
X129473047Y-83270057D01*
X129473046Y-83270057D01*
X129342015Y-83324332D01*
X129202916Y-83352000D01*
X129061084Y-83352000D01*
X128921985Y-83324332D01*
X128790954Y-83270057D01*
X128790953Y-83270057D01*
X128790952Y-83270056D01*
X128673027Y-83191261D01*
X128572739Y-83090973D01*
X128493944Y-82973048D01*
X128493943Y-82973046D01*
X128439668Y-82842015D01*
X128412000Y-82702916D01*
X128412000Y-82561084D01*
X128439668Y-82421985D01*
X128493943Y-82290954D01*
X128572739Y-82173027D01*
X128673027Y-82072739D01*
X128790952Y-81993944D01*
X128790954Y-81993943D01*
X128921985Y-81939668D01*
X129061084Y-81912000D01*
X129202916Y-81912000D01*
X129342015Y-81939668D01*
G37*
G36*
X147122015Y-81939668D02*
G01*
X147253046Y-81993943D01*
X147253048Y-81993944D01*
X147370973Y-82072739D01*
X147471261Y-82173027D01*
X147550057Y-82290954D01*
X147604332Y-82421985D01*
X147632000Y-82561084D01*
X147632000Y-82702916D01*
X147604332Y-82842015D01*
X147550057Y-82973046D01*
X147550056Y-82973048D01*
X147471261Y-83090973D01*
X147370973Y-83191261D01*
X147253048Y-83270056D01*
X147253047Y-83270057D01*
X147253046Y-83270057D01*
X147122015Y-83324332D01*
X146982916Y-83352000D01*
X146841084Y-83352000D01*
X146701985Y-83324332D01*
X146570954Y-83270057D01*
X146570953Y-83270057D01*
X146570952Y-83270056D01*
X146453027Y-83191261D01*
X146352739Y-83090973D01*
X146273944Y-82973048D01*
X146273943Y-82973046D01*
X146219668Y-82842015D01*
X146192000Y-82702916D01*
X146192000Y-82561084D01*
X146219668Y-82421985D01*
X146273943Y-82290954D01*
X146352739Y-82173027D01*
X146453027Y-82072739D01*
X146570952Y-81993944D01*
X146570954Y-81993943D01*
X146701985Y-81939668D01*
X146841084Y-81912000D01*
X146982916Y-81912000D01*
X147122015Y-81939668D01*
G37*
G36*
X149662015Y-81939668D02*
G01*
X149793046Y-81993943D01*
X149793048Y-81993944D01*
X149910973Y-82072739D01*
X150011261Y-82173027D01*
X150090057Y-82290954D01*
X150144332Y-82421985D01*
X150172000Y-82561084D01*
X150172000Y-82702916D01*
X150144332Y-82842015D01*
X150090057Y-82973046D01*
X150090056Y-82973048D01*
X150011261Y-83090973D01*
X149910973Y-83191261D01*
X149793048Y-83270056D01*
X149793047Y-83270057D01*
X149793046Y-83270057D01*
X149662015Y-83324332D01*
X149522916Y-83352000D01*
X149381084Y-83352000D01*
X149241985Y-83324332D01*
X149110954Y-83270057D01*
X149110953Y-83270057D01*
X149110952Y-83270056D01*
X148993027Y-83191261D01*
X148892739Y-83090973D01*
X148813944Y-82973048D01*
X148813943Y-82973046D01*
X148759668Y-82842015D01*
X148732000Y-82702916D01*
X148732000Y-82561084D01*
X148759668Y-82421985D01*
X148813943Y-82290954D01*
X148892739Y-82173027D01*
X148993027Y-82072739D01*
X149110952Y-81993944D01*
X149110954Y-81993943D01*
X149241985Y-81939668D01*
X149381084Y-81912000D01*
X149522916Y-81912000D01*
X149662015Y-81939668D01*
G37*
G36*
X112669351Y-80338743D02*
G01*
X112814941Y-80399048D01*
X112945970Y-80486599D01*
X113057401Y-80598030D01*
X113144952Y-80729059D01*
X113205257Y-80874649D01*
X113236000Y-81029206D01*
X113236000Y-81186794D01*
X113205257Y-81341351D01*
X113144952Y-81486941D01*
X113057401Y-81617970D01*
X112945970Y-81729401D01*
X112814941Y-81816952D01*
X112669351Y-81877257D01*
X112514794Y-81908000D01*
X112357206Y-81908000D01*
X112202649Y-81877257D01*
X112057059Y-81816952D01*
X111926030Y-81729401D01*
X111814599Y-81617970D01*
X111727048Y-81486941D01*
X111666743Y-81341351D01*
X111636000Y-81186794D01*
X111636000Y-81029206D01*
X111666743Y-80874649D01*
X111727048Y-80729059D01*
X111814599Y-80598030D01*
X111926030Y-80486599D01*
X112057059Y-80399048D01*
X112202649Y-80338743D01*
X112357206Y-80308000D01*
X112514794Y-80308000D01*
X112669351Y-80338743D01*
G37*
G36*
X110129351Y-80338743D02*
G01*
X110274941Y-80399048D01*
X110405970Y-80486599D01*
X110517401Y-80598030D01*
X110604952Y-80729059D01*
X110665257Y-80874649D01*
X110696000Y-81029206D01*
X110696000Y-81186794D01*
X110665257Y-81341351D01*
X110604952Y-81486941D01*
X110517401Y-81617970D01*
X110405970Y-81729401D01*
X110274941Y-81816952D01*
X110129351Y-81877257D01*
X109974794Y-81908000D01*
X109817206Y-81908000D01*
X109662649Y-81877257D01*
X109517059Y-81816952D01*
X109386030Y-81729401D01*
X109274599Y-81617970D01*
X109187048Y-81486941D01*
X109126743Y-81341351D01*
X109096000Y-81186794D01*
X109096000Y-81029206D01*
X109126743Y-80874649D01*
X109187048Y-80729059D01*
X109274599Y-80598030D01*
X109386030Y-80486599D01*
X109517059Y-80399048D01*
X109662649Y-80338743D01*
X109817206Y-80308000D01*
X109974794Y-80308000D01*
X110129351Y-80338743D01*
G37*
G36*
X117749351Y-80338743D02*
G01*
X117894941Y-80399048D01*
X118025970Y-80486599D01*
X118137401Y-80598030D01*
X118224952Y-80729059D01*
X118285257Y-80874649D01*
X118316000Y-81029206D01*
X118316000Y-81186794D01*
X118285257Y-81341351D01*
X118224952Y-81486941D01*
X118137401Y-81617970D01*
X118025970Y-81729401D01*
X117894941Y-81816952D01*
X117749351Y-81877257D01*
X117594794Y-81908000D01*
X117437206Y-81908000D01*
X117282649Y-81877257D01*
X117137059Y-81816952D01*
X117006030Y-81729401D01*
X116894599Y-81617970D01*
X116807048Y-81486941D01*
X116746743Y-81341351D01*
X116716000Y-81186794D01*
X116716000Y-81029206D01*
X116746743Y-80874649D01*
X116807048Y-80729059D01*
X116894599Y-80598030D01*
X117006030Y-80486599D01*
X117137059Y-80399048D01*
X117282649Y-80338743D01*
X117437206Y-80308000D01*
X117594794Y-80308000D01*
X117749351Y-80338743D01*
G37*
G36*
X115209351Y-80338743D02*
G01*
X115354941Y-80399048D01*
X115485970Y-80486599D01*
X115597401Y-80598030D01*
X115684952Y-80729059D01*
X115745257Y-80874649D01*
X115776000Y-81029206D01*
X115776000Y-81186794D01*
X115745257Y-81341351D01*
X115684952Y-81486941D01*
X115597401Y-81617970D01*
X115485970Y-81729401D01*
X115354941Y-81816952D01*
X115209351Y-81877257D01*
X115054794Y-81908000D01*
X114897206Y-81908000D01*
X114742649Y-81877257D01*
X114597059Y-81816952D01*
X114466030Y-81729401D01*
X114354599Y-81617970D01*
X114267048Y-81486941D01*
X114206743Y-81341351D01*
X114176000Y-81186794D01*
X114176000Y-81029206D01*
X114206743Y-80874649D01*
X114267048Y-80729059D01*
X114354599Y-80598030D01*
X114466030Y-80486599D01*
X114597059Y-80399048D01*
X114742649Y-80338743D01*
X114897206Y-80308000D01*
X115054794Y-80308000D01*
X115209351Y-80338743D01*
G37*
G36*
X111787935Y-76967464D02*
G01*
X111942624Y-77031539D01*
X111942626Y-77031540D01*
X112081844Y-77124562D01*
X112200238Y-77242956D01*
X112280624Y-77363263D01*
X112293261Y-77382176D01*
X112357336Y-77536865D01*
X112390000Y-77701081D01*
X112390000Y-77868519D01*
X112357336Y-78032735D01*
X112340326Y-78073800D01*
X112293260Y-78187426D01*
X112200238Y-78326644D01*
X112081844Y-78445038D01*
X111942626Y-78538060D01*
X111942625Y-78538061D01*
X111942624Y-78538061D01*
X111787935Y-78602136D01*
X111623719Y-78634800D01*
X111456281Y-78634800D01*
X111292065Y-78602136D01*
X111137376Y-78538061D01*
X111137375Y-78538061D01*
X111137374Y-78538060D01*
X110998156Y-78445038D01*
X110879762Y-78326644D01*
X110786740Y-78187426D01*
X110739674Y-78073800D01*
X110722664Y-78032735D01*
X110690000Y-77868519D01*
X110690000Y-77701081D01*
X110722664Y-77536865D01*
X110786739Y-77382176D01*
X110799376Y-77363263D01*
X110879762Y-77242956D01*
X110998156Y-77124562D01*
X111137374Y-77031540D01*
X111137376Y-77031539D01*
X111292065Y-76967464D01*
X111456281Y-76934800D01*
X111623719Y-76934800D01*
X111787935Y-76967464D01*
G37*
G36*
X114327935Y-76967464D02*
G01*
X114482624Y-77031539D01*
X114482626Y-77031540D01*
X114621844Y-77124562D01*
X114740238Y-77242956D01*
X114820624Y-77363263D01*
X114833261Y-77382176D01*
X114897336Y-77536865D01*
X114930000Y-77701081D01*
X114930000Y-77868519D01*
X114897336Y-78032735D01*
X114880326Y-78073800D01*
X114833260Y-78187426D01*
X114740238Y-78326644D01*
X114621844Y-78445038D01*
X114482626Y-78538060D01*
X114482625Y-78538061D01*
X114482624Y-78538061D01*
X114327935Y-78602136D01*
X114163719Y-78634800D01*
X113996281Y-78634800D01*
X113832065Y-78602136D01*
X113677376Y-78538061D01*
X113677375Y-78538061D01*
X113677374Y-78538060D01*
X113538156Y-78445038D01*
X113419762Y-78326644D01*
X113326740Y-78187426D01*
X113279674Y-78073800D01*
X113262664Y-78032735D01*
X113230000Y-77868519D01*
X113230000Y-77701081D01*
X113262664Y-77536865D01*
X113326739Y-77382176D01*
X113339376Y-77363263D01*
X113419762Y-77242956D01*
X113538156Y-77124562D01*
X113677374Y-77031540D01*
X113677376Y-77031539D01*
X113832065Y-76967464D01*
X113996281Y-76934800D01*
X114163719Y-76934800D01*
X114327935Y-76967464D01*
G37*
G36*
X116867935Y-76967464D02*
G01*
X117022624Y-77031539D01*
X117022626Y-77031540D01*
X117161844Y-77124562D01*
X117280238Y-77242956D01*
X117360624Y-77363263D01*
X117373261Y-77382176D01*
X117437336Y-77536865D01*
X117470000Y-77701081D01*
X117470000Y-77868519D01*
X117437336Y-78032735D01*
X117420326Y-78073800D01*
X117373260Y-78187426D01*
X117280238Y-78326644D01*
X117161844Y-78445038D01*
X117022626Y-78538060D01*
X117022625Y-78538061D01*
X117022624Y-78538061D01*
X116867935Y-78602136D01*
X116703719Y-78634800D01*
X116536281Y-78634800D01*
X116372065Y-78602136D01*
X116217376Y-78538061D01*
X116217375Y-78538061D01*
X116217374Y-78538060D01*
X116078156Y-78445038D01*
X115959762Y-78326644D01*
X115866740Y-78187426D01*
X115819674Y-78073800D01*
X115802664Y-78032735D01*
X115770000Y-77868519D01*
X115770000Y-77701081D01*
X115802664Y-77536865D01*
X115866739Y-77382176D01*
X115879376Y-77363263D01*
X115959762Y-77242956D01*
X116078156Y-77124562D01*
X116217374Y-77031540D01*
X116217376Y-77031539D01*
X116372065Y-76967464D01*
X116536281Y-76934800D01*
X116703719Y-76934800D01*
X116867935Y-76967464D01*
G37*
G36*
X119407935Y-76967464D02*
G01*
X119562624Y-77031539D01*
X119562626Y-77031540D01*
X119701844Y-77124562D01*
X119820238Y-77242956D01*
X119900624Y-77363263D01*
X119913261Y-77382176D01*
X119977336Y-77536865D01*
X120010000Y-77701081D01*
X120010000Y-77868519D01*
X119977336Y-78032735D01*
X119960326Y-78073800D01*
X119913260Y-78187426D01*
X119820238Y-78326644D01*
X119701844Y-78445038D01*
X119562626Y-78538060D01*
X119562625Y-78538061D01*
X119562624Y-78538061D01*
X119407935Y-78602136D01*
X119243719Y-78634800D01*
X119076281Y-78634800D01*
X118912065Y-78602136D01*
X118757376Y-78538061D01*
X118757375Y-78538061D01*
X118757374Y-78538060D01*
X118618156Y-78445038D01*
X118499762Y-78326644D01*
X118406740Y-78187426D01*
X118359674Y-78073800D01*
X118342664Y-78032735D01*
X118310000Y-77868519D01*
X118310000Y-77701081D01*
X118342664Y-77536865D01*
X118406739Y-77382176D01*
X118419376Y-77363263D01*
X118499762Y-77242956D01*
X118618156Y-77124562D01*
X118757374Y-77031540D01*
X118757376Y-77031539D01*
X118912065Y-76967464D01*
X119076281Y-76934800D01*
X119243719Y-76934800D01*
X119407935Y-76967464D01*
G37*
G36*
X121947935Y-76967464D02*
G01*
X122102624Y-77031539D01*
X122102626Y-77031540D01*
X122241844Y-77124562D01*
X122360238Y-77242956D01*
X122440624Y-77363263D01*
X122453261Y-77382176D01*
X122517336Y-77536865D01*
X122550000Y-77701081D01*
X122550000Y-77868519D01*
X122517336Y-78032735D01*
X122500326Y-78073800D01*
X122453260Y-78187426D01*
X122360238Y-78326644D01*
X122241844Y-78445038D01*
X122102626Y-78538060D01*
X122102625Y-78538061D01*
X122102624Y-78538061D01*
X121947935Y-78602136D01*
X121783719Y-78634800D01*
X121616281Y-78634800D01*
X121452065Y-78602136D01*
X121297376Y-78538061D01*
X121297375Y-78538061D01*
X121297374Y-78538060D01*
X121158156Y-78445038D01*
X121039762Y-78326644D01*
X120946740Y-78187426D01*
X120899674Y-78073800D01*
X120882664Y-78032735D01*
X120850000Y-77868519D01*
X120850000Y-77701081D01*
X120882664Y-77536865D01*
X120946739Y-77382176D01*
X120959376Y-77363263D01*
X121039762Y-77242956D01*
X121158156Y-77124562D01*
X121297374Y-77031540D01*
X121297376Y-77031539D01*
X121452065Y-76967464D01*
X121616281Y-76934800D01*
X121783719Y-76934800D01*
X121947935Y-76967464D01*
G37*
G36*
X129567935Y-76967464D02*
G01*
X129722624Y-77031539D01*
X129722626Y-77031540D01*
X129861844Y-77124562D01*
X129980238Y-77242956D01*
X130060624Y-77363263D01*
X130073261Y-77382176D01*
X130137336Y-77536865D01*
X130170000Y-77701081D01*
X130170000Y-77868519D01*
X130137336Y-78032735D01*
X130120326Y-78073800D01*
X130073260Y-78187426D01*
X129980238Y-78326644D01*
X129861844Y-78445038D01*
X129722626Y-78538060D01*
X129722625Y-78538061D01*
X129722624Y-78538061D01*
X129567935Y-78602136D01*
X129403719Y-78634800D01*
X129236281Y-78634800D01*
X129072065Y-78602136D01*
X128917376Y-78538061D01*
X128917375Y-78538061D01*
X128917374Y-78538060D01*
X128778156Y-78445038D01*
X128659762Y-78326644D01*
X128566740Y-78187426D01*
X128519674Y-78073800D01*
X128502664Y-78032735D01*
X128470000Y-77868519D01*
X128470000Y-77701081D01*
X128502664Y-77536865D01*
X128566739Y-77382176D01*
X128579376Y-77363263D01*
X128659762Y-77242956D01*
X128778156Y-77124562D01*
X128917374Y-77031540D01*
X128917376Y-77031539D01*
X129072065Y-76967464D01*
X129236281Y-76934800D01*
X129403719Y-76934800D01*
X129567935Y-76967464D01*
G37*
G36*
X127027935Y-76967464D02*
G01*
X127182624Y-77031539D01*
X127182626Y-77031540D01*
X127321844Y-77124562D01*
X127440238Y-77242956D01*
X127520624Y-77363263D01*
X127533261Y-77382176D01*
X127597336Y-77536865D01*
X127630000Y-77701081D01*
X127630000Y-77868519D01*
X127597336Y-78032735D01*
X127580326Y-78073800D01*
X127533260Y-78187426D01*
X127440238Y-78326644D01*
X127321844Y-78445038D01*
X127182626Y-78538060D01*
X127182625Y-78538061D01*
X127182624Y-78538061D01*
X127027935Y-78602136D01*
X126863719Y-78634800D01*
X126696281Y-78634800D01*
X126532065Y-78602136D01*
X126377376Y-78538061D01*
X126377375Y-78538061D01*
X126377374Y-78538060D01*
X126238156Y-78445038D01*
X126119762Y-78326644D01*
X126026740Y-78187426D01*
X125979674Y-78073800D01*
X125962664Y-78032735D01*
X125930000Y-77868519D01*
X125930000Y-77701081D01*
X125962664Y-77536865D01*
X126026739Y-77382176D01*
X126039376Y-77363263D01*
X126119762Y-77242956D01*
X126238156Y-77124562D01*
X126377374Y-77031540D01*
X126377376Y-77031539D01*
X126532065Y-76967464D01*
X126696281Y-76934800D01*
X126863719Y-76934800D01*
X127027935Y-76967464D01*
G37*
G36*
X142267935Y-76967464D02*
G01*
X142422624Y-77031539D01*
X142422626Y-77031540D01*
X142561844Y-77124562D01*
X142680238Y-77242956D01*
X142760624Y-77363263D01*
X142773261Y-77382176D01*
X142837336Y-77536865D01*
X142870000Y-77701081D01*
X142870000Y-77868519D01*
X142837336Y-78032735D01*
X142820326Y-78073800D01*
X142773260Y-78187426D01*
X142680238Y-78326644D01*
X142561844Y-78445038D01*
X142422626Y-78538060D01*
X142422625Y-78538061D01*
X142422624Y-78538061D01*
X142267935Y-78602136D01*
X142103719Y-78634800D01*
X141936281Y-78634800D01*
X141772065Y-78602136D01*
X141617376Y-78538061D01*
X141617375Y-78538061D01*
X141617374Y-78538060D01*
X141478156Y-78445038D01*
X141359762Y-78326644D01*
X141266740Y-78187426D01*
X141219674Y-78073800D01*
X141202664Y-78032735D01*
X141170000Y-77868519D01*
X141170000Y-77701081D01*
X141202664Y-77536865D01*
X141266739Y-77382176D01*
X141279376Y-77363263D01*
X141359762Y-77242956D01*
X141478156Y-77124562D01*
X141617374Y-77031540D01*
X141617376Y-77031539D01*
X141772065Y-76967464D01*
X141936281Y-76934800D01*
X142103719Y-76934800D01*
X142267935Y-76967464D01*
G37*
G36*
X139727935Y-76967464D02*
G01*
X139882624Y-77031539D01*
X139882626Y-77031540D01*
X140021844Y-77124562D01*
X140140238Y-77242956D01*
X140220624Y-77363263D01*
X140233261Y-77382176D01*
X140297336Y-77536865D01*
X140330000Y-77701081D01*
X140330000Y-77868519D01*
X140297336Y-78032735D01*
X140280326Y-78073800D01*
X140233260Y-78187426D01*
X140140238Y-78326644D01*
X140021844Y-78445038D01*
X139882626Y-78538060D01*
X139882625Y-78538061D01*
X139882624Y-78538061D01*
X139727935Y-78602136D01*
X139563719Y-78634800D01*
X139396281Y-78634800D01*
X139232065Y-78602136D01*
X139077376Y-78538061D01*
X139077375Y-78538061D01*
X139077374Y-78538060D01*
X138938156Y-78445038D01*
X138819762Y-78326644D01*
X138726740Y-78187426D01*
X138679674Y-78073800D01*
X138662664Y-78032735D01*
X138630000Y-77868519D01*
X138630000Y-77701081D01*
X138662664Y-77536865D01*
X138726739Y-77382176D01*
X138739376Y-77363263D01*
X138819762Y-77242956D01*
X138938156Y-77124562D01*
X139077374Y-77031540D01*
X139077376Y-77031539D01*
X139232065Y-76967464D01*
X139396281Y-76934800D01*
X139563719Y-76934800D01*
X139727935Y-76967464D01*
G37*
G36*
X137187935Y-76967464D02*
G01*
X137342624Y-77031539D01*
X137342626Y-77031540D01*
X137481844Y-77124562D01*
X137600238Y-77242956D01*
X137680624Y-77363263D01*
X137693261Y-77382176D01*
X137757336Y-77536865D01*
X137790000Y-77701081D01*
X137790000Y-77868519D01*
X137757336Y-78032735D01*
X137740326Y-78073800D01*
X137693260Y-78187426D01*
X137600238Y-78326644D01*
X137481844Y-78445038D01*
X137342626Y-78538060D01*
X137342625Y-78538061D01*
X137342624Y-78538061D01*
X137187935Y-78602136D01*
X137023719Y-78634800D01*
X136856281Y-78634800D01*
X136692065Y-78602136D01*
X136537376Y-78538061D01*
X136537375Y-78538061D01*
X136537374Y-78538060D01*
X136398156Y-78445038D01*
X136279762Y-78326644D01*
X136186740Y-78187426D01*
X136139674Y-78073800D01*
X136122664Y-78032735D01*
X136090000Y-77868519D01*
X136090000Y-77701081D01*
X136122664Y-77536865D01*
X136186739Y-77382176D01*
X136199376Y-77363263D01*
X136279762Y-77242956D01*
X136398156Y-77124562D01*
X136537374Y-77031540D01*
X136537376Y-77031539D01*
X136692065Y-76967464D01*
X136856281Y-76934800D01*
X137023719Y-76934800D01*
X137187935Y-76967464D01*
G37*
G36*
X134647935Y-76967464D02*
G01*
X134802624Y-77031539D01*
X134802626Y-77031540D01*
X134941844Y-77124562D01*
X135060238Y-77242956D01*
X135140624Y-77363263D01*
X135153261Y-77382176D01*
X135217336Y-77536865D01*
X135250000Y-77701081D01*
X135250000Y-77868519D01*
X135217336Y-78032735D01*
X135200326Y-78073800D01*
X135153260Y-78187426D01*
X135060238Y-78326644D01*
X134941844Y-78445038D01*
X134802626Y-78538060D01*
X134802625Y-78538061D01*
X134802624Y-78538061D01*
X134647935Y-78602136D01*
X134483719Y-78634800D01*
X134316281Y-78634800D01*
X134152065Y-78602136D01*
X133997376Y-78538061D01*
X133997375Y-78538061D01*
X133997374Y-78538060D01*
X133858156Y-78445038D01*
X133739762Y-78326644D01*
X133646740Y-78187426D01*
X133599674Y-78073800D01*
X133582664Y-78032735D01*
X133550000Y-77868519D01*
X133550000Y-77701081D01*
X133582664Y-77536865D01*
X133646739Y-77382176D01*
X133659376Y-77363263D01*
X133739762Y-77242956D01*
X133858156Y-77124562D01*
X133997374Y-77031540D01*
X133997376Y-77031539D01*
X134152065Y-76967464D01*
X134316281Y-76934800D01*
X134483719Y-76934800D01*
X134647935Y-76967464D01*
G37*
G36*
X132107935Y-76967464D02*
G01*
X132262624Y-77031539D01*
X132262626Y-77031540D01*
X132401844Y-77124562D01*
X132520238Y-77242956D01*
X132600624Y-77363263D01*
X132613261Y-77382176D01*
X132677336Y-77536865D01*
X132710000Y-77701081D01*
X132710000Y-77868519D01*
X132677336Y-78032735D01*
X132660326Y-78073800D01*
X132613260Y-78187426D01*
X132520238Y-78326644D01*
X132401844Y-78445038D01*
X132262626Y-78538060D01*
X132262625Y-78538061D01*
X132262624Y-78538061D01*
X132107935Y-78602136D01*
X131943719Y-78634800D01*
X131776281Y-78634800D01*
X131612065Y-78602136D01*
X131457376Y-78538061D01*
X131457375Y-78538061D01*
X131457374Y-78538060D01*
X131318156Y-78445038D01*
X131199762Y-78326644D01*
X131106740Y-78187426D01*
X131059674Y-78073800D01*
X131042664Y-78032735D01*
X131010000Y-77868519D01*
X131010000Y-77701081D01*
X131042664Y-77536865D01*
X131106739Y-77382176D01*
X131119376Y-77363263D01*
X131199762Y-77242956D01*
X131318156Y-77124562D01*
X131457374Y-77031540D01*
X131457376Y-77031539D01*
X131612065Y-76967464D01*
X131776281Y-76934800D01*
X131943719Y-76934800D01*
X132107935Y-76967464D01*
G37*
G36*
X124487935Y-76967464D02*
G01*
X124642624Y-77031539D01*
X124642626Y-77031540D01*
X124781844Y-77124562D01*
X124900238Y-77242956D01*
X124980624Y-77363263D01*
X124993261Y-77382176D01*
X125057336Y-77536865D01*
X125090000Y-77701081D01*
X125090000Y-77868519D01*
X125057336Y-78032735D01*
X125040326Y-78073800D01*
X124993260Y-78187426D01*
X124900238Y-78326644D01*
X124781844Y-78445038D01*
X124642626Y-78538060D01*
X124642625Y-78538061D01*
X124642624Y-78538061D01*
X124487935Y-78602136D01*
X124323719Y-78634800D01*
X124156281Y-78634800D01*
X123992065Y-78602136D01*
X123837376Y-78538061D01*
X123837375Y-78538061D01*
X123837374Y-78538060D01*
X123698156Y-78445038D01*
X123579762Y-78326644D01*
X123486740Y-78187426D01*
X123439674Y-78073800D01*
X123422664Y-78032735D01*
X123390000Y-77868519D01*
X123390000Y-77701081D01*
X123422664Y-77536865D01*
X123486739Y-77382176D01*
X123499376Y-77363263D01*
X123579762Y-77242956D01*
X123698156Y-77124562D01*
X123837374Y-77031540D01*
X123837376Y-77031539D01*
X123992065Y-76967464D01*
X124156281Y-76934800D01*
X124323719Y-76934800D01*
X124487935Y-76967464D01*
G37*
G36*
X144807935Y-76967464D02*
G01*
X144962624Y-77031539D01*
X144962626Y-77031540D01*
X145101844Y-77124562D01*
X145220238Y-77242956D01*
X145300624Y-77363263D01*
X145313261Y-77382176D01*
X145377336Y-77536865D01*
X145410000Y-77701081D01*
X145410000Y-77868519D01*
X145377336Y-78032735D01*
X145360326Y-78073800D01*
X145313260Y-78187426D01*
X145220238Y-78326644D01*
X145101844Y-78445038D01*
X144962626Y-78538060D01*
X144962625Y-78538061D01*
X144962624Y-78538061D01*
X144807935Y-78602136D01*
X144643719Y-78634800D01*
X144476281Y-78634800D01*
X144312065Y-78602136D01*
X144157376Y-78538061D01*
X144157375Y-78538061D01*
X144157374Y-78538060D01*
X144018156Y-78445038D01*
X143899762Y-78326644D01*
X143806740Y-78187426D01*
X143759674Y-78073800D01*
X143742664Y-78032735D01*
X143710000Y-77868519D01*
X143710000Y-77701081D01*
X143742664Y-77536865D01*
X143806739Y-77382176D01*
X143819376Y-77363263D01*
X143899762Y-77242956D01*
X144018156Y-77124562D01*
X144157374Y-77031540D01*
X144157376Y-77031539D01*
X144312065Y-76967464D01*
X144476281Y-76934800D01*
X144643719Y-76934800D01*
X144807935Y-76967464D01*
G37*
G36*
X154967935Y-76967464D02*
G01*
X155122624Y-77031539D01*
X155122626Y-77031540D01*
X155261844Y-77124562D01*
X155380238Y-77242956D01*
X155460624Y-77363263D01*
X155473261Y-77382176D01*
X155537336Y-77536865D01*
X155570000Y-77701081D01*
X155570000Y-77868519D01*
X155537336Y-78032735D01*
X155520326Y-78073800D01*
X155473260Y-78187426D01*
X155380238Y-78326644D01*
X155261844Y-78445038D01*
X155122626Y-78538060D01*
X155122625Y-78538061D01*
X155122624Y-78538061D01*
X154967935Y-78602136D01*
X154803719Y-78634800D01*
X154636281Y-78634800D01*
X154472065Y-78602136D01*
X154317376Y-78538061D01*
X154317375Y-78538061D01*
X154317374Y-78538060D01*
X154178156Y-78445038D01*
X154059762Y-78326644D01*
X153966740Y-78187426D01*
X153919674Y-78073800D01*
X153902664Y-78032735D01*
X153870000Y-77868519D01*
X153870000Y-77701081D01*
X153902664Y-77536865D01*
X153966739Y-77382176D01*
X153979376Y-77363263D01*
X154059762Y-77242956D01*
X154178156Y-77124562D01*
X154317374Y-77031540D01*
X154317376Y-77031539D01*
X154472065Y-76967464D01*
X154636281Y-76934800D01*
X154803719Y-76934800D01*
X154967935Y-76967464D01*
G37*
G36*
X147347935Y-76967464D02*
G01*
X147502624Y-77031539D01*
X147502626Y-77031540D01*
X147641844Y-77124562D01*
X147760238Y-77242956D01*
X147840624Y-77363263D01*
X147853261Y-77382176D01*
X147917336Y-77536865D01*
X147950000Y-77701081D01*
X147950000Y-77868519D01*
X147917336Y-78032735D01*
X147900326Y-78073800D01*
X147853260Y-78187426D01*
X147760238Y-78326644D01*
X147641844Y-78445038D01*
X147502626Y-78538060D01*
X147502625Y-78538061D01*
X147502624Y-78538061D01*
X147347935Y-78602136D01*
X147183719Y-78634800D01*
X147016281Y-78634800D01*
X146852065Y-78602136D01*
X146697376Y-78538061D01*
X146697375Y-78538061D01*
X146697374Y-78538060D01*
X146558156Y-78445038D01*
X146439762Y-78326644D01*
X146346740Y-78187426D01*
X146299674Y-78073800D01*
X146282664Y-78032735D01*
X146250000Y-77868519D01*
X146250000Y-77701081D01*
X146282664Y-77536865D01*
X146346739Y-77382176D01*
X146359376Y-77363263D01*
X146439762Y-77242956D01*
X146558156Y-77124562D01*
X146697374Y-77031540D01*
X146697376Y-77031539D01*
X146852065Y-76967464D01*
X147016281Y-76934800D01*
X147183719Y-76934800D01*
X147347935Y-76967464D01*
G37*
G36*
X149887935Y-76967464D02*
G01*
X150042624Y-77031539D01*
X150042626Y-77031540D01*
X150181844Y-77124562D01*
X150300238Y-77242956D01*
X150380624Y-77363263D01*
X150393261Y-77382176D01*
X150457336Y-77536865D01*
X150490000Y-77701081D01*
X150490000Y-77868519D01*
X150457336Y-78032735D01*
X150440326Y-78073800D01*
X150393260Y-78187426D01*
X150300238Y-78326644D01*
X150181844Y-78445038D01*
X150042626Y-78538060D01*
X150042625Y-78538061D01*
X150042624Y-78538061D01*
X149887935Y-78602136D01*
X149723719Y-78634800D01*
X149556281Y-78634800D01*
X149392065Y-78602136D01*
X149237376Y-78538061D01*
X149237375Y-78538061D01*
X149237374Y-78538060D01*
X149098156Y-78445038D01*
X148979762Y-78326644D01*
X148886740Y-78187426D01*
X148839674Y-78073800D01*
X148822664Y-78032735D01*
X148790000Y-77868519D01*
X148790000Y-77701081D01*
X148822664Y-77536865D01*
X148886739Y-77382176D01*
X148899376Y-77363263D01*
X148979762Y-77242956D01*
X149098156Y-77124562D01*
X149237374Y-77031540D01*
X149237376Y-77031539D01*
X149392065Y-76967464D01*
X149556281Y-76934800D01*
X149723719Y-76934800D01*
X149887935Y-76967464D01*
G37*
G36*
X152427935Y-76967464D02*
G01*
X152582624Y-77031539D01*
X152582626Y-77031540D01*
X152721844Y-77124562D01*
X152840238Y-77242956D01*
X152920624Y-77363263D01*
X152933261Y-77382176D01*
X152997336Y-77536865D01*
X153030000Y-77701081D01*
X153030000Y-77868519D01*
X152997336Y-78032735D01*
X152980326Y-78073800D01*
X152933260Y-78187426D01*
X152840238Y-78326644D01*
X152721844Y-78445038D01*
X152582626Y-78538060D01*
X152582625Y-78538061D01*
X152582624Y-78538061D01*
X152427935Y-78602136D01*
X152263719Y-78634800D01*
X152096281Y-78634800D01*
X151932065Y-78602136D01*
X151777376Y-78538061D01*
X151777375Y-78538061D01*
X151777374Y-78538060D01*
X151638156Y-78445038D01*
X151519762Y-78326644D01*
X151426740Y-78187426D01*
X151379674Y-78073800D01*
X151362664Y-78032735D01*
X151330000Y-77868519D01*
X151330000Y-77701081D01*
X151362664Y-77536865D01*
X151426739Y-77382176D01*
X151439376Y-77363263D01*
X151519762Y-77242956D01*
X151638156Y-77124562D01*
X151777374Y-77031540D01*
X151777376Y-77031539D01*
X151932065Y-76967464D01*
X152096281Y-76934800D01*
X152263719Y-76934800D01*
X152427935Y-76967464D01*
G37*
G36*
X157507935Y-76967464D02*
G01*
X157662624Y-77031539D01*
X157662626Y-77031540D01*
X157801844Y-77124562D01*
X157920238Y-77242956D01*
X158000624Y-77363263D01*
X158013261Y-77382176D01*
X158077336Y-77536865D01*
X158110000Y-77701081D01*
X158110000Y-77868519D01*
X158077336Y-78032735D01*
X158060326Y-78073800D01*
X158013260Y-78187426D01*
X157920238Y-78326644D01*
X157801844Y-78445038D01*
X157662626Y-78538060D01*
X157662625Y-78538061D01*
X157662624Y-78538061D01*
X157507935Y-78602136D01*
X157343719Y-78634800D01*
X157176281Y-78634800D01*
X157012065Y-78602136D01*
X156857376Y-78538061D01*
X156857375Y-78538061D01*
X156857374Y-78538060D01*
X156718156Y-78445038D01*
X156599762Y-78326644D01*
X156506740Y-78187426D01*
X156459674Y-78073800D01*
X156442664Y-78032735D01*
X156410000Y-77868519D01*
X156410000Y-77701081D01*
X156442664Y-77536865D01*
X156506739Y-77382176D01*
X156519376Y-77363263D01*
X156599762Y-77242956D01*
X156718156Y-77124562D01*
X156857374Y-77031540D01*
X156857376Y-77031539D01*
X157012065Y-76967464D01*
X157176281Y-76934800D01*
X157343719Y-76934800D01*
X157507935Y-76967464D01*
G37*
G36*
X109850000Y-78634800D02*
G01*
X108150000Y-78634800D01*
X108150000Y-76934800D01*
X109850000Y-76934800D01*
X109850000Y-78634800D01*
G37*
G36*
X104544779Y-75425679D02*
G01*
X104706668Y-75492736D01*
X104790465Y-75527446D01*
X105011575Y-75675187D01*
X105199613Y-75863225D01*
X105289708Y-75998061D01*
X105347355Y-76084337D01*
X105449121Y-76330021D01*
X105501000Y-76590835D01*
X105501000Y-76856765D01*
X105449121Y-77117579D01*
X105350623Y-77355374D01*
X105347354Y-77363265D01*
X105199613Y-77584375D01*
X105011575Y-77772413D01*
X104790465Y-77920154D01*
X104790464Y-77920155D01*
X104790463Y-77920155D01*
X104544779Y-78021921D01*
X104283965Y-78073800D01*
X104018035Y-78073800D01*
X103757221Y-78021921D01*
X103511537Y-77920155D01*
X103511536Y-77920155D01*
X103511535Y-77920154D01*
X103290425Y-77772413D01*
X103102387Y-77584375D01*
X102954646Y-77363265D01*
X102951377Y-77355374D01*
X102852879Y-77117579D01*
X102801000Y-76856765D01*
X102801000Y-76590835D01*
X102852879Y-76330021D01*
X102954645Y-76084337D01*
X103012293Y-75998061D01*
X103102387Y-75863225D01*
X103290425Y-75675187D01*
X103511535Y-75527446D01*
X103595332Y-75492736D01*
X103757221Y-75425679D01*
X104018035Y-75373800D01*
X104283965Y-75373800D01*
X104544779Y-75425679D01*
G37*
G36*
X162493779Y-75196679D02*
G01*
X162739463Y-75298445D01*
X162739465Y-75298446D01*
X162784471Y-75328518D01*
X162960574Y-75446186D01*
X163148614Y-75634226D01*
X163296355Y-75855337D01*
X163398121Y-76101021D01*
X163450000Y-76361835D01*
X163450000Y-76627765D01*
X163398121Y-76888579D01*
X163338904Y-77031540D01*
X163296354Y-77134265D01*
X163148613Y-77355375D01*
X162960575Y-77543413D01*
X162739465Y-77691154D01*
X162739464Y-77691155D01*
X162739463Y-77691155D01*
X162493779Y-77792921D01*
X162232965Y-77844800D01*
X161967035Y-77844800D01*
X161706221Y-77792921D01*
X161460537Y-77691155D01*
X161460536Y-77691155D01*
X161460535Y-77691154D01*
X161239425Y-77543413D01*
X161051387Y-77355375D01*
X160903646Y-77134265D01*
X160861096Y-77031540D01*
X160801879Y-76888579D01*
X160750000Y-76627765D01*
X160750000Y-76361835D01*
X160801879Y-76101021D01*
X160903645Y-75855337D01*
X161051386Y-75634226D01*
X161239426Y-75446186D01*
X161415529Y-75328518D01*
X161460535Y-75298446D01*
X161460537Y-75298445D01*
X161706221Y-75196679D01*
X161967035Y-75144800D01*
X162232965Y-75144800D01*
X162493779Y-75196679D01*
G37*
G36*
X157507935Y-74427464D02*
G01*
X157662624Y-74491539D01*
X157662626Y-74491540D01*
X157801844Y-74584562D01*
X157920238Y-74702956D01*
X158013260Y-74842174D01*
X158013261Y-74842176D01*
X158077336Y-74996865D01*
X158110000Y-75161081D01*
X158110000Y-75328519D01*
X158077336Y-75492735D01*
X158062958Y-75527445D01*
X158013260Y-75647426D01*
X157920238Y-75786644D01*
X157801844Y-75905038D01*
X157662626Y-75998060D01*
X157662625Y-75998061D01*
X157662624Y-75998061D01*
X157507935Y-76062136D01*
X157343719Y-76094800D01*
X157176281Y-76094800D01*
X157012065Y-76062136D01*
X156857376Y-75998061D01*
X156857375Y-75998061D01*
X156857374Y-75998060D01*
X156718156Y-75905038D01*
X156599762Y-75786644D01*
X156506740Y-75647426D01*
X156457042Y-75527445D01*
X156442664Y-75492735D01*
X156410000Y-75328519D01*
X156410000Y-75161081D01*
X156442664Y-74996865D01*
X156506739Y-74842176D01*
X156506740Y-74842174D01*
X156599762Y-74702956D01*
X156718156Y-74584562D01*
X156857374Y-74491540D01*
X156857376Y-74491539D01*
X157012065Y-74427464D01*
X157176281Y-74394800D01*
X157343719Y-74394800D01*
X157507935Y-74427464D01*
G37*
G36*
X127027935Y-74427464D02*
G01*
X127182624Y-74491539D01*
X127182626Y-74491540D01*
X127321844Y-74584562D01*
X127440238Y-74702956D01*
X127533260Y-74842174D01*
X127533261Y-74842176D01*
X127597336Y-74996865D01*
X127630000Y-75161081D01*
X127630000Y-75328519D01*
X127597336Y-75492735D01*
X127582958Y-75527445D01*
X127533260Y-75647426D01*
X127440238Y-75786644D01*
X127321844Y-75905038D01*
X127182626Y-75998060D01*
X127182625Y-75998061D01*
X127182624Y-75998061D01*
X127027935Y-76062136D01*
X126863719Y-76094800D01*
X126696281Y-76094800D01*
X126532065Y-76062136D01*
X126377376Y-75998061D01*
X126377375Y-75998061D01*
X126377374Y-75998060D01*
X126238156Y-75905038D01*
X126119762Y-75786644D01*
X126026740Y-75647426D01*
X125977042Y-75527445D01*
X125962664Y-75492735D01*
X125930000Y-75328519D01*
X125930000Y-75161081D01*
X125962664Y-74996865D01*
X126026739Y-74842176D01*
X126026740Y-74842174D01*
X126119762Y-74702956D01*
X126238156Y-74584562D01*
X126377374Y-74491540D01*
X126377376Y-74491539D01*
X126532065Y-74427464D01*
X126696281Y-74394800D01*
X126863719Y-74394800D01*
X127027935Y-74427464D01*
G37*
G36*
X154967935Y-74427464D02*
G01*
X155122624Y-74491539D01*
X155122626Y-74491540D01*
X155261844Y-74584562D01*
X155380238Y-74702956D01*
X155473260Y-74842174D01*
X155473261Y-74842176D01*
X155537336Y-74996865D01*
X155570000Y-75161081D01*
X155570000Y-75328519D01*
X155537336Y-75492735D01*
X155522958Y-75527445D01*
X155473260Y-75647426D01*
X155380238Y-75786644D01*
X155261844Y-75905038D01*
X155122626Y-75998060D01*
X155122625Y-75998061D01*
X155122624Y-75998061D01*
X154967935Y-76062136D01*
X154803719Y-76094800D01*
X154636281Y-76094800D01*
X154472065Y-76062136D01*
X154317376Y-75998061D01*
X154317375Y-75998061D01*
X154317374Y-75998060D01*
X154178156Y-75905038D01*
X154059762Y-75786644D01*
X153966740Y-75647426D01*
X153917042Y-75527445D01*
X153902664Y-75492735D01*
X153870000Y-75328519D01*
X153870000Y-75161081D01*
X153902664Y-74996865D01*
X153966739Y-74842176D01*
X153966740Y-74842174D01*
X154059762Y-74702956D01*
X154178156Y-74584562D01*
X154317374Y-74491540D01*
X154317376Y-74491539D01*
X154472065Y-74427464D01*
X154636281Y-74394800D01*
X154803719Y-74394800D01*
X154967935Y-74427464D01*
G37*
G36*
X152427935Y-74427464D02*
G01*
X152582624Y-74491539D01*
X152582626Y-74491540D01*
X152721844Y-74584562D01*
X152840238Y-74702956D01*
X152933260Y-74842174D01*
X152933261Y-74842176D01*
X152997336Y-74996865D01*
X153030000Y-75161081D01*
X153030000Y-75328519D01*
X152997336Y-75492735D01*
X152982958Y-75527445D01*
X152933260Y-75647426D01*
X152840238Y-75786644D01*
X152721844Y-75905038D01*
X152582626Y-75998060D01*
X152582625Y-75998061D01*
X152582624Y-75998061D01*
X152427935Y-76062136D01*
X152263719Y-76094800D01*
X152096281Y-76094800D01*
X151932065Y-76062136D01*
X151777376Y-75998061D01*
X151777375Y-75998061D01*
X151777374Y-75998060D01*
X151638156Y-75905038D01*
X151519762Y-75786644D01*
X151426740Y-75647426D01*
X151377042Y-75527445D01*
X151362664Y-75492735D01*
X151330000Y-75328519D01*
X151330000Y-75161081D01*
X151362664Y-74996865D01*
X151426739Y-74842176D01*
X151426740Y-74842174D01*
X151519762Y-74702956D01*
X151638156Y-74584562D01*
X151777374Y-74491540D01*
X151777376Y-74491539D01*
X151932065Y-74427464D01*
X152096281Y-74394800D01*
X152263719Y-74394800D01*
X152427935Y-74427464D01*
G37*
G36*
X149887935Y-74427464D02*
G01*
X150042624Y-74491539D01*
X150042626Y-74491540D01*
X150181844Y-74584562D01*
X150300238Y-74702956D01*
X150393260Y-74842174D01*
X150393261Y-74842176D01*
X150457336Y-74996865D01*
X150490000Y-75161081D01*
X150490000Y-75328519D01*
X150457336Y-75492735D01*
X150442958Y-75527445D01*
X150393260Y-75647426D01*
X150300238Y-75786644D01*
X150181844Y-75905038D01*
X150042626Y-75998060D01*
X150042625Y-75998061D01*
X150042624Y-75998061D01*
X149887935Y-76062136D01*
X149723719Y-76094800D01*
X149556281Y-76094800D01*
X149392065Y-76062136D01*
X149237376Y-75998061D01*
X149237375Y-75998061D01*
X149237374Y-75998060D01*
X149098156Y-75905038D01*
X148979762Y-75786644D01*
X148886740Y-75647426D01*
X148837042Y-75527445D01*
X148822664Y-75492735D01*
X148790000Y-75328519D01*
X148790000Y-75161081D01*
X148822664Y-74996865D01*
X148886739Y-74842176D01*
X148886740Y-74842174D01*
X148979762Y-74702956D01*
X149098156Y-74584562D01*
X149237374Y-74491540D01*
X149237376Y-74491539D01*
X149392065Y-74427464D01*
X149556281Y-74394800D01*
X149723719Y-74394800D01*
X149887935Y-74427464D01*
G37*
G36*
X147347935Y-74427464D02*
G01*
X147502624Y-74491539D01*
X147502626Y-74491540D01*
X147641844Y-74584562D01*
X147760238Y-74702956D01*
X147853260Y-74842174D01*
X147853261Y-74842176D01*
X147917336Y-74996865D01*
X147950000Y-75161081D01*
X147950000Y-75328519D01*
X147917336Y-75492735D01*
X147902958Y-75527445D01*
X147853260Y-75647426D01*
X147760238Y-75786644D01*
X147641844Y-75905038D01*
X147502626Y-75998060D01*
X147502625Y-75998061D01*
X147502624Y-75998061D01*
X147347935Y-76062136D01*
X147183719Y-76094800D01*
X147016281Y-76094800D01*
X146852065Y-76062136D01*
X146697376Y-75998061D01*
X146697375Y-75998061D01*
X146697374Y-75998060D01*
X146558156Y-75905038D01*
X146439762Y-75786644D01*
X146346740Y-75647426D01*
X146297042Y-75527445D01*
X146282664Y-75492735D01*
X146250000Y-75328519D01*
X146250000Y-75161081D01*
X146282664Y-74996865D01*
X146346739Y-74842176D01*
X146346740Y-74842174D01*
X146439762Y-74702956D01*
X146558156Y-74584562D01*
X146697374Y-74491540D01*
X146697376Y-74491539D01*
X146852065Y-74427464D01*
X147016281Y-74394800D01*
X147183719Y-74394800D01*
X147347935Y-74427464D01*
G37*
G36*
X109247935Y-74427464D02*
G01*
X109402624Y-74491539D01*
X109402626Y-74491540D01*
X109541844Y-74584562D01*
X109660238Y-74702956D01*
X109753260Y-74842174D01*
X109753261Y-74842176D01*
X109817336Y-74996865D01*
X109850000Y-75161081D01*
X109850000Y-75328519D01*
X109817336Y-75492735D01*
X109802958Y-75527445D01*
X109753260Y-75647426D01*
X109660238Y-75786644D01*
X109541844Y-75905038D01*
X109402626Y-75998060D01*
X109402625Y-75998061D01*
X109402624Y-75998061D01*
X109247935Y-76062136D01*
X109083719Y-76094800D01*
X108916281Y-76094800D01*
X108752065Y-76062136D01*
X108597376Y-75998061D01*
X108597375Y-75998061D01*
X108597374Y-75998060D01*
X108458156Y-75905038D01*
X108339762Y-75786644D01*
X108246740Y-75647426D01*
X108197042Y-75527445D01*
X108182664Y-75492735D01*
X108150000Y-75328519D01*
X108150000Y-75161081D01*
X108182664Y-74996865D01*
X108246739Y-74842176D01*
X108246740Y-74842174D01*
X108339762Y-74702956D01*
X108458156Y-74584562D01*
X108597374Y-74491540D01*
X108597376Y-74491539D01*
X108752065Y-74427464D01*
X108916281Y-74394800D01*
X109083719Y-74394800D01*
X109247935Y-74427464D01*
G37*
G36*
X144807935Y-74427464D02*
G01*
X144962624Y-74491539D01*
X144962626Y-74491540D01*
X145101844Y-74584562D01*
X145220238Y-74702956D01*
X145313260Y-74842174D01*
X145313261Y-74842176D01*
X145377336Y-74996865D01*
X145410000Y-75161081D01*
X145410000Y-75328519D01*
X145377336Y-75492735D01*
X145362958Y-75527445D01*
X145313260Y-75647426D01*
X145220238Y-75786644D01*
X145101844Y-75905038D01*
X144962626Y-75998060D01*
X144962625Y-75998061D01*
X144962624Y-75998061D01*
X144807935Y-76062136D01*
X144643719Y-76094800D01*
X144476281Y-76094800D01*
X144312065Y-76062136D01*
X144157376Y-75998061D01*
X144157375Y-75998061D01*
X144157374Y-75998060D01*
X144018156Y-75905038D01*
X143899762Y-75786644D01*
X143806740Y-75647426D01*
X143757042Y-75527445D01*
X143742664Y-75492735D01*
X143710000Y-75328519D01*
X143710000Y-75161081D01*
X143742664Y-74996865D01*
X143806739Y-74842176D01*
X143806740Y-74842174D01*
X143899762Y-74702956D01*
X144018156Y-74584562D01*
X144157374Y-74491540D01*
X144157376Y-74491539D01*
X144312065Y-74427464D01*
X144476281Y-74394800D01*
X144643719Y-74394800D01*
X144807935Y-74427464D01*
G37*
G36*
X111787935Y-74427464D02*
G01*
X111942624Y-74491539D01*
X111942626Y-74491540D01*
X112081844Y-74584562D01*
X112200238Y-74702956D01*
X112293260Y-74842174D01*
X112293261Y-74842176D01*
X112357336Y-74996865D01*
X112390000Y-75161081D01*
X112390000Y-75328519D01*
X112357336Y-75492735D01*
X112342958Y-75527445D01*
X112293260Y-75647426D01*
X112200238Y-75786644D01*
X112081844Y-75905038D01*
X111942626Y-75998060D01*
X111942625Y-75998061D01*
X111942624Y-75998061D01*
X111787935Y-76062136D01*
X111623719Y-76094800D01*
X111456281Y-76094800D01*
X111292065Y-76062136D01*
X111137376Y-75998061D01*
X111137375Y-75998061D01*
X111137374Y-75998060D01*
X110998156Y-75905038D01*
X110879762Y-75786644D01*
X110786740Y-75647426D01*
X110737042Y-75527445D01*
X110722664Y-75492735D01*
X110690000Y-75328519D01*
X110690000Y-75161081D01*
X110722664Y-74996865D01*
X110786739Y-74842176D01*
X110786740Y-74842174D01*
X110879762Y-74702956D01*
X110998156Y-74584562D01*
X111137374Y-74491540D01*
X111137376Y-74491539D01*
X111292065Y-74427464D01*
X111456281Y-74394800D01*
X111623719Y-74394800D01*
X111787935Y-74427464D01*
G37*
G36*
X142267935Y-74427464D02*
G01*
X142422624Y-74491539D01*
X142422626Y-74491540D01*
X142561844Y-74584562D01*
X142680238Y-74702956D01*
X142773260Y-74842174D01*
X142773261Y-74842176D01*
X142837336Y-74996865D01*
X142870000Y-75161081D01*
X142870000Y-75328519D01*
X142837336Y-75492735D01*
X142822958Y-75527445D01*
X142773260Y-75647426D01*
X142680238Y-75786644D01*
X142561844Y-75905038D01*
X142422626Y-75998060D01*
X142422625Y-75998061D01*
X142422624Y-75998061D01*
X142267935Y-76062136D01*
X142103719Y-76094800D01*
X141936281Y-76094800D01*
X141772065Y-76062136D01*
X141617376Y-75998061D01*
X141617375Y-75998061D01*
X141617374Y-75998060D01*
X141478156Y-75905038D01*
X141359762Y-75786644D01*
X141266740Y-75647426D01*
X141217042Y-75527445D01*
X141202664Y-75492735D01*
X141170000Y-75328519D01*
X141170000Y-75161081D01*
X141202664Y-74996865D01*
X141266739Y-74842176D01*
X141266740Y-74842174D01*
X141359762Y-74702956D01*
X141478156Y-74584562D01*
X141617374Y-74491540D01*
X141617376Y-74491539D01*
X141772065Y-74427464D01*
X141936281Y-74394800D01*
X142103719Y-74394800D01*
X142267935Y-74427464D01*
G37*
G36*
X114327935Y-74427464D02*
G01*
X114482624Y-74491539D01*
X114482626Y-74491540D01*
X114621844Y-74584562D01*
X114740238Y-74702956D01*
X114833260Y-74842174D01*
X114833261Y-74842176D01*
X114897336Y-74996865D01*
X114930000Y-75161081D01*
X114930000Y-75328519D01*
X114897336Y-75492735D01*
X114882958Y-75527445D01*
X114833260Y-75647426D01*
X114740238Y-75786644D01*
X114621844Y-75905038D01*
X114482626Y-75998060D01*
X114482625Y-75998061D01*
X114482624Y-75998061D01*
X114327935Y-76062136D01*
X114163719Y-76094800D01*
X113996281Y-76094800D01*
X113832065Y-76062136D01*
X113677376Y-75998061D01*
X113677375Y-75998061D01*
X113677374Y-75998060D01*
X113538156Y-75905038D01*
X113419762Y-75786644D01*
X113326740Y-75647426D01*
X113277042Y-75527445D01*
X113262664Y-75492735D01*
X113230000Y-75328519D01*
X113230000Y-75161081D01*
X113262664Y-74996865D01*
X113326739Y-74842176D01*
X113326740Y-74842174D01*
X113419762Y-74702956D01*
X113538156Y-74584562D01*
X113677374Y-74491540D01*
X113677376Y-74491539D01*
X113832065Y-74427464D01*
X113996281Y-74394800D01*
X114163719Y-74394800D01*
X114327935Y-74427464D01*
G37*
G36*
X124487935Y-74427464D02*
G01*
X124642624Y-74491539D01*
X124642626Y-74491540D01*
X124781844Y-74584562D01*
X124900238Y-74702956D01*
X124993260Y-74842174D01*
X124993261Y-74842176D01*
X125057336Y-74996865D01*
X125090000Y-75161081D01*
X125090000Y-75328519D01*
X125057336Y-75492735D01*
X125042958Y-75527445D01*
X124993260Y-75647426D01*
X124900238Y-75786644D01*
X124781844Y-75905038D01*
X124642626Y-75998060D01*
X124642625Y-75998061D01*
X124642624Y-75998061D01*
X124487935Y-76062136D01*
X124323719Y-76094800D01*
X124156281Y-76094800D01*
X123992065Y-76062136D01*
X123837376Y-75998061D01*
X123837375Y-75998061D01*
X123837374Y-75998060D01*
X123698156Y-75905038D01*
X123579762Y-75786644D01*
X123486740Y-75647426D01*
X123437042Y-75527445D01*
X123422664Y-75492735D01*
X123390000Y-75328519D01*
X123390000Y-75161081D01*
X123422664Y-74996865D01*
X123486739Y-74842176D01*
X123486740Y-74842174D01*
X123579762Y-74702956D01*
X123698156Y-74584562D01*
X123837374Y-74491540D01*
X123837376Y-74491539D01*
X123992065Y-74427464D01*
X124156281Y-74394800D01*
X124323719Y-74394800D01*
X124487935Y-74427464D01*
G37*
G36*
X132107935Y-74427464D02*
G01*
X132262624Y-74491539D01*
X132262626Y-74491540D01*
X132401844Y-74584562D01*
X132520238Y-74702956D01*
X132613260Y-74842174D01*
X132613261Y-74842176D01*
X132677336Y-74996865D01*
X132710000Y-75161081D01*
X132710000Y-75328519D01*
X132677336Y-75492735D01*
X132662958Y-75527445D01*
X132613260Y-75647426D01*
X132520238Y-75786644D01*
X132401844Y-75905038D01*
X132262626Y-75998060D01*
X132262625Y-75998061D01*
X132262624Y-75998061D01*
X132107935Y-76062136D01*
X131943719Y-76094800D01*
X131776281Y-76094800D01*
X131612065Y-76062136D01*
X131457376Y-75998061D01*
X131457375Y-75998061D01*
X131457374Y-75998060D01*
X131318156Y-75905038D01*
X131199762Y-75786644D01*
X131106740Y-75647426D01*
X131057042Y-75527445D01*
X131042664Y-75492735D01*
X131010000Y-75328519D01*
X131010000Y-75161081D01*
X131042664Y-74996865D01*
X131106739Y-74842176D01*
X131106740Y-74842174D01*
X131199762Y-74702956D01*
X131318156Y-74584562D01*
X131457374Y-74491540D01*
X131457376Y-74491539D01*
X131612065Y-74427464D01*
X131776281Y-74394800D01*
X131943719Y-74394800D01*
X132107935Y-74427464D01*
G37*
G36*
X121947935Y-74427464D02*
G01*
X122102624Y-74491539D01*
X122102626Y-74491540D01*
X122241844Y-74584562D01*
X122360238Y-74702956D01*
X122453260Y-74842174D01*
X122453261Y-74842176D01*
X122517336Y-74996865D01*
X122550000Y-75161081D01*
X122550000Y-75328519D01*
X122517336Y-75492735D01*
X122502958Y-75527445D01*
X122453260Y-75647426D01*
X122360238Y-75786644D01*
X122241844Y-75905038D01*
X122102626Y-75998060D01*
X122102625Y-75998061D01*
X122102624Y-75998061D01*
X121947935Y-76062136D01*
X121783719Y-76094800D01*
X121616281Y-76094800D01*
X121452065Y-76062136D01*
X121297376Y-75998061D01*
X121297375Y-75998061D01*
X121297374Y-75998060D01*
X121158156Y-75905038D01*
X121039762Y-75786644D01*
X120946740Y-75647426D01*
X120897042Y-75527445D01*
X120882664Y-75492735D01*
X120850000Y-75328519D01*
X120850000Y-75161081D01*
X120882664Y-74996865D01*
X120946739Y-74842176D01*
X120946740Y-74842174D01*
X121039762Y-74702956D01*
X121158156Y-74584562D01*
X121297374Y-74491540D01*
X121297376Y-74491539D01*
X121452065Y-74427464D01*
X121616281Y-74394800D01*
X121783719Y-74394800D01*
X121947935Y-74427464D01*
G37*
G36*
X134647935Y-74427464D02*
G01*
X134802624Y-74491539D01*
X134802626Y-74491540D01*
X134941844Y-74584562D01*
X135060238Y-74702956D01*
X135153260Y-74842174D01*
X135153261Y-74842176D01*
X135217336Y-74996865D01*
X135250000Y-75161081D01*
X135250000Y-75328519D01*
X135217336Y-75492735D01*
X135202958Y-75527445D01*
X135153260Y-75647426D01*
X135060238Y-75786644D01*
X134941844Y-75905038D01*
X134802626Y-75998060D01*
X134802625Y-75998061D01*
X134802624Y-75998061D01*
X134647935Y-76062136D01*
X134483719Y-76094800D01*
X134316281Y-76094800D01*
X134152065Y-76062136D01*
X133997376Y-75998061D01*
X133997375Y-75998061D01*
X133997374Y-75998060D01*
X133858156Y-75905038D01*
X133739762Y-75786644D01*
X133646740Y-75647426D01*
X133597042Y-75527445D01*
X133582664Y-75492735D01*
X133550000Y-75328519D01*
X133550000Y-75161081D01*
X133582664Y-74996865D01*
X133646739Y-74842176D01*
X133646740Y-74842174D01*
X133739762Y-74702956D01*
X133858156Y-74584562D01*
X133997374Y-74491540D01*
X133997376Y-74491539D01*
X134152065Y-74427464D01*
X134316281Y-74394800D01*
X134483719Y-74394800D01*
X134647935Y-74427464D01*
G37*
G36*
X119407935Y-74427464D02*
G01*
X119562624Y-74491539D01*
X119562626Y-74491540D01*
X119701844Y-74584562D01*
X119820238Y-74702956D01*
X119913260Y-74842174D01*
X119913261Y-74842176D01*
X119977336Y-74996865D01*
X120010000Y-75161081D01*
X120010000Y-75328519D01*
X119977336Y-75492735D01*
X119962958Y-75527445D01*
X119913260Y-75647426D01*
X119820238Y-75786644D01*
X119701844Y-75905038D01*
X119562626Y-75998060D01*
X119562625Y-75998061D01*
X119562624Y-75998061D01*
X119407935Y-76062136D01*
X119243719Y-76094800D01*
X119076281Y-76094800D01*
X118912065Y-76062136D01*
X118757376Y-75998061D01*
X118757375Y-75998061D01*
X118757374Y-75998060D01*
X118618156Y-75905038D01*
X118499762Y-75786644D01*
X118406740Y-75647426D01*
X118357042Y-75527445D01*
X118342664Y-75492735D01*
X118310000Y-75328519D01*
X118310000Y-75161081D01*
X118342664Y-74996865D01*
X118406739Y-74842176D01*
X118406740Y-74842174D01*
X118499762Y-74702956D01*
X118618156Y-74584562D01*
X118757374Y-74491540D01*
X118757376Y-74491539D01*
X118912065Y-74427464D01*
X119076281Y-74394800D01*
X119243719Y-74394800D01*
X119407935Y-74427464D01*
G37*
G36*
X137187935Y-74427464D02*
G01*
X137342624Y-74491539D01*
X137342626Y-74491540D01*
X137481844Y-74584562D01*
X137600238Y-74702956D01*
X137693260Y-74842174D01*
X137693261Y-74842176D01*
X137757336Y-74996865D01*
X137790000Y-75161081D01*
X137790000Y-75328519D01*
X137757336Y-75492735D01*
X137742958Y-75527445D01*
X137693260Y-75647426D01*
X137600238Y-75786644D01*
X137481844Y-75905038D01*
X137342626Y-75998060D01*
X137342625Y-75998061D01*
X137342624Y-75998061D01*
X137187935Y-76062136D01*
X137023719Y-76094800D01*
X136856281Y-76094800D01*
X136692065Y-76062136D01*
X136537376Y-75998061D01*
X136537375Y-75998061D01*
X136537374Y-75998060D01*
X136398156Y-75905038D01*
X136279762Y-75786644D01*
X136186740Y-75647426D01*
X136137042Y-75527445D01*
X136122664Y-75492735D01*
X136090000Y-75328519D01*
X136090000Y-75161081D01*
X136122664Y-74996865D01*
X136186739Y-74842176D01*
X136186740Y-74842174D01*
X136279762Y-74702956D01*
X136398156Y-74584562D01*
X136537374Y-74491540D01*
X136537376Y-74491539D01*
X136692065Y-74427464D01*
X136856281Y-74394800D01*
X137023719Y-74394800D01*
X137187935Y-74427464D01*
G37*
G36*
X139727935Y-74427464D02*
G01*
X139882624Y-74491539D01*
X139882626Y-74491540D01*
X140021844Y-74584562D01*
X140140238Y-74702956D01*
X140233260Y-74842174D01*
X140233261Y-74842176D01*
X140297336Y-74996865D01*
X140330000Y-75161081D01*
X140330000Y-75328519D01*
X140297336Y-75492735D01*
X140282958Y-75527445D01*
X140233260Y-75647426D01*
X140140238Y-75786644D01*
X140021844Y-75905038D01*
X139882626Y-75998060D01*
X139882625Y-75998061D01*
X139882624Y-75998061D01*
X139727935Y-76062136D01*
X139563719Y-76094800D01*
X139396281Y-76094800D01*
X139232065Y-76062136D01*
X139077376Y-75998061D01*
X139077375Y-75998061D01*
X139077374Y-75998060D01*
X138938156Y-75905038D01*
X138819762Y-75786644D01*
X138726740Y-75647426D01*
X138677042Y-75527445D01*
X138662664Y-75492735D01*
X138630000Y-75328519D01*
X138630000Y-75161081D01*
X138662664Y-74996865D01*
X138726739Y-74842176D01*
X138726740Y-74842174D01*
X138819762Y-74702956D01*
X138938156Y-74584562D01*
X139077374Y-74491540D01*
X139077376Y-74491539D01*
X139232065Y-74427464D01*
X139396281Y-74394800D01*
X139563719Y-74394800D01*
X139727935Y-74427464D01*
G37*
G36*
X116867935Y-74427464D02*
G01*
X117022624Y-74491539D01*
X117022626Y-74491540D01*
X117161844Y-74584562D01*
X117280238Y-74702956D01*
X117373260Y-74842174D01*
X117373261Y-74842176D01*
X117437336Y-74996865D01*
X117470000Y-75161081D01*
X117470000Y-75328519D01*
X117437336Y-75492735D01*
X117422958Y-75527445D01*
X117373260Y-75647426D01*
X117280238Y-75786644D01*
X117161844Y-75905038D01*
X117022626Y-75998060D01*
X117022625Y-75998061D01*
X117022624Y-75998061D01*
X116867935Y-76062136D01*
X116703719Y-76094800D01*
X116536281Y-76094800D01*
X116372065Y-76062136D01*
X116217376Y-75998061D01*
X116217375Y-75998061D01*
X116217374Y-75998060D01*
X116078156Y-75905038D01*
X115959762Y-75786644D01*
X115866740Y-75647426D01*
X115817042Y-75527445D01*
X115802664Y-75492735D01*
X115770000Y-75328519D01*
X115770000Y-75161081D01*
X115802664Y-74996865D01*
X115866739Y-74842176D01*
X115866740Y-74842174D01*
X115959762Y-74702956D01*
X116078156Y-74584562D01*
X116217374Y-74491540D01*
X116217376Y-74491539D01*
X116372065Y-74427464D01*
X116536281Y-74394800D01*
X116703719Y-74394800D01*
X116867935Y-74427464D01*
G37*
G36*
X129567935Y-74427464D02*
G01*
X129722624Y-74491539D01*
X129722626Y-74491540D01*
X129861844Y-74584562D01*
X129980238Y-74702956D01*
X130073260Y-74842174D01*
X130073261Y-74842176D01*
X130137336Y-74996865D01*
X130170000Y-75161081D01*
X130170000Y-75328519D01*
X130137336Y-75492735D01*
X130122958Y-75527445D01*
X130073260Y-75647426D01*
X129980238Y-75786644D01*
X129861844Y-75905038D01*
X129722626Y-75998060D01*
X129722625Y-75998061D01*
X129722624Y-75998061D01*
X129567935Y-76062136D01*
X129403719Y-76094800D01*
X129236281Y-76094800D01*
X129072065Y-76062136D01*
X128917376Y-75998061D01*
X128917375Y-75998061D01*
X128917374Y-75998060D01*
X128778156Y-75905038D01*
X128659762Y-75786644D01*
X128566740Y-75647426D01*
X128517042Y-75527445D01*
X128502664Y-75492735D01*
X128470000Y-75328519D01*
X128470000Y-75161081D01*
X128502664Y-74996865D01*
X128566739Y-74842176D01*
X128566740Y-74842174D01*
X128659762Y-74702956D01*
X128778156Y-74584562D01*
X128917374Y-74491540D01*
X128917376Y-74491539D01*
X129072065Y-74427464D01*
X129236281Y-74394800D01*
X129403719Y-74394800D01*
X129567935Y-74427464D01*
G37*
M02*
