M48
; DRILL file {KiCad (5.1.6)-1} date 10/08/20 21:16:36
; FORMAT={-:-/ absolute / metric / decimal}
; #@! TF.CreationDate,2020-10-08T21:16:36-06:00
; #@! TF.GenerationSoftware,Kicad,Pcbnew,(5.1.6)-1
; #@! TF.FileFunction,Plated,1,2,PTH
FMAT,2
METRIC
T1C0.330
T2C0.600
T3C0.800
T4C1.000
T5C1.200
%
G90
G05
T1
X107.559Y-126.803
X124.552Y-103.511
X125.136Y-114.204
X125.5Y-91.7
X128.667Y-97.313
X128.667Y-98.609
X128.667Y-99.904
X128.667Y-101.504
X128.667Y-102.723
X128.667Y-103.993
X128.667Y-105.543
X128.667Y-106.838
X128.667Y-108.134
X129.987Y-97.313
X129.987Y-98.609
X129.987Y-99.904
X129.987Y-101.504
X129.987Y-102.723
X129.987Y-103.993
X129.987Y-105.543
X129.987Y-106.838
X129.987Y-108.134
X131.283Y-97.313
X131.283Y-98.609
X131.283Y-99.904
X131.283Y-101.504
X131.283Y-102.698
X131.283Y-103.993
X131.283Y-105.543
X131.283Y-106.838
X131.283Y-108.134
X134.5Y-115.3
X135.65Y-99.95
X135.7Y-91.4
X135.7Y-104.2
X135.7Y-105.119
X135.7Y-106.3
X136.657Y-105.1
X136.685Y-99.924
X137.601Y-99.899
X140.8Y-85.4
X143.2Y-91.7
X143.805Y-103.511
X144.186Y-114.204
X148.072Y-97.288
X148.072Y-98.583
X148.072Y-99.879
X148.072Y-101.479
X148.072Y-102.698
X148.072Y-103.968
X148.072Y-105.517
X148.072Y-106.813
X148.072Y-108.108
X149.393Y-97.288
X149.393Y-98.583
X149.393Y-99.879
X149.393Y-101.479
X149.393Y-102.698
X149.393Y-103.968
X149.393Y-105.517
X149.393Y-106.813
X149.393Y-108.108
X149.944Y-95.244
X150.688Y-97.288
X150.688Y-98.583
X150.688Y-99.879
X150.688Y-101.479
X150.688Y-102.673
X150.688Y-103.968
X150.688Y-105.517
X150.688Y-106.813
X150.688Y-108.108
X152.8Y-115.0
X154.6Y-102.2
X154.674Y-104.824
X155.2Y-101.3
X156.048Y-106.617
X158.1Y-98.8
X158.5Y-82.2
X158.8Y-101.7
T2
X121.148Y-115.982
X122.494Y-95.459
X122.545Y-98.304
X145.431Y-110.47
T3
X109.896Y-81.108
X109.896Y-88.728
X112.436Y-81.108
X112.436Y-88.728
X114.976Y-81.108
X114.976Y-88.728
X117.516Y-81.108
X117.516Y-88.728
X109.896Y-91.776
X109.896Y-99.396
X112.436Y-91.776
X112.436Y-99.396
X114.976Y-91.776
X114.976Y-99.396
X117.516Y-91.776
X117.516Y-99.396
X124.052Y-82.632
X126.592Y-82.632
X129.132Y-82.632
X146.912Y-82.632
X149.452Y-82.632
X151.992Y-82.632
T4
X109.0Y-75.245
X109.0Y-77.785
X111.54Y-75.245
X111.54Y-77.785
X114.08Y-75.245
X114.08Y-77.785
X116.62Y-75.245
X116.62Y-77.785
X119.16Y-75.245
X119.16Y-77.785
X121.7Y-75.245
X121.7Y-77.785
X124.24Y-75.245
X124.24Y-77.785
X126.78Y-75.245
X126.78Y-77.785
X129.32Y-75.245
X129.32Y-77.785
X131.86Y-75.245
X131.86Y-77.785
X134.4Y-75.245
X134.4Y-77.785
X136.94Y-75.245
X136.94Y-77.785
X139.48Y-75.245
X139.48Y-77.785
X142.02Y-75.245
X142.02Y-77.785
X144.56Y-75.245
X144.56Y-77.785
X147.1Y-75.245
X147.1Y-77.785
X149.64Y-75.245
X149.64Y-77.785
X152.18Y-75.245
X152.18Y-77.785
X154.72Y-75.245
X154.72Y-77.785
X157.26Y-75.245
X157.26Y-77.785
T5
X138.725Y-124.288
X143.725Y-124.288
X148.725Y-124.288
X153.725Y-124.288
X160.696Y-82.505
X160.696Y-87.505
X160.696Y-92.505
X160.696Y-97.505
X160.696Y-103.714
X160.696Y-108.714
X160.696Y-113.714
X160.696Y-118.714
X117.516Y-124.288
X122.516Y-124.288
X127.516Y-124.288
X132.516Y-124.288
T4
G00X109.103Y-114.652
M15
G01X109.103Y-116.652
M16
G05
G00X111.103Y-120.352
M15
G01X113.103Y-120.352
M16
G05
G00X115.103Y-114.652
M15
G01X115.103Y-116.652
M16
G05
T0
M30
