G04 #@! TF.GenerationSoftware,KiCad,Pcbnew,(5.1.6)-1*
G04 #@! TF.CreationDate,2020-10-08T21:16:19-06:00*
G04 #@! TF.ProjectId,raspi-quad-stepper-motor-module,72617370-692d-4717-9561-642d73746570,A*
G04 #@! TF.SameCoordinates,Original*
G04 #@! TF.FileFunction,Soldermask,Top*
G04 #@! TF.FilePolarity,Negative*
%FSLAX46Y46*%
G04 Gerber Fmt 4.6, Leading zero omitted, Abs format (unit mm)*
G04 Created by KiCad (PCBNEW (5.1.6)-1) date 2020-10-08 21:16:19*
%MOMM*%
%LPD*%
G01*
G04 APERTURE LIST*
G04 #@! TA.AperFunction,Profile*
%ADD10C,0.100000*%
G04 #@! TD*
%ADD11C,0.150000*%
G04 APERTURE END LIST*
D10*
X105600000Y-93000000D02*
G75*
G03*
X105100000Y-92500000I-500000J0D01*
G01*
X105100000Y-92500000D02*
X101100000Y-92500000D01*
X101099127Y-109500001D02*
G75*
G03*
X100600000Y-110000000I873J-499999D01*
G01*
X105100000Y-109500000D02*
G75*
G03*
X105600000Y-109000000I0J500000D01*
G01*
X100600000Y-92000000D02*
G75*
G03*
X101100000Y-92500000I500000J0D01*
G01*
X100600000Y-76000000D02*
X100600000Y-92000000D01*
X165600000Y-76000000D02*
G75*
G03*
X162600000Y-73000000I-3000000J0D01*
G01*
X162600000Y-129000000D02*
G75*
G03*
X165600000Y-126000000I0J3000000D01*
G01*
X100600000Y-126000000D02*
G75*
G03*
X103600000Y-129000000I3000000J0D01*
G01*
X103600000Y-73000000D02*
G75*
G03*
X100600000Y-76000000I0J-3000000D01*
G01*
X162600000Y-73000000D02*
X103600000Y-73000000D01*
X105100000Y-109500000D02*
X101100000Y-109500000D01*
X105600000Y-93000000D02*
X105600000Y-109000000D01*
X165600000Y-126000000D02*
X165600000Y-76000000D01*
X103600000Y-129000000D02*
X162600000Y-129000000D01*
X100600000Y-110000000D02*
X100600000Y-126000000D01*
D11*
G36*
X112646624Y-125956955D02*
G01*
X112679338Y-125966879D01*
X112709485Y-125982993D01*
X112735915Y-126004685D01*
X112757607Y-126031115D01*
X112773721Y-126061262D01*
X112783645Y-126093976D01*
X112787600Y-126134138D01*
X112787600Y-127521862D01*
X112783645Y-127562024D01*
X112773721Y-127594738D01*
X112757607Y-127624885D01*
X112735915Y-127651315D01*
X112709485Y-127673007D01*
X112679338Y-127689121D01*
X112646624Y-127699045D01*
X112606462Y-127703000D01*
X111718738Y-127703000D01*
X111678576Y-127699045D01*
X111645862Y-127689121D01*
X111615715Y-127673007D01*
X111589285Y-127651315D01*
X111567593Y-127624885D01*
X111551479Y-127594738D01*
X111541555Y-127562024D01*
X111537600Y-127521862D01*
X111537600Y-126134138D01*
X111541555Y-126093976D01*
X111551479Y-126061262D01*
X111567593Y-126031115D01*
X111589285Y-126004685D01*
X111615715Y-125982993D01*
X111645862Y-125966879D01*
X111678576Y-125956955D01*
X111718738Y-125953000D01*
X112606462Y-125953000D01*
X112646624Y-125956955D01*
G37*
G36*
X109846624Y-125956955D02*
G01*
X109879338Y-125966879D01*
X109909485Y-125982993D01*
X109935915Y-126004685D01*
X109957607Y-126031115D01*
X109973721Y-126061262D01*
X109983645Y-126093976D01*
X109987600Y-126134138D01*
X109987600Y-127521862D01*
X109983645Y-127562024D01*
X109973721Y-127594738D01*
X109957607Y-127624885D01*
X109935915Y-127651315D01*
X109909485Y-127673007D01*
X109879338Y-127689121D01*
X109846624Y-127699045D01*
X109806462Y-127703000D01*
X108918738Y-127703000D01*
X108878576Y-127699045D01*
X108845862Y-127689121D01*
X108815715Y-127673007D01*
X108789285Y-127651315D01*
X108767593Y-127624885D01*
X108751479Y-127594738D01*
X108741555Y-127562024D01*
X108737600Y-127521862D01*
X108737600Y-126134138D01*
X108741555Y-126093976D01*
X108751479Y-126061262D01*
X108767593Y-126031115D01*
X108789285Y-126004685D01*
X108815715Y-125982993D01*
X108845862Y-125966879D01*
X108878576Y-125956955D01*
X108918738Y-125953000D01*
X109806462Y-125953000D01*
X109846624Y-125956955D01*
G37*
G36*
X162493779Y-124196679D02*
G01*
X162737534Y-124297646D01*
X162739465Y-124298446D01*
X162850769Y-124372817D01*
X162959377Y-124445386D01*
X162960575Y-124446187D01*
X163148613Y-124634225D01*
X163295821Y-124854537D01*
X163296355Y-124855337D01*
X163398121Y-125101021D01*
X163450000Y-125361835D01*
X163450000Y-125627765D01*
X163398121Y-125888579D01*
X163296355Y-126134263D01*
X163149149Y-126354574D01*
X163148613Y-126355375D01*
X162960575Y-126543413D01*
X162739465Y-126691154D01*
X162739464Y-126691155D01*
X162739463Y-126691155D01*
X162493779Y-126792921D01*
X162232965Y-126844800D01*
X161967035Y-126844800D01*
X161706221Y-126792921D01*
X161460537Y-126691155D01*
X161460536Y-126691155D01*
X161460535Y-126691154D01*
X161239425Y-126543413D01*
X161051387Y-126355375D01*
X161050852Y-126354574D01*
X160903645Y-126134263D01*
X160801879Y-125888579D01*
X160750000Y-125627765D01*
X160750000Y-125361835D01*
X160801879Y-125101021D01*
X160903645Y-124855337D01*
X160904180Y-124854537D01*
X161051387Y-124634225D01*
X161239425Y-124446187D01*
X161240624Y-124445386D01*
X161349231Y-124372817D01*
X161460535Y-124298446D01*
X161462466Y-124297646D01*
X161706221Y-124196679D01*
X161967035Y-124144800D01*
X162232965Y-124144800D01*
X162493779Y-124196679D01*
G37*
G36*
X104544779Y-124195879D02*
G01*
X104790463Y-124297645D01*
X104790465Y-124297646D01*
X104791662Y-124298446D01*
X105011574Y-124445386D01*
X105199614Y-124633426D01*
X105253657Y-124714308D01*
X105322001Y-124816591D01*
X105347355Y-124854537D01*
X105449121Y-125100221D01*
X105501000Y-125361035D01*
X105501000Y-125626965D01*
X105449121Y-125887779D01*
X105376083Y-126064107D01*
X105347354Y-126133465D01*
X105346819Y-126134265D01*
X105199614Y-126354574D01*
X105011574Y-126542614D01*
X104901769Y-126615983D01*
X104790465Y-126690354D01*
X104790464Y-126690355D01*
X104790463Y-126690355D01*
X104544779Y-126792121D01*
X104283965Y-126844000D01*
X104018035Y-126844000D01*
X103757221Y-126792121D01*
X103511537Y-126690355D01*
X103511536Y-126690355D01*
X103511535Y-126690354D01*
X103400231Y-126615983D01*
X103290426Y-126542614D01*
X103102386Y-126354574D01*
X102955181Y-126134265D01*
X102954646Y-126133465D01*
X102925917Y-126064107D01*
X102852879Y-125887779D01*
X102801000Y-125626965D01*
X102801000Y-125361035D01*
X102852879Y-125100221D01*
X102954645Y-124854537D01*
X102980000Y-124816591D01*
X103048343Y-124714308D01*
X103102386Y-124633426D01*
X103290426Y-124445386D01*
X103510338Y-124298446D01*
X103511535Y-124297646D01*
X103511537Y-124297645D01*
X103757221Y-124195879D01*
X104018035Y-124144000D01*
X104283965Y-124144000D01*
X104544779Y-124195879D01*
G37*
G36*
X153987520Y-123422586D02*
G01*
X154151310Y-123490430D01*
X154298717Y-123588924D01*
X154424076Y-123714283D01*
X154447933Y-123749988D01*
X154522571Y-123861692D01*
X154590414Y-124025480D01*
X154624468Y-124196680D01*
X154625000Y-124199358D01*
X154625000Y-124376642D01*
X154590414Y-124550520D01*
X154522570Y-124714310D01*
X154424076Y-124861717D01*
X154298717Y-124987076D01*
X154151310Y-125085570D01*
X154151309Y-125085571D01*
X154151308Y-125085571D01*
X153987520Y-125153414D01*
X153813644Y-125188000D01*
X153636356Y-125188000D01*
X153462480Y-125153414D01*
X153298692Y-125085571D01*
X153298691Y-125085571D01*
X153298690Y-125085570D01*
X153151283Y-124987076D01*
X153025924Y-124861717D01*
X152927430Y-124714310D01*
X152859586Y-124550520D01*
X152825000Y-124376642D01*
X152825000Y-124199358D01*
X152825533Y-124196680D01*
X152859586Y-124025480D01*
X152927429Y-123861692D01*
X153002067Y-123749988D01*
X153025924Y-123714283D01*
X153151283Y-123588924D01*
X153298690Y-123490430D01*
X153462480Y-123422586D01*
X153636356Y-123388000D01*
X153813644Y-123388000D01*
X153987520Y-123422586D01*
G37*
G36*
X132778520Y-123422586D02*
G01*
X132942310Y-123490430D01*
X133089717Y-123588924D01*
X133215076Y-123714283D01*
X133238933Y-123749988D01*
X133313571Y-123861692D01*
X133381414Y-124025480D01*
X133415468Y-124196680D01*
X133416000Y-124199358D01*
X133416000Y-124376642D01*
X133381414Y-124550520D01*
X133313570Y-124714310D01*
X133215076Y-124861717D01*
X133089717Y-124987076D01*
X132942310Y-125085570D01*
X132942309Y-125085571D01*
X132942308Y-125085571D01*
X132778520Y-125153414D01*
X132604644Y-125188000D01*
X132427356Y-125188000D01*
X132253480Y-125153414D01*
X132089692Y-125085571D01*
X132089691Y-125085571D01*
X132089690Y-125085570D01*
X131942283Y-124987076D01*
X131816924Y-124861717D01*
X131718430Y-124714310D01*
X131650586Y-124550520D01*
X131616000Y-124376642D01*
X131616000Y-124199358D01*
X131616533Y-124196680D01*
X131650586Y-124025480D01*
X131718429Y-123861692D01*
X131793067Y-123749988D01*
X131816924Y-123714283D01*
X131942283Y-123588924D01*
X132089690Y-123490430D01*
X132253480Y-123422586D01*
X132427356Y-123388000D01*
X132604644Y-123388000D01*
X132778520Y-123422586D01*
G37*
G36*
X127778520Y-123422586D02*
G01*
X127942310Y-123490430D01*
X128089717Y-123588924D01*
X128215076Y-123714283D01*
X128238933Y-123749988D01*
X128313571Y-123861692D01*
X128381414Y-124025480D01*
X128415468Y-124196680D01*
X128416000Y-124199358D01*
X128416000Y-124376642D01*
X128381414Y-124550520D01*
X128313570Y-124714310D01*
X128215076Y-124861717D01*
X128089717Y-124987076D01*
X127942310Y-125085570D01*
X127942309Y-125085571D01*
X127942308Y-125085571D01*
X127778520Y-125153414D01*
X127604644Y-125188000D01*
X127427356Y-125188000D01*
X127253480Y-125153414D01*
X127089692Y-125085571D01*
X127089691Y-125085571D01*
X127089690Y-125085570D01*
X126942283Y-124987076D01*
X126816924Y-124861717D01*
X126718430Y-124714310D01*
X126650586Y-124550520D01*
X126616000Y-124376642D01*
X126616000Y-124199358D01*
X126616533Y-124196680D01*
X126650586Y-124025480D01*
X126718429Y-123861692D01*
X126793067Y-123749988D01*
X126816924Y-123714283D01*
X126942283Y-123588924D01*
X127089690Y-123490430D01*
X127253480Y-123422586D01*
X127427356Y-123388000D01*
X127604644Y-123388000D01*
X127778520Y-123422586D01*
G37*
G36*
X122778520Y-123422586D02*
G01*
X122942310Y-123490430D01*
X123089717Y-123588924D01*
X123215076Y-123714283D01*
X123238933Y-123749988D01*
X123313571Y-123861692D01*
X123381414Y-124025480D01*
X123415468Y-124196680D01*
X123416000Y-124199358D01*
X123416000Y-124376642D01*
X123381414Y-124550520D01*
X123313570Y-124714310D01*
X123215076Y-124861717D01*
X123089717Y-124987076D01*
X122942310Y-125085570D01*
X122942309Y-125085571D01*
X122942308Y-125085571D01*
X122778520Y-125153414D01*
X122604644Y-125188000D01*
X122427356Y-125188000D01*
X122253480Y-125153414D01*
X122089692Y-125085571D01*
X122089691Y-125085571D01*
X122089690Y-125085570D01*
X121942283Y-124987076D01*
X121816924Y-124861717D01*
X121718430Y-124714310D01*
X121650586Y-124550520D01*
X121616000Y-124376642D01*
X121616000Y-124199358D01*
X121616533Y-124196680D01*
X121650586Y-124025480D01*
X121718429Y-123861692D01*
X121793067Y-123749988D01*
X121816924Y-123714283D01*
X121942283Y-123588924D01*
X122089690Y-123490430D01*
X122253480Y-123422586D01*
X122427356Y-123388000D01*
X122604644Y-123388000D01*
X122778520Y-123422586D01*
G37*
G36*
X118416000Y-125188000D02*
G01*
X116616000Y-125188000D01*
X116616000Y-123388000D01*
X118416000Y-123388000D01*
X118416000Y-125188000D01*
G37*
G36*
X143987520Y-123422586D02*
G01*
X144151310Y-123490430D01*
X144298717Y-123588924D01*
X144424076Y-123714283D01*
X144447933Y-123749988D01*
X144522571Y-123861692D01*
X144590414Y-124025480D01*
X144624468Y-124196680D01*
X144625000Y-124199358D01*
X144625000Y-124376642D01*
X144590414Y-124550520D01*
X144522570Y-124714310D01*
X144424076Y-124861717D01*
X144298717Y-124987076D01*
X144151310Y-125085570D01*
X144151309Y-125085571D01*
X144151308Y-125085571D01*
X143987520Y-125153414D01*
X143813644Y-125188000D01*
X143636356Y-125188000D01*
X143462480Y-125153414D01*
X143298692Y-125085571D01*
X143298691Y-125085571D01*
X143298690Y-125085570D01*
X143151283Y-124987076D01*
X143025924Y-124861717D01*
X142927430Y-124714310D01*
X142859586Y-124550520D01*
X142825000Y-124376642D01*
X142825000Y-124199358D01*
X142825533Y-124196680D01*
X142859586Y-124025480D01*
X142927429Y-123861692D01*
X143002067Y-123749988D01*
X143025924Y-123714283D01*
X143151283Y-123588924D01*
X143298690Y-123490430D01*
X143462480Y-123422586D01*
X143636356Y-123388000D01*
X143813644Y-123388000D01*
X143987520Y-123422586D01*
G37*
G36*
X148987520Y-123422586D02*
G01*
X149151310Y-123490430D01*
X149298717Y-123588924D01*
X149424076Y-123714283D01*
X149447933Y-123749988D01*
X149522571Y-123861692D01*
X149590414Y-124025480D01*
X149624468Y-124196680D01*
X149625000Y-124199358D01*
X149625000Y-124376642D01*
X149590414Y-124550520D01*
X149522570Y-124714310D01*
X149424076Y-124861717D01*
X149298717Y-124987076D01*
X149151310Y-125085570D01*
X149151309Y-125085571D01*
X149151308Y-125085571D01*
X148987520Y-125153414D01*
X148813644Y-125188000D01*
X148636356Y-125188000D01*
X148462480Y-125153414D01*
X148298692Y-125085571D01*
X148298691Y-125085571D01*
X148298690Y-125085570D01*
X148151283Y-124987076D01*
X148025924Y-124861717D01*
X147927430Y-124714310D01*
X147859586Y-124550520D01*
X147825000Y-124376642D01*
X147825000Y-124199358D01*
X147825533Y-124196680D01*
X147859586Y-124025480D01*
X147927429Y-123861692D01*
X148002067Y-123749988D01*
X148025924Y-123714283D01*
X148151283Y-123588924D01*
X148298690Y-123490430D01*
X148462480Y-123422586D01*
X148636356Y-123388000D01*
X148813644Y-123388000D01*
X148987520Y-123422586D01*
G37*
G36*
X139625000Y-125188000D02*
G01*
X137825000Y-125188000D01*
X137825000Y-123388000D01*
X139625000Y-123388000D01*
X139625000Y-125188000D01*
G37*
G36*
X110750091Y-123566675D02*
G01*
X110783979Y-123576955D01*
X110815212Y-123593650D01*
X110842586Y-123616114D01*
X110865050Y-123643488D01*
X110881745Y-123674721D01*
X110892025Y-123708609D01*
X110896100Y-123749988D01*
X110896100Y-124775212D01*
X110892025Y-124816591D01*
X110881745Y-124850479D01*
X110865050Y-124881712D01*
X110842586Y-124909086D01*
X110815212Y-124931550D01*
X110783979Y-124948245D01*
X110750091Y-124958525D01*
X110708712Y-124962600D01*
X110108488Y-124962600D01*
X110067109Y-124958525D01*
X110033221Y-124948245D01*
X110001988Y-124931550D01*
X109974614Y-124909086D01*
X109952150Y-124881712D01*
X109935455Y-124850479D01*
X109925175Y-124816591D01*
X109921100Y-124775212D01*
X109921100Y-123749988D01*
X109925175Y-123708609D01*
X109935455Y-123674721D01*
X109952150Y-123643488D01*
X109974614Y-123616114D01*
X110001988Y-123593650D01*
X110033221Y-123576955D01*
X110067109Y-123566675D01*
X110108488Y-123562600D01*
X110708712Y-123562600D01*
X110750091Y-123566675D01*
G37*
G36*
X112625091Y-123566675D02*
G01*
X112658979Y-123576955D01*
X112690212Y-123593650D01*
X112717586Y-123616114D01*
X112740050Y-123643488D01*
X112756745Y-123674721D01*
X112767025Y-123708609D01*
X112771100Y-123749988D01*
X112771100Y-124775212D01*
X112767025Y-124816591D01*
X112756745Y-124850479D01*
X112740050Y-124881712D01*
X112717586Y-124909086D01*
X112690212Y-124931550D01*
X112658979Y-124948245D01*
X112625091Y-124958525D01*
X112583712Y-124962600D01*
X111983488Y-124962600D01*
X111942109Y-124958525D01*
X111908221Y-124948245D01*
X111876988Y-124931550D01*
X111849614Y-124909086D01*
X111827150Y-124881712D01*
X111810455Y-124850479D01*
X111800175Y-124816591D01*
X111796100Y-124775212D01*
X111796100Y-123749988D01*
X111800175Y-123708609D01*
X111810455Y-123674721D01*
X111827150Y-123643488D01*
X111849614Y-123616114D01*
X111876988Y-123593650D01*
X111908221Y-123576955D01*
X111942109Y-123566675D01*
X111983488Y-123562600D01*
X112583712Y-123562600D01*
X112625091Y-123566675D01*
G37*
G36*
X113198891Y-118618205D02*
G01*
X113351202Y-118664408D01*
X113491565Y-118739433D01*
X113614597Y-118840403D01*
X113715567Y-118963435D01*
X113790592Y-119103798D01*
X113836795Y-119256109D01*
X113853000Y-119420640D01*
X113853000Y-121283360D01*
X113836795Y-121447891D01*
X113790592Y-121600202D01*
X113715567Y-121740565D01*
X113614597Y-121863597D01*
X113491565Y-121964567D01*
X113351202Y-122039592D01*
X113198891Y-122085795D01*
X113034360Y-122102000D01*
X111171640Y-122102000D01*
X111007109Y-122085795D01*
X110854798Y-122039592D01*
X110714435Y-121964567D01*
X110591403Y-121863597D01*
X110490433Y-121740565D01*
X110415408Y-121600202D01*
X110369205Y-121447891D01*
X110353000Y-121283360D01*
X110353000Y-119420640D01*
X110369205Y-119256109D01*
X110415408Y-119103798D01*
X110490433Y-118963435D01*
X110591403Y-118840403D01*
X110714435Y-118739433D01*
X110854798Y-118664408D01*
X111007109Y-118618205D01*
X111171640Y-118602000D01*
X113034360Y-118602000D01*
X113198891Y-118618205D01*
G37*
G36*
X161596000Y-119614000D02*
G01*
X159796000Y-119614000D01*
X159796000Y-117814000D01*
X161596000Y-117814000D01*
X161596000Y-119614000D01*
G37*
G36*
X136071002Y-117622484D02*
G01*
X136103027Y-117632199D01*
X136132534Y-117647971D01*
X136158401Y-117669199D01*
X136179629Y-117695066D01*
X136195401Y-117724573D01*
X136205116Y-117756598D01*
X136209000Y-117796036D01*
X136209000Y-118791164D01*
X136205116Y-118830602D01*
X136195401Y-118862627D01*
X136179629Y-118892134D01*
X136158401Y-118918001D01*
X136132534Y-118939229D01*
X136103027Y-118955001D01*
X136071002Y-118964716D01*
X136031564Y-118968600D01*
X133036436Y-118968600D01*
X132996998Y-118964716D01*
X132964973Y-118955001D01*
X132935466Y-118939229D01*
X132909599Y-118918001D01*
X132888371Y-118892134D01*
X132872599Y-118862627D01*
X132862884Y-118830602D01*
X132859000Y-118791164D01*
X132859000Y-117796036D01*
X132862884Y-117756598D01*
X132872599Y-117724573D01*
X132888371Y-117695066D01*
X132909599Y-117669199D01*
X132935466Y-117647971D01*
X132964973Y-117632199D01*
X132996998Y-117622484D01*
X133036436Y-117618600D01*
X136031564Y-117618600D01*
X136071002Y-117622484D01*
G37*
G36*
X126673002Y-117622484D02*
G01*
X126705027Y-117632199D01*
X126734534Y-117647971D01*
X126760401Y-117669199D01*
X126781629Y-117695066D01*
X126797401Y-117724573D01*
X126807116Y-117756598D01*
X126811000Y-117796036D01*
X126811000Y-118791164D01*
X126807116Y-118830602D01*
X126797401Y-118862627D01*
X126781629Y-118892134D01*
X126760401Y-118918001D01*
X126734534Y-118939229D01*
X126705027Y-118955001D01*
X126673002Y-118964716D01*
X126633564Y-118968600D01*
X123638436Y-118968600D01*
X123598998Y-118964716D01*
X123566973Y-118955001D01*
X123537466Y-118939229D01*
X123511599Y-118918001D01*
X123490371Y-118892134D01*
X123474599Y-118862627D01*
X123464884Y-118830602D01*
X123461000Y-118791164D01*
X123461000Y-117796036D01*
X123464884Y-117756598D01*
X123474599Y-117724573D01*
X123490371Y-117695066D01*
X123511599Y-117669199D01*
X123537466Y-117647971D01*
X123566973Y-117632199D01*
X123598998Y-117622484D01*
X123638436Y-117618600D01*
X126633564Y-117618600D01*
X126673002Y-117622484D01*
G37*
G36*
X154359002Y-117622484D02*
G01*
X154391027Y-117632199D01*
X154420534Y-117647971D01*
X154446401Y-117669199D01*
X154467629Y-117695066D01*
X154483401Y-117724573D01*
X154493116Y-117756598D01*
X154497000Y-117796036D01*
X154497000Y-118791164D01*
X154493116Y-118830602D01*
X154483401Y-118862627D01*
X154467629Y-118892134D01*
X154446401Y-118918001D01*
X154420534Y-118939229D01*
X154391027Y-118955001D01*
X154359002Y-118964716D01*
X154319564Y-118968600D01*
X151324436Y-118968600D01*
X151284998Y-118964716D01*
X151252973Y-118955001D01*
X151223466Y-118939229D01*
X151197599Y-118918001D01*
X151176371Y-118892134D01*
X151160599Y-118862627D01*
X151150884Y-118830602D01*
X151147000Y-118791164D01*
X151147000Y-117796036D01*
X151150884Y-117756598D01*
X151160599Y-117724573D01*
X151176371Y-117695066D01*
X151197599Y-117669199D01*
X151223466Y-117647971D01*
X151252973Y-117632199D01*
X151284998Y-117622484D01*
X151324436Y-117618600D01*
X154319564Y-117618600D01*
X154359002Y-117622484D01*
G37*
G36*
X145697602Y-117580484D02*
G01*
X145729627Y-117590199D01*
X145759134Y-117605971D01*
X145785001Y-117627199D01*
X145806229Y-117653066D01*
X145822001Y-117682573D01*
X145831716Y-117714598D01*
X145835600Y-117754036D01*
X145835600Y-118749164D01*
X145831716Y-118788602D01*
X145822001Y-118820627D01*
X145806229Y-118850134D01*
X145785001Y-118876001D01*
X145759134Y-118897229D01*
X145729627Y-118913001D01*
X145697602Y-118922716D01*
X145658164Y-118926600D01*
X142663036Y-118926600D01*
X142623598Y-118922716D01*
X142591573Y-118913001D01*
X142562066Y-118897229D01*
X142536199Y-118876001D01*
X142514971Y-118850134D01*
X142499199Y-118820627D01*
X142489484Y-118788602D01*
X142485600Y-118749164D01*
X142485600Y-117754036D01*
X142489484Y-117714598D01*
X142499199Y-117682573D01*
X142514971Y-117653066D01*
X142536199Y-117627199D01*
X142562066Y-117605971D01*
X142591573Y-117590199D01*
X142623598Y-117580484D01*
X142663036Y-117576600D01*
X145658164Y-117576600D01*
X145697602Y-117580484D01*
G37*
G36*
X116853000Y-117402000D02*
G01*
X113353000Y-117402000D01*
X113353000Y-113902000D01*
X116853000Y-113902000D01*
X116853000Y-117402000D01*
G37*
G36*
X110049505Y-113915803D02*
G01*
X110178366Y-113954893D01*
X110297117Y-114018367D01*
X110401209Y-114103791D01*
X110486633Y-114207883D01*
X110550107Y-114326634D01*
X110589197Y-114455495D01*
X110603000Y-114595640D01*
X110603000Y-116708360D01*
X110589197Y-116848505D01*
X110550107Y-116977366D01*
X110486633Y-117096117D01*
X110401209Y-117200209D01*
X110297117Y-117285633D01*
X110178366Y-117349107D01*
X110049505Y-117388197D01*
X109909360Y-117402000D01*
X108296640Y-117402000D01*
X108156495Y-117388197D01*
X108027634Y-117349107D01*
X107908883Y-117285633D01*
X107804791Y-117200209D01*
X107719367Y-117096117D01*
X107655893Y-116977366D01*
X107616803Y-116848505D01*
X107603000Y-116708360D01*
X107603000Y-114595640D01*
X107616803Y-114455495D01*
X107655893Y-114326634D01*
X107719367Y-114207883D01*
X107804791Y-114103791D01*
X107908883Y-114018367D01*
X108027634Y-113954893D01*
X108156495Y-113915803D01*
X108296640Y-113902000D01*
X109909360Y-113902000D01*
X110049505Y-113915803D01*
G37*
G36*
X150327991Y-113746175D02*
G01*
X150361879Y-113756455D01*
X150393112Y-113773150D01*
X150420486Y-113795614D01*
X150442950Y-113822988D01*
X150459645Y-113854221D01*
X150469925Y-113888109D01*
X150474000Y-113929488D01*
X150474000Y-114529712D01*
X150469925Y-114571091D01*
X150459645Y-114604979D01*
X150442950Y-114636212D01*
X150420486Y-114663586D01*
X150393112Y-114686050D01*
X150361879Y-114702745D01*
X150327991Y-114713025D01*
X150286612Y-114717100D01*
X149261388Y-114717100D01*
X149220009Y-114713025D01*
X149186121Y-114702745D01*
X149154888Y-114686050D01*
X149127514Y-114663586D01*
X149105050Y-114636212D01*
X149088355Y-114604979D01*
X149078075Y-114571091D01*
X149074000Y-114529712D01*
X149074000Y-113929488D01*
X149078075Y-113888109D01*
X149088355Y-113854221D01*
X149105050Y-113822988D01*
X149127514Y-113795614D01*
X149154888Y-113773150D01*
X149186121Y-113756455D01*
X149220009Y-113746175D01*
X149261388Y-113742100D01*
X150286612Y-113742100D01*
X150327991Y-113746175D01*
G37*
G36*
X128737991Y-113746175D02*
G01*
X128771879Y-113756455D01*
X128803112Y-113773150D01*
X128830486Y-113795614D01*
X128852950Y-113822988D01*
X128869645Y-113854221D01*
X128879925Y-113888109D01*
X128884000Y-113929488D01*
X128884000Y-114529712D01*
X128879925Y-114571091D01*
X128869645Y-114604979D01*
X128852950Y-114636212D01*
X128830486Y-114663586D01*
X128803112Y-114686050D01*
X128771879Y-114702745D01*
X128737991Y-114713025D01*
X128696612Y-114717100D01*
X127671388Y-114717100D01*
X127630009Y-114713025D01*
X127596121Y-114702745D01*
X127564888Y-114686050D01*
X127537514Y-114663586D01*
X127515050Y-114636212D01*
X127498355Y-114604979D01*
X127488075Y-114571091D01*
X127484000Y-114529712D01*
X127484000Y-113929488D01*
X127488075Y-113888109D01*
X127498355Y-113854221D01*
X127515050Y-113822988D01*
X127537514Y-113795614D01*
X127564888Y-113773150D01*
X127596121Y-113756455D01*
X127630009Y-113746175D01*
X127671388Y-113742100D01*
X128696612Y-113742100D01*
X128737991Y-113746175D01*
G37*
G36*
X131709791Y-113741575D02*
G01*
X131743679Y-113751855D01*
X131774912Y-113768550D01*
X131802286Y-113791014D01*
X131824750Y-113818388D01*
X131841445Y-113849621D01*
X131851725Y-113883509D01*
X131855800Y-113924888D01*
X131855800Y-114525112D01*
X131851725Y-114566491D01*
X131841445Y-114600379D01*
X131824750Y-114631612D01*
X131802286Y-114658986D01*
X131774912Y-114681450D01*
X131743679Y-114698145D01*
X131709791Y-114708425D01*
X131668412Y-114712500D01*
X130643188Y-114712500D01*
X130601809Y-114708425D01*
X130567921Y-114698145D01*
X130536688Y-114681450D01*
X130509314Y-114658986D01*
X130486850Y-114631612D01*
X130470155Y-114600379D01*
X130459875Y-114566491D01*
X130455800Y-114525112D01*
X130455800Y-113924888D01*
X130459875Y-113883509D01*
X130470155Y-113849621D01*
X130486850Y-113818388D01*
X130509314Y-113791014D01*
X130536688Y-113768550D01*
X130567921Y-113751855D01*
X130601809Y-113741575D01*
X130643188Y-113737500D01*
X131668412Y-113737500D01*
X131709791Y-113741575D01*
G37*
G36*
X141691991Y-113741575D02*
G01*
X141725879Y-113751855D01*
X141757112Y-113768550D01*
X141784486Y-113791014D01*
X141806950Y-113818388D01*
X141823645Y-113849621D01*
X141833925Y-113883509D01*
X141838000Y-113924888D01*
X141838000Y-114525112D01*
X141833925Y-114566491D01*
X141823645Y-114600379D01*
X141806950Y-114631612D01*
X141784486Y-114658986D01*
X141757112Y-114681450D01*
X141725879Y-114698145D01*
X141691991Y-114708425D01*
X141650612Y-114712500D01*
X140625388Y-114712500D01*
X140584009Y-114708425D01*
X140550121Y-114698145D01*
X140518888Y-114681450D01*
X140491514Y-114658986D01*
X140469050Y-114631612D01*
X140452355Y-114600379D01*
X140442075Y-114566491D01*
X140438000Y-114525112D01*
X140438000Y-113924888D01*
X140442075Y-113883509D01*
X140452355Y-113849621D01*
X140469050Y-113818388D01*
X140491514Y-113791014D01*
X140518888Y-113768550D01*
X140550121Y-113751855D01*
X140584009Y-113741575D01*
X140625388Y-113737500D01*
X141650612Y-113737500D01*
X141691991Y-113741575D01*
G37*
G36*
X147737191Y-113741575D02*
G01*
X147771079Y-113751855D01*
X147802312Y-113768550D01*
X147829686Y-113791014D01*
X147852150Y-113818388D01*
X147868845Y-113849621D01*
X147879125Y-113883509D01*
X147883200Y-113924888D01*
X147883200Y-114525112D01*
X147879125Y-114566491D01*
X147868845Y-114600379D01*
X147852150Y-114631612D01*
X147829686Y-114658986D01*
X147802312Y-114681450D01*
X147771079Y-114698145D01*
X147737191Y-114708425D01*
X147695812Y-114712500D01*
X146670588Y-114712500D01*
X146629209Y-114708425D01*
X146595321Y-114698145D01*
X146564088Y-114681450D01*
X146536714Y-114658986D01*
X146514250Y-114631612D01*
X146497555Y-114600379D01*
X146487275Y-114566491D01*
X146483200Y-114525112D01*
X146483200Y-113924888D01*
X146487275Y-113883509D01*
X146497555Y-113849621D01*
X146514250Y-113818388D01*
X146536714Y-113791014D01*
X146564088Y-113768550D01*
X146595321Y-113751855D01*
X146629209Y-113741575D01*
X146670588Y-113737500D01*
X147695812Y-113737500D01*
X147737191Y-113741575D01*
G37*
G36*
X122667391Y-113720775D02*
G01*
X122701279Y-113731055D01*
X122732512Y-113747750D01*
X122759886Y-113770214D01*
X122782350Y-113797588D01*
X122799045Y-113828821D01*
X122809325Y-113862709D01*
X122813400Y-113904088D01*
X122813400Y-114504312D01*
X122809325Y-114545691D01*
X122799045Y-114579579D01*
X122782350Y-114610812D01*
X122759886Y-114638186D01*
X122732512Y-114660650D01*
X122701279Y-114677345D01*
X122667391Y-114687625D01*
X122626012Y-114691700D01*
X121600788Y-114691700D01*
X121559409Y-114687625D01*
X121525521Y-114677345D01*
X121494288Y-114660650D01*
X121466914Y-114638186D01*
X121444450Y-114610812D01*
X121427755Y-114579579D01*
X121417475Y-114545691D01*
X121413400Y-114504312D01*
X121413400Y-113904088D01*
X121417475Y-113862709D01*
X121427755Y-113828821D01*
X121444450Y-113797588D01*
X121466914Y-113770214D01*
X121494288Y-113747750D01*
X121525521Y-113731055D01*
X121559409Y-113720775D01*
X121600788Y-113716700D01*
X122626012Y-113716700D01*
X122667391Y-113720775D01*
G37*
G36*
X160958520Y-112848586D02*
G01*
X161122310Y-112916430D01*
X161269717Y-113014924D01*
X161395076Y-113140283D01*
X161493570Y-113287690D01*
X161493571Y-113287692D01*
X161561414Y-113451480D01*
X161596000Y-113625356D01*
X161596000Y-113802644D01*
X161561414Y-113976520D01*
X161493570Y-114140310D01*
X161395076Y-114287717D01*
X161269717Y-114413076D01*
X161122310Y-114511570D01*
X161122309Y-114511571D01*
X161122308Y-114511571D01*
X160958520Y-114579414D01*
X160784644Y-114614000D01*
X160607356Y-114614000D01*
X160433480Y-114579414D01*
X160269692Y-114511571D01*
X160269691Y-114511571D01*
X160269690Y-114511570D01*
X160122283Y-114413076D01*
X159996924Y-114287717D01*
X159898430Y-114140310D01*
X159830586Y-113976520D01*
X159796000Y-113802644D01*
X159796000Y-113625356D01*
X159830586Y-113451480D01*
X159898429Y-113287692D01*
X159898430Y-113287690D01*
X159996924Y-113140283D01*
X160122283Y-113014924D01*
X160269690Y-112916430D01*
X160433480Y-112848586D01*
X160607356Y-112814000D01*
X160784644Y-112814000D01*
X160958520Y-112848586D01*
G37*
G36*
X154359002Y-111822484D02*
G01*
X154391027Y-111832199D01*
X154420534Y-111847971D01*
X154446401Y-111869199D01*
X154467629Y-111895066D01*
X154483401Y-111924573D01*
X154493116Y-111956598D01*
X154497000Y-111996036D01*
X154497000Y-112991164D01*
X154493116Y-113030602D01*
X154483401Y-113062627D01*
X154467629Y-113092134D01*
X154446401Y-113118001D01*
X154420534Y-113139229D01*
X154391027Y-113155001D01*
X154359002Y-113164716D01*
X154319564Y-113168600D01*
X151324436Y-113168600D01*
X151284998Y-113164716D01*
X151252973Y-113155001D01*
X151223466Y-113139229D01*
X151197599Y-113118001D01*
X151176371Y-113092134D01*
X151160599Y-113062627D01*
X151150884Y-113030602D01*
X151147000Y-112991164D01*
X151147000Y-111996036D01*
X151150884Y-111956598D01*
X151160599Y-111924573D01*
X151176371Y-111895066D01*
X151197599Y-111869199D01*
X151223466Y-111847971D01*
X151252973Y-111832199D01*
X151284998Y-111822484D01*
X151324436Y-111818600D01*
X154319564Y-111818600D01*
X154359002Y-111822484D01*
G37*
G36*
X136071002Y-111822484D02*
G01*
X136103027Y-111832199D01*
X136132534Y-111847971D01*
X136158401Y-111869199D01*
X136179629Y-111895066D01*
X136195401Y-111924573D01*
X136205116Y-111956598D01*
X136209000Y-111996036D01*
X136209000Y-112991164D01*
X136205116Y-113030602D01*
X136195401Y-113062627D01*
X136179629Y-113092134D01*
X136158401Y-113118001D01*
X136132534Y-113139229D01*
X136103027Y-113155001D01*
X136071002Y-113164716D01*
X136031564Y-113168600D01*
X133036436Y-113168600D01*
X132996998Y-113164716D01*
X132964973Y-113155001D01*
X132935466Y-113139229D01*
X132909599Y-113118001D01*
X132888371Y-113092134D01*
X132872599Y-113062627D01*
X132862884Y-113030602D01*
X132859000Y-112991164D01*
X132859000Y-111996036D01*
X132862884Y-111956598D01*
X132872599Y-111924573D01*
X132888371Y-111895066D01*
X132909599Y-111869199D01*
X132935466Y-111847971D01*
X132964973Y-111832199D01*
X132996998Y-111822484D01*
X133036436Y-111818600D01*
X136031564Y-111818600D01*
X136071002Y-111822484D01*
G37*
G36*
X126673002Y-111822484D02*
G01*
X126705027Y-111832199D01*
X126734534Y-111847971D01*
X126760401Y-111869199D01*
X126781629Y-111895066D01*
X126797401Y-111924573D01*
X126807116Y-111956598D01*
X126811000Y-111996036D01*
X126811000Y-112991164D01*
X126807116Y-113030602D01*
X126797401Y-113062627D01*
X126781629Y-113092134D01*
X126760401Y-113118001D01*
X126734534Y-113139229D01*
X126705027Y-113155001D01*
X126673002Y-113164716D01*
X126633564Y-113168600D01*
X123638436Y-113168600D01*
X123598998Y-113164716D01*
X123566973Y-113155001D01*
X123537466Y-113139229D01*
X123511599Y-113118001D01*
X123490371Y-113092134D01*
X123474599Y-113062627D01*
X123464884Y-113030602D01*
X123461000Y-112991164D01*
X123461000Y-111996036D01*
X123464884Y-111956598D01*
X123474599Y-111924573D01*
X123490371Y-111895066D01*
X123511599Y-111869199D01*
X123537466Y-111847971D01*
X123566973Y-111832199D01*
X123598998Y-111822484D01*
X123638436Y-111818600D01*
X126633564Y-111818600D01*
X126673002Y-111822484D01*
G37*
G36*
X145697602Y-111780484D02*
G01*
X145729627Y-111790199D01*
X145759134Y-111805971D01*
X145785001Y-111827199D01*
X145806229Y-111853066D01*
X145822001Y-111882573D01*
X145831716Y-111914598D01*
X145835600Y-111954036D01*
X145835600Y-112949164D01*
X145831716Y-112988602D01*
X145822001Y-113020627D01*
X145806229Y-113050134D01*
X145785001Y-113076001D01*
X145759134Y-113097229D01*
X145729627Y-113113001D01*
X145697602Y-113122716D01*
X145658164Y-113126600D01*
X142663036Y-113126600D01*
X142623598Y-113122716D01*
X142591573Y-113113001D01*
X142562066Y-113097229D01*
X142536199Y-113076001D01*
X142514971Y-113050134D01*
X142499199Y-113020627D01*
X142489484Y-112988602D01*
X142485600Y-112949164D01*
X142485600Y-111954036D01*
X142489484Y-111914598D01*
X142499199Y-111882573D01*
X142514971Y-111853066D01*
X142536199Y-111827199D01*
X142562066Y-111805971D01*
X142591573Y-111790199D01*
X142623598Y-111780484D01*
X142663036Y-111776600D01*
X145658164Y-111776600D01*
X145697602Y-111780484D01*
G37*
G36*
X128737991Y-111871175D02*
G01*
X128771879Y-111881455D01*
X128803112Y-111898150D01*
X128830486Y-111920614D01*
X128852950Y-111947988D01*
X128869645Y-111979221D01*
X128879925Y-112013109D01*
X128884000Y-112054488D01*
X128884000Y-112654712D01*
X128879925Y-112696091D01*
X128869645Y-112729979D01*
X128852950Y-112761212D01*
X128830486Y-112788586D01*
X128803112Y-112811050D01*
X128771879Y-112827745D01*
X128737991Y-112838025D01*
X128696612Y-112842100D01*
X127671388Y-112842100D01*
X127630009Y-112838025D01*
X127596121Y-112827745D01*
X127564888Y-112811050D01*
X127537514Y-112788586D01*
X127515050Y-112761212D01*
X127498355Y-112729979D01*
X127488075Y-112696091D01*
X127484000Y-112654712D01*
X127484000Y-112054488D01*
X127488075Y-112013109D01*
X127498355Y-111979221D01*
X127515050Y-111947988D01*
X127537514Y-111920614D01*
X127564888Y-111898150D01*
X127596121Y-111881455D01*
X127630009Y-111871175D01*
X127671388Y-111867100D01*
X128696612Y-111867100D01*
X128737991Y-111871175D01*
G37*
G36*
X150327991Y-111871175D02*
G01*
X150361879Y-111881455D01*
X150393112Y-111898150D01*
X150420486Y-111920614D01*
X150442950Y-111947988D01*
X150459645Y-111979221D01*
X150469925Y-112013109D01*
X150474000Y-112054488D01*
X150474000Y-112654712D01*
X150469925Y-112696091D01*
X150459645Y-112729979D01*
X150442950Y-112761212D01*
X150420486Y-112788586D01*
X150393112Y-112811050D01*
X150361879Y-112827745D01*
X150327991Y-112838025D01*
X150286612Y-112842100D01*
X149261388Y-112842100D01*
X149220009Y-112838025D01*
X149186121Y-112827745D01*
X149154888Y-112811050D01*
X149127514Y-112788586D01*
X149105050Y-112761212D01*
X149088355Y-112729979D01*
X149078075Y-112696091D01*
X149074000Y-112654712D01*
X149074000Y-112054488D01*
X149078075Y-112013109D01*
X149088355Y-111979221D01*
X149105050Y-111947988D01*
X149127514Y-111920614D01*
X149154888Y-111898150D01*
X149186121Y-111881455D01*
X149220009Y-111871175D01*
X149261388Y-111867100D01*
X150286612Y-111867100D01*
X150327991Y-111871175D01*
G37*
G36*
X141691991Y-111866575D02*
G01*
X141725879Y-111876855D01*
X141757112Y-111893550D01*
X141784486Y-111916014D01*
X141806950Y-111943388D01*
X141823645Y-111974621D01*
X141833925Y-112008509D01*
X141838000Y-112049888D01*
X141838000Y-112650112D01*
X141833925Y-112691491D01*
X141823645Y-112725379D01*
X141806950Y-112756612D01*
X141784486Y-112783986D01*
X141757112Y-112806450D01*
X141725879Y-112823145D01*
X141691991Y-112833425D01*
X141650612Y-112837500D01*
X140625388Y-112837500D01*
X140584009Y-112833425D01*
X140550121Y-112823145D01*
X140518888Y-112806450D01*
X140491514Y-112783986D01*
X140469050Y-112756612D01*
X140452355Y-112725379D01*
X140442075Y-112691491D01*
X140438000Y-112650112D01*
X140438000Y-112049888D01*
X140442075Y-112008509D01*
X140452355Y-111974621D01*
X140469050Y-111943388D01*
X140491514Y-111916014D01*
X140518888Y-111893550D01*
X140550121Y-111876855D01*
X140584009Y-111866575D01*
X140625388Y-111862500D01*
X141650612Y-111862500D01*
X141691991Y-111866575D01*
G37*
G36*
X131709791Y-111866575D02*
G01*
X131743679Y-111876855D01*
X131774912Y-111893550D01*
X131802286Y-111916014D01*
X131824750Y-111943388D01*
X131841445Y-111974621D01*
X131851725Y-112008509D01*
X131855800Y-112049888D01*
X131855800Y-112650112D01*
X131851725Y-112691491D01*
X131841445Y-112725379D01*
X131824750Y-112756612D01*
X131802286Y-112783986D01*
X131774912Y-112806450D01*
X131743679Y-112823145D01*
X131709791Y-112833425D01*
X131668412Y-112837500D01*
X130643188Y-112837500D01*
X130601809Y-112833425D01*
X130567921Y-112823145D01*
X130536688Y-112806450D01*
X130509314Y-112783986D01*
X130486850Y-112756612D01*
X130470155Y-112725379D01*
X130459875Y-112691491D01*
X130455800Y-112650112D01*
X130455800Y-112049888D01*
X130459875Y-112008509D01*
X130470155Y-111974621D01*
X130486850Y-111943388D01*
X130509314Y-111916014D01*
X130536688Y-111893550D01*
X130567921Y-111876855D01*
X130601809Y-111866575D01*
X130643188Y-111862500D01*
X131668412Y-111862500D01*
X131709791Y-111866575D01*
G37*
G36*
X147737191Y-111866575D02*
G01*
X147771079Y-111876855D01*
X147802312Y-111893550D01*
X147829686Y-111916014D01*
X147852150Y-111943388D01*
X147868845Y-111974621D01*
X147879125Y-112008509D01*
X147883200Y-112049888D01*
X147883200Y-112650112D01*
X147879125Y-112691491D01*
X147868845Y-112725379D01*
X147852150Y-112756612D01*
X147829686Y-112783986D01*
X147802312Y-112806450D01*
X147771079Y-112823145D01*
X147737191Y-112833425D01*
X147695812Y-112837500D01*
X146670588Y-112837500D01*
X146629209Y-112833425D01*
X146595321Y-112823145D01*
X146564088Y-112806450D01*
X146536714Y-112783986D01*
X146514250Y-112756612D01*
X146497555Y-112725379D01*
X146487275Y-112691491D01*
X146483200Y-112650112D01*
X146483200Y-112049888D01*
X146487275Y-112008509D01*
X146497555Y-111974621D01*
X146514250Y-111943388D01*
X146536714Y-111916014D01*
X146564088Y-111893550D01*
X146595321Y-111876855D01*
X146629209Y-111866575D01*
X146670588Y-111862500D01*
X147695812Y-111862500D01*
X147737191Y-111866575D01*
G37*
G36*
X122667391Y-111845775D02*
G01*
X122701279Y-111856055D01*
X122732512Y-111872750D01*
X122759886Y-111895214D01*
X122782350Y-111922588D01*
X122799045Y-111953821D01*
X122809325Y-111987709D01*
X122813400Y-112029088D01*
X122813400Y-112629312D01*
X122809325Y-112670691D01*
X122799045Y-112704579D01*
X122782350Y-112735812D01*
X122759886Y-112763186D01*
X122732512Y-112785650D01*
X122701279Y-112802345D01*
X122667391Y-112812625D01*
X122626012Y-112816700D01*
X121600788Y-112816700D01*
X121559409Y-112812625D01*
X121525521Y-112802345D01*
X121494288Y-112785650D01*
X121466914Y-112763186D01*
X121444450Y-112735812D01*
X121427755Y-112704579D01*
X121417475Y-112670691D01*
X121413400Y-112629312D01*
X121413400Y-112029088D01*
X121417475Y-111987709D01*
X121427755Y-111953821D01*
X121444450Y-111922588D01*
X121466914Y-111895214D01*
X121494288Y-111872750D01*
X121525521Y-111856055D01*
X121559409Y-111845775D01*
X121600788Y-111841700D01*
X122626012Y-111841700D01*
X122667391Y-111845775D01*
G37*
G36*
X154341491Y-109604075D02*
G01*
X154375379Y-109614355D01*
X154406612Y-109631050D01*
X154433986Y-109653514D01*
X154456450Y-109680888D01*
X154473145Y-109712121D01*
X154483425Y-109746009D01*
X154487500Y-109787388D01*
X154487500Y-110812612D01*
X154483425Y-110853991D01*
X154473145Y-110887879D01*
X154456450Y-110919112D01*
X154433986Y-110946486D01*
X154406612Y-110968950D01*
X154375379Y-110985645D01*
X154341491Y-110995925D01*
X154300112Y-111000000D01*
X153699888Y-111000000D01*
X153658509Y-110995925D01*
X153624621Y-110985645D01*
X153593388Y-110968950D01*
X153566014Y-110946486D01*
X153543550Y-110919112D01*
X153526855Y-110887879D01*
X153516575Y-110853991D01*
X153512500Y-110812612D01*
X153512500Y-109787388D01*
X153516575Y-109746009D01*
X153526855Y-109712121D01*
X153543550Y-109680888D01*
X153566014Y-109653514D01*
X153593388Y-109631050D01*
X153624621Y-109614355D01*
X153658509Y-109604075D01*
X153699888Y-109600000D01*
X154300112Y-109600000D01*
X154341491Y-109604075D01*
G37*
G36*
X152466491Y-109604075D02*
G01*
X152500379Y-109614355D01*
X152531612Y-109631050D01*
X152558986Y-109653514D01*
X152581450Y-109680888D01*
X152598145Y-109712121D01*
X152608425Y-109746009D01*
X152612500Y-109787388D01*
X152612500Y-110812612D01*
X152608425Y-110853991D01*
X152598145Y-110887879D01*
X152581450Y-110919112D01*
X152558986Y-110946486D01*
X152531612Y-110968950D01*
X152500379Y-110985645D01*
X152466491Y-110995925D01*
X152425112Y-111000000D01*
X151824888Y-111000000D01*
X151783509Y-110995925D01*
X151749621Y-110985645D01*
X151718388Y-110968950D01*
X151691014Y-110946486D01*
X151668550Y-110919112D01*
X151651855Y-110887879D01*
X151641575Y-110853991D01*
X151637500Y-110812612D01*
X151637500Y-109787388D01*
X151641575Y-109746009D01*
X151651855Y-109712121D01*
X151668550Y-109680888D01*
X151691014Y-109653514D01*
X151718388Y-109631050D01*
X151749621Y-109614355D01*
X151783509Y-109604075D01*
X151824888Y-109600000D01*
X152425112Y-109600000D01*
X152466491Y-109604075D01*
G37*
G36*
X136041491Y-109504075D02*
G01*
X136075379Y-109514355D01*
X136106612Y-109531050D01*
X136133986Y-109553514D01*
X136156450Y-109580888D01*
X136173145Y-109612121D01*
X136183425Y-109646009D01*
X136187500Y-109687388D01*
X136187500Y-110712612D01*
X136183425Y-110753991D01*
X136173145Y-110787879D01*
X136156450Y-110819112D01*
X136133986Y-110846486D01*
X136106612Y-110868950D01*
X136075379Y-110885645D01*
X136041491Y-110895925D01*
X136000112Y-110900000D01*
X135399888Y-110900000D01*
X135358509Y-110895925D01*
X135324621Y-110885645D01*
X135293388Y-110868950D01*
X135266014Y-110846486D01*
X135243550Y-110819112D01*
X135226855Y-110787879D01*
X135216575Y-110753991D01*
X135212500Y-110712612D01*
X135212500Y-109687388D01*
X135216575Y-109646009D01*
X135226855Y-109612121D01*
X135243550Y-109580888D01*
X135266014Y-109553514D01*
X135293388Y-109531050D01*
X135324621Y-109514355D01*
X135358509Y-109504075D01*
X135399888Y-109500000D01*
X136000112Y-109500000D01*
X136041491Y-109504075D01*
G37*
G36*
X134166491Y-109504075D02*
G01*
X134200379Y-109514355D01*
X134231612Y-109531050D01*
X134258986Y-109553514D01*
X134281450Y-109580888D01*
X134298145Y-109612121D01*
X134308425Y-109646009D01*
X134312500Y-109687388D01*
X134312500Y-110712612D01*
X134308425Y-110753991D01*
X134298145Y-110787879D01*
X134281450Y-110819112D01*
X134258986Y-110846486D01*
X134231612Y-110868950D01*
X134200379Y-110885645D01*
X134166491Y-110895925D01*
X134125112Y-110900000D01*
X133524888Y-110900000D01*
X133483509Y-110895925D01*
X133449621Y-110885645D01*
X133418388Y-110868950D01*
X133391014Y-110846486D01*
X133368550Y-110819112D01*
X133351855Y-110787879D01*
X133341575Y-110753991D01*
X133337500Y-110712612D01*
X133337500Y-109687388D01*
X133341575Y-109646009D01*
X133351855Y-109612121D01*
X133368550Y-109580888D01*
X133391014Y-109553514D01*
X133418388Y-109531050D01*
X133449621Y-109514355D01*
X133483509Y-109504075D01*
X133524888Y-109500000D01*
X134125112Y-109500000D01*
X134166491Y-109504075D01*
G37*
G36*
X160922896Y-107841500D02*
G01*
X160958520Y-107848586D01*
X161122310Y-107916430D01*
X161269717Y-108014924D01*
X161395076Y-108140283D01*
X161426625Y-108187500D01*
X161493571Y-108287692D01*
X161561414Y-108451480D01*
X161591653Y-108603500D01*
X161596000Y-108625358D01*
X161596000Y-108802642D01*
X161561414Y-108976520D01*
X161493570Y-109140310D01*
X161395076Y-109287717D01*
X161269717Y-109413076D01*
X161122310Y-109511570D01*
X161122309Y-109511571D01*
X161122308Y-109511571D01*
X160958520Y-109579414D01*
X160784644Y-109614000D01*
X160607356Y-109614000D01*
X160433480Y-109579414D01*
X160269692Y-109511571D01*
X160269691Y-109511571D01*
X160269690Y-109511570D01*
X160122283Y-109413076D01*
X159996924Y-109287717D01*
X159898430Y-109140310D01*
X159830586Y-108976520D01*
X159796000Y-108802642D01*
X159796000Y-108625358D01*
X159800348Y-108603500D01*
X159830586Y-108451480D01*
X159898429Y-108287692D01*
X159965375Y-108187500D01*
X159996924Y-108140283D01*
X160122283Y-108014924D01*
X160269690Y-107916430D01*
X160433480Y-107848586D01*
X160469104Y-107841500D01*
X160607356Y-107814000D01*
X160784644Y-107814000D01*
X160922896Y-107841500D01*
G37*
G36*
X153812600Y-108603500D02*
G01*
X152339400Y-108603500D01*
X152339400Y-96843300D01*
X153812600Y-96843300D01*
X153812600Y-108603500D01*
G37*
G36*
X134508600Y-108603500D02*
G01*
X133035400Y-108603500D01*
X133035400Y-96843300D01*
X134508600Y-96843300D01*
X134508600Y-108603500D01*
G37*
G36*
X126939400Y-108603500D02*
G01*
X125466200Y-108603500D01*
X125466200Y-96843300D01*
X126939400Y-96843300D01*
X126939400Y-108603500D01*
G37*
G36*
X146243400Y-108603500D02*
G01*
X144770200Y-108603500D01*
X144770200Y-96843300D01*
X146243400Y-96843300D01*
X146243400Y-108603500D01*
G37*
G36*
X117653991Y-107216575D02*
G01*
X117687879Y-107226855D01*
X117719112Y-107243550D01*
X117746486Y-107266014D01*
X117768950Y-107293388D01*
X117785645Y-107324621D01*
X117795925Y-107358509D01*
X117800000Y-107399888D01*
X117800000Y-108000112D01*
X117795925Y-108041491D01*
X117785645Y-108075379D01*
X117768950Y-108106612D01*
X117746486Y-108133986D01*
X117719112Y-108156450D01*
X117687879Y-108173145D01*
X117653991Y-108183425D01*
X117612612Y-108187500D01*
X116587388Y-108187500D01*
X116546009Y-108183425D01*
X116512121Y-108173145D01*
X116480888Y-108156450D01*
X116453514Y-108133986D01*
X116431050Y-108106612D01*
X116414355Y-108075379D01*
X116404075Y-108041491D01*
X116400000Y-108000112D01*
X116400000Y-107399888D01*
X116404075Y-107358509D01*
X116414355Y-107324621D01*
X116431050Y-107293388D01*
X116453514Y-107266014D01*
X116480888Y-107243550D01*
X116512121Y-107226855D01*
X116546009Y-107216575D01*
X116587388Y-107212500D01*
X117612612Y-107212500D01*
X117653991Y-107216575D01*
G37*
G36*
X115389825Y-106219745D02*
G01*
X115420490Y-106229048D01*
X115448748Y-106244152D01*
X115473519Y-106264481D01*
X115493848Y-106289252D01*
X115508952Y-106317510D01*
X115518255Y-106348175D01*
X115522000Y-106386203D01*
X115522000Y-107645797D01*
X115518255Y-107683825D01*
X115508952Y-107714490D01*
X115493848Y-107742748D01*
X115473519Y-107767519D01*
X115448748Y-107787848D01*
X115420490Y-107802952D01*
X115389825Y-107812255D01*
X115351797Y-107816000D01*
X112192203Y-107816000D01*
X112154175Y-107812255D01*
X112123510Y-107802952D01*
X112095252Y-107787848D01*
X112070481Y-107767519D01*
X112050152Y-107742748D01*
X112035048Y-107714490D01*
X112025745Y-107683825D01*
X112022000Y-107645797D01*
X112022000Y-106386203D01*
X112025745Y-106348175D01*
X112035048Y-106317510D01*
X112050152Y-106289252D01*
X112070481Y-106264481D01*
X112095252Y-106244152D01*
X112123510Y-106229048D01*
X112154175Y-106219745D01*
X112192203Y-106216000D01*
X115351797Y-106216000D01*
X115389825Y-106219745D01*
G37*
G36*
X109989825Y-106219745D02*
G01*
X110020490Y-106229048D01*
X110048748Y-106244152D01*
X110073519Y-106264481D01*
X110093848Y-106289252D01*
X110108952Y-106317510D01*
X110118255Y-106348175D01*
X110122000Y-106386203D01*
X110122000Y-107645797D01*
X110118255Y-107683825D01*
X110108952Y-107714490D01*
X110093848Y-107742748D01*
X110073519Y-107767519D01*
X110048748Y-107787848D01*
X110020490Y-107802952D01*
X109989825Y-107812255D01*
X109951797Y-107816000D01*
X106792203Y-107816000D01*
X106754175Y-107812255D01*
X106723510Y-107802952D01*
X106695252Y-107787848D01*
X106670481Y-107767519D01*
X106650152Y-107742748D01*
X106635048Y-107714490D01*
X106625745Y-107683825D01*
X106622000Y-107645797D01*
X106622000Y-106386203D01*
X106625745Y-106348175D01*
X106635048Y-106317510D01*
X106650152Y-106289252D01*
X106670481Y-106264481D01*
X106695252Y-106244152D01*
X106723510Y-106229048D01*
X106754175Y-106219745D01*
X106792203Y-106216000D01*
X109951797Y-106216000D01*
X109989825Y-106219745D01*
G37*
G36*
X117653991Y-105341575D02*
G01*
X117687879Y-105351855D01*
X117719112Y-105368550D01*
X117746486Y-105391014D01*
X117768950Y-105418388D01*
X117785645Y-105449621D01*
X117795925Y-105483509D01*
X117800000Y-105524888D01*
X117800000Y-106125112D01*
X117795925Y-106166491D01*
X117785645Y-106200379D01*
X117768950Y-106231612D01*
X117746486Y-106258986D01*
X117719112Y-106281450D01*
X117687879Y-106298145D01*
X117653991Y-106308425D01*
X117612612Y-106312500D01*
X116587388Y-106312500D01*
X116546009Y-106308425D01*
X116512121Y-106298145D01*
X116480888Y-106281450D01*
X116453514Y-106258986D01*
X116431050Y-106231612D01*
X116414355Y-106200379D01*
X116404075Y-106166491D01*
X116400000Y-106125112D01*
X116400000Y-105524888D01*
X116404075Y-105483509D01*
X116414355Y-105449621D01*
X116431050Y-105418388D01*
X116453514Y-105391014D01*
X116480888Y-105368550D01*
X116512121Y-105351855D01*
X116546009Y-105341575D01*
X116587388Y-105337500D01*
X117612612Y-105337500D01*
X117653991Y-105341575D01*
G37*
G36*
X143458391Y-104567475D02*
G01*
X143492279Y-104577755D01*
X143523512Y-104594450D01*
X143550886Y-104616914D01*
X143573350Y-104644288D01*
X143590045Y-104675521D01*
X143600325Y-104709409D01*
X143604400Y-104750788D01*
X143604400Y-105776012D01*
X143600325Y-105817391D01*
X143590045Y-105851279D01*
X143573350Y-105882512D01*
X143550886Y-105909886D01*
X143523512Y-105932350D01*
X143492279Y-105949045D01*
X143458391Y-105959325D01*
X143417012Y-105963400D01*
X142816788Y-105963400D01*
X142775409Y-105959325D01*
X142741521Y-105949045D01*
X142710288Y-105932350D01*
X142682914Y-105909886D01*
X142660450Y-105882512D01*
X142643755Y-105851279D01*
X142633475Y-105817391D01*
X142629400Y-105776012D01*
X142629400Y-104750788D01*
X142633475Y-104709409D01*
X142643755Y-104675521D01*
X142660450Y-104644288D01*
X142682914Y-104616914D01*
X142710288Y-104594450D01*
X142741521Y-104577755D01*
X142775409Y-104567475D01*
X142816788Y-104563400D01*
X143417012Y-104563400D01*
X143458391Y-104567475D01*
G37*
G36*
X124152091Y-104567475D02*
G01*
X124185979Y-104577755D01*
X124217212Y-104594450D01*
X124244586Y-104616914D01*
X124267050Y-104644288D01*
X124283745Y-104675521D01*
X124294025Y-104709409D01*
X124298100Y-104750788D01*
X124298100Y-105776012D01*
X124294025Y-105817391D01*
X124283745Y-105851279D01*
X124267050Y-105882512D01*
X124244586Y-105909886D01*
X124217212Y-105932350D01*
X124185979Y-105949045D01*
X124152091Y-105959325D01*
X124110712Y-105963400D01*
X123510488Y-105963400D01*
X123469109Y-105959325D01*
X123435221Y-105949045D01*
X123403988Y-105932350D01*
X123376614Y-105909886D01*
X123354150Y-105882512D01*
X123337455Y-105851279D01*
X123327175Y-105817391D01*
X123323100Y-105776012D01*
X123323100Y-104750788D01*
X123327175Y-104709409D01*
X123337455Y-104675521D01*
X123354150Y-104644288D01*
X123376614Y-104616914D01*
X123403988Y-104594450D01*
X123435221Y-104577755D01*
X123469109Y-104567475D01*
X123510488Y-104563400D01*
X124110712Y-104563400D01*
X124152091Y-104567475D01*
G37*
G36*
X141583391Y-104567475D02*
G01*
X141617279Y-104577755D01*
X141648512Y-104594450D01*
X141675886Y-104616914D01*
X141698350Y-104644288D01*
X141715045Y-104675521D01*
X141725325Y-104709409D01*
X141729400Y-104750788D01*
X141729400Y-105776012D01*
X141725325Y-105817391D01*
X141715045Y-105851279D01*
X141698350Y-105882512D01*
X141675886Y-105909886D01*
X141648512Y-105932350D01*
X141617279Y-105949045D01*
X141583391Y-105959325D01*
X141542012Y-105963400D01*
X140941788Y-105963400D01*
X140900409Y-105959325D01*
X140866521Y-105949045D01*
X140835288Y-105932350D01*
X140807914Y-105909886D01*
X140785450Y-105882512D01*
X140768755Y-105851279D01*
X140758475Y-105817391D01*
X140754400Y-105776012D01*
X140754400Y-104750788D01*
X140758475Y-104709409D01*
X140768755Y-104675521D01*
X140785450Y-104644288D01*
X140807914Y-104616914D01*
X140835288Y-104594450D01*
X140866521Y-104577755D01*
X140900409Y-104567475D01*
X140941788Y-104563400D01*
X141542012Y-104563400D01*
X141583391Y-104567475D01*
G37*
G36*
X122277091Y-104567475D02*
G01*
X122310979Y-104577755D01*
X122342212Y-104594450D01*
X122369586Y-104616914D01*
X122392050Y-104644288D01*
X122408745Y-104675521D01*
X122419025Y-104709409D01*
X122423100Y-104750788D01*
X122423100Y-105776012D01*
X122419025Y-105817391D01*
X122408745Y-105851279D01*
X122392050Y-105882512D01*
X122369586Y-105909886D01*
X122342212Y-105932350D01*
X122310979Y-105949045D01*
X122277091Y-105959325D01*
X122235712Y-105963400D01*
X121635488Y-105963400D01*
X121594109Y-105959325D01*
X121560221Y-105949045D01*
X121528988Y-105932350D01*
X121501614Y-105909886D01*
X121479150Y-105882512D01*
X121462455Y-105851279D01*
X121452175Y-105817391D01*
X121448100Y-105776012D01*
X121448100Y-104750788D01*
X121452175Y-104709409D01*
X121462455Y-104675521D01*
X121479150Y-104644288D01*
X121501614Y-104616914D01*
X121528988Y-104594450D01*
X121560221Y-104577755D01*
X121594109Y-104567475D01*
X121635488Y-104563400D01*
X122235712Y-104563400D01*
X122277091Y-104567475D01*
G37*
G36*
X160903792Y-102837700D02*
G01*
X160958520Y-102848586D01*
X161122310Y-102916430D01*
X161269717Y-103014924D01*
X161395076Y-103140283D01*
X161493570Y-103287690D01*
X161493571Y-103287692D01*
X161561414Y-103451480D01*
X161596000Y-103625356D01*
X161596000Y-103802644D01*
X161561414Y-103976520D01*
X161507078Y-104107700D01*
X161493570Y-104140310D01*
X161395076Y-104287717D01*
X161269717Y-104413076D01*
X161122310Y-104511570D01*
X161122309Y-104511571D01*
X161122308Y-104511571D01*
X160958520Y-104579414D01*
X160784644Y-104614000D01*
X160607356Y-104614000D01*
X160433480Y-104579414D01*
X160269692Y-104511571D01*
X160269691Y-104511571D01*
X160269690Y-104511570D01*
X160122283Y-104413076D01*
X159996924Y-104287717D01*
X159898430Y-104140310D01*
X159884923Y-104107700D01*
X159830586Y-103976520D01*
X159796000Y-103802644D01*
X159796000Y-103625356D01*
X159830586Y-103451480D01*
X159898429Y-103287692D01*
X159898430Y-103287690D01*
X159996924Y-103140283D01*
X160122283Y-103014924D01*
X160269690Y-102916430D01*
X160433480Y-102848586D01*
X160488208Y-102837700D01*
X160607356Y-102814000D01*
X160784644Y-102814000D01*
X160903792Y-102837700D01*
G37*
G36*
X131816200Y-104577600D02*
G01*
X128158600Y-104577600D01*
X128158600Y-100869200D01*
X131816200Y-100869200D01*
X131816200Y-104577600D01*
G37*
G36*
X151120200Y-104577600D02*
G01*
X147462600Y-104577600D01*
X147462600Y-100869200D01*
X151120200Y-100869200D01*
X151120200Y-104577600D01*
G37*
G36*
X124445391Y-101223975D02*
G01*
X124479279Y-101234255D01*
X124510512Y-101250950D01*
X124537886Y-101273414D01*
X124560350Y-101300788D01*
X124577045Y-101332021D01*
X124587325Y-101365909D01*
X124591400Y-101407288D01*
X124591400Y-102007512D01*
X124587325Y-102048891D01*
X124577045Y-102082779D01*
X124560350Y-102114012D01*
X124537886Y-102141386D01*
X124510512Y-102163850D01*
X124479279Y-102180545D01*
X124445391Y-102190825D01*
X124404012Y-102194900D01*
X123378788Y-102194900D01*
X123337409Y-102190825D01*
X123303521Y-102180545D01*
X123272288Y-102163850D01*
X123244914Y-102141386D01*
X123222450Y-102114012D01*
X123205755Y-102082779D01*
X123195475Y-102048891D01*
X123191400Y-102007512D01*
X123191400Y-101407288D01*
X123195475Y-101365909D01*
X123205755Y-101332021D01*
X123222450Y-101300788D01*
X123244914Y-101273414D01*
X123272288Y-101250950D01*
X123303521Y-101234255D01*
X123337409Y-101223975D01*
X123378788Y-101219900D01*
X124404012Y-101219900D01*
X124445391Y-101223975D01*
G37*
G36*
X122438791Y-101223975D02*
G01*
X122472679Y-101234255D01*
X122503912Y-101250950D01*
X122531286Y-101273414D01*
X122553750Y-101300788D01*
X122570445Y-101332021D01*
X122580725Y-101365909D01*
X122584800Y-101407288D01*
X122584800Y-102007512D01*
X122580725Y-102048891D01*
X122570445Y-102082779D01*
X122553750Y-102114012D01*
X122531286Y-102141386D01*
X122503912Y-102163850D01*
X122472679Y-102180545D01*
X122438791Y-102190825D01*
X122397412Y-102194900D01*
X121372188Y-102194900D01*
X121330809Y-102190825D01*
X121296921Y-102180545D01*
X121265688Y-102163850D01*
X121238314Y-102141386D01*
X121215850Y-102114012D01*
X121199155Y-102082779D01*
X121188875Y-102048891D01*
X121184800Y-102007512D01*
X121184800Y-101407288D01*
X121188875Y-101365909D01*
X121199155Y-101332021D01*
X121215850Y-101300788D01*
X121238314Y-101273414D01*
X121265688Y-101250950D01*
X121296921Y-101234255D01*
X121330809Y-101223975D01*
X121372188Y-101219900D01*
X122397412Y-101219900D01*
X122438791Y-101223975D01*
G37*
G36*
X141717391Y-101223975D02*
G01*
X141751279Y-101234255D01*
X141782512Y-101250950D01*
X141809886Y-101273414D01*
X141832350Y-101300788D01*
X141849045Y-101332021D01*
X141859325Y-101365909D01*
X141863400Y-101407288D01*
X141863400Y-102007512D01*
X141859325Y-102048891D01*
X141849045Y-102082779D01*
X141832350Y-102114012D01*
X141809886Y-102141386D01*
X141782512Y-102163850D01*
X141751279Y-102180545D01*
X141717391Y-102190825D01*
X141676012Y-102194900D01*
X140650788Y-102194900D01*
X140609409Y-102190825D01*
X140575521Y-102180545D01*
X140544288Y-102163850D01*
X140516914Y-102141386D01*
X140494450Y-102114012D01*
X140477755Y-102082779D01*
X140467475Y-102048891D01*
X140463400Y-102007512D01*
X140463400Y-101407288D01*
X140467475Y-101365909D01*
X140477755Y-101332021D01*
X140494450Y-101300788D01*
X140516914Y-101273414D01*
X140544288Y-101250950D01*
X140575521Y-101234255D01*
X140609409Y-101223975D01*
X140650788Y-101219900D01*
X141676012Y-101219900D01*
X141717391Y-101223975D01*
G37*
G36*
X143749391Y-101223975D02*
G01*
X143783279Y-101234255D01*
X143814512Y-101250950D01*
X143841886Y-101273414D01*
X143864350Y-101300788D01*
X143881045Y-101332021D01*
X143891325Y-101365909D01*
X143895400Y-101407288D01*
X143895400Y-102007512D01*
X143891325Y-102048891D01*
X143881045Y-102082779D01*
X143864350Y-102114012D01*
X143841886Y-102141386D01*
X143814512Y-102163850D01*
X143783279Y-102180545D01*
X143749391Y-102190825D01*
X143708012Y-102194900D01*
X142682788Y-102194900D01*
X142641409Y-102190825D01*
X142607521Y-102180545D01*
X142576288Y-102163850D01*
X142548914Y-102141386D01*
X142526450Y-102114012D01*
X142509755Y-102082779D01*
X142499475Y-102048891D01*
X142495400Y-102007512D01*
X142495400Y-101407288D01*
X142499475Y-101365909D01*
X142509755Y-101332021D01*
X142526450Y-101300788D01*
X142548914Y-101273414D01*
X142576288Y-101250950D01*
X142607521Y-101234255D01*
X142641409Y-101223975D01*
X142682788Y-101219900D01*
X143708012Y-101219900D01*
X143749391Y-101223975D01*
G37*
G36*
X143749391Y-99348975D02*
G01*
X143783279Y-99359255D01*
X143814512Y-99375950D01*
X143841886Y-99398414D01*
X143864350Y-99425788D01*
X143881045Y-99457021D01*
X143891325Y-99490909D01*
X143895400Y-99532288D01*
X143895400Y-100132512D01*
X143891325Y-100173891D01*
X143881045Y-100207779D01*
X143864350Y-100239012D01*
X143841886Y-100266386D01*
X143814512Y-100288850D01*
X143783279Y-100305545D01*
X143749391Y-100315825D01*
X143708012Y-100319900D01*
X142682788Y-100319900D01*
X142641409Y-100315825D01*
X142607521Y-100305545D01*
X142576288Y-100288850D01*
X142548914Y-100266386D01*
X142526450Y-100239012D01*
X142509755Y-100207779D01*
X142499475Y-100173891D01*
X142495400Y-100132512D01*
X142495400Y-99532288D01*
X142499475Y-99490909D01*
X142509755Y-99457021D01*
X142526450Y-99425788D01*
X142548914Y-99398414D01*
X142576288Y-99375950D01*
X142607521Y-99359255D01*
X142641409Y-99348975D01*
X142682788Y-99344900D01*
X143708012Y-99344900D01*
X143749391Y-99348975D01*
G37*
G36*
X122438791Y-99348975D02*
G01*
X122472679Y-99359255D01*
X122503912Y-99375950D01*
X122531286Y-99398414D01*
X122553750Y-99425788D01*
X122570445Y-99457021D01*
X122580725Y-99490909D01*
X122584800Y-99532288D01*
X122584800Y-100132512D01*
X122580725Y-100173891D01*
X122570445Y-100207779D01*
X122553750Y-100239012D01*
X122531286Y-100266386D01*
X122503912Y-100288850D01*
X122472679Y-100305545D01*
X122438791Y-100315825D01*
X122397412Y-100319900D01*
X121372188Y-100319900D01*
X121330809Y-100315825D01*
X121296921Y-100305545D01*
X121265688Y-100288850D01*
X121238314Y-100266386D01*
X121215850Y-100239012D01*
X121199155Y-100207779D01*
X121188875Y-100173891D01*
X121184800Y-100132512D01*
X121184800Y-99532288D01*
X121188875Y-99490909D01*
X121199155Y-99457021D01*
X121215850Y-99425788D01*
X121238314Y-99398414D01*
X121265688Y-99375950D01*
X121296921Y-99359255D01*
X121330809Y-99348975D01*
X121372188Y-99344900D01*
X122397412Y-99344900D01*
X122438791Y-99348975D01*
G37*
G36*
X124445391Y-99348975D02*
G01*
X124479279Y-99359255D01*
X124510512Y-99375950D01*
X124537886Y-99398414D01*
X124560350Y-99425788D01*
X124577045Y-99457021D01*
X124587325Y-99490909D01*
X124591400Y-99532288D01*
X124591400Y-100132512D01*
X124587325Y-100173891D01*
X124577045Y-100207779D01*
X124560350Y-100239012D01*
X124537886Y-100266386D01*
X124510512Y-100288850D01*
X124479279Y-100305545D01*
X124445391Y-100315825D01*
X124404012Y-100319900D01*
X123378788Y-100319900D01*
X123337409Y-100315825D01*
X123303521Y-100305545D01*
X123272288Y-100288850D01*
X123244914Y-100266386D01*
X123222450Y-100239012D01*
X123205755Y-100207779D01*
X123195475Y-100173891D01*
X123191400Y-100132512D01*
X123191400Y-99532288D01*
X123195475Y-99490909D01*
X123205755Y-99457021D01*
X123222450Y-99425788D01*
X123244914Y-99398414D01*
X123272288Y-99375950D01*
X123303521Y-99359255D01*
X123337409Y-99348975D01*
X123378788Y-99344900D01*
X124404012Y-99344900D01*
X124445391Y-99348975D01*
G37*
G36*
X141717391Y-99348975D02*
G01*
X141751279Y-99359255D01*
X141782512Y-99375950D01*
X141809886Y-99398414D01*
X141832350Y-99425788D01*
X141849045Y-99457021D01*
X141859325Y-99490909D01*
X141863400Y-99532288D01*
X141863400Y-100132512D01*
X141859325Y-100173891D01*
X141849045Y-100207779D01*
X141832350Y-100239012D01*
X141809886Y-100266386D01*
X141782512Y-100288850D01*
X141751279Y-100305545D01*
X141717391Y-100315825D01*
X141676012Y-100319900D01*
X140650788Y-100319900D01*
X140609409Y-100315825D01*
X140575521Y-100305545D01*
X140544288Y-100288850D01*
X140516914Y-100266386D01*
X140494450Y-100239012D01*
X140477755Y-100207779D01*
X140467475Y-100173891D01*
X140463400Y-100132512D01*
X140463400Y-99532288D01*
X140467475Y-99490909D01*
X140477755Y-99457021D01*
X140494450Y-99425788D01*
X140516914Y-99398414D01*
X140544288Y-99375950D01*
X140575521Y-99359255D01*
X140609409Y-99348975D01*
X140650788Y-99344900D01*
X141676012Y-99344900D01*
X141717391Y-99348975D01*
G37*
G36*
X110696000Y-100196000D02*
G01*
X109096000Y-100196000D01*
X109096000Y-98596000D01*
X110696000Y-98596000D01*
X110696000Y-100196000D01*
G37*
G36*
X112669351Y-98626743D02*
G01*
X112814941Y-98687048D01*
X112945970Y-98774599D01*
X113057401Y-98886030D01*
X113144952Y-99017059D01*
X113205257Y-99162649D01*
X113236000Y-99317206D01*
X113236000Y-99474794D01*
X113205257Y-99629351D01*
X113144952Y-99774941D01*
X113057401Y-99905970D01*
X112945970Y-100017401D01*
X112814941Y-100104952D01*
X112669351Y-100165257D01*
X112514794Y-100196000D01*
X112357206Y-100196000D01*
X112202649Y-100165257D01*
X112057059Y-100104952D01*
X111926030Y-100017401D01*
X111814599Y-99905970D01*
X111727048Y-99774941D01*
X111666743Y-99629351D01*
X111636000Y-99474794D01*
X111636000Y-99317206D01*
X111666743Y-99162649D01*
X111727048Y-99017059D01*
X111814599Y-98886030D01*
X111926030Y-98774599D01*
X112057059Y-98687048D01*
X112202649Y-98626743D01*
X112357206Y-98596000D01*
X112514794Y-98596000D01*
X112669351Y-98626743D01*
G37*
G36*
X115209351Y-98626743D02*
G01*
X115354941Y-98687048D01*
X115485970Y-98774599D01*
X115597401Y-98886030D01*
X115684952Y-99017059D01*
X115745257Y-99162649D01*
X115776000Y-99317206D01*
X115776000Y-99474794D01*
X115745257Y-99629351D01*
X115684952Y-99774941D01*
X115597401Y-99905970D01*
X115485970Y-100017401D01*
X115354941Y-100104952D01*
X115209351Y-100165257D01*
X115054794Y-100196000D01*
X114897206Y-100196000D01*
X114742649Y-100165257D01*
X114597059Y-100104952D01*
X114466030Y-100017401D01*
X114354599Y-99905970D01*
X114267048Y-99774941D01*
X114206743Y-99629351D01*
X114176000Y-99474794D01*
X114176000Y-99317206D01*
X114206743Y-99162649D01*
X114267048Y-99017059D01*
X114354599Y-98886030D01*
X114466030Y-98774599D01*
X114597059Y-98687048D01*
X114742649Y-98626743D01*
X114897206Y-98596000D01*
X115054794Y-98596000D01*
X115209351Y-98626743D01*
G37*
G36*
X117749351Y-98626743D02*
G01*
X117894941Y-98687048D01*
X118025970Y-98774599D01*
X118137401Y-98886030D01*
X118224952Y-99017059D01*
X118285257Y-99162649D01*
X118316000Y-99317206D01*
X118316000Y-99474794D01*
X118285257Y-99629351D01*
X118224952Y-99774941D01*
X118137401Y-99905970D01*
X118025970Y-100017401D01*
X117894941Y-100104952D01*
X117749351Y-100165257D01*
X117594794Y-100196000D01*
X117437206Y-100196000D01*
X117282649Y-100165257D01*
X117137059Y-100104952D01*
X117006030Y-100017401D01*
X116894599Y-99905970D01*
X116807048Y-99774941D01*
X116746743Y-99629351D01*
X116716000Y-99474794D01*
X116716000Y-99317206D01*
X116746743Y-99162649D01*
X116807048Y-99017059D01*
X116894599Y-98886030D01*
X117006030Y-98774599D01*
X117137059Y-98687048D01*
X117282649Y-98626743D01*
X117437206Y-98596000D01*
X117594794Y-98596000D01*
X117749351Y-98626743D01*
G37*
G36*
X161596000Y-98405000D02*
G01*
X159796000Y-98405000D01*
X159796000Y-96605000D01*
X161596000Y-96605000D01*
X161596000Y-98405000D01*
G37*
G36*
X137178991Y-94804075D02*
G01*
X137212879Y-94814355D01*
X137244112Y-94831050D01*
X137271486Y-94853514D01*
X137293950Y-94880888D01*
X137310645Y-94912121D01*
X137320925Y-94946009D01*
X137325000Y-94987388D01*
X137325000Y-96012612D01*
X137320925Y-96053991D01*
X137310645Y-96087879D01*
X137293950Y-96119112D01*
X137271486Y-96146486D01*
X137244112Y-96168950D01*
X137212879Y-96185645D01*
X137178991Y-96195925D01*
X137137612Y-96200000D01*
X136537388Y-96200000D01*
X136496009Y-96195925D01*
X136462121Y-96185645D01*
X136430888Y-96168950D01*
X136403514Y-96146486D01*
X136381050Y-96119112D01*
X136364355Y-96087879D01*
X136354075Y-96053991D01*
X136350000Y-96012612D01*
X136350000Y-94987388D01*
X136354075Y-94946009D01*
X136364355Y-94912121D01*
X136381050Y-94880888D01*
X136403514Y-94853514D01*
X136430888Y-94831050D01*
X136462121Y-94814355D01*
X136496009Y-94804075D01*
X136537388Y-94800000D01*
X137137612Y-94800000D01*
X137178991Y-94804075D01*
G37*
G36*
X135303991Y-94804075D02*
G01*
X135337879Y-94814355D01*
X135369112Y-94831050D01*
X135396486Y-94853514D01*
X135418950Y-94880888D01*
X135435645Y-94912121D01*
X135445925Y-94946009D01*
X135450000Y-94987388D01*
X135450000Y-96012612D01*
X135445925Y-96053991D01*
X135435645Y-96087879D01*
X135418950Y-96119112D01*
X135396486Y-96146486D01*
X135369112Y-96168950D01*
X135337879Y-96185645D01*
X135303991Y-96195925D01*
X135262612Y-96200000D01*
X134662388Y-96200000D01*
X134621009Y-96195925D01*
X134587121Y-96185645D01*
X134555888Y-96168950D01*
X134528514Y-96146486D01*
X134506050Y-96119112D01*
X134489355Y-96087879D01*
X134479075Y-96053991D01*
X134475000Y-96012612D01*
X134475000Y-94987388D01*
X134479075Y-94946009D01*
X134489355Y-94912121D01*
X134506050Y-94880888D01*
X134528514Y-94853514D01*
X134555888Y-94831050D01*
X134587121Y-94814355D01*
X134621009Y-94804075D01*
X134662388Y-94800000D01*
X135262612Y-94800000D01*
X135303991Y-94804075D01*
G37*
G36*
X156116491Y-94804075D02*
G01*
X156150379Y-94814355D01*
X156181612Y-94831050D01*
X156208986Y-94853514D01*
X156231450Y-94880888D01*
X156248145Y-94912121D01*
X156258425Y-94946009D01*
X156262500Y-94987388D01*
X156262500Y-96012612D01*
X156258425Y-96053991D01*
X156248145Y-96087879D01*
X156231450Y-96119112D01*
X156208986Y-96146486D01*
X156181612Y-96168950D01*
X156150379Y-96185645D01*
X156116491Y-96195925D01*
X156075112Y-96200000D01*
X155474888Y-96200000D01*
X155433509Y-96195925D01*
X155399621Y-96185645D01*
X155368388Y-96168950D01*
X155341014Y-96146486D01*
X155318550Y-96119112D01*
X155301855Y-96087879D01*
X155291575Y-96053991D01*
X155287500Y-96012612D01*
X155287500Y-94987388D01*
X155291575Y-94946009D01*
X155301855Y-94912121D01*
X155318550Y-94880888D01*
X155341014Y-94853514D01*
X155368388Y-94831050D01*
X155399621Y-94814355D01*
X155433509Y-94804075D01*
X155474888Y-94800000D01*
X156075112Y-94800000D01*
X156116491Y-94804075D01*
G37*
G36*
X154241491Y-94804075D02*
G01*
X154275379Y-94814355D01*
X154306612Y-94831050D01*
X154333986Y-94853514D01*
X154356450Y-94880888D01*
X154373145Y-94912121D01*
X154383425Y-94946009D01*
X154387500Y-94987388D01*
X154387500Y-96012612D01*
X154383425Y-96053991D01*
X154373145Y-96087879D01*
X154356450Y-96119112D01*
X154333986Y-96146486D01*
X154306612Y-96168950D01*
X154275379Y-96185645D01*
X154241491Y-96195925D01*
X154200112Y-96200000D01*
X153599888Y-96200000D01*
X153558509Y-96195925D01*
X153524621Y-96185645D01*
X153493388Y-96168950D01*
X153466014Y-96146486D01*
X153443550Y-96119112D01*
X153426855Y-96087879D01*
X153416575Y-96053991D01*
X153412500Y-96012612D01*
X153412500Y-94987388D01*
X153416575Y-94946009D01*
X153426855Y-94912121D01*
X153443550Y-94880888D01*
X153466014Y-94853514D01*
X153493388Y-94831050D01*
X153524621Y-94814355D01*
X153558509Y-94804075D01*
X153599888Y-94800000D01*
X154200112Y-94800000D01*
X154241491Y-94804075D01*
G37*
G36*
X146653991Y-93116575D02*
G01*
X146687879Y-93126855D01*
X146719112Y-93143550D01*
X146746486Y-93166014D01*
X146768950Y-93193388D01*
X146785645Y-93224621D01*
X146795925Y-93258509D01*
X146800000Y-93299888D01*
X146800000Y-93900112D01*
X146795925Y-93941491D01*
X146785645Y-93975379D01*
X146768950Y-94006612D01*
X146746486Y-94033986D01*
X146719112Y-94056450D01*
X146687879Y-94073145D01*
X146653991Y-94083425D01*
X146612612Y-94087500D01*
X145587388Y-94087500D01*
X145546009Y-94083425D01*
X145512121Y-94073145D01*
X145480888Y-94056450D01*
X145453514Y-94033986D01*
X145431050Y-94006612D01*
X145414355Y-93975379D01*
X145404075Y-93941491D01*
X145400000Y-93900112D01*
X145400000Y-93299888D01*
X145404075Y-93258509D01*
X145414355Y-93224621D01*
X145431050Y-93193388D01*
X145453514Y-93166014D01*
X145480888Y-93143550D01*
X145512121Y-93126855D01*
X145546009Y-93116575D01*
X145587388Y-93112500D01*
X146612612Y-93112500D01*
X146653991Y-93116575D01*
G37*
G36*
X144685002Y-92736884D02*
G01*
X144717027Y-92746599D01*
X144746534Y-92762371D01*
X144772401Y-92783599D01*
X144793629Y-92809466D01*
X144809401Y-92838973D01*
X144819116Y-92870998D01*
X144823000Y-92910436D01*
X144823000Y-93905564D01*
X144819116Y-93945002D01*
X144809401Y-93977027D01*
X144793629Y-94006534D01*
X144772401Y-94032401D01*
X144746534Y-94053629D01*
X144717027Y-94069401D01*
X144685002Y-94079116D01*
X144645564Y-94083000D01*
X141650436Y-94083000D01*
X141610998Y-94079116D01*
X141578973Y-94069401D01*
X141549466Y-94053629D01*
X141523599Y-94032401D01*
X141502371Y-94006534D01*
X141486599Y-93977027D01*
X141476884Y-93945002D01*
X141473000Y-93905564D01*
X141473000Y-92910436D01*
X141476884Y-92870998D01*
X141486599Y-92838973D01*
X141502371Y-92809466D01*
X141523599Y-92783599D01*
X141549466Y-92762371D01*
X141578973Y-92746599D01*
X141610998Y-92736884D01*
X141650436Y-92733000D01*
X144645564Y-92733000D01*
X144685002Y-92736884D01*
G37*
G36*
X127054002Y-92736884D02*
G01*
X127086027Y-92746599D01*
X127115534Y-92762371D01*
X127141401Y-92783599D01*
X127162629Y-92809466D01*
X127178401Y-92838973D01*
X127188116Y-92870998D01*
X127192000Y-92910436D01*
X127192000Y-93905564D01*
X127188116Y-93945002D01*
X127178401Y-93977027D01*
X127162629Y-94006534D01*
X127141401Y-94032401D01*
X127115534Y-94053629D01*
X127086027Y-94069401D01*
X127054002Y-94079116D01*
X127014564Y-94083000D01*
X124019436Y-94083000D01*
X123979998Y-94079116D01*
X123947973Y-94069401D01*
X123918466Y-94053629D01*
X123892599Y-94032401D01*
X123871371Y-94006534D01*
X123855599Y-93977027D01*
X123845884Y-93945002D01*
X123842000Y-93905564D01*
X123842000Y-92910436D01*
X123845884Y-92870998D01*
X123855599Y-92838973D01*
X123871371Y-92809466D01*
X123892599Y-92783599D01*
X123918466Y-92762371D01*
X123947973Y-92746599D01*
X123979998Y-92736884D01*
X124019436Y-92733000D01*
X127014564Y-92733000D01*
X127054002Y-92736884D01*
G37*
G36*
X155037002Y-92728884D02*
G01*
X155069027Y-92738599D01*
X155098534Y-92754371D01*
X155124401Y-92775599D01*
X155145629Y-92801466D01*
X155161401Y-92830973D01*
X155171116Y-92862998D01*
X155175000Y-92902436D01*
X155175000Y-93897564D01*
X155171116Y-93937002D01*
X155161401Y-93969027D01*
X155145629Y-93998534D01*
X155124401Y-94024401D01*
X155098534Y-94045629D01*
X155069027Y-94061401D01*
X155037002Y-94071116D01*
X154997564Y-94075000D01*
X152002436Y-94075000D01*
X151962998Y-94071116D01*
X151930973Y-94061401D01*
X151901466Y-94045629D01*
X151875599Y-94024401D01*
X151854371Y-93998534D01*
X151838599Y-93969027D01*
X151828884Y-93937002D01*
X151825000Y-93897564D01*
X151825000Y-92902436D01*
X151828884Y-92862998D01*
X151838599Y-92830973D01*
X151854371Y-92801466D01*
X151875599Y-92775599D01*
X151901466Y-92754371D01*
X151930973Y-92738599D01*
X151962998Y-92728884D01*
X152002436Y-92725000D01*
X154997564Y-92725000D01*
X155037002Y-92728884D01*
G37*
G36*
X136237002Y-92728884D02*
G01*
X136269027Y-92738599D01*
X136298534Y-92754371D01*
X136324401Y-92775599D01*
X136345629Y-92801466D01*
X136361401Y-92830973D01*
X136371116Y-92862998D01*
X136375000Y-92902436D01*
X136375000Y-93897564D01*
X136371116Y-93937002D01*
X136361401Y-93969027D01*
X136345629Y-93998534D01*
X136324401Y-94024401D01*
X136298534Y-94045629D01*
X136269027Y-94061401D01*
X136237002Y-94071116D01*
X136197564Y-94075000D01*
X133202436Y-94075000D01*
X133162998Y-94071116D01*
X133130973Y-94061401D01*
X133101466Y-94045629D01*
X133075599Y-94024401D01*
X133054371Y-93998534D01*
X133038599Y-93969027D01*
X133028884Y-93937002D01*
X133025000Y-93897564D01*
X133025000Y-92902436D01*
X133028884Y-92862998D01*
X133038599Y-92830973D01*
X133054371Y-92801466D01*
X133075599Y-92775599D01*
X133101466Y-92754371D01*
X133130973Y-92738599D01*
X133162998Y-92728884D01*
X133202436Y-92725000D01*
X136197564Y-92725000D01*
X136237002Y-92728884D01*
G37*
G36*
X151053991Y-93091575D02*
G01*
X151087879Y-93101855D01*
X151119112Y-93118550D01*
X151146486Y-93141014D01*
X151168950Y-93168388D01*
X151185645Y-93199621D01*
X151195925Y-93233509D01*
X151200000Y-93274888D01*
X151200000Y-93875112D01*
X151195925Y-93916491D01*
X151185645Y-93950379D01*
X151168950Y-93981612D01*
X151146486Y-94008986D01*
X151119112Y-94031450D01*
X151087879Y-94048145D01*
X151053991Y-94058425D01*
X151012612Y-94062500D01*
X149987388Y-94062500D01*
X149946009Y-94058425D01*
X149912121Y-94048145D01*
X149880888Y-94031450D01*
X149853514Y-94008986D01*
X149831050Y-93981612D01*
X149814355Y-93950379D01*
X149804075Y-93916491D01*
X149800000Y-93875112D01*
X149800000Y-93274888D01*
X149804075Y-93233509D01*
X149814355Y-93199621D01*
X149831050Y-93168388D01*
X149853514Y-93141014D01*
X149880888Y-93118550D01*
X149912121Y-93101855D01*
X149946009Y-93091575D01*
X149987388Y-93087500D01*
X151012612Y-93087500D01*
X151053991Y-93091575D01*
G37*
G36*
X129118991Y-93054075D02*
G01*
X129152879Y-93064355D01*
X129184112Y-93081050D01*
X129211486Y-93103514D01*
X129233950Y-93130888D01*
X129250645Y-93162121D01*
X129260925Y-93196009D01*
X129265000Y-93237388D01*
X129265000Y-93837612D01*
X129260925Y-93878991D01*
X129250645Y-93912879D01*
X129233950Y-93944112D01*
X129211486Y-93971486D01*
X129184112Y-93993950D01*
X129152879Y-94010645D01*
X129118991Y-94020925D01*
X129077612Y-94025000D01*
X128052388Y-94025000D01*
X128011009Y-94020925D01*
X127977121Y-94010645D01*
X127945888Y-93993950D01*
X127918514Y-93971486D01*
X127896050Y-93944112D01*
X127879355Y-93912879D01*
X127869075Y-93878991D01*
X127865000Y-93837612D01*
X127865000Y-93237388D01*
X127869075Y-93196009D01*
X127879355Y-93162121D01*
X127896050Y-93130888D01*
X127918514Y-93103514D01*
X127945888Y-93081050D01*
X127977121Y-93064355D01*
X128011009Y-93054075D01*
X128052388Y-93050000D01*
X129077612Y-93050000D01*
X129118991Y-93054075D01*
G37*
G36*
X140653991Y-93054075D02*
G01*
X140687879Y-93064355D01*
X140719112Y-93081050D01*
X140746486Y-93103514D01*
X140768950Y-93130888D01*
X140785645Y-93162121D01*
X140795925Y-93196009D01*
X140800000Y-93237388D01*
X140800000Y-93837612D01*
X140795925Y-93878991D01*
X140785645Y-93912879D01*
X140768950Y-93944112D01*
X140746486Y-93971486D01*
X140719112Y-93993950D01*
X140687879Y-94010645D01*
X140653991Y-94020925D01*
X140612612Y-94025000D01*
X139587388Y-94025000D01*
X139546009Y-94020925D01*
X139512121Y-94010645D01*
X139480888Y-93993950D01*
X139453514Y-93971486D01*
X139431050Y-93944112D01*
X139414355Y-93912879D01*
X139404075Y-93878991D01*
X139400000Y-93837612D01*
X139400000Y-93237388D01*
X139404075Y-93196009D01*
X139414355Y-93162121D01*
X139431050Y-93130888D01*
X139453514Y-93103514D01*
X139480888Y-93081050D01*
X139512121Y-93064355D01*
X139546009Y-93054075D01*
X139587388Y-93050000D01*
X140612612Y-93050000D01*
X140653991Y-93054075D01*
G37*
G36*
X123022991Y-93054075D02*
G01*
X123056879Y-93064355D01*
X123088112Y-93081050D01*
X123115486Y-93103514D01*
X123137950Y-93130888D01*
X123154645Y-93162121D01*
X123164925Y-93196009D01*
X123169000Y-93237388D01*
X123169000Y-93837612D01*
X123164925Y-93878991D01*
X123154645Y-93912879D01*
X123137950Y-93944112D01*
X123115486Y-93971486D01*
X123088112Y-93993950D01*
X123056879Y-94010645D01*
X123022991Y-94020925D01*
X122981612Y-94025000D01*
X121956388Y-94025000D01*
X121915009Y-94020925D01*
X121881121Y-94010645D01*
X121849888Y-93993950D01*
X121822514Y-93971486D01*
X121800050Y-93944112D01*
X121783355Y-93912879D01*
X121773075Y-93878991D01*
X121769000Y-93837612D01*
X121769000Y-93237388D01*
X121773075Y-93196009D01*
X121783355Y-93162121D01*
X121800050Y-93130888D01*
X121822514Y-93103514D01*
X121849888Y-93081050D01*
X121881121Y-93064355D01*
X121915009Y-93054075D01*
X121956388Y-93050000D01*
X122981612Y-93050000D01*
X123022991Y-93054075D01*
G37*
G36*
X160958520Y-91639586D02*
G01*
X161097630Y-91697207D01*
X161122310Y-91707430D01*
X161269717Y-91805924D01*
X161395076Y-91931283D01*
X161493570Y-92078690D01*
X161493571Y-92078692D01*
X161561414Y-92242480D01*
X161596000Y-92416356D01*
X161596000Y-92593644D01*
X161561414Y-92767520D01*
X161495676Y-92926227D01*
X161493570Y-92931310D01*
X161395076Y-93078717D01*
X161269717Y-93204076D01*
X161122310Y-93302570D01*
X161122309Y-93302571D01*
X161122308Y-93302571D01*
X160958520Y-93370414D01*
X160784644Y-93405000D01*
X160607356Y-93405000D01*
X160433480Y-93370414D01*
X160269692Y-93302571D01*
X160269691Y-93302571D01*
X160269690Y-93302570D01*
X160122283Y-93204076D01*
X159996924Y-93078717D01*
X159898430Y-92931310D01*
X159896325Y-92926227D01*
X159830586Y-92767520D01*
X159796000Y-92593644D01*
X159796000Y-92416356D01*
X159830586Y-92242480D01*
X159898429Y-92078692D01*
X159898430Y-92078690D01*
X159996924Y-91931283D01*
X160122283Y-91805924D01*
X160269690Y-91707430D01*
X160294371Y-91697207D01*
X160433480Y-91639586D01*
X160607356Y-91605000D01*
X160784644Y-91605000D01*
X160958520Y-91639586D01*
G37*
G36*
X110129351Y-91006743D02*
G01*
X110274941Y-91067048D01*
X110405970Y-91154599D01*
X110517401Y-91266030D01*
X110604952Y-91397059D01*
X110665257Y-91542649D01*
X110696000Y-91697206D01*
X110696000Y-91854794D01*
X110665257Y-92009351D01*
X110604952Y-92154941D01*
X110517401Y-92285970D01*
X110405970Y-92397401D01*
X110274941Y-92484952D01*
X110129351Y-92545257D01*
X109974794Y-92576000D01*
X109817206Y-92576000D01*
X109662649Y-92545257D01*
X109517059Y-92484952D01*
X109386030Y-92397401D01*
X109274599Y-92285970D01*
X109187048Y-92154941D01*
X109126743Y-92009351D01*
X109096000Y-91854794D01*
X109096000Y-91697206D01*
X109126743Y-91542649D01*
X109187048Y-91397059D01*
X109274599Y-91266030D01*
X109386030Y-91154599D01*
X109517059Y-91067048D01*
X109662649Y-91006743D01*
X109817206Y-90976000D01*
X109974794Y-90976000D01*
X110129351Y-91006743D01*
G37*
G36*
X117749351Y-91006743D02*
G01*
X117894941Y-91067048D01*
X118025970Y-91154599D01*
X118137401Y-91266030D01*
X118224952Y-91397059D01*
X118285257Y-91542649D01*
X118316000Y-91697206D01*
X118316000Y-91854794D01*
X118285257Y-92009351D01*
X118224952Y-92154941D01*
X118137401Y-92285970D01*
X118025970Y-92397401D01*
X117894941Y-92484952D01*
X117749351Y-92545257D01*
X117594794Y-92576000D01*
X117437206Y-92576000D01*
X117282649Y-92545257D01*
X117137059Y-92484952D01*
X117006030Y-92397401D01*
X116894599Y-92285970D01*
X116807048Y-92154941D01*
X116746743Y-92009351D01*
X116716000Y-91854794D01*
X116716000Y-91697206D01*
X116746743Y-91542649D01*
X116807048Y-91397059D01*
X116894599Y-91266030D01*
X117006030Y-91154599D01*
X117137059Y-91067048D01*
X117282649Y-91006743D01*
X117437206Y-90976000D01*
X117594794Y-90976000D01*
X117749351Y-91006743D01*
G37*
G36*
X112669351Y-91006743D02*
G01*
X112814941Y-91067048D01*
X112945970Y-91154599D01*
X113057401Y-91266030D01*
X113144952Y-91397059D01*
X113205257Y-91542649D01*
X113236000Y-91697206D01*
X113236000Y-91854794D01*
X113205257Y-92009351D01*
X113144952Y-92154941D01*
X113057401Y-92285970D01*
X112945970Y-92397401D01*
X112814941Y-92484952D01*
X112669351Y-92545257D01*
X112514794Y-92576000D01*
X112357206Y-92576000D01*
X112202649Y-92545257D01*
X112057059Y-92484952D01*
X111926030Y-92397401D01*
X111814599Y-92285970D01*
X111727048Y-92154941D01*
X111666743Y-92009351D01*
X111636000Y-91854794D01*
X111636000Y-91697206D01*
X111666743Y-91542649D01*
X111727048Y-91397059D01*
X111814599Y-91266030D01*
X111926030Y-91154599D01*
X112057059Y-91067048D01*
X112202649Y-91006743D01*
X112357206Y-90976000D01*
X112514794Y-90976000D01*
X112669351Y-91006743D01*
G37*
G36*
X115209351Y-91006743D02*
G01*
X115354941Y-91067048D01*
X115485970Y-91154599D01*
X115597401Y-91266030D01*
X115684952Y-91397059D01*
X115745257Y-91542649D01*
X115776000Y-91697206D01*
X115776000Y-91854794D01*
X115745257Y-92009351D01*
X115684952Y-92154941D01*
X115597401Y-92285970D01*
X115485970Y-92397401D01*
X115354941Y-92484952D01*
X115209351Y-92545257D01*
X115054794Y-92576000D01*
X114897206Y-92576000D01*
X114742649Y-92545257D01*
X114597059Y-92484952D01*
X114466030Y-92397401D01*
X114354599Y-92285970D01*
X114267048Y-92154941D01*
X114206743Y-92009351D01*
X114176000Y-91854794D01*
X114176000Y-91697206D01*
X114206743Y-91542649D01*
X114267048Y-91397059D01*
X114354599Y-91266030D01*
X114466030Y-91154599D01*
X114597059Y-91067048D01*
X114742649Y-91006743D01*
X114897206Y-90976000D01*
X115054794Y-90976000D01*
X115209351Y-91006743D01*
G37*
G36*
X146653991Y-91241575D02*
G01*
X146687879Y-91251855D01*
X146719112Y-91268550D01*
X146746486Y-91291014D01*
X146768950Y-91318388D01*
X146785645Y-91349621D01*
X146795925Y-91383509D01*
X146800000Y-91424888D01*
X146800000Y-92025112D01*
X146795925Y-92066491D01*
X146785645Y-92100379D01*
X146768950Y-92131612D01*
X146746486Y-92158986D01*
X146719112Y-92181450D01*
X146687879Y-92198145D01*
X146653991Y-92208425D01*
X146612612Y-92212500D01*
X145587388Y-92212500D01*
X145546009Y-92208425D01*
X145512121Y-92198145D01*
X145480888Y-92181450D01*
X145453514Y-92158986D01*
X145431050Y-92131612D01*
X145414355Y-92100379D01*
X145404075Y-92066491D01*
X145400000Y-92025112D01*
X145400000Y-91424888D01*
X145404075Y-91383509D01*
X145414355Y-91349621D01*
X145431050Y-91318388D01*
X145453514Y-91291014D01*
X145480888Y-91268550D01*
X145512121Y-91251855D01*
X145546009Y-91241575D01*
X145587388Y-91237500D01*
X146612612Y-91237500D01*
X146653991Y-91241575D01*
G37*
G36*
X151053991Y-91216575D02*
G01*
X151087879Y-91226855D01*
X151119112Y-91243550D01*
X151146486Y-91266014D01*
X151168950Y-91293388D01*
X151185645Y-91324621D01*
X151195925Y-91358509D01*
X151200000Y-91399888D01*
X151200000Y-92000112D01*
X151195925Y-92041491D01*
X151185645Y-92075379D01*
X151168950Y-92106612D01*
X151146486Y-92133986D01*
X151119112Y-92156450D01*
X151087879Y-92173145D01*
X151053991Y-92183425D01*
X151012612Y-92187500D01*
X149987388Y-92187500D01*
X149946009Y-92183425D01*
X149912121Y-92173145D01*
X149880888Y-92156450D01*
X149853514Y-92133986D01*
X149831050Y-92106612D01*
X149814355Y-92075379D01*
X149804075Y-92041491D01*
X149800000Y-92000112D01*
X149800000Y-91399888D01*
X149804075Y-91358509D01*
X149814355Y-91324621D01*
X149831050Y-91293388D01*
X149853514Y-91266014D01*
X149880888Y-91243550D01*
X149912121Y-91226855D01*
X149946009Y-91216575D01*
X149987388Y-91212500D01*
X151012612Y-91212500D01*
X151053991Y-91216575D01*
G37*
G36*
X123022991Y-91179075D02*
G01*
X123056879Y-91189355D01*
X123088112Y-91206050D01*
X123115486Y-91228514D01*
X123137950Y-91255888D01*
X123154645Y-91287121D01*
X123164925Y-91321009D01*
X123169000Y-91362388D01*
X123169000Y-91962612D01*
X123164925Y-92003991D01*
X123154645Y-92037879D01*
X123137950Y-92069112D01*
X123115486Y-92096486D01*
X123088112Y-92118950D01*
X123056879Y-92135645D01*
X123022991Y-92145925D01*
X122981612Y-92150000D01*
X121956388Y-92150000D01*
X121915009Y-92145925D01*
X121881121Y-92135645D01*
X121849888Y-92118950D01*
X121822514Y-92096486D01*
X121800050Y-92069112D01*
X121783355Y-92037879D01*
X121773075Y-92003991D01*
X121769000Y-91962612D01*
X121769000Y-91362388D01*
X121773075Y-91321009D01*
X121783355Y-91287121D01*
X121800050Y-91255888D01*
X121822514Y-91228514D01*
X121849888Y-91206050D01*
X121881121Y-91189355D01*
X121915009Y-91179075D01*
X121956388Y-91175000D01*
X122981612Y-91175000D01*
X123022991Y-91179075D01*
G37*
G36*
X129118991Y-91179075D02*
G01*
X129152879Y-91189355D01*
X129184112Y-91206050D01*
X129211486Y-91228514D01*
X129233950Y-91255888D01*
X129250645Y-91287121D01*
X129260925Y-91321009D01*
X129265000Y-91362388D01*
X129265000Y-91962612D01*
X129260925Y-92003991D01*
X129250645Y-92037879D01*
X129233950Y-92069112D01*
X129211486Y-92096486D01*
X129184112Y-92118950D01*
X129152879Y-92135645D01*
X129118991Y-92145925D01*
X129077612Y-92150000D01*
X128052388Y-92150000D01*
X128011009Y-92145925D01*
X127977121Y-92135645D01*
X127945888Y-92118950D01*
X127918514Y-92096486D01*
X127896050Y-92069112D01*
X127879355Y-92037879D01*
X127869075Y-92003991D01*
X127865000Y-91962612D01*
X127865000Y-91362388D01*
X127869075Y-91321009D01*
X127879355Y-91287121D01*
X127896050Y-91255888D01*
X127918514Y-91228514D01*
X127945888Y-91206050D01*
X127977121Y-91189355D01*
X128011009Y-91179075D01*
X128052388Y-91175000D01*
X129077612Y-91175000D01*
X129118991Y-91179075D01*
G37*
G36*
X140653991Y-91179075D02*
G01*
X140687879Y-91189355D01*
X140719112Y-91206050D01*
X140746486Y-91228514D01*
X140768950Y-91255888D01*
X140785645Y-91287121D01*
X140795925Y-91321009D01*
X140800000Y-91362388D01*
X140800000Y-91962612D01*
X140795925Y-92003991D01*
X140785645Y-92037879D01*
X140768950Y-92069112D01*
X140746486Y-92096486D01*
X140719112Y-92118950D01*
X140687879Y-92135645D01*
X140653991Y-92145925D01*
X140612612Y-92150000D01*
X139587388Y-92150000D01*
X139546009Y-92145925D01*
X139512121Y-92135645D01*
X139480888Y-92118950D01*
X139453514Y-92096486D01*
X139431050Y-92069112D01*
X139414355Y-92037879D01*
X139404075Y-92003991D01*
X139400000Y-91962612D01*
X139400000Y-91362388D01*
X139404075Y-91321009D01*
X139414355Y-91287121D01*
X139431050Y-91255888D01*
X139453514Y-91228514D01*
X139480888Y-91206050D01*
X139512121Y-91189355D01*
X139546009Y-91179075D01*
X139587388Y-91175000D01*
X140612612Y-91175000D01*
X140653991Y-91179075D01*
G37*
G36*
X104238491Y-90191075D02*
G01*
X104272379Y-90201355D01*
X104303612Y-90218050D01*
X104330986Y-90240514D01*
X104353450Y-90267888D01*
X104370145Y-90299121D01*
X104380425Y-90333009D01*
X104384500Y-90374388D01*
X104384500Y-91399612D01*
X104380425Y-91440991D01*
X104370145Y-91474879D01*
X104353450Y-91506112D01*
X104330986Y-91533486D01*
X104303612Y-91555950D01*
X104272379Y-91572645D01*
X104238491Y-91582925D01*
X104197112Y-91587000D01*
X103596888Y-91587000D01*
X103555509Y-91582925D01*
X103521621Y-91572645D01*
X103490388Y-91555950D01*
X103463014Y-91533486D01*
X103440550Y-91506112D01*
X103423855Y-91474879D01*
X103413575Y-91440991D01*
X103409500Y-91399612D01*
X103409500Y-90374388D01*
X103413575Y-90333009D01*
X103423855Y-90299121D01*
X103440550Y-90267888D01*
X103463014Y-90240514D01*
X103490388Y-90218050D01*
X103521621Y-90201355D01*
X103555509Y-90191075D01*
X103596888Y-90187000D01*
X104197112Y-90187000D01*
X104238491Y-90191075D01*
G37*
G36*
X102363491Y-90191075D02*
G01*
X102397379Y-90201355D01*
X102428612Y-90218050D01*
X102455986Y-90240514D01*
X102478450Y-90267888D01*
X102495145Y-90299121D01*
X102505425Y-90333009D01*
X102509500Y-90374388D01*
X102509500Y-91399612D01*
X102505425Y-91440991D01*
X102495145Y-91474879D01*
X102478450Y-91506112D01*
X102455986Y-91533486D01*
X102428612Y-91555950D01*
X102397379Y-91572645D01*
X102363491Y-91582925D01*
X102322112Y-91587000D01*
X101721888Y-91587000D01*
X101680509Y-91582925D01*
X101646621Y-91572645D01*
X101615388Y-91555950D01*
X101588014Y-91533486D01*
X101565550Y-91506112D01*
X101548855Y-91474879D01*
X101538575Y-91440991D01*
X101534500Y-91399612D01*
X101534500Y-90374388D01*
X101538575Y-90333009D01*
X101548855Y-90299121D01*
X101565550Y-90267888D01*
X101588014Y-90240514D01*
X101615388Y-90218050D01*
X101646621Y-90201355D01*
X101680509Y-90191075D01*
X101721888Y-90187000D01*
X102322112Y-90187000D01*
X102363491Y-90191075D01*
G37*
G36*
X129053991Y-88816575D02*
G01*
X129087879Y-88826855D01*
X129119112Y-88843550D01*
X129146486Y-88866014D01*
X129168950Y-88893388D01*
X129185645Y-88924621D01*
X129195925Y-88958509D01*
X129200000Y-88999888D01*
X129200000Y-89600112D01*
X129195925Y-89641491D01*
X129185645Y-89675379D01*
X129168950Y-89706612D01*
X129146486Y-89733986D01*
X129119112Y-89756450D01*
X129087879Y-89773145D01*
X129053991Y-89783425D01*
X129012612Y-89787500D01*
X127987388Y-89787500D01*
X127946009Y-89783425D01*
X127912121Y-89773145D01*
X127880888Y-89756450D01*
X127853514Y-89733986D01*
X127831050Y-89706612D01*
X127814355Y-89675379D01*
X127804075Y-89641491D01*
X127800000Y-89600112D01*
X127800000Y-88999888D01*
X127804075Y-88958509D01*
X127814355Y-88924621D01*
X127831050Y-88893388D01*
X127853514Y-88866014D01*
X127880888Y-88843550D01*
X127912121Y-88826855D01*
X127946009Y-88816575D01*
X127987388Y-88812500D01*
X129012612Y-88812500D01*
X129053991Y-88816575D01*
G37*
G36*
X104238491Y-88286075D02*
G01*
X104272379Y-88296355D01*
X104303612Y-88313050D01*
X104330986Y-88335514D01*
X104353450Y-88362888D01*
X104370145Y-88394121D01*
X104380425Y-88428009D01*
X104384500Y-88469388D01*
X104384500Y-89494612D01*
X104380425Y-89535991D01*
X104370145Y-89569879D01*
X104353450Y-89601112D01*
X104330986Y-89628486D01*
X104303612Y-89650950D01*
X104272379Y-89667645D01*
X104238491Y-89677925D01*
X104197112Y-89682000D01*
X103596888Y-89682000D01*
X103555509Y-89677925D01*
X103521621Y-89667645D01*
X103490388Y-89650950D01*
X103463014Y-89628486D01*
X103440550Y-89601112D01*
X103423855Y-89569879D01*
X103413575Y-89535991D01*
X103409500Y-89494612D01*
X103409500Y-88469388D01*
X103413575Y-88428009D01*
X103423855Y-88394121D01*
X103440550Y-88362888D01*
X103463014Y-88335514D01*
X103490388Y-88313050D01*
X103521621Y-88296355D01*
X103555509Y-88286075D01*
X103596888Y-88282000D01*
X104197112Y-88282000D01*
X104238491Y-88286075D01*
G37*
G36*
X102363491Y-88286075D02*
G01*
X102397379Y-88296355D01*
X102428612Y-88313050D01*
X102455986Y-88335514D01*
X102478450Y-88362888D01*
X102495145Y-88394121D01*
X102505425Y-88428009D01*
X102509500Y-88469388D01*
X102509500Y-89494612D01*
X102505425Y-89535991D01*
X102495145Y-89569879D01*
X102478450Y-89601112D01*
X102455986Y-89628486D01*
X102428612Y-89650950D01*
X102397379Y-89667645D01*
X102363491Y-89677925D01*
X102322112Y-89682000D01*
X101721888Y-89682000D01*
X101680509Y-89677925D01*
X101646621Y-89667645D01*
X101615388Y-89650950D01*
X101588014Y-89628486D01*
X101565550Y-89601112D01*
X101548855Y-89569879D01*
X101538575Y-89535991D01*
X101534500Y-89494612D01*
X101534500Y-88469388D01*
X101538575Y-88428009D01*
X101548855Y-88394121D01*
X101565550Y-88362888D01*
X101588014Y-88335514D01*
X101615388Y-88313050D01*
X101646621Y-88296355D01*
X101680509Y-88286075D01*
X101721888Y-88282000D01*
X102322112Y-88282000D01*
X102363491Y-88286075D01*
G37*
G36*
X115209351Y-87958743D02*
G01*
X115354941Y-88019048D01*
X115485970Y-88106599D01*
X115597401Y-88218030D01*
X115684952Y-88349059D01*
X115745257Y-88494649D01*
X115776000Y-88649206D01*
X115776000Y-88806794D01*
X115745257Y-88961351D01*
X115684952Y-89106941D01*
X115597401Y-89237970D01*
X115485970Y-89349401D01*
X115354941Y-89436952D01*
X115209351Y-89497257D01*
X115054794Y-89528000D01*
X114897206Y-89528000D01*
X114742649Y-89497257D01*
X114597059Y-89436952D01*
X114466030Y-89349401D01*
X114354599Y-89237970D01*
X114267048Y-89106941D01*
X114206743Y-88961351D01*
X114176000Y-88806794D01*
X114176000Y-88649206D01*
X114206743Y-88494649D01*
X114267048Y-88349059D01*
X114354599Y-88218030D01*
X114466030Y-88106599D01*
X114597059Y-88019048D01*
X114742649Y-87958743D01*
X114897206Y-87928000D01*
X115054794Y-87928000D01*
X115209351Y-87958743D01*
G37*
G36*
X117749351Y-87958743D02*
G01*
X117894941Y-88019048D01*
X118025970Y-88106599D01*
X118137401Y-88218030D01*
X118224952Y-88349059D01*
X118285257Y-88494649D01*
X118316000Y-88649206D01*
X118316000Y-88806794D01*
X118285257Y-88961351D01*
X118224952Y-89106941D01*
X118137401Y-89237970D01*
X118025970Y-89349401D01*
X117894941Y-89436952D01*
X117749351Y-89497257D01*
X117594794Y-89528000D01*
X117437206Y-89528000D01*
X117282649Y-89497257D01*
X117137059Y-89436952D01*
X117006030Y-89349401D01*
X116894599Y-89237970D01*
X116807048Y-89106941D01*
X116746743Y-88961351D01*
X116716000Y-88806794D01*
X116716000Y-88649206D01*
X116746743Y-88494649D01*
X116807048Y-88349059D01*
X116894599Y-88218030D01*
X117006030Y-88106599D01*
X117137059Y-88019048D01*
X117282649Y-87958743D01*
X117437206Y-87928000D01*
X117594794Y-87928000D01*
X117749351Y-87958743D01*
G37*
G36*
X110696000Y-89528000D02*
G01*
X109096000Y-89528000D01*
X109096000Y-87928000D01*
X110696000Y-87928000D01*
X110696000Y-89528000D01*
G37*
G36*
X112669351Y-87958743D02*
G01*
X112814941Y-88019048D01*
X112945970Y-88106599D01*
X113057401Y-88218030D01*
X113144952Y-88349059D01*
X113205257Y-88494649D01*
X113236000Y-88649206D01*
X113236000Y-88806794D01*
X113205257Y-88961351D01*
X113144952Y-89106941D01*
X113057401Y-89237970D01*
X112945970Y-89349401D01*
X112814941Y-89436952D01*
X112669351Y-89497257D01*
X112514794Y-89528000D01*
X112357206Y-89528000D01*
X112202649Y-89497257D01*
X112057059Y-89436952D01*
X111926030Y-89349401D01*
X111814599Y-89237970D01*
X111727048Y-89106941D01*
X111666743Y-88961351D01*
X111636000Y-88806794D01*
X111636000Y-88649206D01*
X111666743Y-88494649D01*
X111727048Y-88349059D01*
X111814599Y-88218030D01*
X111926030Y-88106599D01*
X112057059Y-88019048D01*
X112202649Y-87958743D01*
X112357206Y-87928000D01*
X112514794Y-87928000D01*
X112669351Y-87958743D01*
G37*
G36*
X160958520Y-86639586D02*
G01*
X161122310Y-86707430D01*
X161269717Y-86805924D01*
X161395076Y-86931283D01*
X161483085Y-87062998D01*
X161493571Y-87078692D01*
X161561414Y-87242480D01*
X161596000Y-87416356D01*
X161596000Y-87593644D01*
X161561414Y-87767520D01*
X161501362Y-87912500D01*
X161493570Y-87931310D01*
X161395076Y-88078717D01*
X161269717Y-88204076D01*
X161122310Y-88302570D01*
X161122309Y-88302571D01*
X161122308Y-88302571D01*
X160958520Y-88370414D01*
X160784644Y-88405000D01*
X160607356Y-88405000D01*
X160433480Y-88370414D01*
X160269692Y-88302571D01*
X160269691Y-88302571D01*
X160269690Y-88302570D01*
X160122283Y-88204076D01*
X159996924Y-88078717D01*
X159898430Y-87931310D01*
X159890639Y-87912500D01*
X159830586Y-87767520D01*
X159796000Y-87593644D01*
X159796000Y-87416356D01*
X159830586Y-87242480D01*
X159898429Y-87078692D01*
X159908915Y-87062998D01*
X159996924Y-86931283D01*
X160122283Y-86805924D01*
X160269690Y-86707430D01*
X160433480Y-86639586D01*
X160607356Y-86605000D01*
X160784644Y-86605000D01*
X160958520Y-86639586D01*
G37*
G36*
X127054002Y-86936884D02*
G01*
X127086027Y-86946599D01*
X127115534Y-86962371D01*
X127141401Y-86983599D01*
X127162629Y-87009466D01*
X127178401Y-87038973D01*
X127188116Y-87070998D01*
X127192000Y-87110436D01*
X127192000Y-88105564D01*
X127188116Y-88145002D01*
X127178401Y-88177027D01*
X127162629Y-88206534D01*
X127141401Y-88232401D01*
X127115534Y-88253629D01*
X127086027Y-88269401D01*
X127054002Y-88279116D01*
X127014564Y-88283000D01*
X124019436Y-88283000D01*
X123979998Y-88279116D01*
X123947973Y-88269401D01*
X123918466Y-88253629D01*
X123892599Y-88232401D01*
X123871371Y-88206534D01*
X123855599Y-88177027D01*
X123845884Y-88145002D01*
X123842000Y-88105564D01*
X123842000Y-87110436D01*
X123845884Y-87070998D01*
X123855599Y-87038973D01*
X123871371Y-87009466D01*
X123892599Y-86983599D01*
X123918466Y-86962371D01*
X123947973Y-86946599D01*
X123979998Y-86936884D01*
X124019436Y-86933000D01*
X127014564Y-86933000D01*
X127054002Y-86936884D01*
G37*
G36*
X144685002Y-86936884D02*
G01*
X144717027Y-86946599D01*
X144746534Y-86962371D01*
X144772401Y-86983599D01*
X144793629Y-87009466D01*
X144809401Y-87038973D01*
X144819116Y-87070998D01*
X144823000Y-87110436D01*
X144823000Y-88105564D01*
X144819116Y-88145002D01*
X144809401Y-88177027D01*
X144793629Y-88206534D01*
X144772401Y-88232401D01*
X144746534Y-88253629D01*
X144717027Y-88269401D01*
X144685002Y-88279116D01*
X144645564Y-88283000D01*
X141650436Y-88283000D01*
X141610998Y-88279116D01*
X141578973Y-88269401D01*
X141549466Y-88253629D01*
X141523599Y-88232401D01*
X141502371Y-88206534D01*
X141486599Y-88177027D01*
X141476884Y-88145002D01*
X141473000Y-88105564D01*
X141473000Y-87110436D01*
X141476884Y-87070998D01*
X141486599Y-87038973D01*
X141502371Y-87009466D01*
X141523599Y-86983599D01*
X141549466Y-86962371D01*
X141578973Y-86946599D01*
X141610998Y-86936884D01*
X141650436Y-86933000D01*
X144645564Y-86933000D01*
X144685002Y-86936884D01*
G37*
G36*
X136237002Y-86928884D02*
G01*
X136269027Y-86938599D01*
X136298534Y-86954371D01*
X136324401Y-86975599D01*
X136345629Y-87001466D01*
X136361401Y-87030973D01*
X136371116Y-87062998D01*
X136375000Y-87102436D01*
X136375000Y-88097564D01*
X136371116Y-88137002D01*
X136361401Y-88169027D01*
X136345629Y-88198534D01*
X136324401Y-88224401D01*
X136298534Y-88245629D01*
X136269027Y-88261401D01*
X136237002Y-88271116D01*
X136197564Y-88275000D01*
X133202436Y-88275000D01*
X133162998Y-88271116D01*
X133130973Y-88261401D01*
X133101466Y-88245629D01*
X133075599Y-88224401D01*
X133054371Y-88198534D01*
X133038599Y-88169027D01*
X133028884Y-88137002D01*
X133025000Y-88097564D01*
X133025000Y-87102436D01*
X133028884Y-87062998D01*
X133038599Y-87030973D01*
X133054371Y-87001466D01*
X133075599Y-86975599D01*
X133101466Y-86954371D01*
X133130973Y-86938599D01*
X133162998Y-86928884D01*
X133202436Y-86925000D01*
X136197564Y-86925000D01*
X136237002Y-86928884D01*
G37*
G36*
X155037002Y-86928884D02*
G01*
X155069027Y-86938599D01*
X155098534Y-86954371D01*
X155124401Y-86975599D01*
X155145629Y-87001466D01*
X155161401Y-87030973D01*
X155171116Y-87062998D01*
X155175000Y-87102436D01*
X155175000Y-88097564D01*
X155171116Y-88137002D01*
X155161401Y-88169027D01*
X155145629Y-88198534D01*
X155124401Y-88224401D01*
X155098534Y-88245629D01*
X155069027Y-88261401D01*
X155037002Y-88271116D01*
X154997564Y-88275000D01*
X152002436Y-88275000D01*
X151962998Y-88271116D01*
X151930973Y-88261401D01*
X151901466Y-88245629D01*
X151875599Y-88224401D01*
X151854371Y-88198534D01*
X151838599Y-88169027D01*
X151828884Y-88137002D01*
X151825000Y-88097564D01*
X151825000Y-87102436D01*
X151828884Y-87062998D01*
X151838599Y-87030973D01*
X151854371Y-87001466D01*
X151875599Y-86975599D01*
X151901466Y-86954371D01*
X151930973Y-86938599D01*
X151962998Y-86928884D01*
X152002436Y-86925000D01*
X154997564Y-86925000D01*
X155037002Y-86928884D01*
G37*
G36*
X129053991Y-86941575D02*
G01*
X129087879Y-86951855D01*
X129119112Y-86968550D01*
X129146486Y-86991014D01*
X129168950Y-87018388D01*
X129185645Y-87049621D01*
X129195925Y-87083509D01*
X129200000Y-87124888D01*
X129200000Y-87725112D01*
X129195925Y-87766491D01*
X129185645Y-87800379D01*
X129168950Y-87831612D01*
X129146486Y-87858986D01*
X129119112Y-87881450D01*
X129087879Y-87898145D01*
X129053991Y-87908425D01*
X129012612Y-87912500D01*
X127987388Y-87912500D01*
X127946009Y-87908425D01*
X127912121Y-87898145D01*
X127880888Y-87881450D01*
X127853514Y-87858986D01*
X127831050Y-87831612D01*
X127814355Y-87800379D01*
X127804075Y-87766491D01*
X127800000Y-87725112D01*
X127800000Y-87124888D01*
X127804075Y-87083509D01*
X127814355Y-87049621D01*
X127831050Y-87018388D01*
X127853514Y-86991014D01*
X127880888Y-86968550D01*
X127912121Y-86951855D01*
X127946009Y-86941575D01*
X127987388Y-86937500D01*
X129012612Y-86937500D01*
X129053991Y-86941575D01*
G37*
G36*
X106639991Y-86593575D02*
G01*
X106673879Y-86603855D01*
X106705112Y-86620550D01*
X106732486Y-86643014D01*
X106754950Y-86670388D01*
X106771645Y-86701621D01*
X106781925Y-86735509D01*
X106786000Y-86776888D01*
X106786000Y-87377112D01*
X106781925Y-87418491D01*
X106771645Y-87452379D01*
X106754950Y-87483612D01*
X106732486Y-87510986D01*
X106705112Y-87533450D01*
X106673879Y-87550145D01*
X106639991Y-87560425D01*
X106598612Y-87564500D01*
X105573388Y-87564500D01*
X105532009Y-87560425D01*
X105498121Y-87550145D01*
X105466888Y-87533450D01*
X105439514Y-87510986D01*
X105417050Y-87483612D01*
X105400355Y-87452379D01*
X105390075Y-87418491D01*
X105386000Y-87377112D01*
X105386000Y-86776888D01*
X105390075Y-86735509D01*
X105400355Y-86701621D01*
X105417050Y-86670388D01*
X105439514Y-86643014D01*
X105466888Y-86620550D01*
X105498121Y-86603855D01*
X105532009Y-86593575D01*
X105573388Y-86589500D01*
X106598612Y-86589500D01*
X106639991Y-86593575D01*
G37*
G36*
X104734991Y-86593575D02*
G01*
X104768879Y-86603855D01*
X104800112Y-86620550D01*
X104827486Y-86643014D01*
X104849950Y-86670388D01*
X104866645Y-86701621D01*
X104876925Y-86735509D01*
X104881000Y-86776888D01*
X104881000Y-87377112D01*
X104876925Y-87418491D01*
X104866645Y-87452379D01*
X104849950Y-87483612D01*
X104827486Y-87510986D01*
X104800112Y-87533450D01*
X104768879Y-87550145D01*
X104734991Y-87560425D01*
X104693612Y-87564500D01*
X103668388Y-87564500D01*
X103627009Y-87560425D01*
X103593121Y-87550145D01*
X103561888Y-87533450D01*
X103534514Y-87510986D01*
X103512050Y-87483612D01*
X103495355Y-87452379D01*
X103485075Y-87418491D01*
X103481000Y-87377112D01*
X103481000Y-86776888D01*
X103485075Y-86735509D01*
X103495355Y-86701621D01*
X103512050Y-86670388D01*
X103534514Y-86643014D01*
X103561888Y-86620550D01*
X103593121Y-86603855D01*
X103627009Y-86593575D01*
X103668388Y-86589500D01*
X104693612Y-86589500D01*
X104734991Y-86593575D01*
G37*
G36*
X102829991Y-86593575D02*
G01*
X102863879Y-86603855D01*
X102895112Y-86620550D01*
X102922486Y-86643014D01*
X102944950Y-86670388D01*
X102961645Y-86701621D01*
X102971925Y-86735509D01*
X102976000Y-86776888D01*
X102976000Y-87377112D01*
X102971925Y-87418491D01*
X102961645Y-87452379D01*
X102944950Y-87483612D01*
X102922486Y-87510986D01*
X102895112Y-87533450D01*
X102863879Y-87550145D01*
X102829991Y-87560425D01*
X102788612Y-87564500D01*
X101763388Y-87564500D01*
X101722009Y-87560425D01*
X101688121Y-87550145D01*
X101656888Y-87533450D01*
X101629514Y-87510986D01*
X101607050Y-87483612D01*
X101590355Y-87452379D01*
X101580075Y-87418491D01*
X101576000Y-87377112D01*
X101576000Y-86776888D01*
X101580075Y-86735509D01*
X101590355Y-86701621D01*
X101607050Y-86670388D01*
X101629514Y-86643014D01*
X101656888Y-86620550D01*
X101688121Y-86603855D01*
X101722009Y-86593575D01*
X101763388Y-86589500D01*
X102788612Y-86589500D01*
X102829991Y-86593575D01*
G37*
G36*
X139901600Y-86111800D02*
G01*
X138428400Y-86111800D01*
X138428400Y-85756200D01*
X139901600Y-85756200D01*
X139901600Y-86111800D01*
G37*
G36*
X134059600Y-86111800D02*
G01*
X132586400Y-86111800D01*
X132586400Y-85756200D01*
X134059600Y-85756200D01*
X134059600Y-86111800D01*
G37*
G36*
X104734991Y-84718575D02*
G01*
X104768879Y-84728855D01*
X104800112Y-84745550D01*
X104827486Y-84768014D01*
X104849950Y-84795388D01*
X104866645Y-84826621D01*
X104876925Y-84860509D01*
X104881000Y-84901888D01*
X104881000Y-85502112D01*
X104876925Y-85543491D01*
X104866645Y-85577379D01*
X104849950Y-85608612D01*
X104827486Y-85635986D01*
X104800112Y-85658450D01*
X104768879Y-85675145D01*
X104734991Y-85685425D01*
X104693612Y-85689500D01*
X103668388Y-85689500D01*
X103627009Y-85685425D01*
X103593121Y-85675145D01*
X103561888Y-85658450D01*
X103534514Y-85635986D01*
X103512050Y-85608612D01*
X103495355Y-85577379D01*
X103485075Y-85543491D01*
X103481000Y-85502112D01*
X103481000Y-84901888D01*
X103485075Y-84860509D01*
X103495355Y-84826621D01*
X103512050Y-84795388D01*
X103534514Y-84768014D01*
X103561888Y-84745550D01*
X103593121Y-84728855D01*
X103627009Y-84718575D01*
X103668388Y-84714500D01*
X104693612Y-84714500D01*
X104734991Y-84718575D01*
G37*
G36*
X102829991Y-84718575D02*
G01*
X102863879Y-84728855D01*
X102895112Y-84745550D01*
X102922486Y-84768014D01*
X102944950Y-84795388D01*
X102961645Y-84826621D01*
X102971925Y-84860509D01*
X102976000Y-84901888D01*
X102976000Y-85502112D01*
X102971925Y-85543491D01*
X102961645Y-85577379D01*
X102944950Y-85608612D01*
X102922486Y-85635986D01*
X102895112Y-85658450D01*
X102863879Y-85675145D01*
X102829991Y-85685425D01*
X102788612Y-85689500D01*
X101763388Y-85689500D01*
X101722009Y-85685425D01*
X101688121Y-85675145D01*
X101656888Y-85658450D01*
X101629514Y-85635986D01*
X101607050Y-85608612D01*
X101590355Y-85577379D01*
X101580075Y-85543491D01*
X101576000Y-85502112D01*
X101576000Y-84901888D01*
X101580075Y-84860509D01*
X101590355Y-84826621D01*
X101607050Y-84795388D01*
X101629514Y-84768014D01*
X101656888Y-84745550D01*
X101688121Y-84728855D01*
X101722009Y-84718575D01*
X101763388Y-84714500D01*
X102788612Y-84714500D01*
X102829991Y-84718575D01*
G37*
G36*
X106639991Y-84718575D02*
G01*
X106673879Y-84728855D01*
X106705112Y-84745550D01*
X106732486Y-84768014D01*
X106754950Y-84795388D01*
X106771645Y-84826621D01*
X106781925Y-84860509D01*
X106786000Y-84901888D01*
X106786000Y-85502112D01*
X106781925Y-85543491D01*
X106771645Y-85577379D01*
X106754950Y-85608612D01*
X106732486Y-85635986D01*
X106705112Y-85658450D01*
X106673879Y-85675145D01*
X106639991Y-85685425D01*
X106598612Y-85689500D01*
X105573388Y-85689500D01*
X105532009Y-85685425D01*
X105498121Y-85675145D01*
X105466888Y-85658450D01*
X105439514Y-85635986D01*
X105417050Y-85608612D01*
X105400355Y-85577379D01*
X105390075Y-85543491D01*
X105386000Y-85502112D01*
X105386000Y-84901888D01*
X105390075Y-84860509D01*
X105400355Y-84826621D01*
X105417050Y-84795388D01*
X105439514Y-84768014D01*
X105466888Y-84745550D01*
X105498121Y-84728855D01*
X105532009Y-84718575D01*
X105573388Y-84714500D01*
X106598612Y-84714500D01*
X106639991Y-84718575D01*
G37*
G36*
X139901600Y-85451400D02*
G01*
X138428400Y-85451400D01*
X138428400Y-85095800D01*
X139901600Y-85095800D01*
X139901600Y-85451400D01*
G37*
G36*
X134059600Y-85451400D02*
G01*
X132586400Y-85451400D01*
X132586400Y-85095800D01*
X134059600Y-85095800D01*
X134059600Y-85451400D01*
G37*
G36*
X139901600Y-84791000D02*
G01*
X138428400Y-84791000D01*
X138428400Y-84435400D01*
X139901600Y-84435400D01*
X139901600Y-84791000D01*
G37*
G36*
X134059600Y-84791000D02*
G01*
X132586400Y-84791000D01*
X132586400Y-84435400D01*
X134059600Y-84435400D01*
X134059600Y-84791000D01*
G37*
G36*
X141743991Y-82952075D02*
G01*
X141777879Y-82962355D01*
X141809112Y-82979050D01*
X141836486Y-83001514D01*
X141858950Y-83028888D01*
X141875645Y-83060121D01*
X141885925Y-83094009D01*
X141890000Y-83135388D01*
X141890000Y-84160612D01*
X141885925Y-84201991D01*
X141875645Y-84235879D01*
X141858950Y-84267112D01*
X141836486Y-84294486D01*
X141809112Y-84316950D01*
X141777879Y-84333645D01*
X141743991Y-84343925D01*
X141702612Y-84348000D01*
X141102388Y-84348000D01*
X141061009Y-84343925D01*
X141027121Y-84333645D01*
X140995888Y-84316950D01*
X140968514Y-84294486D01*
X140946050Y-84267112D01*
X140929355Y-84235879D01*
X140919075Y-84201991D01*
X140915000Y-84160612D01*
X140915000Y-83135388D01*
X140919075Y-83094009D01*
X140929355Y-83060121D01*
X140946050Y-83028888D01*
X140968514Y-83001514D01*
X140995888Y-82979050D01*
X141027121Y-82962355D01*
X141061009Y-82952075D01*
X141102388Y-82948000D01*
X141702612Y-82948000D01*
X141743991Y-82952075D01*
G37*
G36*
X143618991Y-82952075D02*
G01*
X143652879Y-82962355D01*
X143684112Y-82979050D01*
X143711486Y-83001514D01*
X143733950Y-83028888D01*
X143750645Y-83060121D01*
X143760925Y-83094009D01*
X143765000Y-83135388D01*
X143765000Y-84160612D01*
X143760925Y-84201991D01*
X143750645Y-84235879D01*
X143733950Y-84267112D01*
X143711486Y-84294486D01*
X143684112Y-84316950D01*
X143652879Y-84333645D01*
X143618991Y-84343925D01*
X143577612Y-84348000D01*
X142977388Y-84348000D01*
X142936009Y-84343925D01*
X142902121Y-84333645D01*
X142870888Y-84316950D01*
X142843514Y-84294486D01*
X142821050Y-84267112D01*
X142804355Y-84235879D01*
X142794075Y-84201991D01*
X142790000Y-84160612D01*
X142790000Y-83135388D01*
X142794075Y-83094009D01*
X142804355Y-83060121D01*
X142821050Y-83028888D01*
X142843514Y-83001514D01*
X142870888Y-82979050D01*
X142902121Y-82962355D01*
X142936009Y-82952075D01*
X142977388Y-82948000D01*
X143577612Y-82948000D01*
X143618991Y-82952075D01*
G37*
G36*
X134059600Y-84156000D02*
G01*
X132586400Y-84156000D01*
X132586400Y-83800400D01*
X134059600Y-83800400D01*
X134059600Y-84156000D01*
G37*
G36*
X139901600Y-84156000D02*
G01*
X138428400Y-84156000D01*
X138428400Y-83800400D01*
X139901600Y-83800400D01*
X139901600Y-84156000D01*
G37*
G36*
X139901600Y-83495600D02*
G01*
X138428400Y-83495600D01*
X138428400Y-83140000D01*
X139901600Y-83140000D01*
X139901600Y-83495600D01*
G37*
G36*
X134059600Y-83495600D02*
G01*
X132586400Y-83495600D01*
X132586400Y-83140000D01*
X134059600Y-83140000D01*
X134059600Y-83495600D01*
G37*
G36*
X160958520Y-81639586D02*
G01*
X161122310Y-81707430D01*
X161269717Y-81805924D01*
X161395076Y-81931283D01*
X161493570Y-82078690D01*
X161493571Y-82078692D01*
X161561414Y-82242480D01*
X161596000Y-82416356D01*
X161596000Y-82593644D01*
X161561414Y-82767520D01*
X161525523Y-82854170D01*
X161493570Y-82931310D01*
X161395076Y-83078717D01*
X161269717Y-83204076D01*
X161122310Y-83302570D01*
X161122309Y-83302571D01*
X161122308Y-83302571D01*
X160958520Y-83370414D01*
X160784644Y-83405000D01*
X160607356Y-83405000D01*
X160433480Y-83370414D01*
X160269692Y-83302571D01*
X160269691Y-83302571D01*
X160269690Y-83302570D01*
X160122283Y-83204076D01*
X159996924Y-83078717D01*
X159898430Y-82931310D01*
X159866478Y-82854170D01*
X159830586Y-82767520D01*
X159796000Y-82593644D01*
X159796000Y-82416356D01*
X159830586Y-82242480D01*
X159898429Y-82078692D01*
X159898430Y-82078690D01*
X159996924Y-81931283D01*
X160122283Y-81805924D01*
X160269690Y-81707430D01*
X160433480Y-81639586D01*
X160607356Y-81605000D01*
X160784644Y-81605000D01*
X160958520Y-81639586D01*
G37*
G36*
X124262015Y-81939668D02*
G01*
X124388799Y-81992184D01*
X124393048Y-81993944D01*
X124490251Y-82058893D01*
X124510973Y-82072739D01*
X124611261Y-82173027D01*
X124690057Y-82290954D01*
X124744332Y-82421985D01*
X124772000Y-82561084D01*
X124772000Y-82702916D01*
X124744332Y-82842015D01*
X124698491Y-82952684D01*
X124690056Y-82973048D01*
X124611261Y-83090973D01*
X124510973Y-83191261D01*
X124393048Y-83270056D01*
X124393047Y-83270057D01*
X124393046Y-83270057D01*
X124262015Y-83324332D01*
X124122916Y-83352000D01*
X123981084Y-83352000D01*
X123841985Y-83324332D01*
X123710954Y-83270057D01*
X123710953Y-83270057D01*
X123710952Y-83270056D01*
X123593027Y-83191261D01*
X123492739Y-83090973D01*
X123413944Y-82973048D01*
X123405509Y-82952684D01*
X123359668Y-82842015D01*
X123332000Y-82702916D01*
X123332000Y-82561084D01*
X123359668Y-82421985D01*
X123413943Y-82290954D01*
X123492739Y-82173027D01*
X123593027Y-82072739D01*
X123613749Y-82058893D01*
X123710952Y-81993944D01*
X123715201Y-81992184D01*
X123841985Y-81939668D01*
X123981084Y-81912000D01*
X124122916Y-81912000D01*
X124262015Y-81939668D01*
G37*
G36*
X126802015Y-81939668D02*
G01*
X126928799Y-81992184D01*
X126933048Y-81993944D01*
X127030251Y-82058893D01*
X127050973Y-82072739D01*
X127151261Y-82173027D01*
X127230057Y-82290954D01*
X127284332Y-82421985D01*
X127312000Y-82561084D01*
X127312000Y-82702916D01*
X127284332Y-82842015D01*
X127238491Y-82952684D01*
X127230056Y-82973048D01*
X127151261Y-83090973D01*
X127050973Y-83191261D01*
X126933048Y-83270056D01*
X126933047Y-83270057D01*
X126933046Y-83270057D01*
X126802015Y-83324332D01*
X126662916Y-83352000D01*
X126521084Y-83352000D01*
X126381985Y-83324332D01*
X126250954Y-83270057D01*
X126250953Y-83270057D01*
X126250952Y-83270056D01*
X126133027Y-83191261D01*
X126032739Y-83090973D01*
X125953944Y-82973048D01*
X125945509Y-82952684D01*
X125899668Y-82842015D01*
X125872000Y-82702916D01*
X125872000Y-82561084D01*
X125899668Y-82421985D01*
X125953943Y-82290954D01*
X126032739Y-82173027D01*
X126133027Y-82072739D01*
X126153749Y-82058893D01*
X126250952Y-81993944D01*
X126255201Y-81992184D01*
X126381985Y-81939668D01*
X126521084Y-81912000D01*
X126662916Y-81912000D01*
X126802015Y-81939668D01*
G37*
G36*
X147122015Y-81939668D02*
G01*
X147248799Y-81992184D01*
X147253048Y-81993944D01*
X147350251Y-82058893D01*
X147370973Y-82072739D01*
X147471261Y-82173027D01*
X147550057Y-82290954D01*
X147604332Y-82421985D01*
X147632000Y-82561084D01*
X147632000Y-82702916D01*
X147604332Y-82842015D01*
X147558491Y-82952684D01*
X147550056Y-82973048D01*
X147471261Y-83090973D01*
X147370973Y-83191261D01*
X147253048Y-83270056D01*
X147253047Y-83270057D01*
X147253046Y-83270057D01*
X147122015Y-83324332D01*
X146982916Y-83352000D01*
X146841084Y-83352000D01*
X146701985Y-83324332D01*
X146570954Y-83270057D01*
X146570953Y-83270057D01*
X146570952Y-83270056D01*
X146453027Y-83191261D01*
X146352739Y-83090973D01*
X146273944Y-82973048D01*
X146265509Y-82952684D01*
X146219668Y-82842015D01*
X146192000Y-82702916D01*
X146192000Y-82561084D01*
X146219668Y-82421985D01*
X146273943Y-82290954D01*
X146352739Y-82173027D01*
X146453027Y-82072739D01*
X146473749Y-82058893D01*
X146570952Y-81993944D01*
X146575201Y-81992184D01*
X146701985Y-81939668D01*
X146841084Y-81912000D01*
X146982916Y-81912000D01*
X147122015Y-81939668D01*
G37*
G36*
X152202015Y-81939668D02*
G01*
X152328799Y-81992184D01*
X152333048Y-81993944D01*
X152430251Y-82058893D01*
X152450973Y-82072739D01*
X152551261Y-82173027D01*
X152630057Y-82290954D01*
X152684332Y-82421985D01*
X152712000Y-82561084D01*
X152712000Y-82702916D01*
X152684332Y-82842015D01*
X152638491Y-82952684D01*
X152630056Y-82973048D01*
X152551261Y-83090973D01*
X152450973Y-83191261D01*
X152333048Y-83270056D01*
X152333047Y-83270057D01*
X152333046Y-83270057D01*
X152202015Y-83324332D01*
X152062916Y-83352000D01*
X151921084Y-83352000D01*
X151781985Y-83324332D01*
X151650954Y-83270057D01*
X151650953Y-83270057D01*
X151650952Y-83270056D01*
X151533027Y-83191261D01*
X151432739Y-83090973D01*
X151353944Y-82973048D01*
X151345509Y-82952684D01*
X151299668Y-82842015D01*
X151272000Y-82702916D01*
X151272000Y-82561084D01*
X151299668Y-82421985D01*
X151353943Y-82290954D01*
X151432739Y-82173027D01*
X151533027Y-82072739D01*
X151553749Y-82058893D01*
X151650952Y-81993944D01*
X151655201Y-81992184D01*
X151781985Y-81939668D01*
X151921084Y-81912000D01*
X152062916Y-81912000D01*
X152202015Y-81939668D01*
G37*
G36*
X149662015Y-81939668D02*
G01*
X149788799Y-81992184D01*
X149793048Y-81993944D01*
X149890251Y-82058893D01*
X149910973Y-82072739D01*
X150011261Y-82173027D01*
X150090057Y-82290954D01*
X150144332Y-82421985D01*
X150172000Y-82561084D01*
X150172000Y-82702916D01*
X150144332Y-82842015D01*
X150098491Y-82952684D01*
X150090056Y-82973048D01*
X150011261Y-83090973D01*
X149910973Y-83191261D01*
X149793048Y-83270056D01*
X149793047Y-83270057D01*
X149793046Y-83270057D01*
X149662015Y-83324332D01*
X149522916Y-83352000D01*
X149381084Y-83352000D01*
X149241985Y-83324332D01*
X149110954Y-83270057D01*
X149110953Y-83270057D01*
X149110952Y-83270056D01*
X148993027Y-83191261D01*
X148892739Y-83090973D01*
X148813944Y-82973048D01*
X148805509Y-82952684D01*
X148759668Y-82842015D01*
X148732000Y-82702916D01*
X148732000Y-82561084D01*
X148759668Y-82421985D01*
X148813943Y-82290954D01*
X148892739Y-82173027D01*
X148993027Y-82072739D01*
X149013749Y-82058893D01*
X149110952Y-81993944D01*
X149115201Y-81992184D01*
X149241985Y-81939668D01*
X149381084Y-81912000D01*
X149522916Y-81912000D01*
X149662015Y-81939668D01*
G37*
G36*
X129342015Y-81939668D02*
G01*
X129468799Y-81992184D01*
X129473048Y-81993944D01*
X129570251Y-82058893D01*
X129590973Y-82072739D01*
X129691261Y-82173027D01*
X129770057Y-82290954D01*
X129824332Y-82421985D01*
X129852000Y-82561084D01*
X129852000Y-82702916D01*
X129824332Y-82842015D01*
X129778491Y-82952684D01*
X129770056Y-82973048D01*
X129691261Y-83090973D01*
X129590973Y-83191261D01*
X129473048Y-83270056D01*
X129473047Y-83270057D01*
X129473046Y-83270057D01*
X129342015Y-83324332D01*
X129202916Y-83352000D01*
X129061084Y-83352000D01*
X128921985Y-83324332D01*
X128790954Y-83270057D01*
X128790953Y-83270057D01*
X128790952Y-83270056D01*
X128673027Y-83191261D01*
X128572739Y-83090973D01*
X128493944Y-82973048D01*
X128485509Y-82952684D01*
X128439668Y-82842015D01*
X128412000Y-82702916D01*
X128412000Y-82561084D01*
X128439668Y-82421985D01*
X128493943Y-82290954D01*
X128572739Y-82173027D01*
X128673027Y-82072739D01*
X128693749Y-82058893D01*
X128790952Y-81993944D01*
X128795201Y-81992184D01*
X128921985Y-81939668D01*
X129061084Y-81912000D01*
X129202916Y-81912000D01*
X129342015Y-81939668D01*
G37*
G36*
X102829991Y-81991575D02*
G01*
X102863879Y-82001855D01*
X102895112Y-82018550D01*
X102922486Y-82041014D01*
X102944950Y-82068388D01*
X102961645Y-82099621D01*
X102971925Y-82133509D01*
X102976000Y-82174888D01*
X102976000Y-82775112D01*
X102971925Y-82816491D01*
X102961645Y-82850379D01*
X102944950Y-82881612D01*
X102922486Y-82908986D01*
X102895112Y-82931450D01*
X102863879Y-82948145D01*
X102829991Y-82958425D01*
X102788612Y-82962500D01*
X101763388Y-82962500D01*
X101722009Y-82958425D01*
X101688121Y-82948145D01*
X101656888Y-82931450D01*
X101629514Y-82908986D01*
X101607050Y-82881612D01*
X101590355Y-82850379D01*
X101580075Y-82816491D01*
X101576000Y-82775112D01*
X101576000Y-82174888D01*
X101580075Y-82133509D01*
X101590355Y-82099621D01*
X101607050Y-82068388D01*
X101629514Y-82041014D01*
X101656888Y-82018550D01*
X101688121Y-82001855D01*
X101722009Y-81991575D01*
X101763388Y-81987500D01*
X102788612Y-81987500D01*
X102829991Y-81991575D01*
G37*
G36*
X106639991Y-81991575D02*
G01*
X106673879Y-82001855D01*
X106705112Y-82018550D01*
X106732486Y-82041014D01*
X106754950Y-82068388D01*
X106771645Y-82099621D01*
X106781925Y-82133509D01*
X106786000Y-82174888D01*
X106786000Y-82775112D01*
X106781925Y-82816491D01*
X106771645Y-82850379D01*
X106754950Y-82881612D01*
X106732486Y-82908986D01*
X106705112Y-82931450D01*
X106673879Y-82948145D01*
X106639991Y-82958425D01*
X106598612Y-82962500D01*
X105573388Y-82962500D01*
X105532009Y-82958425D01*
X105498121Y-82948145D01*
X105466888Y-82931450D01*
X105439514Y-82908986D01*
X105417050Y-82881612D01*
X105400355Y-82850379D01*
X105390075Y-82816491D01*
X105386000Y-82775112D01*
X105386000Y-82174888D01*
X105390075Y-82133509D01*
X105400355Y-82099621D01*
X105417050Y-82068388D01*
X105439514Y-82041014D01*
X105466888Y-82018550D01*
X105498121Y-82001855D01*
X105532009Y-81991575D01*
X105573388Y-81987500D01*
X106598612Y-81987500D01*
X106639991Y-81991575D01*
G37*
G36*
X104734991Y-81991575D02*
G01*
X104768879Y-82001855D01*
X104800112Y-82018550D01*
X104827486Y-82041014D01*
X104849950Y-82068388D01*
X104866645Y-82099621D01*
X104876925Y-82133509D01*
X104881000Y-82174888D01*
X104881000Y-82775112D01*
X104876925Y-82816491D01*
X104866645Y-82850379D01*
X104849950Y-82881612D01*
X104827486Y-82908986D01*
X104800112Y-82931450D01*
X104768879Y-82948145D01*
X104734991Y-82958425D01*
X104693612Y-82962500D01*
X103668388Y-82962500D01*
X103627009Y-82958425D01*
X103593121Y-82948145D01*
X103561888Y-82931450D01*
X103534514Y-82908986D01*
X103512050Y-82881612D01*
X103495355Y-82850379D01*
X103485075Y-82816491D01*
X103481000Y-82775112D01*
X103481000Y-82174888D01*
X103485075Y-82133509D01*
X103495355Y-82099621D01*
X103512050Y-82068388D01*
X103534514Y-82041014D01*
X103561888Y-82018550D01*
X103593121Y-82001855D01*
X103627009Y-81991575D01*
X103668388Y-81987500D01*
X104693612Y-81987500D01*
X104734991Y-81991575D01*
G37*
G36*
X134059600Y-82860600D02*
G01*
X132586400Y-82860600D01*
X132586400Y-82505000D01*
X134059600Y-82505000D01*
X134059600Y-82860600D01*
G37*
G36*
X139901600Y-82860600D02*
G01*
X138428400Y-82860600D01*
X138428400Y-82505000D01*
X139901600Y-82505000D01*
X139901600Y-82860600D01*
G37*
G36*
X134059600Y-82200200D02*
G01*
X132586400Y-82200200D01*
X132586400Y-81844600D01*
X134059600Y-81844600D01*
X134059600Y-82200200D01*
G37*
G36*
X139901600Y-82200200D02*
G01*
X138428400Y-82200200D01*
X138428400Y-81844600D01*
X139901600Y-81844600D01*
X139901600Y-82200200D01*
G37*
G36*
X143616491Y-80704075D02*
G01*
X143650379Y-80714355D01*
X143681612Y-80731050D01*
X143708986Y-80753514D01*
X143731450Y-80780888D01*
X143748145Y-80812121D01*
X143758425Y-80846009D01*
X143762500Y-80887388D01*
X143762500Y-81912612D01*
X143758425Y-81953991D01*
X143748145Y-81987879D01*
X143731450Y-82019112D01*
X143708986Y-82046486D01*
X143681612Y-82068950D01*
X143650379Y-82085645D01*
X143616491Y-82095925D01*
X143575112Y-82100000D01*
X142974888Y-82100000D01*
X142933509Y-82095925D01*
X142899621Y-82085645D01*
X142868388Y-82068950D01*
X142841014Y-82046486D01*
X142818550Y-82019112D01*
X142801855Y-81987879D01*
X142791575Y-81953991D01*
X142787500Y-81912612D01*
X142787500Y-80887388D01*
X142791575Y-80846009D01*
X142801855Y-80812121D01*
X142818550Y-80780888D01*
X142841014Y-80753514D01*
X142868388Y-80731050D01*
X142899621Y-80714355D01*
X142933509Y-80704075D01*
X142974888Y-80700000D01*
X143575112Y-80700000D01*
X143616491Y-80704075D01*
G37*
G36*
X141741491Y-80704075D02*
G01*
X141775379Y-80714355D01*
X141806612Y-80731050D01*
X141833986Y-80753514D01*
X141856450Y-80780888D01*
X141873145Y-80812121D01*
X141883425Y-80846009D01*
X141887500Y-80887388D01*
X141887500Y-81912612D01*
X141883425Y-81953991D01*
X141873145Y-81987879D01*
X141856450Y-82019112D01*
X141833986Y-82046486D01*
X141806612Y-82068950D01*
X141775379Y-82085645D01*
X141741491Y-82095925D01*
X141700112Y-82100000D01*
X141099888Y-82100000D01*
X141058509Y-82095925D01*
X141024621Y-82085645D01*
X140993388Y-82068950D01*
X140966014Y-82046486D01*
X140943550Y-82019112D01*
X140926855Y-81987879D01*
X140916575Y-81953991D01*
X140912500Y-81912612D01*
X140912500Y-80887388D01*
X140916575Y-80846009D01*
X140926855Y-80812121D01*
X140943550Y-80780888D01*
X140966014Y-80753514D01*
X140993388Y-80731050D01*
X141024621Y-80714355D01*
X141058509Y-80704075D01*
X141099888Y-80700000D01*
X141700112Y-80700000D01*
X141741491Y-80704075D01*
G37*
G36*
X112669351Y-80338743D02*
G01*
X112814941Y-80399048D01*
X112945970Y-80486599D01*
X113057401Y-80598030D01*
X113144952Y-80729059D01*
X113205257Y-80874649D01*
X113236000Y-81029206D01*
X113236000Y-81186794D01*
X113205257Y-81341351D01*
X113144952Y-81486941D01*
X113057401Y-81617970D01*
X112945970Y-81729401D01*
X112814941Y-81816952D01*
X112669351Y-81877257D01*
X112514794Y-81908000D01*
X112357206Y-81908000D01*
X112202649Y-81877257D01*
X112057059Y-81816952D01*
X111926030Y-81729401D01*
X111814599Y-81617970D01*
X111727048Y-81486941D01*
X111666743Y-81341351D01*
X111636000Y-81186794D01*
X111636000Y-81029206D01*
X111666743Y-80874649D01*
X111727048Y-80729059D01*
X111814599Y-80598030D01*
X111926030Y-80486599D01*
X112057059Y-80399048D01*
X112202649Y-80338743D01*
X112357206Y-80308000D01*
X112514794Y-80308000D01*
X112669351Y-80338743D01*
G37*
G36*
X110129351Y-80338743D02*
G01*
X110274941Y-80399048D01*
X110405970Y-80486599D01*
X110517401Y-80598030D01*
X110604952Y-80729059D01*
X110665257Y-80874649D01*
X110696000Y-81029206D01*
X110696000Y-81186794D01*
X110665257Y-81341351D01*
X110604952Y-81486941D01*
X110517401Y-81617970D01*
X110405970Y-81729401D01*
X110274941Y-81816952D01*
X110129351Y-81877257D01*
X109974794Y-81908000D01*
X109817206Y-81908000D01*
X109662649Y-81877257D01*
X109517059Y-81816952D01*
X109386030Y-81729401D01*
X109274599Y-81617970D01*
X109187048Y-81486941D01*
X109126743Y-81341351D01*
X109096000Y-81186794D01*
X109096000Y-81029206D01*
X109126743Y-80874649D01*
X109187048Y-80729059D01*
X109274599Y-80598030D01*
X109386030Y-80486599D01*
X109517059Y-80399048D01*
X109662649Y-80338743D01*
X109817206Y-80308000D01*
X109974794Y-80308000D01*
X110129351Y-80338743D01*
G37*
G36*
X115209351Y-80338743D02*
G01*
X115354941Y-80399048D01*
X115485970Y-80486599D01*
X115597401Y-80598030D01*
X115684952Y-80729059D01*
X115745257Y-80874649D01*
X115776000Y-81029206D01*
X115776000Y-81186794D01*
X115745257Y-81341351D01*
X115684952Y-81486941D01*
X115597401Y-81617970D01*
X115485970Y-81729401D01*
X115354941Y-81816952D01*
X115209351Y-81877257D01*
X115054794Y-81908000D01*
X114897206Y-81908000D01*
X114742649Y-81877257D01*
X114597059Y-81816952D01*
X114466030Y-81729401D01*
X114354599Y-81617970D01*
X114267048Y-81486941D01*
X114206743Y-81341351D01*
X114176000Y-81186794D01*
X114176000Y-81029206D01*
X114206743Y-80874649D01*
X114267048Y-80729059D01*
X114354599Y-80598030D01*
X114466030Y-80486599D01*
X114597059Y-80399048D01*
X114742649Y-80338743D01*
X114897206Y-80308000D01*
X115054794Y-80308000D01*
X115209351Y-80338743D01*
G37*
G36*
X117749351Y-80338743D02*
G01*
X117894941Y-80399048D01*
X118025970Y-80486599D01*
X118137401Y-80598030D01*
X118224952Y-80729059D01*
X118285257Y-80874649D01*
X118316000Y-81029206D01*
X118316000Y-81186794D01*
X118285257Y-81341351D01*
X118224952Y-81486941D01*
X118137401Y-81617970D01*
X118025970Y-81729401D01*
X117894941Y-81816952D01*
X117749351Y-81877257D01*
X117594794Y-81908000D01*
X117437206Y-81908000D01*
X117282649Y-81877257D01*
X117137059Y-81816952D01*
X117006030Y-81729401D01*
X116894599Y-81617970D01*
X116807048Y-81486941D01*
X116746743Y-81341351D01*
X116716000Y-81186794D01*
X116716000Y-81029206D01*
X116746743Y-80874649D01*
X116807048Y-80729059D01*
X116894599Y-80598030D01*
X117006030Y-80486599D01*
X117137059Y-80399048D01*
X117282649Y-80338743D01*
X117437206Y-80308000D01*
X117594794Y-80308000D01*
X117749351Y-80338743D01*
G37*
G36*
X134059600Y-81539800D02*
G01*
X132586400Y-81539800D01*
X132586400Y-81184200D01*
X134059600Y-81184200D01*
X134059600Y-81539800D01*
G37*
G36*
X139901600Y-81539800D02*
G01*
X138428400Y-81539800D01*
X138428400Y-81184200D01*
X139901600Y-81184200D01*
X139901600Y-81539800D01*
G37*
G36*
X102829991Y-80116575D02*
G01*
X102863879Y-80126855D01*
X102895112Y-80143550D01*
X102922486Y-80166014D01*
X102944950Y-80193388D01*
X102961645Y-80224621D01*
X102971925Y-80258509D01*
X102976000Y-80299888D01*
X102976000Y-80900112D01*
X102971925Y-80941491D01*
X102961645Y-80975379D01*
X102944950Y-81006612D01*
X102922486Y-81033986D01*
X102895112Y-81056450D01*
X102863879Y-81073145D01*
X102829991Y-81083425D01*
X102788612Y-81087500D01*
X101763388Y-81087500D01*
X101722009Y-81083425D01*
X101688121Y-81073145D01*
X101656888Y-81056450D01*
X101629514Y-81033986D01*
X101607050Y-81006612D01*
X101590355Y-80975379D01*
X101580075Y-80941491D01*
X101576000Y-80900112D01*
X101576000Y-80299888D01*
X101580075Y-80258509D01*
X101590355Y-80224621D01*
X101607050Y-80193388D01*
X101629514Y-80166014D01*
X101656888Y-80143550D01*
X101688121Y-80126855D01*
X101722009Y-80116575D01*
X101763388Y-80112500D01*
X102788612Y-80112500D01*
X102829991Y-80116575D01*
G37*
G36*
X106639991Y-80116575D02*
G01*
X106673879Y-80126855D01*
X106705112Y-80143550D01*
X106732486Y-80166014D01*
X106754950Y-80193388D01*
X106771645Y-80224621D01*
X106781925Y-80258509D01*
X106786000Y-80299888D01*
X106786000Y-80900112D01*
X106781925Y-80941491D01*
X106771645Y-80975379D01*
X106754950Y-81006612D01*
X106732486Y-81033986D01*
X106705112Y-81056450D01*
X106673879Y-81073145D01*
X106639991Y-81083425D01*
X106598612Y-81087500D01*
X105573388Y-81087500D01*
X105532009Y-81083425D01*
X105498121Y-81073145D01*
X105466888Y-81056450D01*
X105439514Y-81033986D01*
X105417050Y-81006612D01*
X105400355Y-80975379D01*
X105390075Y-80941491D01*
X105386000Y-80900112D01*
X105386000Y-80299888D01*
X105390075Y-80258509D01*
X105400355Y-80224621D01*
X105417050Y-80193388D01*
X105439514Y-80166014D01*
X105466888Y-80143550D01*
X105498121Y-80126855D01*
X105532009Y-80116575D01*
X105573388Y-80112500D01*
X106598612Y-80112500D01*
X106639991Y-80116575D01*
G37*
G36*
X104734991Y-80116575D02*
G01*
X104768879Y-80126855D01*
X104800112Y-80143550D01*
X104827486Y-80166014D01*
X104849950Y-80193388D01*
X104866645Y-80224621D01*
X104876925Y-80258509D01*
X104881000Y-80299888D01*
X104881000Y-80900112D01*
X104876925Y-80941491D01*
X104866645Y-80975379D01*
X104849950Y-81006612D01*
X104827486Y-81033986D01*
X104800112Y-81056450D01*
X104768879Y-81073145D01*
X104734991Y-81083425D01*
X104693612Y-81087500D01*
X103668388Y-81087500D01*
X103627009Y-81083425D01*
X103593121Y-81073145D01*
X103561888Y-81056450D01*
X103534514Y-81033986D01*
X103512050Y-81006612D01*
X103495355Y-80975379D01*
X103485075Y-80941491D01*
X103481000Y-80900112D01*
X103481000Y-80299888D01*
X103485075Y-80258509D01*
X103495355Y-80224621D01*
X103512050Y-80193388D01*
X103534514Y-80166014D01*
X103561888Y-80143550D01*
X103593121Y-80126855D01*
X103627009Y-80116575D01*
X103668388Y-80112500D01*
X104693612Y-80112500D01*
X104734991Y-80116575D01*
G37*
G36*
X114327935Y-76967464D02*
G01*
X114482624Y-77031539D01*
X114482626Y-77031540D01*
X114621844Y-77124562D01*
X114740238Y-77242956D01*
X114820624Y-77363263D01*
X114833261Y-77382176D01*
X114897336Y-77536865D01*
X114930000Y-77701081D01*
X114930000Y-77868519D01*
X114897336Y-78032735D01*
X114880326Y-78073800D01*
X114833260Y-78187426D01*
X114740238Y-78326644D01*
X114621844Y-78445038D01*
X114482626Y-78538060D01*
X114482625Y-78538061D01*
X114482624Y-78538061D01*
X114327935Y-78602136D01*
X114163719Y-78634800D01*
X113996281Y-78634800D01*
X113832065Y-78602136D01*
X113677376Y-78538061D01*
X113677375Y-78538061D01*
X113677374Y-78538060D01*
X113538156Y-78445038D01*
X113419762Y-78326644D01*
X113326740Y-78187426D01*
X113279674Y-78073800D01*
X113262664Y-78032735D01*
X113230000Y-77868519D01*
X113230000Y-77701081D01*
X113262664Y-77536865D01*
X113326739Y-77382176D01*
X113339376Y-77363263D01*
X113419762Y-77242956D01*
X113538156Y-77124562D01*
X113677374Y-77031540D01*
X113677376Y-77031539D01*
X113832065Y-76967464D01*
X113996281Y-76934800D01*
X114163719Y-76934800D01*
X114327935Y-76967464D01*
G37*
G36*
X139727935Y-76967464D02*
G01*
X139882624Y-77031539D01*
X139882626Y-77031540D01*
X140021844Y-77124562D01*
X140140238Y-77242956D01*
X140220624Y-77363263D01*
X140233261Y-77382176D01*
X140297336Y-77536865D01*
X140330000Y-77701081D01*
X140330000Y-77868519D01*
X140297336Y-78032735D01*
X140280326Y-78073800D01*
X140233260Y-78187426D01*
X140140238Y-78326644D01*
X140021844Y-78445038D01*
X139882626Y-78538060D01*
X139882625Y-78538061D01*
X139882624Y-78538061D01*
X139727935Y-78602136D01*
X139563719Y-78634800D01*
X139396281Y-78634800D01*
X139232065Y-78602136D01*
X139077376Y-78538061D01*
X139077375Y-78538061D01*
X139077374Y-78538060D01*
X138938156Y-78445038D01*
X138819762Y-78326644D01*
X138726740Y-78187426D01*
X138679674Y-78073800D01*
X138662664Y-78032735D01*
X138630000Y-77868519D01*
X138630000Y-77701081D01*
X138662664Y-77536865D01*
X138726739Y-77382176D01*
X138739376Y-77363263D01*
X138819762Y-77242956D01*
X138938156Y-77124562D01*
X139077374Y-77031540D01*
X139077376Y-77031539D01*
X139232065Y-76967464D01*
X139396281Y-76934800D01*
X139563719Y-76934800D01*
X139727935Y-76967464D01*
G37*
G36*
X111787935Y-76967464D02*
G01*
X111942624Y-77031539D01*
X111942626Y-77031540D01*
X112081844Y-77124562D01*
X112200238Y-77242956D01*
X112280624Y-77363263D01*
X112293261Y-77382176D01*
X112357336Y-77536865D01*
X112390000Y-77701081D01*
X112390000Y-77868519D01*
X112357336Y-78032735D01*
X112340326Y-78073800D01*
X112293260Y-78187426D01*
X112200238Y-78326644D01*
X112081844Y-78445038D01*
X111942626Y-78538060D01*
X111942625Y-78538061D01*
X111942624Y-78538061D01*
X111787935Y-78602136D01*
X111623719Y-78634800D01*
X111456281Y-78634800D01*
X111292065Y-78602136D01*
X111137376Y-78538061D01*
X111137375Y-78538061D01*
X111137374Y-78538060D01*
X110998156Y-78445038D01*
X110879762Y-78326644D01*
X110786740Y-78187426D01*
X110739674Y-78073800D01*
X110722664Y-78032735D01*
X110690000Y-77868519D01*
X110690000Y-77701081D01*
X110722664Y-77536865D01*
X110786739Y-77382176D01*
X110799376Y-77363263D01*
X110879762Y-77242956D01*
X110998156Y-77124562D01*
X111137374Y-77031540D01*
X111137376Y-77031539D01*
X111292065Y-76967464D01*
X111456281Y-76934800D01*
X111623719Y-76934800D01*
X111787935Y-76967464D01*
G37*
G36*
X144807935Y-76967464D02*
G01*
X144962624Y-77031539D01*
X144962626Y-77031540D01*
X145101844Y-77124562D01*
X145220238Y-77242956D01*
X145300624Y-77363263D01*
X145313261Y-77382176D01*
X145377336Y-77536865D01*
X145410000Y-77701081D01*
X145410000Y-77868519D01*
X145377336Y-78032735D01*
X145360326Y-78073800D01*
X145313260Y-78187426D01*
X145220238Y-78326644D01*
X145101844Y-78445038D01*
X144962626Y-78538060D01*
X144962625Y-78538061D01*
X144962624Y-78538061D01*
X144807935Y-78602136D01*
X144643719Y-78634800D01*
X144476281Y-78634800D01*
X144312065Y-78602136D01*
X144157376Y-78538061D01*
X144157375Y-78538061D01*
X144157374Y-78538060D01*
X144018156Y-78445038D01*
X143899762Y-78326644D01*
X143806740Y-78187426D01*
X143759674Y-78073800D01*
X143742664Y-78032735D01*
X143710000Y-77868519D01*
X143710000Y-77701081D01*
X143742664Y-77536865D01*
X143806739Y-77382176D01*
X143819376Y-77363263D01*
X143899762Y-77242956D01*
X144018156Y-77124562D01*
X144157374Y-77031540D01*
X144157376Y-77031539D01*
X144312065Y-76967464D01*
X144476281Y-76934800D01*
X144643719Y-76934800D01*
X144807935Y-76967464D01*
G37*
G36*
X147347935Y-76967464D02*
G01*
X147502624Y-77031539D01*
X147502626Y-77031540D01*
X147641844Y-77124562D01*
X147760238Y-77242956D01*
X147840624Y-77363263D01*
X147853261Y-77382176D01*
X147917336Y-77536865D01*
X147950000Y-77701081D01*
X147950000Y-77868519D01*
X147917336Y-78032735D01*
X147900326Y-78073800D01*
X147853260Y-78187426D01*
X147760238Y-78326644D01*
X147641844Y-78445038D01*
X147502626Y-78538060D01*
X147502625Y-78538061D01*
X147502624Y-78538061D01*
X147347935Y-78602136D01*
X147183719Y-78634800D01*
X147016281Y-78634800D01*
X146852065Y-78602136D01*
X146697376Y-78538061D01*
X146697375Y-78538061D01*
X146697374Y-78538060D01*
X146558156Y-78445038D01*
X146439762Y-78326644D01*
X146346740Y-78187426D01*
X146299674Y-78073800D01*
X146282664Y-78032735D01*
X146250000Y-77868519D01*
X146250000Y-77701081D01*
X146282664Y-77536865D01*
X146346739Y-77382176D01*
X146359376Y-77363263D01*
X146439762Y-77242956D01*
X146558156Y-77124562D01*
X146697374Y-77031540D01*
X146697376Y-77031539D01*
X146852065Y-76967464D01*
X147016281Y-76934800D01*
X147183719Y-76934800D01*
X147347935Y-76967464D01*
G37*
G36*
X149887935Y-76967464D02*
G01*
X150042624Y-77031539D01*
X150042626Y-77031540D01*
X150181844Y-77124562D01*
X150300238Y-77242956D01*
X150380624Y-77363263D01*
X150393261Y-77382176D01*
X150457336Y-77536865D01*
X150490000Y-77701081D01*
X150490000Y-77868519D01*
X150457336Y-78032735D01*
X150440326Y-78073800D01*
X150393260Y-78187426D01*
X150300238Y-78326644D01*
X150181844Y-78445038D01*
X150042626Y-78538060D01*
X150042625Y-78538061D01*
X150042624Y-78538061D01*
X149887935Y-78602136D01*
X149723719Y-78634800D01*
X149556281Y-78634800D01*
X149392065Y-78602136D01*
X149237376Y-78538061D01*
X149237375Y-78538061D01*
X149237374Y-78538060D01*
X149098156Y-78445038D01*
X148979762Y-78326644D01*
X148886740Y-78187426D01*
X148839674Y-78073800D01*
X148822664Y-78032735D01*
X148790000Y-77868519D01*
X148790000Y-77701081D01*
X148822664Y-77536865D01*
X148886739Y-77382176D01*
X148899376Y-77363263D01*
X148979762Y-77242956D01*
X149098156Y-77124562D01*
X149237374Y-77031540D01*
X149237376Y-77031539D01*
X149392065Y-76967464D01*
X149556281Y-76934800D01*
X149723719Y-76934800D01*
X149887935Y-76967464D01*
G37*
G36*
X142267935Y-76967464D02*
G01*
X142422624Y-77031539D01*
X142422626Y-77031540D01*
X142561844Y-77124562D01*
X142680238Y-77242956D01*
X142760624Y-77363263D01*
X142773261Y-77382176D01*
X142837336Y-77536865D01*
X142870000Y-77701081D01*
X142870000Y-77868519D01*
X142837336Y-78032735D01*
X142820326Y-78073800D01*
X142773260Y-78187426D01*
X142680238Y-78326644D01*
X142561844Y-78445038D01*
X142422626Y-78538060D01*
X142422625Y-78538061D01*
X142422624Y-78538061D01*
X142267935Y-78602136D01*
X142103719Y-78634800D01*
X141936281Y-78634800D01*
X141772065Y-78602136D01*
X141617376Y-78538061D01*
X141617375Y-78538061D01*
X141617374Y-78538060D01*
X141478156Y-78445038D01*
X141359762Y-78326644D01*
X141266740Y-78187426D01*
X141219674Y-78073800D01*
X141202664Y-78032735D01*
X141170000Y-77868519D01*
X141170000Y-77701081D01*
X141202664Y-77536865D01*
X141266739Y-77382176D01*
X141279376Y-77363263D01*
X141359762Y-77242956D01*
X141478156Y-77124562D01*
X141617374Y-77031540D01*
X141617376Y-77031539D01*
X141772065Y-76967464D01*
X141936281Y-76934800D01*
X142103719Y-76934800D01*
X142267935Y-76967464D01*
G37*
G36*
X152427935Y-76967464D02*
G01*
X152582624Y-77031539D01*
X152582626Y-77031540D01*
X152721844Y-77124562D01*
X152840238Y-77242956D01*
X152920624Y-77363263D01*
X152933261Y-77382176D01*
X152997336Y-77536865D01*
X153030000Y-77701081D01*
X153030000Y-77868519D01*
X152997336Y-78032735D01*
X152980326Y-78073800D01*
X152933260Y-78187426D01*
X152840238Y-78326644D01*
X152721844Y-78445038D01*
X152582626Y-78538060D01*
X152582625Y-78538061D01*
X152582624Y-78538061D01*
X152427935Y-78602136D01*
X152263719Y-78634800D01*
X152096281Y-78634800D01*
X151932065Y-78602136D01*
X151777376Y-78538061D01*
X151777375Y-78538061D01*
X151777374Y-78538060D01*
X151638156Y-78445038D01*
X151519762Y-78326644D01*
X151426740Y-78187426D01*
X151379674Y-78073800D01*
X151362664Y-78032735D01*
X151330000Y-77868519D01*
X151330000Y-77701081D01*
X151362664Y-77536865D01*
X151426739Y-77382176D01*
X151439376Y-77363263D01*
X151519762Y-77242956D01*
X151638156Y-77124562D01*
X151777374Y-77031540D01*
X151777376Y-77031539D01*
X151932065Y-76967464D01*
X152096281Y-76934800D01*
X152263719Y-76934800D01*
X152427935Y-76967464D01*
G37*
G36*
X154967935Y-76967464D02*
G01*
X155122624Y-77031539D01*
X155122626Y-77031540D01*
X155261844Y-77124562D01*
X155380238Y-77242956D01*
X155460624Y-77363263D01*
X155473261Y-77382176D01*
X155537336Y-77536865D01*
X155570000Y-77701081D01*
X155570000Y-77868519D01*
X155537336Y-78032735D01*
X155520326Y-78073800D01*
X155473260Y-78187426D01*
X155380238Y-78326644D01*
X155261844Y-78445038D01*
X155122626Y-78538060D01*
X155122625Y-78538061D01*
X155122624Y-78538061D01*
X154967935Y-78602136D01*
X154803719Y-78634800D01*
X154636281Y-78634800D01*
X154472065Y-78602136D01*
X154317376Y-78538061D01*
X154317375Y-78538061D01*
X154317374Y-78538060D01*
X154178156Y-78445038D01*
X154059762Y-78326644D01*
X153966740Y-78187426D01*
X153919674Y-78073800D01*
X153902664Y-78032735D01*
X153870000Y-77868519D01*
X153870000Y-77701081D01*
X153902664Y-77536865D01*
X153966739Y-77382176D01*
X153979376Y-77363263D01*
X154059762Y-77242956D01*
X154178156Y-77124562D01*
X154317374Y-77031540D01*
X154317376Y-77031539D01*
X154472065Y-76967464D01*
X154636281Y-76934800D01*
X154803719Y-76934800D01*
X154967935Y-76967464D01*
G37*
G36*
X157507935Y-76967464D02*
G01*
X157662624Y-77031539D01*
X157662626Y-77031540D01*
X157801844Y-77124562D01*
X157920238Y-77242956D01*
X158000624Y-77363263D01*
X158013261Y-77382176D01*
X158077336Y-77536865D01*
X158110000Y-77701081D01*
X158110000Y-77868519D01*
X158077336Y-78032735D01*
X158060326Y-78073800D01*
X158013260Y-78187426D01*
X157920238Y-78326644D01*
X157801844Y-78445038D01*
X157662626Y-78538060D01*
X157662625Y-78538061D01*
X157662624Y-78538061D01*
X157507935Y-78602136D01*
X157343719Y-78634800D01*
X157176281Y-78634800D01*
X157012065Y-78602136D01*
X156857376Y-78538061D01*
X156857375Y-78538061D01*
X156857374Y-78538060D01*
X156718156Y-78445038D01*
X156599762Y-78326644D01*
X156506740Y-78187426D01*
X156459674Y-78073800D01*
X156442664Y-78032735D01*
X156410000Y-77868519D01*
X156410000Y-77701081D01*
X156442664Y-77536865D01*
X156506739Y-77382176D01*
X156519376Y-77363263D01*
X156599762Y-77242956D01*
X156718156Y-77124562D01*
X156857374Y-77031540D01*
X156857376Y-77031539D01*
X157012065Y-76967464D01*
X157176281Y-76934800D01*
X157343719Y-76934800D01*
X157507935Y-76967464D01*
G37*
G36*
X119407935Y-76967464D02*
G01*
X119562624Y-77031539D01*
X119562626Y-77031540D01*
X119701844Y-77124562D01*
X119820238Y-77242956D01*
X119900624Y-77363263D01*
X119913261Y-77382176D01*
X119977336Y-77536865D01*
X120010000Y-77701081D01*
X120010000Y-77868519D01*
X119977336Y-78032735D01*
X119960326Y-78073800D01*
X119913260Y-78187426D01*
X119820238Y-78326644D01*
X119701844Y-78445038D01*
X119562626Y-78538060D01*
X119562625Y-78538061D01*
X119562624Y-78538061D01*
X119407935Y-78602136D01*
X119243719Y-78634800D01*
X119076281Y-78634800D01*
X118912065Y-78602136D01*
X118757376Y-78538061D01*
X118757375Y-78538061D01*
X118757374Y-78538060D01*
X118618156Y-78445038D01*
X118499762Y-78326644D01*
X118406740Y-78187426D01*
X118359674Y-78073800D01*
X118342664Y-78032735D01*
X118310000Y-77868519D01*
X118310000Y-77701081D01*
X118342664Y-77536865D01*
X118406739Y-77382176D01*
X118419376Y-77363263D01*
X118499762Y-77242956D01*
X118618156Y-77124562D01*
X118757374Y-77031540D01*
X118757376Y-77031539D01*
X118912065Y-76967464D01*
X119076281Y-76934800D01*
X119243719Y-76934800D01*
X119407935Y-76967464D01*
G37*
G36*
X121947935Y-76967464D02*
G01*
X122102624Y-77031539D01*
X122102626Y-77031540D01*
X122241844Y-77124562D01*
X122360238Y-77242956D01*
X122440624Y-77363263D01*
X122453261Y-77382176D01*
X122517336Y-77536865D01*
X122550000Y-77701081D01*
X122550000Y-77868519D01*
X122517336Y-78032735D01*
X122500326Y-78073800D01*
X122453260Y-78187426D01*
X122360238Y-78326644D01*
X122241844Y-78445038D01*
X122102626Y-78538060D01*
X122102625Y-78538061D01*
X122102624Y-78538061D01*
X121947935Y-78602136D01*
X121783719Y-78634800D01*
X121616281Y-78634800D01*
X121452065Y-78602136D01*
X121297376Y-78538061D01*
X121297375Y-78538061D01*
X121297374Y-78538060D01*
X121158156Y-78445038D01*
X121039762Y-78326644D01*
X120946740Y-78187426D01*
X120899674Y-78073800D01*
X120882664Y-78032735D01*
X120850000Y-77868519D01*
X120850000Y-77701081D01*
X120882664Y-77536865D01*
X120946739Y-77382176D01*
X120959376Y-77363263D01*
X121039762Y-77242956D01*
X121158156Y-77124562D01*
X121297374Y-77031540D01*
X121297376Y-77031539D01*
X121452065Y-76967464D01*
X121616281Y-76934800D01*
X121783719Y-76934800D01*
X121947935Y-76967464D01*
G37*
G36*
X124487935Y-76967464D02*
G01*
X124642624Y-77031539D01*
X124642626Y-77031540D01*
X124781844Y-77124562D01*
X124900238Y-77242956D01*
X124980624Y-77363263D01*
X124993261Y-77382176D01*
X125057336Y-77536865D01*
X125090000Y-77701081D01*
X125090000Y-77868519D01*
X125057336Y-78032735D01*
X125040326Y-78073800D01*
X124993260Y-78187426D01*
X124900238Y-78326644D01*
X124781844Y-78445038D01*
X124642626Y-78538060D01*
X124642625Y-78538061D01*
X124642624Y-78538061D01*
X124487935Y-78602136D01*
X124323719Y-78634800D01*
X124156281Y-78634800D01*
X123992065Y-78602136D01*
X123837376Y-78538061D01*
X123837375Y-78538061D01*
X123837374Y-78538060D01*
X123698156Y-78445038D01*
X123579762Y-78326644D01*
X123486740Y-78187426D01*
X123439674Y-78073800D01*
X123422664Y-78032735D01*
X123390000Y-77868519D01*
X123390000Y-77701081D01*
X123422664Y-77536865D01*
X123486739Y-77382176D01*
X123499376Y-77363263D01*
X123579762Y-77242956D01*
X123698156Y-77124562D01*
X123837374Y-77031540D01*
X123837376Y-77031539D01*
X123992065Y-76967464D01*
X124156281Y-76934800D01*
X124323719Y-76934800D01*
X124487935Y-76967464D01*
G37*
G36*
X127027935Y-76967464D02*
G01*
X127182624Y-77031539D01*
X127182626Y-77031540D01*
X127321844Y-77124562D01*
X127440238Y-77242956D01*
X127520624Y-77363263D01*
X127533261Y-77382176D01*
X127597336Y-77536865D01*
X127630000Y-77701081D01*
X127630000Y-77868519D01*
X127597336Y-78032735D01*
X127580326Y-78073800D01*
X127533260Y-78187426D01*
X127440238Y-78326644D01*
X127321844Y-78445038D01*
X127182626Y-78538060D01*
X127182625Y-78538061D01*
X127182624Y-78538061D01*
X127027935Y-78602136D01*
X126863719Y-78634800D01*
X126696281Y-78634800D01*
X126532065Y-78602136D01*
X126377376Y-78538061D01*
X126377375Y-78538061D01*
X126377374Y-78538060D01*
X126238156Y-78445038D01*
X126119762Y-78326644D01*
X126026740Y-78187426D01*
X125979674Y-78073800D01*
X125962664Y-78032735D01*
X125930000Y-77868519D01*
X125930000Y-77701081D01*
X125962664Y-77536865D01*
X126026739Y-77382176D01*
X126039376Y-77363263D01*
X126119762Y-77242956D01*
X126238156Y-77124562D01*
X126377374Y-77031540D01*
X126377376Y-77031539D01*
X126532065Y-76967464D01*
X126696281Y-76934800D01*
X126863719Y-76934800D01*
X127027935Y-76967464D01*
G37*
G36*
X129567935Y-76967464D02*
G01*
X129722624Y-77031539D01*
X129722626Y-77031540D01*
X129861844Y-77124562D01*
X129980238Y-77242956D01*
X130060624Y-77363263D01*
X130073261Y-77382176D01*
X130137336Y-77536865D01*
X130170000Y-77701081D01*
X130170000Y-77868519D01*
X130137336Y-78032735D01*
X130120326Y-78073800D01*
X130073260Y-78187426D01*
X129980238Y-78326644D01*
X129861844Y-78445038D01*
X129722626Y-78538060D01*
X129722625Y-78538061D01*
X129722624Y-78538061D01*
X129567935Y-78602136D01*
X129403719Y-78634800D01*
X129236281Y-78634800D01*
X129072065Y-78602136D01*
X128917376Y-78538061D01*
X128917375Y-78538061D01*
X128917374Y-78538060D01*
X128778156Y-78445038D01*
X128659762Y-78326644D01*
X128566740Y-78187426D01*
X128519674Y-78073800D01*
X128502664Y-78032735D01*
X128470000Y-77868519D01*
X128470000Y-77701081D01*
X128502664Y-77536865D01*
X128566739Y-77382176D01*
X128579376Y-77363263D01*
X128659762Y-77242956D01*
X128778156Y-77124562D01*
X128917374Y-77031540D01*
X128917376Y-77031539D01*
X129072065Y-76967464D01*
X129236281Y-76934800D01*
X129403719Y-76934800D01*
X129567935Y-76967464D01*
G37*
G36*
X109850000Y-78634800D02*
G01*
X108150000Y-78634800D01*
X108150000Y-76934800D01*
X109850000Y-76934800D01*
X109850000Y-78634800D01*
G37*
G36*
X137187935Y-76967464D02*
G01*
X137342624Y-77031539D01*
X137342626Y-77031540D01*
X137481844Y-77124562D01*
X137600238Y-77242956D01*
X137680624Y-77363263D01*
X137693261Y-77382176D01*
X137757336Y-77536865D01*
X137790000Y-77701081D01*
X137790000Y-77868519D01*
X137757336Y-78032735D01*
X137740326Y-78073800D01*
X137693260Y-78187426D01*
X137600238Y-78326644D01*
X137481844Y-78445038D01*
X137342626Y-78538060D01*
X137342625Y-78538061D01*
X137342624Y-78538061D01*
X137187935Y-78602136D01*
X137023719Y-78634800D01*
X136856281Y-78634800D01*
X136692065Y-78602136D01*
X136537376Y-78538061D01*
X136537375Y-78538061D01*
X136537374Y-78538060D01*
X136398156Y-78445038D01*
X136279762Y-78326644D01*
X136186740Y-78187426D01*
X136139674Y-78073800D01*
X136122664Y-78032735D01*
X136090000Y-77868519D01*
X136090000Y-77701081D01*
X136122664Y-77536865D01*
X136186739Y-77382176D01*
X136199376Y-77363263D01*
X136279762Y-77242956D01*
X136398156Y-77124562D01*
X136537374Y-77031540D01*
X136537376Y-77031539D01*
X136692065Y-76967464D01*
X136856281Y-76934800D01*
X137023719Y-76934800D01*
X137187935Y-76967464D01*
G37*
G36*
X134647935Y-76967464D02*
G01*
X134802624Y-77031539D01*
X134802626Y-77031540D01*
X134941844Y-77124562D01*
X135060238Y-77242956D01*
X135140624Y-77363263D01*
X135153261Y-77382176D01*
X135217336Y-77536865D01*
X135250000Y-77701081D01*
X135250000Y-77868519D01*
X135217336Y-78032735D01*
X135200326Y-78073800D01*
X135153260Y-78187426D01*
X135060238Y-78326644D01*
X134941844Y-78445038D01*
X134802626Y-78538060D01*
X134802625Y-78538061D01*
X134802624Y-78538061D01*
X134647935Y-78602136D01*
X134483719Y-78634800D01*
X134316281Y-78634800D01*
X134152065Y-78602136D01*
X133997376Y-78538061D01*
X133997375Y-78538061D01*
X133997374Y-78538060D01*
X133858156Y-78445038D01*
X133739762Y-78326644D01*
X133646740Y-78187426D01*
X133599674Y-78073800D01*
X133582664Y-78032735D01*
X133550000Y-77868519D01*
X133550000Y-77701081D01*
X133582664Y-77536865D01*
X133646739Y-77382176D01*
X133659376Y-77363263D01*
X133739762Y-77242956D01*
X133858156Y-77124562D01*
X133997374Y-77031540D01*
X133997376Y-77031539D01*
X134152065Y-76967464D01*
X134316281Y-76934800D01*
X134483719Y-76934800D01*
X134647935Y-76967464D01*
G37*
G36*
X132107935Y-76967464D02*
G01*
X132262624Y-77031539D01*
X132262626Y-77031540D01*
X132401844Y-77124562D01*
X132520238Y-77242956D01*
X132600624Y-77363263D01*
X132613261Y-77382176D01*
X132677336Y-77536865D01*
X132710000Y-77701081D01*
X132710000Y-77868519D01*
X132677336Y-78032735D01*
X132660326Y-78073800D01*
X132613260Y-78187426D01*
X132520238Y-78326644D01*
X132401844Y-78445038D01*
X132262626Y-78538060D01*
X132262625Y-78538061D01*
X132262624Y-78538061D01*
X132107935Y-78602136D01*
X131943719Y-78634800D01*
X131776281Y-78634800D01*
X131612065Y-78602136D01*
X131457376Y-78538061D01*
X131457375Y-78538061D01*
X131457374Y-78538060D01*
X131318156Y-78445038D01*
X131199762Y-78326644D01*
X131106740Y-78187426D01*
X131059674Y-78073800D01*
X131042664Y-78032735D01*
X131010000Y-77868519D01*
X131010000Y-77701081D01*
X131042664Y-77536865D01*
X131106739Y-77382176D01*
X131119376Y-77363263D01*
X131199762Y-77242956D01*
X131318156Y-77124562D01*
X131457374Y-77031540D01*
X131457376Y-77031539D01*
X131612065Y-76967464D01*
X131776281Y-76934800D01*
X131943719Y-76934800D01*
X132107935Y-76967464D01*
G37*
G36*
X116867935Y-76967464D02*
G01*
X117022624Y-77031539D01*
X117022626Y-77031540D01*
X117161844Y-77124562D01*
X117280238Y-77242956D01*
X117360624Y-77363263D01*
X117373261Y-77382176D01*
X117437336Y-77536865D01*
X117470000Y-77701081D01*
X117470000Y-77868519D01*
X117437336Y-78032735D01*
X117420326Y-78073800D01*
X117373260Y-78187426D01*
X117280238Y-78326644D01*
X117161844Y-78445038D01*
X117022626Y-78538060D01*
X117022625Y-78538061D01*
X117022624Y-78538061D01*
X116867935Y-78602136D01*
X116703719Y-78634800D01*
X116536281Y-78634800D01*
X116372065Y-78602136D01*
X116217376Y-78538061D01*
X116217375Y-78538061D01*
X116217374Y-78538060D01*
X116078156Y-78445038D01*
X115959762Y-78326644D01*
X115866740Y-78187426D01*
X115819674Y-78073800D01*
X115802664Y-78032735D01*
X115770000Y-77868519D01*
X115770000Y-77701081D01*
X115802664Y-77536865D01*
X115866739Y-77382176D01*
X115879376Y-77363263D01*
X115959762Y-77242956D01*
X116078156Y-77124562D01*
X116217374Y-77031540D01*
X116217376Y-77031539D01*
X116372065Y-76967464D01*
X116536281Y-76934800D01*
X116703719Y-76934800D01*
X116867935Y-76967464D01*
G37*
G36*
X104544779Y-75425679D02*
G01*
X104706668Y-75492736D01*
X104790465Y-75527446D01*
X105011575Y-75675187D01*
X105199613Y-75863225D01*
X105289708Y-75998061D01*
X105347355Y-76084337D01*
X105449121Y-76330021D01*
X105501000Y-76590835D01*
X105501000Y-76856765D01*
X105449121Y-77117579D01*
X105350623Y-77355374D01*
X105347354Y-77363265D01*
X105199613Y-77584375D01*
X105011575Y-77772413D01*
X104790465Y-77920154D01*
X104790464Y-77920155D01*
X104790463Y-77920155D01*
X104544779Y-78021921D01*
X104283965Y-78073800D01*
X104018035Y-78073800D01*
X103757221Y-78021921D01*
X103511537Y-77920155D01*
X103511536Y-77920155D01*
X103511535Y-77920154D01*
X103290425Y-77772413D01*
X103102387Y-77584375D01*
X102954646Y-77363265D01*
X102951377Y-77355374D01*
X102852879Y-77117579D01*
X102801000Y-76856765D01*
X102801000Y-76590835D01*
X102852879Y-76330021D01*
X102954645Y-76084337D01*
X103012293Y-75998061D01*
X103102387Y-75863225D01*
X103290425Y-75675187D01*
X103511535Y-75527446D01*
X103595332Y-75492736D01*
X103757221Y-75425679D01*
X104018035Y-75373800D01*
X104283965Y-75373800D01*
X104544779Y-75425679D01*
G37*
G36*
X162493779Y-75196679D02*
G01*
X162739463Y-75298445D01*
X162739465Y-75298446D01*
X162784471Y-75328518D01*
X162960574Y-75446186D01*
X163148614Y-75634226D01*
X163296355Y-75855337D01*
X163398121Y-76101021D01*
X163450000Y-76361835D01*
X163450000Y-76627765D01*
X163398121Y-76888579D01*
X163338904Y-77031540D01*
X163296354Y-77134265D01*
X163148613Y-77355375D01*
X162960575Y-77543413D01*
X162739465Y-77691154D01*
X162739464Y-77691155D01*
X162739463Y-77691155D01*
X162493779Y-77792921D01*
X162232965Y-77844800D01*
X161967035Y-77844800D01*
X161706221Y-77792921D01*
X161460537Y-77691155D01*
X161460536Y-77691155D01*
X161460535Y-77691154D01*
X161239425Y-77543413D01*
X161051387Y-77355375D01*
X160903646Y-77134265D01*
X160861096Y-77031540D01*
X160801879Y-76888579D01*
X160750000Y-76627765D01*
X160750000Y-76361835D01*
X160801879Y-76101021D01*
X160903645Y-75855337D01*
X161051386Y-75634226D01*
X161239426Y-75446186D01*
X161415529Y-75328518D01*
X161460535Y-75298446D01*
X161460537Y-75298445D01*
X161706221Y-75196679D01*
X161967035Y-75144800D01*
X162232965Y-75144800D01*
X162493779Y-75196679D01*
G37*
G36*
X157507935Y-74427464D02*
G01*
X157662624Y-74491539D01*
X157662626Y-74491540D01*
X157801844Y-74584562D01*
X157920238Y-74702956D01*
X158013260Y-74842174D01*
X158013261Y-74842176D01*
X158077336Y-74996865D01*
X158110000Y-75161081D01*
X158110000Y-75328519D01*
X158077336Y-75492735D01*
X158062958Y-75527445D01*
X158013260Y-75647426D01*
X157920238Y-75786644D01*
X157801844Y-75905038D01*
X157662626Y-75998060D01*
X157662625Y-75998061D01*
X157662624Y-75998061D01*
X157507935Y-76062136D01*
X157343719Y-76094800D01*
X157176281Y-76094800D01*
X157012065Y-76062136D01*
X156857376Y-75998061D01*
X156857375Y-75998061D01*
X156857374Y-75998060D01*
X156718156Y-75905038D01*
X156599762Y-75786644D01*
X156506740Y-75647426D01*
X156457042Y-75527445D01*
X156442664Y-75492735D01*
X156410000Y-75328519D01*
X156410000Y-75161081D01*
X156442664Y-74996865D01*
X156506739Y-74842176D01*
X156506740Y-74842174D01*
X156599762Y-74702956D01*
X156718156Y-74584562D01*
X156857374Y-74491540D01*
X156857376Y-74491539D01*
X157012065Y-74427464D01*
X157176281Y-74394800D01*
X157343719Y-74394800D01*
X157507935Y-74427464D01*
G37*
G36*
X152427935Y-74427464D02*
G01*
X152582624Y-74491539D01*
X152582626Y-74491540D01*
X152721844Y-74584562D01*
X152840238Y-74702956D01*
X152933260Y-74842174D01*
X152933261Y-74842176D01*
X152997336Y-74996865D01*
X153030000Y-75161081D01*
X153030000Y-75328519D01*
X152997336Y-75492735D01*
X152982958Y-75527445D01*
X152933260Y-75647426D01*
X152840238Y-75786644D01*
X152721844Y-75905038D01*
X152582626Y-75998060D01*
X152582625Y-75998061D01*
X152582624Y-75998061D01*
X152427935Y-76062136D01*
X152263719Y-76094800D01*
X152096281Y-76094800D01*
X151932065Y-76062136D01*
X151777376Y-75998061D01*
X151777375Y-75998061D01*
X151777374Y-75998060D01*
X151638156Y-75905038D01*
X151519762Y-75786644D01*
X151426740Y-75647426D01*
X151377042Y-75527445D01*
X151362664Y-75492735D01*
X151330000Y-75328519D01*
X151330000Y-75161081D01*
X151362664Y-74996865D01*
X151426739Y-74842176D01*
X151426740Y-74842174D01*
X151519762Y-74702956D01*
X151638156Y-74584562D01*
X151777374Y-74491540D01*
X151777376Y-74491539D01*
X151932065Y-74427464D01*
X152096281Y-74394800D01*
X152263719Y-74394800D01*
X152427935Y-74427464D01*
G37*
G36*
X154967935Y-74427464D02*
G01*
X155122624Y-74491539D01*
X155122626Y-74491540D01*
X155261844Y-74584562D01*
X155380238Y-74702956D01*
X155473260Y-74842174D01*
X155473261Y-74842176D01*
X155537336Y-74996865D01*
X155570000Y-75161081D01*
X155570000Y-75328519D01*
X155537336Y-75492735D01*
X155522958Y-75527445D01*
X155473260Y-75647426D01*
X155380238Y-75786644D01*
X155261844Y-75905038D01*
X155122626Y-75998060D01*
X155122625Y-75998061D01*
X155122624Y-75998061D01*
X154967935Y-76062136D01*
X154803719Y-76094800D01*
X154636281Y-76094800D01*
X154472065Y-76062136D01*
X154317376Y-75998061D01*
X154317375Y-75998061D01*
X154317374Y-75998060D01*
X154178156Y-75905038D01*
X154059762Y-75786644D01*
X153966740Y-75647426D01*
X153917042Y-75527445D01*
X153902664Y-75492735D01*
X153870000Y-75328519D01*
X153870000Y-75161081D01*
X153902664Y-74996865D01*
X153966739Y-74842176D01*
X153966740Y-74842174D01*
X154059762Y-74702956D01*
X154178156Y-74584562D01*
X154317374Y-74491540D01*
X154317376Y-74491539D01*
X154472065Y-74427464D01*
X154636281Y-74394800D01*
X154803719Y-74394800D01*
X154967935Y-74427464D01*
G37*
G36*
X147347935Y-74427464D02*
G01*
X147502624Y-74491539D01*
X147502626Y-74491540D01*
X147641844Y-74584562D01*
X147760238Y-74702956D01*
X147853260Y-74842174D01*
X147853261Y-74842176D01*
X147917336Y-74996865D01*
X147950000Y-75161081D01*
X147950000Y-75328519D01*
X147917336Y-75492735D01*
X147902958Y-75527445D01*
X147853260Y-75647426D01*
X147760238Y-75786644D01*
X147641844Y-75905038D01*
X147502626Y-75998060D01*
X147502625Y-75998061D01*
X147502624Y-75998061D01*
X147347935Y-76062136D01*
X147183719Y-76094800D01*
X147016281Y-76094800D01*
X146852065Y-76062136D01*
X146697376Y-75998061D01*
X146697375Y-75998061D01*
X146697374Y-75998060D01*
X146558156Y-75905038D01*
X146439762Y-75786644D01*
X146346740Y-75647426D01*
X146297042Y-75527445D01*
X146282664Y-75492735D01*
X146250000Y-75328519D01*
X146250000Y-75161081D01*
X146282664Y-74996865D01*
X146346739Y-74842176D01*
X146346740Y-74842174D01*
X146439762Y-74702956D01*
X146558156Y-74584562D01*
X146697374Y-74491540D01*
X146697376Y-74491539D01*
X146852065Y-74427464D01*
X147016281Y-74394800D01*
X147183719Y-74394800D01*
X147347935Y-74427464D01*
G37*
G36*
X144807935Y-74427464D02*
G01*
X144962624Y-74491539D01*
X144962626Y-74491540D01*
X145101844Y-74584562D01*
X145220238Y-74702956D01*
X145313260Y-74842174D01*
X145313261Y-74842176D01*
X145377336Y-74996865D01*
X145410000Y-75161081D01*
X145410000Y-75328519D01*
X145377336Y-75492735D01*
X145362958Y-75527445D01*
X145313260Y-75647426D01*
X145220238Y-75786644D01*
X145101844Y-75905038D01*
X144962626Y-75998060D01*
X144962625Y-75998061D01*
X144962624Y-75998061D01*
X144807935Y-76062136D01*
X144643719Y-76094800D01*
X144476281Y-76094800D01*
X144312065Y-76062136D01*
X144157376Y-75998061D01*
X144157375Y-75998061D01*
X144157374Y-75998060D01*
X144018156Y-75905038D01*
X143899762Y-75786644D01*
X143806740Y-75647426D01*
X143757042Y-75527445D01*
X143742664Y-75492735D01*
X143710000Y-75328519D01*
X143710000Y-75161081D01*
X143742664Y-74996865D01*
X143806739Y-74842176D01*
X143806740Y-74842174D01*
X143899762Y-74702956D01*
X144018156Y-74584562D01*
X144157374Y-74491540D01*
X144157376Y-74491539D01*
X144312065Y-74427464D01*
X144476281Y-74394800D01*
X144643719Y-74394800D01*
X144807935Y-74427464D01*
G37*
G36*
X149887935Y-74427464D02*
G01*
X150042624Y-74491539D01*
X150042626Y-74491540D01*
X150181844Y-74584562D01*
X150300238Y-74702956D01*
X150393260Y-74842174D01*
X150393261Y-74842176D01*
X150457336Y-74996865D01*
X150490000Y-75161081D01*
X150490000Y-75328519D01*
X150457336Y-75492735D01*
X150442958Y-75527445D01*
X150393260Y-75647426D01*
X150300238Y-75786644D01*
X150181844Y-75905038D01*
X150042626Y-75998060D01*
X150042625Y-75998061D01*
X150042624Y-75998061D01*
X149887935Y-76062136D01*
X149723719Y-76094800D01*
X149556281Y-76094800D01*
X149392065Y-76062136D01*
X149237376Y-75998061D01*
X149237375Y-75998061D01*
X149237374Y-75998060D01*
X149098156Y-75905038D01*
X148979762Y-75786644D01*
X148886740Y-75647426D01*
X148837042Y-75527445D01*
X148822664Y-75492735D01*
X148790000Y-75328519D01*
X148790000Y-75161081D01*
X148822664Y-74996865D01*
X148886739Y-74842176D01*
X148886740Y-74842174D01*
X148979762Y-74702956D01*
X149098156Y-74584562D01*
X149237374Y-74491540D01*
X149237376Y-74491539D01*
X149392065Y-74427464D01*
X149556281Y-74394800D01*
X149723719Y-74394800D01*
X149887935Y-74427464D01*
G37*
G36*
X142267935Y-74427464D02*
G01*
X142422624Y-74491539D01*
X142422626Y-74491540D01*
X142561844Y-74584562D01*
X142680238Y-74702956D01*
X142773260Y-74842174D01*
X142773261Y-74842176D01*
X142837336Y-74996865D01*
X142870000Y-75161081D01*
X142870000Y-75328519D01*
X142837336Y-75492735D01*
X142822958Y-75527445D01*
X142773260Y-75647426D01*
X142680238Y-75786644D01*
X142561844Y-75905038D01*
X142422626Y-75998060D01*
X142422625Y-75998061D01*
X142422624Y-75998061D01*
X142267935Y-76062136D01*
X142103719Y-76094800D01*
X141936281Y-76094800D01*
X141772065Y-76062136D01*
X141617376Y-75998061D01*
X141617375Y-75998061D01*
X141617374Y-75998060D01*
X141478156Y-75905038D01*
X141359762Y-75786644D01*
X141266740Y-75647426D01*
X141217042Y-75527445D01*
X141202664Y-75492735D01*
X141170000Y-75328519D01*
X141170000Y-75161081D01*
X141202664Y-74996865D01*
X141266739Y-74842176D01*
X141266740Y-74842174D01*
X141359762Y-74702956D01*
X141478156Y-74584562D01*
X141617374Y-74491540D01*
X141617376Y-74491539D01*
X141772065Y-74427464D01*
X141936281Y-74394800D01*
X142103719Y-74394800D01*
X142267935Y-74427464D01*
G37*
G36*
X139727935Y-74427464D02*
G01*
X139882624Y-74491539D01*
X139882626Y-74491540D01*
X140021844Y-74584562D01*
X140140238Y-74702956D01*
X140233260Y-74842174D01*
X140233261Y-74842176D01*
X140297336Y-74996865D01*
X140330000Y-75161081D01*
X140330000Y-75328519D01*
X140297336Y-75492735D01*
X140282958Y-75527445D01*
X140233260Y-75647426D01*
X140140238Y-75786644D01*
X140021844Y-75905038D01*
X139882626Y-75998060D01*
X139882625Y-75998061D01*
X139882624Y-75998061D01*
X139727935Y-76062136D01*
X139563719Y-76094800D01*
X139396281Y-76094800D01*
X139232065Y-76062136D01*
X139077376Y-75998061D01*
X139077375Y-75998061D01*
X139077374Y-75998060D01*
X138938156Y-75905038D01*
X138819762Y-75786644D01*
X138726740Y-75647426D01*
X138677042Y-75527445D01*
X138662664Y-75492735D01*
X138630000Y-75328519D01*
X138630000Y-75161081D01*
X138662664Y-74996865D01*
X138726739Y-74842176D01*
X138726740Y-74842174D01*
X138819762Y-74702956D01*
X138938156Y-74584562D01*
X139077374Y-74491540D01*
X139077376Y-74491539D01*
X139232065Y-74427464D01*
X139396281Y-74394800D01*
X139563719Y-74394800D01*
X139727935Y-74427464D01*
G37*
G36*
X137187935Y-74427464D02*
G01*
X137342624Y-74491539D01*
X137342626Y-74491540D01*
X137481844Y-74584562D01*
X137600238Y-74702956D01*
X137693260Y-74842174D01*
X137693261Y-74842176D01*
X137757336Y-74996865D01*
X137790000Y-75161081D01*
X137790000Y-75328519D01*
X137757336Y-75492735D01*
X137742958Y-75527445D01*
X137693260Y-75647426D01*
X137600238Y-75786644D01*
X137481844Y-75905038D01*
X137342626Y-75998060D01*
X137342625Y-75998061D01*
X137342624Y-75998061D01*
X137187935Y-76062136D01*
X137023719Y-76094800D01*
X136856281Y-76094800D01*
X136692065Y-76062136D01*
X136537376Y-75998061D01*
X136537375Y-75998061D01*
X136537374Y-75998060D01*
X136398156Y-75905038D01*
X136279762Y-75786644D01*
X136186740Y-75647426D01*
X136137042Y-75527445D01*
X136122664Y-75492735D01*
X136090000Y-75328519D01*
X136090000Y-75161081D01*
X136122664Y-74996865D01*
X136186739Y-74842176D01*
X136186740Y-74842174D01*
X136279762Y-74702956D01*
X136398156Y-74584562D01*
X136537374Y-74491540D01*
X136537376Y-74491539D01*
X136692065Y-74427464D01*
X136856281Y-74394800D01*
X137023719Y-74394800D01*
X137187935Y-74427464D01*
G37*
G36*
X132107935Y-74427464D02*
G01*
X132262624Y-74491539D01*
X132262626Y-74491540D01*
X132401844Y-74584562D01*
X132520238Y-74702956D01*
X132613260Y-74842174D01*
X132613261Y-74842176D01*
X132677336Y-74996865D01*
X132710000Y-75161081D01*
X132710000Y-75328519D01*
X132677336Y-75492735D01*
X132662958Y-75527445D01*
X132613260Y-75647426D01*
X132520238Y-75786644D01*
X132401844Y-75905038D01*
X132262626Y-75998060D01*
X132262625Y-75998061D01*
X132262624Y-75998061D01*
X132107935Y-76062136D01*
X131943719Y-76094800D01*
X131776281Y-76094800D01*
X131612065Y-76062136D01*
X131457376Y-75998061D01*
X131457375Y-75998061D01*
X131457374Y-75998060D01*
X131318156Y-75905038D01*
X131199762Y-75786644D01*
X131106740Y-75647426D01*
X131057042Y-75527445D01*
X131042664Y-75492735D01*
X131010000Y-75328519D01*
X131010000Y-75161081D01*
X131042664Y-74996865D01*
X131106739Y-74842176D01*
X131106740Y-74842174D01*
X131199762Y-74702956D01*
X131318156Y-74584562D01*
X131457374Y-74491540D01*
X131457376Y-74491539D01*
X131612065Y-74427464D01*
X131776281Y-74394800D01*
X131943719Y-74394800D01*
X132107935Y-74427464D01*
G37*
G36*
X129567935Y-74427464D02*
G01*
X129722624Y-74491539D01*
X129722626Y-74491540D01*
X129861844Y-74584562D01*
X129980238Y-74702956D01*
X130073260Y-74842174D01*
X130073261Y-74842176D01*
X130137336Y-74996865D01*
X130170000Y-75161081D01*
X130170000Y-75328519D01*
X130137336Y-75492735D01*
X130122958Y-75527445D01*
X130073260Y-75647426D01*
X129980238Y-75786644D01*
X129861844Y-75905038D01*
X129722626Y-75998060D01*
X129722625Y-75998061D01*
X129722624Y-75998061D01*
X129567935Y-76062136D01*
X129403719Y-76094800D01*
X129236281Y-76094800D01*
X129072065Y-76062136D01*
X128917376Y-75998061D01*
X128917375Y-75998061D01*
X128917374Y-75998060D01*
X128778156Y-75905038D01*
X128659762Y-75786644D01*
X128566740Y-75647426D01*
X128517042Y-75527445D01*
X128502664Y-75492735D01*
X128470000Y-75328519D01*
X128470000Y-75161081D01*
X128502664Y-74996865D01*
X128566739Y-74842176D01*
X128566740Y-74842174D01*
X128659762Y-74702956D01*
X128778156Y-74584562D01*
X128917374Y-74491540D01*
X128917376Y-74491539D01*
X129072065Y-74427464D01*
X129236281Y-74394800D01*
X129403719Y-74394800D01*
X129567935Y-74427464D01*
G37*
G36*
X127027935Y-74427464D02*
G01*
X127182624Y-74491539D01*
X127182626Y-74491540D01*
X127321844Y-74584562D01*
X127440238Y-74702956D01*
X127533260Y-74842174D01*
X127533261Y-74842176D01*
X127597336Y-74996865D01*
X127630000Y-75161081D01*
X127630000Y-75328519D01*
X127597336Y-75492735D01*
X127582958Y-75527445D01*
X127533260Y-75647426D01*
X127440238Y-75786644D01*
X127321844Y-75905038D01*
X127182626Y-75998060D01*
X127182625Y-75998061D01*
X127182624Y-75998061D01*
X127027935Y-76062136D01*
X126863719Y-76094800D01*
X126696281Y-76094800D01*
X126532065Y-76062136D01*
X126377376Y-75998061D01*
X126377375Y-75998061D01*
X126377374Y-75998060D01*
X126238156Y-75905038D01*
X126119762Y-75786644D01*
X126026740Y-75647426D01*
X125977042Y-75527445D01*
X125962664Y-75492735D01*
X125930000Y-75328519D01*
X125930000Y-75161081D01*
X125962664Y-74996865D01*
X126026739Y-74842176D01*
X126026740Y-74842174D01*
X126119762Y-74702956D01*
X126238156Y-74584562D01*
X126377374Y-74491540D01*
X126377376Y-74491539D01*
X126532065Y-74427464D01*
X126696281Y-74394800D01*
X126863719Y-74394800D01*
X127027935Y-74427464D01*
G37*
G36*
X124487935Y-74427464D02*
G01*
X124642624Y-74491539D01*
X124642626Y-74491540D01*
X124781844Y-74584562D01*
X124900238Y-74702956D01*
X124993260Y-74842174D01*
X124993261Y-74842176D01*
X125057336Y-74996865D01*
X125090000Y-75161081D01*
X125090000Y-75328519D01*
X125057336Y-75492735D01*
X125042958Y-75527445D01*
X124993260Y-75647426D01*
X124900238Y-75786644D01*
X124781844Y-75905038D01*
X124642626Y-75998060D01*
X124642625Y-75998061D01*
X124642624Y-75998061D01*
X124487935Y-76062136D01*
X124323719Y-76094800D01*
X124156281Y-76094800D01*
X123992065Y-76062136D01*
X123837376Y-75998061D01*
X123837375Y-75998061D01*
X123837374Y-75998060D01*
X123698156Y-75905038D01*
X123579762Y-75786644D01*
X123486740Y-75647426D01*
X123437042Y-75527445D01*
X123422664Y-75492735D01*
X123390000Y-75328519D01*
X123390000Y-75161081D01*
X123422664Y-74996865D01*
X123486739Y-74842176D01*
X123486740Y-74842174D01*
X123579762Y-74702956D01*
X123698156Y-74584562D01*
X123837374Y-74491540D01*
X123837376Y-74491539D01*
X123992065Y-74427464D01*
X124156281Y-74394800D01*
X124323719Y-74394800D01*
X124487935Y-74427464D01*
G37*
G36*
X121947935Y-74427464D02*
G01*
X122102624Y-74491539D01*
X122102626Y-74491540D01*
X122241844Y-74584562D01*
X122360238Y-74702956D01*
X122453260Y-74842174D01*
X122453261Y-74842176D01*
X122517336Y-74996865D01*
X122550000Y-75161081D01*
X122550000Y-75328519D01*
X122517336Y-75492735D01*
X122502958Y-75527445D01*
X122453260Y-75647426D01*
X122360238Y-75786644D01*
X122241844Y-75905038D01*
X122102626Y-75998060D01*
X122102625Y-75998061D01*
X122102624Y-75998061D01*
X121947935Y-76062136D01*
X121783719Y-76094800D01*
X121616281Y-76094800D01*
X121452065Y-76062136D01*
X121297376Y-75998061D01*
X121297375Y-75998061D01*
X121297374Y-75998060D01*
X121158156Y-75905038D01*
X121039762Y-75786644D01*
X120946740Y-75647426D01*
X120897042Y-75527445D01*
X120882664Y-75492735D01*
X120850000Y-75328519D01*
X120850000Y-75161081D01*
X120882664Y-74996865D01*
X120946739Y-74842176D01*
X120946740Y-74842174D01*
X121039762Y-74702956D01*
X121158156Y-74584562D01*
X121297374Y-74491540D01*
X121297376Y-74491539D01*
X121452065Y-74427464D01*
X121616281Y-74394800D01*
X121783719Y-74394800D01*
X121947935Y-74427464D01*
G37*
G36*
X119407935Y-74427464D02*
G01*
X119562624Y-74491539D01*
X119562626Y-74491540D01*
X119701844Y-74584562D01*
X119820238Y-74702956D01*
X119913260Y-74842174D01*
X119913261Y-74842176D01*
X119977336Y-74996865D01*
X120010000Y-75161081D01*
X120010000Y-75328519D01*
X119977336Y-75492735D01*
X119962958Y-75527445D01*
X119913260Y-75647426D01*
X119820238Y-75786644D01*
X119701844Y-75905038D01*
X119562626Y-75998060D01*
X119562625Y-75998061D01*
X119562624Y-75998061D01*
X119407935Y-76062136D01*
X119243719Y-76094800D01*
X119076281Y-76094800D01*
X118912065Y-76062136D01*
X118757376Y-75998061D01*
X118757375Y-75998061D01*
X118757374Y-75998060D01*
X118618156Y-75905038D01*
X118499762Y-75786644D01*
X118406740Y-75647426D01*
X118357042Y-75527445D01*
X118342664Y-75492735D01*
X118310000Y-75328519D01*
X118310000Y-75161081D01*
X118342664Y-74996865D01*
X118406739Y-74842176D01*
X118406740Y-74842174D01*
X118499762Y-74702956D01*
X118618156Y-74584562D01*
X118757374Y-74491540D01*
X118757376Y-74491539D01*
X118912065Y-74427464D01*
X119076281Y-74394800D01*
X119243719Y-74394800D01*
X119407935Y-74427464D01*
G37*
G36*
X116867935Y-74427464D02*
G01*
X117022624Y-74491539D01*
X117022626Y-74491540D01*
X117161844Y-74584562D01*
X117280238Y-74702956D01*
X117373260Y-74842174D01*
X117373261Y-74842176D01*
X117437336Y-74996865D01*
X117470000Y-75161081D01*
X117470000Y-75328519D01*
X117437336Y-75492735D01*
X117422958Y-75527445D01*
X117373260Y-75647426D01*
X117280238Y-75786644D01*
X117161844Y-75905038D01*
X117022626Y-75998060D01*
X117022625Y-75998061D01*
X117022624Y-75998061D01*
X116867935Y-76062136D01*
X116703719Y-76094800D01*
X116536281Y-76094800D01*
X116372065Y-76062136D01*
X116217376Y-75998061D01*
X116217375Y-75998061D01*
X116217374Y-75998060D01*
X116078156Y-75905038D01*
X115959762Y-75786644D01*
X115866740Y-75647426D01*
X115817042Y-75527445D01*
X115802664Y-75492735D01*
X115770000Y-75328519D01*
X115770000Y-75161081D01*
X115802664Y-74996865D01*
X115866739Y-74842176D01*
X115866740Y-74842174D01*
X115959762Y-74702956D01*
X116078156Y-74584562D01*
X116217374Y-74491540D01*
X116217376Y-74491539D01*
X116372065Y-74427464D01*
X116536281Y-74394800D01*
X116703719Y-74394800D01*
X116867935Y-74427464D01*
G37*
G36*
X114327935Y-74427464D02*
G01*
X114482624Y-74491539D01*
X114482626Y-74491540D01*
X114621844Y-74584562D01*
X114740238Y-74702956D01*
X114833260Y-74842174D01*
X114833261Y-74842176D01*
X114897336Y-74996865D01*
X114930000Y-75161081D01*
X114930000Y-75328519D01*
X114897336Y-75492735D01*
X114882958Y-75527445D01*
X114833260Y-75647426D01*
X114740238Y-75786644D01*
X114621844Y-75905038D01*
X114482626Y-75998060D01*
X114482625Y-75998061D01*
X114482624Y-75998061D01*
X114327935Y-76062136D01*
X114163719Y-76094800D01*
X113996281Y-76094800D01*
X113832065Y-76062136D01*
X113677376Y-75998061D01*
X113677375Y-75998061D01*
X113677374Y-75998060D01*
X113538156Y-75905038D01*
X113419762Y-75786644D01*
X113326740Y-75647426D01*
X113277042Y-75527445D01*
X113262664Y-75492735D01*
X113230000Y-75328519D01*
X113230000Y-75161081D01*
X113262664Y-74996865D01*
X113326739Y-74842176D01*
X113326740Y-74842174D01*
X113419762Y-74702956D01*
X113538156Y-74584562D01*
X113677374Y-74491540D01*
X113677376Y-74491539D01*
X113832065Y-74427464D01*
X113996281Y-74394800D01*
X114163719Y-74394800D01*
X114327935Y-74427464D01*
G37*
G36*
X111787935Y-74427464D02*
G01*
X111942624Y-74491539D01*
X111942626Y-74491540D01*
X112081844Y-74584562D01*
X112200238Y-74702956D01*
X112293260Y-74842174D01*
X112293261Y-74842176D01*
X112357336Y-74996865D01*
X112390000Y-75161081D01*
X112390000Y-75328519D01*
X112357336Y-75492735D01*
X112342958Y-75527445D01*
X112293260Y-75647426D01*
X112200238Y-75786644D01*
X112081844Y-75905038D01*
X111942626Y-75998060D01*
X111942625Y-75998061D01*
X111942624Y-75998061D01*
X111787935Y-76062136D01*
X111623719Y-76094800D01*
X111456281Y-76094800D01*
X111292065Y-76062136D01*
X111137376Y-75998061D01*
X111137375Y-75998061D01*
X111137374Y-75998060D01*
X110998156Y-75905038D01*
X110879762Y-75786644D01*
X110786740Y-75647426D01*
X110737042Y-75527445D01*
X110722664Y-75492735D01*
X110690000Y-75328519D01*
X110690000Y-75161081D01*
X110722664Y-74996865D01*
X110786739Y-74842176D01*
X110786740Y-74842174D01*
X110879762Y-74702956D01*
X110998156Y-74584562D01*
X111137374Y-74491540D01*
X111137376Y-74491539D01*
X111292065Y-74427464D01*
X111456281Y-74394800D01*
X111623719Y-74394800D01*
X111787935Y-74427464D01*
G37*
G36*
X109247935Y-74427464D02*
G01*
X109402624Y-74491539D01*
X109402626Y-74491540D01*
X109541844Y-74584562D01*
X109660238Y-74702956D01*
X109753260Y-74842174D01*
X109753261Y-74842176D01*
X109817336Y-74996865D01*
X109850000Y-75161081D01*
X109850000Y-75328519D01*
X109817336Y-75492735D01*
X109802958Y-75527445D01*
X109753260Y-75647426D01*
X109660238Y-75786644D01*
X109541844Y-75905038D01*
X109402626Y-75998060D01*
X109402625Y-75998061D01*
X109402624Y-75998061D01*
X109247935Y-76062136D01*
X109083719Y-76094800D01*
X108916281Y-76094800D01*
X108752065Y-76062136D01*
X108597376Y-75998061D01*
X108597375Y-75998061D01*
X108597374Y-75998060D01*
X108458156Y-75905038D01*
X108339762Y-75786644D01*
X108246740Y-75647426D01*
X108197042Y-75527445D01*
X108182664Y-75492735D01*
X108150000Y-75328519D01*
X108150000Y-75161081D01*
X108182664Y-74996865D01*
X108246739Y-74842176D01*
X108246740Y-74842174D01*
X108339762Y-74702956D01*
X108458156Y-74584562D01*
X108597374Y-74491540D01*
X108597376Y-74491539D01*
X108752065Y-74427464D01*
X108916281Y-74394800D01*
X109083719Y-74394800D01*
X109247935Y-74427464D01*
G37*
G36*
X134647935Y-74427464D02*
G01*
X134802624Y-74491539D01*
X134802626Y-74491540D01*
X134941844Y-74584562D01*
X135060238Y-74702956D01*
X135153260Y-74842174D01*
X135153261Y-74842176D01*
X135217336Y-74996865D01*
X135250000Y-75161081D01*
X135250000Y-75328519D01*
X135217336Y-75492735D01*
X135202958Y-75527445D01*
X135153260Y-75647426D01*
X135060238Y-75786644D01*
X134941844Y-75905038D01*
X134802626Y-75998060D01*
X134802625Y-75998061D01*
X134802624Y-75998061D01*
X134647935Y-76062136D01*
X134483719Y-76094800D01*
X134316281Y-76094800D01*
X134152065Y-76062136D01*
X133997376Y-75998061D01*
X133997375Y-75998061D01*
X133997374Y-75998060D01*
X133858156Y-75905038D01*
X133739762Y-75786644D01*
X133646740Y-75647426D01*
X133597042Y-75527445D01*
X133582664Y-75492735D01*
X133550000Y-75328519D01*
X133550000Y-75161081D01*
X133582664Y-74996865D01*
X133646739Y-74842176D01*
X133646740Y-74842174D01*
X133739762Y-74702956D01*
X133858156Y-74584562D01*
X133997374Y-74491540D01*
X133997376Y-74491539D01*
X134152065Y-74427464D01*
X134316281Y-74394800D01*
X134483719Y-74394800D01*
X134647935Y-74427464D01*
G37*
M02*
