G04 #@! TF.GenerationSoftware,KiCad,Pcbnew,(5.1.6)-1*
G04 #@! TF.CreationDate,2020-10-08T21:16:19-06:00*
G04 #@! TF.ProjectId,raspi-quad-stepper-motor-module,72617370-692d-4717-9561-642d73746570,A*
G04 #@! TF.SameCoordinates,Original*
G04 #@! TF.FileFunction,Paste,Top*
G04 #@! TF.FilePolarity,Positive*
%FSLAX46Y46*%
G04 Gerber Fmt 4.6, Leading zero omitted, Abs format (unit mm)*
G04 Created by KiCad (PCBNEW (5.1.6)-1) date 2020-10-08 21:16:19*
%MOMM*%
%LPD*%
G01*
G04 APERTURE LIST*
G04 #@! TA.AperFunction,Profile*
%ADD10C,0.100000*%
G04 #@! TD*
%ADD11R,1.473200X0.279400*%
%ADD12R,3.657600X3.708400*%
%ADD13R,1.473200X0.355600*%
G04 APERTURE END LIST*
D10*
X105600000Y-93000000D02*
G75*
G03*
X105100000Y-92500000I-500000J0D01*
G01*
X105100000Y-92500000D02*
X101100000Y-92500000D01*
X101099127Y-109500001D02*
G75*
G03*
X100600000Y-110000000I873J-499999D01*
G01*
X105100000Y-109500000D02*
G75*
G03*
X105600000Y-109000000I0J500000D01*
G01*
X100600000Y-92000000D02*
G75*
G03*
X101100000Y-92500000I500000J0D01*
G01*
X100600000Y-76000000D02*
X100600000Y-92000000D01*
X165600000Y-76000000D02*
G75*
G03*
X162600000Y-73000000I-3000000J0D01*
G01*
X162600000Y-129000000D02*
G75*
G03*
X165600000Y-126000000I0J3000000D01*
G01*
X100600000Y-126000000D02*
G75*
G03*
X103600000Y-129000000I3000000J0D01*
G01*
X103600000Y-73000000D02*
G75*
G03*
X100600000Y-76000000I0J-3000000D01*
G01*
X162600000Y-73000000D02*
X103600000Y-73000000D01*
X105100000Y-109500000D02*
X101100000Y-109500000D01*
X105600000Y-93000000D02*
X105600000Y-109000000D01*
X165600000Y-126000000D02*
X165600000Y-76000000D01*
X103600000Y-129000000D02*
X162600000Y-129000000D01*
X100600000Y-110000000D02*
X100600000Y-126000000D01*
D11*
X145506800Y-96983000D03*
X145506800Y-97465600D03*
X145506800Y-97973600D03*
X145506800Y-98481600D03*
X145506800Y-98964200D03*
X145506800Y-99472200D03*
X145506800Y-99980200D03*
X145506800Y-100462800D03*
X145506800Y-100970800D03*
X145506800Y-101478800D03*
X145506800Y-101961400D03*
X145506800Y-102469400D03*
X145506800Y-102977400D03*
X145506800Y-103485400D03*
X145506800Y-103968000D03*
X145506800Y-104476000D03*
X145506800Y-104984000D03*
X145506800Y-105466600D03*
X145506800Y-105974600D03*
X145506800Y-106482600D03*
X145506800Y-106965200D03*
X145506800Y-107473200D03*
X145506800Y-107981200D03*
X145506800Y-108463800D03*
X153076000Y-108463800D03*
X153076000Y-107981200D03*
X153076000Y-107473200D03*
X153076000Y-106965200D03*
X153076000Y-106482600D03*
X153076000Y-105974600D03*
X153076000Y-105466600D03*
X153076000Y-104984000D03*
X153076000Y-104476000D03*
X153076000Y-103968000D03*
X153076000Y-103485400D03*
X153076000Y-102977400D03*
X153076000Y-102469400D03*
X153076000Y-101961400D03*
X153076000Y-101478800D03*
X153076000Y-100970800D03*
X153076000Y-100462800D03*
X153076000Y-99980200D03*
X153076000Y-99472200D03*
X153076000Y-98964200D03*
X153076000Y-98481600D03*
X153076000Y-97973600D03*
X153076000Y-97465600D03*
X153076000Y-96983000D03*
D12*
X149291400Y-102723400D03*
D11*
X126202800Y-96983000D03*
X126202800Y-97465600D03*
X126202800Y-97973600D03*
X126202800Y-98481600D03*
X126202800Y-98964200D03*
X126202800Y-99472200D03*
X126202800Y-99980200D03*
X126202800Y-100462800D03*
X126202800Y-100970800D03*
X126202800Y-101478800D03*
X126202800Y-101961400D03*
X126202800Y-102469400D03*
X126202800Y-102977400D03*
X126202800Y-103485400D03*
X126202800Y-103968000D03*
X126202800Y-104476000D03*
X126202800Y-104984000D03*
X126202800Y-105466600D03*
X126202800Y-105974600D03*
X126202800Y-106482600D03*
X126202800Y-106965200D03*
X126202800Y-107473200D03*
X126202800Y-107981200D03*
X126202800Y-108463800D03*
X133772000Y-108463800D03*
X133772000Y-107981200D03*
X133772000Y-107473200D03*
X133772000Y-106965200D03*
X133772000Y-106482600D03*
X133772000Y-105974600D03*
X133772000Y-105466600D03*
X133772000Y-104984000D03*
X133772000Y-104476000D03*
X133772000Y-103968000D03*
X133772000Y-103485400D03*
X133772000Y-102977400D03*
X133772000Y-102469400D03*
X133772000Y-101961400D03*
X133772000Y-101478800D03*
X133772000Y-100970800D03*
X133772000Y-100462800D03*
X133772000Y-99980200D03*
X133772000Y-99472200D03*
X133772000Y-98964200D03*
X133772000Y-98481600D03*
X133772000Y-97973600D03*
X133772000Y-97465600D03*
X133772000Y-96983000D03*
D12*
X129987400Y-102723400D03*
D13*
X133323000Y-81362000D03*
X133323000Y-82022400D03*
X133323000Y-82682800D03*
X133323000Y-83317800D03*
X133323000Y-83978200D03*
X133323000Y-84613200D03*
X133323000Y-85273600D03*
X133323000Y-85934000D03*
X139165000Y-85934000D03*
X139165000Y-85273600D03*
X139165000Y-84613200D03*
X139165000Y-83978200D03*
X139165000Y-83317800D03*
X139165000Y-82682800D03*
X139165000Y-82022400D03*
X139165000Y-81362000D03*
G36*
G01*
X150230250Y-112842100D02*
X149317750Y-112842100D01*
G75*
G02*
X149074000Y-112598350I0J243750D01*
G01*
X149074000Y-112110850D01*
G75*
G02*
X149317750Y-111867100I243750J0D01*
G01*
X150230250Y-111867100D01*
G75*
G02*
X150474000Y-112110850I0J-243750D01*
G01*
X150474000Y-112598350D01*
G75*
G02*
X150230250Y-112842100I-243750J0D01*
G01*
G37*
G36*
G01*
X150230250Y-114717100D02*
X149317750Y-114717100D01*
G75*
G02*
X149074000Y-114473350I0J243750D01*
G01*
X149074000Y-113985850D01*
G75*
G02*
X149317750Y-113742100I243750J0D01*
G01*
X150230250Y-113742100D01*
G75*
G02*
X150474000Y-113985850I0J-243750D01*
G01*
X150474000Y-114473350D01*
G75*
G02*
X150230250Y-114717100I-243750J0D01*
G01*
G37*
G36*
G01*
X103724750Y-86589500D02*
X104637250Y-86589500D01*
G75*
G02*
X104881000Y-86833250I0J-243750D01*
G01*
X104881000Y-87320750D01*
G75*
G02*
X104637250Y-87564500I-243750J0D01*
G01*
X103724750Y-87564500D01*
G75*
G02*
X103481000Y-87320750I0J243750D01*
G01*
X103481000Y-86833250D01*
G75*
G02*
X103724750Y-86589500I243750J0D01*
G01*
G37*
G36*
G01*
X103724750Y-84714500D02*
X104637250Y-84714500D01*
G75*
G02*
X104881000Y-84958250I0J-243750D01*
G01*
X104881000Y-85445750D01*
G75*
G02*
X104637250Y-85689500I-243750J0D01*
G01*
X103724750Y-85689500D01*
G75*
G02*
X103481000Y-85445750I0J243750D01*
G01*
X103481000Y-84958250D01*
G75*
G02*
X103724750Y-84714500I243750J0D01*
G01*
G37*
G36*
G01*
X101819750Y-86589500D02*
X102732250Y-86589500D01*
G75*
G02*
X102976000Y-86833250I0J-243750D01*
G01*
X102976000Y-87320750D01*
G75*
G02*
X102732250Y-87564500I-243750J0D01*
G01*
X101819750Y-87564500D01*
G75*
G02*
X101576000Y-87320750I0J243750D01*
G01*
X101576000Y-86833250D01*
G75*
G02*
X101819750Y-86589500I243750J0D01*
G01*
G37*
G36*
G01*
X101819750Y-84714500D02*
X102732250Y-84714500D01*
G75*
G02*
X102976000Y-84958250I0J-243750D01*
G01*
X102976000Y-85445750D01*
G75*
G02*
X102732250Y-85689500I-243750J0D01*
G01*
X101819750Y-85689500D01*
G75*
G02*
X101576000Y-85445750I0J243750D01*
G01*
X101576000Y-84958250D01*
G75*
G02*
X101819750Y-84714500I243750J0D01*
G01*
G37*
G36*
G01*
X103409500Y-89438250D02*
X103409500Y-88525750D01*
G75*
G02*
X103653250Y-88282000I243750J0D01*
G01*
X104140750Y-88282000D01*
G75*
G02*
X104384500Y-88525750I0J-243750D01*
G01*
X104384500Y-89438250D01*
G75*
G02*
X104140750Y-89682000I-243750J0D01*
G01*
X103653250Y-89682000D01*
G75*
G02*
X103409500Y-89438250I0J243750D01*
G01*
G37*
G36*
G01*
X101534500Y-89438250D02*
X101534500Y-88525750D01*
G75*
G02*
X101778250Y-88282000I243750J0D01*
G01*
X102265750Y-88282000D01*
G75*
G02*
X102509500Y-88525750I0J-243750D01*
G01*
X102509500Y-89438250D01*
G75*
G02*
X102265750Y-89682000I-243750J0D01*
G01*
X101778250Y-89682000D01*
G75*
G02*
X101534500Y-89438250I0J243750D01*
G01*
G37*
G36*
G01*
X103409500Y-91343250D02*
X103409500Y-90430750D01*
G75*
G02*
X103653250Y-90187000I243750J0D01*
G01*
X104140750Y-90187000D01*
G75*
G02*
X104384500Y-90430750I0J-243750D01*
G01*
X104384500Y-91343250D01*
G75*
G02*
X104140750Y-91587000I-243750J0D01*
G01*
X103653250Y-91587000D01*
G75*
G02*
X103409500Y-91343250I0J243750D01*
G01*
G37*
G36*
G01*
X101534500Y-91343250D02*
X101534500Y-90430750D01*
G75*
G02*
X101778250Y-90187000I243750J0D01*
G01*
X102265750Y-90187000D01*
G75*
G02*
X102509500Y-90430750I0J-243750D01*
G01*
X102509500Y-91343250D01*
G75*
G02*
X102265750Y-91587000I-243750J0D01*
G01*
X101778250Y-91587000D01*
G75*
G02*
X101534500Y-91343250I0J243750D01*
G01*
G37*
G36*
G01*
X130699550Y-113737500D02*
X131612050Y-113737500D01*
G75*
G02*
X131855800Y-113981250I0J-243750D01*
G01*
X131855800Y-114468750D01*
G75*
G02*
X131612050Y-114712500I-243750J0D01*
G01*
X130699550Y-114712500D01*
G75*
G02*
X130455800Y-114468750I0J243750D01*
G01*
X130455800Y-113981250D01*
G75*
G02*
X130699550Y-113737500I243750J0D01*
G01*
G37*
G36*
G01*
X130699550Y-111862500D02*
X131612050Y-111862500D01*
G75*
G02*
X131855800Y-112106250I0J-243750D01*
G01*
X131855800Y-112593750D01*
G75*
G02*
X131612050Y-112837500I-243750J0D01*
G01*
X130699550Y-112837500D01*
G75*
G02*
X130455800Y-112593750I0J243750D01*
G01*
X130455800Y-112106250D01*
G75*
G02*
X130699550Y-111862500I243750J0D01*
G01*
G37*
G36*
G01*
X105629750Y-81987500D02*
X106542250Y-81987500D01*
G75*
G02*
X106786000Y-82231250I0J-243750D01*
G01*
X106786000Y-82718750D01*
G75*
G02*
X106542250Y-82962500I-243750J0D01*
G01*
X105629750Y-82962500D01*
G75*
G02*
X105386000Y-82718750I0J243750D01*
G01*
X105386000Y-82231250D01*
G75*
G02*
X105629750Y-81987500I243750J0D01*
G01*
G37*
G36*
G01*
X105629750Y-80112500D02*
X106542250Y-80112500D01*
G75*
G02*
X106786000Y-80356250I0J-243750D01*
G01*
X106786000Y-80843750D01*
G75*
G02*
X106542250Y-81087500I-243750J0D01*
G01*
X105629750Y-81087500D01*
G75*
G02*
X105386000Y-80843750I0J243750D01*
G01*
X105386000Y-80356250D01*
G75*
G02*
X105629750Y-80112500I243750J0D01*
G01*
G37*
G36*
G01*
X103724750Y-81987500D02*
X104637250Y-81987500D01*
G75*
G02*
X104881000Y-82231250I0J-243750D01*
G01*
X104881000Y-82718750D01*
G75*
G02*
X104637250Y-82962500I-243750J0D01*
G01*
X103724750Y-82962500D01*
G75*
G02*
X103481000Y-82718750I0J243750D01*
G01*
X103481000Y-82231250D01*
G75*
G02*
X103724750Y-81987500I243750J0D01*
G01*
G37*
G36*
G01*
X103724750Y-80112500D02*
X104637250Y-80112500D01*
G75*
G02*
X104881000Y-80356250I0J-243750D01*
G01*
X104881000Y-80843750D01*
G75*
G02*
X104637250Y-81087500I-243750J0D01*
G01*
X103724750Y-81087500D01*
G75*
G02*
X103481000Y-80843750I0J243750D01*
G01*
X103481000Y-80356250D01*
G75*
G02*
X103724750Y-80112500I243750J0D01*
G01*
G37*
G36*
G01*
X101819750Y-81987500D02*
X102732250Y-81987500D01*
G75*
G02*
X102976000Y-82231250I0J-243750D01*
G01*
X102976000Y-82718750D01*
G75*
G02*
X102732250Y-82962500I-243750J0D01*
G01*
X101819750Y-82962500D01*
G75*
G02*
X101576000Y-82718750I0J243750D01*
G01*
X101576000Y-82231250D01*
G75*
G02*
X101819750Y-81987500I243750J0D01*
G01*
G37*
G36*
G01*
X101819750Y-80112500D02*
X102732250Y-80112500D01*
G75*
G02*
X102976000Y-80356250I0J-243750D01*
G01*
X102976000Y-80843750D01*
G75*
G02*
X102732250Y-81087500I-243750J0D01*
G01*
X101819750Y-81087500D01*
G75*
G02*
X101576000Y-80843750I0J243750D01*
G01*
X101576000Y-80356250D01*
G75*
G02*
X101819750Y-80112500I243750J0D01*
G01*
G37*
G36*
G01*
X105629750Y-86589500D02*
X106542250Y-86589500D01*
G75*
G02*
X106786000Y-86833250I0J-243750D01*
G01*
X106786000Y-87320750D01*
G75*
G02*
X106542250Y-87564500I-243750J0D01*
G01*
X105629750Y-87564500D01*
G75*
G02*
X105386000Y-87320750I0J243750D01*
G01*
X105386000Y-86833250D01*
G75*
G02*
X105629750Y-86589500I243750J0D01*
G01*
G37*
G36*
G01*
X105629750Y-84714500D02*
X106542250Y-84714500D01*
G75*
G02*
X106786000Y-84958250I0J-243750D01*
G01*
X106786000Y-85445750D01*
G75*
G02*
X106542250Y-85689500I-243750J0D01*
G01*
X105629750Y-85689500D01*
G75*
G02*
X105386000Y-85445750I0J243750D01*
G01*
X105386000Y-84958250D01*
G75*
G02*
X105629750Y-84714500I243750J0D01*
G01*
G37*
G36*
G01*
X110896100Y-123806350D02*
X110896100Y-124718850D01*
G75*
G02*
X110652350Y-124962600I-243750J0D01*
G01*
X110164850Y-124962600D01*
G75*
G02*
X109921100Y-124718850I0J243750D01*
G01*
X109921100Y-123806350D01*
G75*
G02*
X110164850Y-123562600I243750J0D01*
G01*
X110652350Y-123562600D01*
G75*
G02*
X110896100Y-123806350I0J-243750D01*
G01*
G37*
G36*
G01*
X112771100Y-123806350D02*
X112771100Y-124718850D01*
G75*
G02*
X112527350Y-124962600I-243750J0D01*
G01*
X112039850Y-124962600D01*
G75*
G02*
X111796100Y-124718850I0J243750D01*
G01*
X111796100Y-123806350D01*
G75*
G02*
X112039850Y-123562600I243750J0D01*
G01*
X112527350Y-123562600D01*
G75*
G02*
X112771100Y-123806350I0J-243750D01*
G01*
G37*
G36*
G01*
X141890000Y-83191750D02*
X141890000Y-84104250D01*
G75*
G02*
X141646250Y-84348000I-243750J0D01*
G01*
X141158750Y-84348000D01*
G75*
G02*
X140915000Y-84104250I0J243750D01*
G01*
X140915000Y-83191750D01*
G75*
G02*
X141158750Y-82948000I243750J0D01*
G01*
X141646250Y-82948000D01*
G75*
G02*
X141890000Y-83191750I0J-243750D01*
G01*
G37*
G36*
G01*
X143765000Y-83191750D02*
X143765000Y-84104250D01*
G75*
G02*
X143521250Y-84348000I-243750J0D01*
G01*
X143033750Y-84348000D01*
G75*
G02*
X142790000Y-84104250I0J243750D01*
G01*
X142790000Y-83191750D01*
G75*
G02*
X143033750Y-82948000I243750J0D01*
G01*
X143521250Y-82948000D01*
G75*
G02*
X143765000Y-83191750I0J-243750D01*
G01*
G37*
G36*
G01*
X111537600Y-127453000D02*
X111537600Y-126203000D01*
G75*
G02*
X111787600Y-125953000I250000J0D01*
G01*
X112537600Y-125953000D01*
G75*
G02*
X112787600Y-126203000I0J-250000D01*
G01*
X112787600Y-127453000D01*
G75*
G02*
X112537600Y-127703000I-250000J0D01*
G01*
X111787600Y-127703000D01*
G75*
G02*
X111537600Y-127453000I0J250000D01*
G01*
G37*
G36*
G01*
X108737600Y-127453000D02*
X108737600Y-126203000D01*
G75*
G02*
X108987600Y-125953000I250000J0D01*
G01*
X109737600Y-125953000D01*
G75*
G02*
X109987600Y-126203000I0J-250000D01*
G01*
X109987600Y-127453000D01*
G75*
G02*
X109737600Y-127703000I-250000J0D01*
G01*
X108987600Y-127703000D01*
G75*
G02*
X108737600Y-127453000I0J250000D01*
G01*
G37*
G36*
G01*
X142739150Y-101219900D02*
X143651650Y-101219900D01*
G75*
G02*
X143895400Y-101463650I0J-243750D01*
G01*
X143895400Y-101951150D01*
G75*
G02*
X143651650Y-102194900I-243750J0D01*
G01*
X142739150Y-102194900D01*
G75*
G02*
X142495400Y-101951150I0J243750D01*
G01*
X142495400Y-101463650D01*
G75*
G02*
X142739150Y-101219900I243750J0D01*
G01*
G37*
G36*
G01*
X142739150Y-99344900D02*
X143651650Y-99344900D01*
G75*
G02*
X143895400Y-99588650I0J-243750D01*
G01*
X143895400Y-100076150D01*
G75*
G02*
X143651650Y-100319900I-243750J0D01*
G01*
X142739150Y-100319900D01*
G75*
G02*
X142495400Y-100076150I0J243750D01*
G01*
X142495400Y-99588650D01*
G75*
G02*
X142739150Y-99344900I243750J0D01*
G01*
G37*
G36*
G01*
X141729400Y-104807150D02*
X141729400Y-105719650D01*
G75*
G02*
X141485650Y-105963400I-243750J0D01*
G01*
X140998150Y-105963400D01*
G75*
G02*
X140754400Y-105719650I0J243750D01*
G01*
X140754400Y-104807150D01*
G75*
G02*
X140998150Y-104563400I243750J0D01*
G01*
X141485650Y-104563400D01*
G75*
G02*
X141729400Y-104807150I0J-243750D01*
G01*
G37*
G36*
G01*
X143604400Y-104807150D02*
X143604400Y-105719650D01*
G75*
G02*
X143360650Y-105963400I-243750J0D01*
G01*
X142873150Y-105963400D01*
G75*
G02*
X142629400Y-105719650I0J243750D01*
G01*
X142629400Y-104807150D01*
G75*
G02*
X142873150Y-104563400I243750J0D01*
G01*
X143360650Y-104563400D01*
G75*
G02*
X143604400Y-104807150I0J-243750D01*
G01*
G37*
G36*
G01*
X123435150Y-101219900D02*
X124347650Y-101219900D01*
G75*
G02*
X124591400Y-101463650I0J-243750D01*
G01*
X124591400Y-101951150D01*
G75*
G02*
X124347650Y-102194900I-243750J0D01*
G01*
X123435150Y-102194900D01*
G75*
G02*
X123191400Y-101951150I0J243750D01*
G01*
X123191400Y-101463650D01*
G75*
G02*
X123435150Y-101219900I243750J0D01*
G01*
G37*
G36*
G01*
X123435150Y-99344900D02*
X124347650Y-99344900D01*
G75*
G02*
X124591400Y-99588650I0J-243750D01*
G01*
X124591400Y-100076150D01*
G75*
G02*
X124347650Y-100319900I-243750J0D01*
G01*
X123435150Y-100319900D01*
G75*
G02*
X123191400Y-100076150I0J243750D01*
G01*
X123191400Y-99588650D01*
G75*
G02*
X123435150Y-99344900I243750J0D01*
G01*
G37*
G36*
G01*
X122423100Y-104807150D02*
X122423100Y-105719650D01*
G75*
G02*
X122179350Y-105963400I-243750J0D01*
G01*
X121691850Y-105963400D01*
G75*
G02*
X121448100Y-105719650I0J243750D01*
G01*
X121448100Y-104807150D01*
G75*
G02*
X121691850Y-104563400I243750J0D01*
G01*
X122179350Y-104563400D01*
G75*
G02*
X122423100Y-104807150I0J-243750D01*
G01*
G37*
G36*
G01*
X124298100Y-104807150D02*
X124298100Y-105719650D01*
G75*
G02*
X124054350Y-105963400I-243750J0D01*
G01*
X123566850Y-105963400D01*
G75*
G02*
X123323100Y-105719650I0J243750D01*
G01*
X123323100Y-104807150D01*
G75*
G02*
X123566850Y-104563400I243750J0D01*
G01*
X124054350Y-104563400D01*
G75*
G02*
X124298100Y-104807150I0J-243750D01*
G01*
G37*
G36*
G01*
X117556250Y-106312500D02*
X116643750Y-106312500D01*
G75*
G02*
X116400000Y-106068750I0J243750D01*
G01*
X116400000Y-105581250D01*
G75*
G02*
X116643750Y-105337500I243750J0D01*
G01*
X117556250Y-105337500D01*
G75*
G02*
X117800000Y-105581250I0J-243750D01*
G01*
X117800000Y-106068750D01*
G75*
G02*
X117556250Y-106312500I-243750J0D01*
G01*
G37*
G36*
G01*
X117556250Y-108187500D02*
X116643750Y-108187500D01*
G75*
G02*
X116400000Y-107943750I0J243750D01*
G01*
X116400000Y-107456250D01*
G75*
G02*
X116643750Y-107212500I243750J0D01*
G01*
X117556250Y-107212500D01*
G75*
G02*
X117800000Y-107456250I0J-243750D01*
G01*
X117800000Y-107943750D01*
G75*
G02*
X117556250Y-108187500I-243750J0D01*
G01*
G37*
G36*
G01*
X110122000Y-106466000D02*
X110122000Y-107566000D01*
G75*
G02*
X109872000Y-107816000I-250000J0D01*
G01*
X106872000Y-107816000D01*
G75*
G02*
X106622000Y-107566000I0J250000D01*
G01*
X106622000Y-106466000D01*
G75*
G02*
X106872000Y-106216000I250000J0D01*
G01*
X109872000Y-106216000D01*
G75*
G02*
X110122000Y-106466000I0J-250000D01*
G01*
G37*
G36*
G01*
X115522000Y-106466000D02*
X115522000Y-107566000D01*
G75*
G02*
X115272000Y-107816000I-250000J0D01*
G01*
X112272000Y-107816000D01*
G75*
G02*
X112022000Y-107566000I0J250000D01*
G01*
X112022000Y-106466000D01*
G75*
G02*
X112272000Y-106216000I250000J0D01*
G01*
X115272000Y-106216000D01*
G75*
G02*
X115522000Y-106466000I0J-250000D01*
G01*
G37*
G36*
G01*
X144573001Y-88283000D02*
X141722999Y-88283000D01*
G75*
G02*
X141473000Y-88033001I0J249999D01*
G01*
X141473000Y-87182999D01*
G75*
G02*
X141722999Y-86933000I249999J0D01*
G01*
X144573001Y-86933000D01*
G75*
G02*
X144823000Y-87182999I0J-249999D01*
G01*
X144823000Y-88033001D01*
G75*
G02*
X144573001Y-88283000I-249999J0D01*
G01*
G37*
G36*
G01*
X144573001Y-94083000D02*
X141722999Y-94083000D01*
G75*
G02*
X141473000Y-93833001I0J249999D01*
G01*
X141473000Y-92982999D01*
G75*
G02*
X141722999Y-92733000I249999J0D01*
G01*
X144573001Y-92733000D01*
G75*
G02*
X144823000Y-92982999I0J-249999D01*
G01*
X144823000Y-93833001D01*
G75*
G02*
X144573001Y-94083000I-249999J0D01*
G01*
G37*
G36*
G01*
X128043750Y-88812500D02*
X128956250Y-88812500D01*
G75*
G02*
X129200000Y-89056250I0J-243750D01*
G01*
X129200000Y-89543750D01*
G75*
G02*
X128956250Y-89787500I-243750J0D01*
G01*
X128043750Y-89787500D01*
G75*
G02*
X127800000Y-89543750I0J243750D01*
G01*
X127800000Y-89056250D01*
G75*
G02*
X128043750Y-88812500I243750J0D01*
G01*
G37*
G36*
G01*
X128043750Y-86937500D02*
X128956250Y-86937500D01*
G75*
G02*
X129200000Y-87181250I0J-243750D01*
G01*
X129200000Y-87668750D01*
G75*
G02*
X128956250Y-87912500I-243750J0D01*
G01*
X128043750Y-87912500D01*
G75*
G02*
X127800000Y-87668750I0J243750D01*
G01*
X127800000Y-87181250D01*
G75*
G02*
X128043750Y-86937500I243750J0D01*
G01*
G37*
G36*
G01*
X151396999Y-117618600D02*
X154247001Y-117618600D01*
G75*
G02*
X154497000Y-117868599I0J-249999D01*
G01*
X154497000Y-118718601D01*
G75*
G02*
X154247001Y-118968600I-249999J0D01*
G01*
X151396999Y-118968600D01*
G75*
G02*
X151147000Y-118718601I0J249999D01*
G01*
X151147000Y-117868599D01*
G75*
G02*
X151396999Y-117618600I249999J0D01*
G01*
G37*
G36*
G01*
X151396999Y-111818600D02*
X154247001Y-111818600D01*
G75*
G02*
X154497000Y-112068599I0J-249999D01*
G01*
X154497000Y-112918601D01*
G75*
G02*
X154247001Y-113168600I-249999J0D01*
G01*
X151396999Y-113168600D01*
G75*
G02*
X151147000Y-112918601I0J249999D01*
G01*
X151147000Y-112068599D01*
G75*
G02*
X151396999Y-111818600I249999J0D01*
G01*
G37*
G36*
G01*
X140681750Y-113737500D02*
X141594250Y-113737500D01*
G75*
G02*
X141838000Y-113981250I0J-243750D01*
G01*
X141838000Y-114468750D01*
G75*
G02*
X141594250Y-114712500I-243750J0D01*
G01*
X140681750Y-114712500D01*
G75*
G02*
X140438000Y-114468750I0J243750D01*
G01*
X140438000Y-113981250D01*
G75*
G02*
X140681750Y-113737500I243750J0D01*
G01*
G37*
G36*
G01*
X140681750Y-111862500D02*
X141594250Y-111862500D01*
G75*
G02*
X141838000Y-112106250I0J-243750D01*
G01*
X141838000Y-112593750D01*
G75*
G02*
X141594250Y-112837500I-243750J0D01*
G01*
X140681750Y-112837500D01*
G75*
G02*
X140438000Y-112593750I0J243750D01*
G01*
X140438000Y-112106250D01*
G75*
G02*
X140681750Y-111862500I243750J0D01*
G01*
G37*
G36*
G01*
X142735599Y-117576600D02*
X145585601Y-117576600D01*
G75*
G02*
X145835600Y-117826599I0J-249999D01*
G01*
X145835600Y-118676601D01*
G75*
G02*
X145585601Y-118926600I-249999J0D01*
G01*
X142735599Y-118926600D01*
G75*
G02*
X142485600Y-118676601I0J249999D01*
G01*
X142485600Y-117826599D01*
G75*
G02*
X142735599Y-117576600I249999J0D01*
G01*
G37*
G36*
G01*
X142735599Y-111776600D02*
X145585601Y-111776600D01*
G75*
G02*
X145835600Y-112026599I0J-249999D01*
G01*
X145835600Y-112876601D01*
G75*
G02*
X145585601Y-113126600I-249999J0D01*
G01*
X142735599Y-113126600D01*
G75*
G02*
X142485600Y-112876601I0J249999D01*
G01*
X142485600Y-112026599D01*
G75*
G02*
X142735599Y-111776600I249999J0D01*
G01*
G37*
G36*
G01*
X154925001Y-88275000D02*
X152074999Y-88275000D01*
G75*
G02*
X151825000Y-88025001I0J249999D01*
G01*
X151825000Y-87174999D01*
G75*
G02*
X152074999Y-86925000I249999J0D01*
G01*
X154925001Y-86925000D01*
G75*
G02*
X155175000Y-87174999I0J-249999D01*
G01*
X155175000Y-88025001D01*
G75*
G02*
X154925001Y-88275000I-249999J0D01*
G01*
G37*
G36*
G01*
X154925001Y-94075000D02*
X152074999Y-94075000D01*
G75*
G02*
X151825000Y-93825001I0J249999D01*
G01*
X151825000Y-92974999D01*
G75*
G02*
X152074999Y-92725000I249999J0D01*
G01*
X154925001Y-92725000D01*
G75*
G02*
X155175000Y-92974999I0J-249999D01*
G01*
X155175000Y-93825001D01*
G75*
G02*
X154925001Y-94075000I-249999J0D01*
G01*
G37*
G36*
G01*
X123710999Y-117618600D02*
X126561001Y-117618600D01*
G75*
G02*
X126811000Y-117868599I0J-249999D01*
G01*
X126811000Y-118718601D01*
G75*
G02*
X126561001Y-118968600I-249999J0D01*
G01*
X123710999Y-118968600D01*
G75*
G02*
X123461000Y-118718601I0J249999D01*
G01*
X123461000Y-117868599D01*
G75*
G02*
X123710999Y-117618600I249999J0D01*
G01*
G37*
G36*
G01*
X123710999Y-111818600D02*
X126561001Y-111818600D01*
G75*
G02*
X126811000Y-112068599I0J-249999D01*
G01*
X126811000Y-112918601D01*
G75*
G02*
X126561001Y-113168600I-249999J0D01*
G01*
X123710999Y-113168600D01*
G75*
G02*
X123461000Y-112918601I0J249999D01*
G01*
X123461000Y-112068599D01*
G75*
G02*
X123710999Y-111818600I249999J0D01*
G01*
G37*
G36*
G01*
X133108999Y-117618600D02*
X135959001Y-117618600D01*
G75*
G02*
X136209000Y-117868599I0J-249999D01*
G01*
X136209000Y-118718601D01*
G75*
G02*
X135959001Y-118968600I-249999J0D01*
G01*
X133108999Y-118968600D01*
G75*
G02*
X132859000Y-118718601I0J249999D01*
G01*
X132859000Y-117868599D01*
G75*
G02*
X133108999Y-117618600I249999J0D01*
G01*
G37*
G36*
G01*
X133108999Y-111818600D02*
X135959001Y-111818600D01*
G75*
G02*
X136209000Y-112068599I0J-249999D01*
G01*
X136209000Y-112918601D01*
G75*
G02*
X135959001Y-113168600I-249999J0D01*
G01*
X133108999Y-113168600D01*
G75*
G02*
X132859000Y-112918601I0J249999D01*
G01*
X132859000Y-112068599D01*
G75*
G02*
X133108999Y-111818600I249999J0D01*
G01*
G37*
G36*
G01*
X136125001Y-88275000D02*
X133274999Y-88275000D01*
G75*
G02*
X133025000Y-88025001I0J249999D01*
G01*
X133025000Y-87174999D01*
G75*
G02*
X133274999Y-86925000I249999J0D01*
G01*
X136125001Y-86925000D01*
G75*
G02*
X136375000Y-87174999I0J-249999D01*
G01*
X136375000Y-88025001D01*
G75*
G02*
X136125001Y-88275000I-249999J0D01*
G01*
G37*
G36*
G01*
X136125001Y-94075000D02*
X133274999Y-94075000D01*
G75*
G02*
X133025000Y-93825001I0J249999D01*
G01*
X133025000Y-92974999D01*
G75*
G02*
X133274999Y-92725000I249999J0D01*
G01*
X136125001Y-92725000D01*
G75*
G02*
X136375000Y-92974999I0J-249999D01*
G01*
X136375000Y-93825001D01*
G75*
G02*
X136125001Y-94075000I-249999J0D01*
G01*
G37*
G36*
G01*
X126942001Y-88283000D02*
X124091999Y-88283000D01*
G75*
G02*
X123842000Y-88033001I0J249999D01*
G01*
X123842000Y-87182999D01*
G75*
G02*
X124091999Y-86933000I249999J0D01*
G01*
X126942001Y-86933000D01*
G75*
G02*
X127192000Y-87182999I0J-249999D01*
G01*
X127192000Y-88033001D01*
G75*
G02*
X126942001Y-88283000I-249999J0D01*
G01*
G37*
G36*
G01*
X126942001Y-94083000D02*
X124091999Y-94083000D01*
G75*
G02*
X123842000Y-93833001I0J249999D01*
G01*
X123842000Y-92982999D01*
G75*
G02*
X124091999Y-92733000I249999J0D01*
G01*
X126942001Y-92733000D01*
G75*
G02*
X127192000Y-92982999I0J-249999D01*
G01*
X127192000Y-93833001D01*
G75*
G02*
X126942001Y-94083000I-249999J0D01*
G01*
G37*
G36*
G01*
X140707150Y-101219900D02*
X141619650Y-101219900D01*
G75*
G02*
X141863400Y-101463650I0J-243750D01*
G01*
X141863400Y-101951150D01*
G75*
G02*
X141619650Y-102194900I-243750J0D01*
G01*
X140707150Y-102194900D01*
G75*
G02*
X140463400Y-101951150I0J243750D01*
G01*
X140463400Y-101463650D01*
G75*
G02*
X140707150Y-101219900I243750J0D01*
G01*
G37*
G36*
G01*
X140707150Y-99344900D02*
X141619650Y-99344900D01*
G75*
G02*
X141863400Y-99588650I0J-243750D01*
G01*
X141863400Y-100076150D01*
G75*
G02*
X141619650Y-100319900I-243750J0D01*
G01*
X140707150Y-100319900D01*
G75*
G02*
X140463400Y-100076150I0J243750D01*
G01*
X140463400Y-99588650D01*
G75*
G02*
X140707150Y-99344900I243750J0D01*
G01*
G37*
G36*
G01*
X140556250Y-92150000D02*
X139643750Y-92150000D01*
G75*
G02*
X139400000Y-91906250I0J243750D01*
G01*
X139400000Y-91418750D01*
G75*
G02*
X139643750Y-91175000I243750J0D01*
G01*
X140556250Y-91175000D01*
G75*
G02*
X140800000Y-91418750I0J-243750D01*
G01*
X140800000Y-91906250D01*
G75*
G02*
X140556250Y-92150000I-243750J0D01*
G01*
G37*
G36*
G01*
X140556250Y-94025000D02*
X139643750Y-94025000D01*
G75*
G02*
X139400000Y-93781250I0J243750D01*
G01*
X139400000Y-93293750D01*
G75*
G02*
X139643750Y-93050000I243750J0D01*
G01*
X140556250Y-93050000D01*
G75*
G02*
X140800000Y-93293750I0J-243750D01*
G01*
X140800000Y-93781250D01*
G75*
G02*
X140556250Y-94025000I-243750J0D01*
G01*
G37*
G36*
G01*
X146726950Y-113737500D02*
X147639450Y-113737500D01*
G75*
G02*
X147883200Y-113981250I0J-243750D01*
G01*
X147883200Y-114468750D01*
G75*
G02*
X147639450Y-114712500I-243750J0D01*
G01*
X146726950Y-114712500D01*
G75*
G02*
X146483200Y-114468750I0J243750D01*
G01*
X146483200Y-113981250D01*
G75*
G02*
X146726950Y-113737500I243750J0D01*
G01*
G37*
G36*
G01*
X146726950Y-111862500D02*
X147639450Y-111862500D01*
G75*
G02*
X147883200Y-112106250I0J-243750D01*
G01*
X147883200Y-112593750D01*
G75*
G02*
X147639450Y-112837500I-243750J0D01*
G01*
X146726950Y-112837500D01*
G75*
G02*
X146483200Y-112593750I0J243750D01*
G01*
X146483200Y-112106250D01*
G75*
G02*
X146726950Y-111862500I243750J0D01*
G01*
G37*
G36*
G01*
X153512500Y-110756250D02*
X153512500Y-109843750D01*
G75*
G02*
X153756250Y-109600000I243750J0D01*
G01*
X154243750Y-109600000D01*
G75*
G02*
X154487500Y-109843750I0J-243750D01*
G01*
X154487500Y-110756250D01*
G75*
G02*
X154243750Y-111000000I-243750J0D01*
G01*
X153756250Y-111000000D01*
G75*
G02*
X153512500Y-110756250I0J243750D01*
G01*
G37*
G36*
G01*
X151637500Y-110756250D02*
X151637500Y-109843750D01*
G75*
G02*
X151881250Y-109600000I243750J0D01*
G01*
X152368750Y-109600000D01*
G75*
G02*
X152612500Y-109843750I0J-243750D01*
G01*
X152612500Y-110756250D01*
G75*
G02*
X152368750Y-111000000I-243750J0D01*
G01*
X151881250Y-111000000D01*
G75*
G02*
X151637500Y-110756250I0J243750D01*
G01*
G37*
G36*
G01*
X155287500Y-95956250D02*
X155287500Y-95043750D01*
G75*
G02*
X155531250Y-94800000I243750J0D01*
G01*
X156018750Y-94800000D01*
G75*
G02*
X156262500Y-95043750I0J-243750D01*
G01*
X156262500Y-95956250D01*
G75*
G02*
X156018750Y-96200000I-243750J0D01*
G01*
X155531250Y-96200000D01*
G75*
G02*
X155287500Y-95956250I0J243750D01*
G01*
G37*
G36*
G01*
X153412500Y-95956250D02*
X153412500Y-95043750D01*
G75*
G02*
X153656250Y-94800000I243750J0D01*
G01*
X154143750Y-94800000D01*
G75*
G02*
X154387500Y-95043750I0J-243750D01*
G01*
X154387500Y-95956250D01*
G75*
G02*
X154143750Y-96200000I-243750J0D01*
G01*
X153656250Y-96200000D01*
G75*
G02*
X153412500Y-95956250I0J243750D01*
G01*
G37*
G36*
G01*
X150956250Y-92187500D02*
X150043750Y-92187500D01*
G75*
G02*
X149800000Y-91943750I0J243750D01*
G01*
X149800000Y-91456250D01*
G75*
G02*
X150043750Y-91212500I243750J0D01*
G01*
X150956250Y-91212500D01*
G75*
G02*
X151200000Y-91456250I0J-243750D01*
G01*
X151200000Y-91943750D01*
G75*
G02*
X150956250Y-92187500I-243750J0D01*
G01*
G37*
G36*
G01*
X150956250Y-94062500D02*
X150043750Y-94062500D01*
G75*
G02*
X149800000Y-93818750I0J243750D01*
G01*
X149800000Y-93331250D01*
G75*
G02*
X150043750Y-93087500I243750J0D01*
G01*
X150956250Y-93087500D01*
G75*
G02*
X151200000Y-93331250I0J-243750D01*
G01*
X151200000Y-93818750D01*
G75*
G02*
X150956250Y-94062500I-243750J0D01*
G01*
G37*
G36*
G01*
X146556250Y-92212500D02*
X145643750Y-92212500D01*
G75*
G02*
X145400000Y-91968750I0J243750D01*
G01*
X145400000Y-91481250D01*
G75*
G02*
X145643750Y-91237500I243750J0D01*
G01*
X146556250Y-91237500D01*
G75*
G02*
X146800000Y-91481250I0J-243750D01*
G01*
X146800000Y-91968750D01*
G75*
G02*
X146556250Y-92212500I-243750J0D01*
G01*
G37*
G36*
G01*
X146556250Y-94087500D02*
X145643750Y-94087500D01*
G75*
G02*
X145400000Y-93843750I0J243750D01*
G01*
X145400000Y-93356250D01*
G75*
G02*
X145643750Y-93112500I243750J0D01*
G01*
X146556250Y-93112500D01*
G75*
G02*
X146800000Y-93356250I0J-243750D01*
G01*
X146800000Y-93843750D01*
G75*
G02*
X146556250Y-94087500I-243750J0D01*
G01*
G37*
G36*
G01*
X121428550Y-101219900D02*
X122341050Y-101219900D01*
G75*
G02*
X122584800Y-101463650I0J-243750D01*
G01*
X122584800Y-101951150D01*
G75*
G02*
X122341050Y-102194900I-243750J0D01*
G01*
X121428550Y-102194900D01*
G75*
G02*
X121184800Y-101951150I0J243750D01*
G01*
X121184800Y-101463650D01*
G75*
G02*
X121428550Y-101219900I243750J0D01*
G01*
G37*
G36*
G01*
X121428550Y-99344900D02*
X122341050Y-99344900D01*
G75*
G02*
X122584800Y-99588650I0J-243750D01*
G01*
X122584800Y-100076150D01*
G75*
G02*
X122341050Y-100319900I-243750J0D01*
G01*
X121428550Y-100319900D01*
G75*
G02*
X121184800Y-100076150I0J243750D01*
G01*
X121184800Y-99588650D01*
G75*
G02*
X121428550Y-99344900I243750J0D01*
G01*
G37*
G36*
G01*
X121657150Y-113716700D02*
X122569650Y-113716700D01*
G75*
G02*
X122813400Y-113960450I0J-243750D01*
G01*
X122813400Y-114447950D01*
G75*
G02*
X122569650Y-114691700I-243750J0D01*
G01*
X121657150Y-114691700D01*
G75*
G02*
X121413400Y-114447950I0J243750D01*
G01*
X121413400Y-113960450D01*
G75*
G02*
X121657150Y-113716700I243750J0D01*
G01*
G37*
G36*
G01*
X121657150Y-111841700D02*
X122569650Y-111841700D01*
G75*
G02*
X122813400Y-112085450I0J-243750D01*
G01*
X122813400Y-112572950D01*
G75*
G02*
X122569650Y-112816700I-243750J0D01*
G01*
X121657150Y-112816700D01*
G75*
G02*
X121413400Y-112572950I0J243750D01*
G01*
X121413400Y-112085450D01*
G75*
G02*
X121657150Y-111841700I243750J0D01*
G01*
G37*
G36*
G01*
X127727750Y-113742100D02*
X128640250Y-113742100D01*
G75*
G02*
X128884000Y-113985850I0J-243750D01*
G01*
X128884000Y-114473350D01*
G75*
G02*
X128640250Y-114717100I-243750J0D01*
G01*
X127727750Y-114717100D01*
G75*
G02*
X127484000Y-114473350I0J243750D01*
G01*
X127484000Y-113985850D01*
G75*
G02*
X127727750Y-113742100I243750J0D01*
G01*
G37*
G36*
G01*
X127727750Y-111867100D02*
X128640250Y-111867100D01*
G75*
G02*
X128884000Y-112110850I0J-243750D01*
G01*
X128884000Y-112598350D01*
G75*
G02*
X128640250Y-112842100I-243750J0D01*
G01*
X127727750Y-112842100D01*
G75*
G02*
X127484000Y-112598350I0J243750D01*
G01*
X127484000Y-112110850D01*
G75*
G02*
X127727750Y-111867100I243750J0D01*
G01*
G37*
G36*
G01*
X122925250Y-92150000D02*
X122012750Y-92150000D01*
G75*
G02*
X121769000Y-91906250I0J243750D01*
G01*
X121769000Y-91418750D01*
G75*
G02*
X122012750Y-91175000I243750J0D01*
G01*
X122925250Y-91175000D01*
G75*
G02*
X123169000Y-91418750I0J-243750D01*
G01*
X123169000Y-91906250D01*
G75*
G02*
X122925250Y-92150000I-243750J0D01*
G01*
G37*
G36*
G01*
X122925250Y-94025000D02*
X122012750Y-94025000D01*
G75*
G02*
X121769000Y-93781250I0J243750D01*
G01*
X121769000Y-93293750D01*
G75*
G02*
X122012750Y-93050000I243750J0D01*
G01*
X122925250Y-93050000D01*
G75*
G02*
X123169000Y-93293750I0J-243750D01*
G01*
X123169000Y-93781250D01*
G75*
G02*
X122925250Y-94025000I-243750J0D01*
G01*
G37*
G36*
G01*
X135212500Y-110656250D02*
X135212500Y-109743750D01*
G75*
G02*
X135456250Y-109500000I243750J0D01*
G01*
X135943750Y-109500000D01*
G75*
G02*
X136187500Y-109743750I0J-243750D01*
G01*
X136187500Y-110656250D01*
G75*
G02*
X135943750Y-110900000I-243750J0D01*
G01*
X135456250Y-110900000D01*
G75*
G02*
X135212500Y-110656250I0J243750D01*
G01*
G37*
G36*
G01*
X133337500Y-110656250D02*
X133337500Y-109743750D01*
G75*
G02*
X133581250Y-109500000I243750J0D01*
G01*
X134068750Y-109500000D01*
G75*
G02*
X134312500Y-109743750I0J-243750D01*
G01*
X134312500Y-110656250D01*
G75*
G02*
X134068750Y-110900000I-243750J0D01*
G01*
X133581250Y-110900000D01*
G75*
G02*
X133337500Y-110656250I0J243750D01*
G01*
G37*
G36*
G01*
X136350000Y-95956250D02*
X136350000Y-95043750D01*
G75*
G02*
X136593750Y-94800000I243750J0D01*
G01*
X137081250Y-94800000D01*
G75*
G02*
X137325000Y-95043750I0J-243750D01*
G01*
X137325000Y-95956250D01*
G75*
G02*
X137081250Y-96200000I-243750J0D01*
G01*
X136593750Y-96200000D01*
G75*
G02*
X136350000Y-95956250I0J243750D01*
G01*
G37*
G36*
G01*
X134475000Y-95956250D02*
X134475000Y-95043750D01*
G75*
G02*
X134718750Y-94800000I243750J0D01*
G01*
X135206250Y-94800000D01*
G75*
G02*
X135450000Y-95043750I0J-243750D01*
G01*
X135450000Y-95956250D01*
G75*
G02*
X135206250Y-96200000I-243750J0D01*
G01*
X134718750Y-96200000D01*
G75*
G02*
X134475000Y-95956250I0J243750D01*
G01*
G37*
G36*
G01*
X129021250Y-92150000D02*
X128108750Y-92150000D01*
G75*
G02*
X127865000Y-91906250I0J243750D01*
G01*
X127865000Y-91418750D01*
G75*
G02*
X128108750Y-91175000I243750J0D01*
G01*
X129021250Y-91175000D01*
G75*
G02*
X129265000Y-91418750I0J-243750D01*
G01*
X129265000Y-91906250D01*
G75*
G02*
X129021250Y-92150000I-243750J0D01*
G01*
G37*
G36*
G01*
X129021250Y-94025000D02*
X128108750Y-94025000D01*
G75*
G02*
X127865000Y-93781250I0J243750D01*
G01*
X127865000Y-93293750D01*
G75*
G02*
X128108750Y-93050000I243750J0D01*
G01*
X129021250Y-93050000D01*
G75*
G02*
X129265000Y-93293750I0J-243750D01*
G01*
X129265000Y-93781250D01*
G75*
G02*
X129021250Y-94025000I-243750J0D01*
G01*
G37*
G36*
G01*
X142787500Y-81856250D02*
X142787500Y-80943750D01*
G75*
G02*
X143031250Y-80700000I243750J0D01*
G01*
X143518750Y-80700000D01*
G75*
G02*
X143762500Y-80943750I0J-243750D01*
G01*
X143762500Y-81856250D01*
G75*
G02*
X143518750Y-82100000I-243750J0D01*
G01*
X143031250Y-82100000D01*
G75*
G02*
X142787500Y-81856250I0J243750D01*
G01*
G37*
G36*
G01*
X140912500Y-81856250D02*
X140912500Y-80943750D01*
G75*
G02*
X141156250Y-80700000I243750J0D01*
G01*
X141643750Y-80700000D01*
G75*
G02*
X141887500Y-80943750I0J-243750D01*
G01*
X141887500Y-81856250D01*
G75*
G02*
X141643750Y-82100000I-243750J0D01*
G01*
X141156250Y-82100000D01*
G75*
G02*
X140912500Y-81856250I0J243750D01*
G01*
G37*
M02*
