G04 #@! TF.GenerationSoftware,KiCad,Pcbnew,(5.1.6)-1*
G04 #@! TF.CreationDate,2020-10-08T21:16:19-06:00*
G04 #@! TF.ProjectId,raspi-quad-stepper-motor-module,72617370-692d-4717-9561-642d73746570,A*
G04 #@! TF.SameCoordinates,Original*
G04 #@! TF.FileFunction,Copper,L1,Top*
G04 #@! TF.FilePolarity,Positive*
%FSLAX46Y46*%
G04 Gerber Fmt 4.6, Leading zero omitted, Abs format (unit mm)*
G04 Created by KiCad (PCBNEW (5.1.6)-1) date 2020-10-08 21:16:19*
%MOMM*%
%LPD*%
G01*
G04 APERTURE LIST*
G04 #@! TA.AperFunction,Profile*
%ADD10C,0.100000*%
G04 #@! TD*
G04 #@! TA.AperFunction,ComponentPad*
%ADD11C,1.440000*%
G04 #@! TD*
G04 #@! TA.AperFunction,SMDPad,CuDef*
%ADD12R,1.473200X0.279400*%
G04 #@! TD*
G04 #@! TA.AperFunction,SMDPad,CuDef*
%ADD13R,3.657600X3.708400*%
G04 #@! TD*
G04 #@! TA.AperFunction,SMDPad,CuDef*
%ADD14R,1.473200X0.355600*%
G04 #@! TD*
G04 #@! TA.AperFunction,ComponentPad*
%ADD15O,1.600000X1.600000*%
G04 #@! TD*
G04 #@! TA.AperFunction,ComponentPad*
%ADD16R,1.600000X1.600000*%
G04 #@! TD*
G04 #@! TA.AperFunction,ComponentPad*
%ADD17C,1.800000*%
G04 #@! TD*
G04 #@! TA.AperFunction,ComponentPad*
%ADD18R,1.800000X1.800000*%
G04 #@! TD*
G04 #@! TA.AperFunction,ComponentPad*
%ADD19R,3.500000X3.500000*%
G04 #@! TD*
G04 #@! TA.AperFunction,ComponentPad*
%ADD20O,1.700000X1.700000*%
G04 #@! TD*
G04 #@! TA.AperFunction,ComponentPad*
%ADD21R,1.700000X1.700000*%
G04 #@! TD*
G04 #@! TA.AperFunction,ViaPad*
%ADD22C,0.685800*%
G04 #@! TD*
G04 #@! TA.AperFunction,ViaPad*
%ADD23C,1.000000*%
G04 #@! TD*
G04 #@! TA.AperFunction,Conductor*
%ADD24C,0.200000*%
G04 #@! TD*
G04 #@! TA.AperFunction,Conductor*
%ADD25C,0.500000*%
G04 #@! TD*
G04 #@! TA.AperFunction,Conductor*
%ADD26C,0.254000*%
G04 #@! TD*
G04 APERTURE END LIST*
D10*
X105600000Y-93000000D02*
G75*
G03*
X105100000Y-92500000I-500000J0D01*
G01*
X105100000Y-92500000D02*
X101100000Y-92500000D01*
X101099127Y-109500001D02*
G75*
G03*
X100600000Y-110000000I873J-499999D01*
G01*
X105100000Y-109500000D02*
G75*
G03*
X105600000Y-109000000I0J500000D01*
G01*
X100600000Y-92000000D02*
G75*
G03*
X101100000Y-92500000I500000J0D01*
G01*
X100600000Y-76000000D02*
X100600000Y-92000000D01*
X165600000Y-76000000D02*
G75*
G03*
X162600000Y-73000000I-3000000J0D01*
G01*
X162600000Y-129000000D02*
G75*
G03*
X165600000Y-126000000I0J3000000D01*
G01*
X100600000Y-126000000D02*
G75*
G03*
X103600000Y-129000000I3000000J0D01*
G01*
X103600000Y-73000000D02*
G75*
G03*
X100600000Y-76000000I0J-3000000D01*
G01*
X162600000Y-73000000D02*
X103600000Y-73000000D01*
X105100000Y-109500000D02*
X101100000Y-109500000D01*
X105600000Y-93000000D02*
X105600000Y-109000000D01*
X165600000Y-126000000D02*
X165600000Y-76000000D01*
X103600000Y-129000000D02*
X162600000Y-129000000D01*
X100600000Y-110000000D02*
X100600000Y-126000000D01*
D11*
X151992000Y-82632000D03*
X149452000Y-82632000D03*
X146912000Y-82632000D03*
X129132000Y-82632000D03*
X126592000Y-82632000D03*
X124052000Y-82632000D03*
D12*
X145506800Y-96983000D03*
X145506800Y-97465600D03*
X145506800Y-97973600D03*
X145506800Y-98481600D03*
X145506800Y-98964200D03*
X145506800Y-99472200D03*
X145506800Y-99980200D03*
X145506800Y-100462800D03*
X145506800Y-100970800D03*
X145506800Y-101478800D03*
X145506800Y-101961400D03*
X145506800Y-102469400D03*
X145506800Y-102977400D03*
X145506800Y-103485400D03*
X145506800Y-103968000D03*
X145506800Y-104476000D03*
X145506800Y-104984000D03*
X145506800Y-105466600D03*
X145506800Y-105974600D03*
X145506800Y-106482600D03*
X145506800Y-106965200D03*
X145506800Y-107473200D03*
X145506800Y-107981200D03*
X145506800Y-108463800D03*
X153076000Y-108463800D03*
X153076000Y-107981200D03*
X153076000Y-107473200D03*
X153076000Y-106965200D03*
X153076000Y-106482600D03*
X153076000Y-105974600D03*
X153076000Y-105466600D03*
X153076000Y-104984000D03*
X153076000Y-104476000D03*
X153076000Y-103968000D03*
X153076000Y-103485400D03*
X153076000Y-102977400D03*
X153076000Y-102469400D03*
X153076000Y-101961400D03*
X153076000Y-101478800D03*
X153076000Y-100970800D03*
X153076000Y-100462800D03*
X153076000Y-99980200D03*
X153076000Y-99472200D03*
X153076000Y-98964200D03*
X153076000Y-98481600D03*
X153076000Y-97973600D03*
X153076000Y-97465600D03*
X153076000Y-96983000D03*
D13*
X149291400Y-102723400D03*
D12*
X126202800Y-96983000D03*
X126202800Y-97465600D03*
X126202800Y-97973600D03*
X126202800Y-98481600D03*
X126202800Y-98964200D03*
X126202800Y-99472200D03*
X126202800Y-99980200D03*
X126202800Y-100462800D03*
X126202800Y-100970800D03*
X126202800Y-101478800D03*
X126202800Y-101961400D03*
X126202800Y-102469400D03*
X126202800Y-102977400D03*
X126202800Y-103485400D03*
X126202800Y-103968000D03*
X126202800Y-104476000D03*
X126202800Y-104984000D03*
X126202800Y-105466600D03*
X126202800Y-105974600D03*
X126202800Y-106482600D03*
X126202800Y-106965200D03*
X126202800Y-107473200D03*
X126202800Y-107981200D03*
X126202800Y-108463800D03*
X133772000Y-108463800D03*
X133772000Y-107981200D03*
X133772000Y-107473200D03*
X133772000Y-106965200D03*
X133772000Y-106482600D03*
X133772000Y-105974600D03*
X133772000Y-105466600D03*
X133772000Y-104984000D03*
X133772000Y-104476000D03*
X133772000Y-103968000D03*
X133772000Y-103485400D03*
X133772000Y-102977400D03*
X133772000Y-102469400D03*
X133772000Y-101961400D03*
X133772000Y-101478800D03*
X133772000Y-100970800D03*
X133772000Y-100462800D03*
X133772000Y-99980200D03*
X133772000Y-99472200D03*
X133772000Y-98964200D03*
X133772000Y-98481600D03*
X133772000Y-97973600D03*
X133772000Y-97465600D03*
X133772000Y-96983000D03*
D13*
X129987400Y-102723400D03*
D14*
X133323000Y-81362000D03*
X133323000Y-82022400D03*
X133323000Y-82682800D03*
X133323000Y-83317800D03*
X133323000Y-83978200D03*
X133323000Y-84613200D03*
X133323000Y-85273600D03*
X133323000Y-85934000D03*
X139165000Y-85934000D03*
X139165000Y-85273600D03*
X139165000Y-84613200D03*
X139165000Y-83978200D03*
X139165000Y-83317800D03*
X139165000Y-82682800D03*
X139165000Y-82022400D03*
X139165000Y-81362000D03*
D15*
X109896000Y-91776000D03*
X117516000Y-99396000D03*
X112436000Y-91776000D03*
X114976000Y-99396000D03*
X114976000Y-91776000D03*
X112436000Y-99396000D03*
X117516000Y-91776000D03*
D16*
X109896000Y-99396000D03*
D15*
X109896000Y-81108000D03*
X117516000Y-88728000D03*
X112436000Y-81108000D03*
X114976000Y-88728000D03*
X114976000Y-81108000D03*
X112436000Y-88728000D03*
X117516000Y-81108000D03*
D16*
X109896000Y-88728000D03*
G04 #@! TA.AperFunction,SMDPad,CuDef*
G36*
G01*
X150230250Y-112842100D02*
X149317750Y-112842100D01*
G75*
G02*
X149074000Y-112598350I0J243750D01*
G01*
X149074000Y-112110850D01*
G75*
G02*
X149317750Y-111867100I243750J0D01*
G01*
X150230250Y-111867100D01*
G75*
G02*
X150474000Y-112110850I0J-243750D01*
G01*
X150474000Y-112598350D01*
G75*
G02*
X150230250Y-112842100I-243750J0D01*
G01*
G37*
G04 #@! TD.AperFunction*
G04 #@! TA.AperFunction,SMDPad,CuDef*
G36*
G01*
X150230250Y-114717100D02*
X149317750Y-114717100D01*
G75*
G02*
X149074000Y-114473350I0J243750D01*
G01*
X149074000Y-113985850D01*
G75*
G02*
X149317750Y-113742100I243750J0D01*
G01*
X150230250Y-113742100D01*
G75*
G02*
X150474000Y-113985850I0J-243750D01*
G01*
X150474000Y-114473350D01*
G75*
G02*
X150230250Y-114717100I-243750J0D01*
G01*
G37*
G04 #@! TD.AperFunction*
G04 #@! TA.AperFunction,SMDPad,CuDef*
G36*
G01*
X103724750Y-86589500D02*
X104637250Y-86589500D01*
G75*
G02*
X104881000Y-86833250I0J-243750D01*
G01*
X104881000Y-87320750D01*
G75*
G02*
X104637250Y-87564500I-243750J0D01*
G01*
X103724750Y-87564500D01*
G75*
G02*
X103481000Y-87320750I0J243750D01*
G01*
X103481000Y-86833250D01*
G75*
G02*
X103724750Y-86589500I243750J0D01*
G01*
G37*
G04 #@! TD.AperFunction*
G04 #@! TA.AperFunction,SMDPad,CuDef*
G36*
G01*
X103724750Y-84714500D02*
X104637250Y-84714500D01*
G75*
G02*
X104881000Y-84958250I0J-243750D01*
G01*
X104881000Y-85445750D01*
G75*
G02*
X104637250Y-85689500I-243750J0D01*
G01*
X103724750Y-85689500D01*
G75*
G02*
X103481000Y-85445750I0J243750D01*
G01*
X103481000Y-84958250D01*
G75*
G02*
X103724750Y-84714500I243750J0D01*
G01*
G37*
G04 #@! TD.AperFunction*
G04 #@! TA.AperFunction,SMDPad,CuDef*
G36*
G01*
X101819750Y-86589500D02*
X102732250Y-86589500D01*
G75*
G02*
X102976000Y-86833250I0J-243750D01*
G01*
X102976000Y-87320750D01*
G75*
G02*
X102732250Y-87564500I-243750J0D01*
G01*
X101819750Y-87564500D01*
G75*
G02*
X101576000Y-87320750I0J243750D01*
G01*
X101576000Y-86833250D01*
G75*
G02*
X101819750Y-86589500I243750J0D01*
G01*
G37*
G04 #@! TD.AperFunction*
G04 #@! TA.AperFunction,SMDPad,CuDef*
G36*
G01*
X101819750Y-84714500D02*
X102732250Y-84714500D01*
G75*
G02*
X102976000Y-84958250I0J-243750D01*
G01*
X102976000Y-85445750D01*
G75*
G02*
X102732250Y-85689500I-243750J0D01*
G01*
X101819750Y-85689500D01*
G75*
G02*
X101576000Y-85445750I0J243750D01*
G01*
X101576000Y-84958250D01*
G75*
G02*
X101819750Y-84714500I243750J0D01*
G01*
G37*
G04 #@! TD.AperFunction*
G04 #@! TA.AperFunction,SMDPad,CuDef*
G36*
G01*
X103409500Y-89438250D02*
X103409500Y-88525750D01*
G75*
G02*
X103653250Y-88282000I243750J0D01*
G01*
X104140750Y-88282000D01*
G75*
G02*
X104384500Y-88525750I0J-243750D01*
G01*
X104384500Y-89438250D01*
G75*
G02*
X104140750Y-89682000I-243750J0D01*
G01*
X103653250Y-89682000D01*
G75*
G02*
X103409500Y-89438250I0J243750D01*
G01*
G37*
G04 #@! TD.AperFunction*
G04 #@! TA.AperFunction,SMDPad,CuDef*
G36*
G01*
X101534500Y-89438250D02*
X101534500Y-88525750D01*
G75*
G02*
X101778250Y-88282000I243750J0D01*
G01*
X102265750Y-88282000D01*
G75*
G02*
X102509500Y-88525750I0J-243750D01*
G01*
X102509500Y-89438250D01*
G75*
G02*
X102265750Y-89682000I-243750J0D01*
G01*
X101778250Y-89682000D01*
G75*
G02*
X101534500Y-89438250I0J243750D01*
G01*
G37*
G04 #@! TD.AperFunction*
G04 #@! TA.AperFunction,SMDPad,CuDef*
G36*
G01*
X103409500Y-91343250D02*
X103409500Y-90430750D01*
G75*
G02*
X103653250Y-90187000I243750J0D01*
G01*
X104140750Y-90187000D01*
G75*
G02*
X104384500Y-90430750I0J-243750D01*
G01*
X104384500Y-91343250D01*
G75*
G02*
X104140750Y-91587000I-243750J0D01*
G01*
X103653250Y-91587000D01*
G75*
G02*
X103409500Y-91343250I0J243750D01*
G01*
G37*
G04 #@! TD.AperFunction*
G04 #@! TA.AperFunction,SMDPad,CuDef*
G36*
G01*
X101534500Y-91343250D02*
X101534500Y-90430750D01*
G75*
G02*
X101778250Y-90187000I243750J0D01*
G01*
X102265750Y-90187000D01*
G75*
G02*
X102509500Y-90430750I0J-243750D01*
G01*
X102509500Y-91343250D01*
G75*
G02*
X102265750Y-91587000I-243750J0D01*
G01*
X101778250Y-91587000D01*
G75*
G02*
X101534500Y-91343250I0J243750D01*
G01*
G37*
G04 #@! TD.AperFunction*
G04 #@! TA.AperFunction,SMDPad,CuDef*
G36*
G01*
X130699550Y-113737500D02*
X131612050Y-113737500D01*
G75*
G02*
X131855800Y-113981250I0J-243750D01*
G01*
X131855800Y-114468750D01*
G75*
G02*
X131612050Y-114712500I-243750J0D01*
G01*
X130699550Y-114712500D01*
G75*
G02*
X130455800Y-114468750I0J243750D01*
G01*
X130455800Y-113981250D01*
G75*
G02*
X130699550Y-113737500I243750J0D01*
G01*
G37*
G04 #@! TD.AperFunction*
G04 #@! TA.AperFunction,SMDPad,CuDef*
G36*
G01*
X130699550Y-111862500D02*
X131612050Y-111862500D01*
G75*
G02*
X131855800Y-112106250I0J-243750D01*
G01*
X131855800Y-112593750D01*
G75*
G02*
X131612050Y-112837500I-243750J0D01*
G01*
X130699550Y-112837500D01*
G75*
G02*
X130455800Y-112593750I0J243750D01*
G01*
X130455800Y-112106250D01*
G75*
G02*
X130699550Y-111862500I243750J0D01*
G01*
G37*
G04 #@! TD.AperFunction*
G04 #@! TA.AperFunction,SMDPad,CuDef*
G36*
G01*
X105629750Y-81987500D02*
X106542250Y-81987500D01*
G75*
G02*
X106786000Y-82231250I0J-243750D01*
G01*
X106786000Y-82718750D01*
G75*
G02*
X106542250Y-82962500I-243750J0D01*
G01*
X105629750Y-82962500D01*
G75*
G02*
X105386000Y-82718750I0J243750D01*
G01*
X105386000Y-82231250D01*
G75*
G02*
X105629750Y-81987500I243750J0D01*
G01*
G37*
G04 #@! TD.AperFunction*
G04 #@! TA.AperFunction,SMDPad,CuDef*
G36*
G01*
X105629750Y-80112500D02*
X106542250Y-80112500D01*
G75*
G02*
X106786000Y-80356250I0J-243750D01*
G01*
X106786000Y-80843750D01*
G75*
G02*
X106542250Y-81087500I-243750J0D01*
G01*
X105629750Y-81087500D01*
G75*
G02*
X105386000Y-80843750I0J243750D01*
G01*
X105386000Y-80356250D01*
G75*
G02*
X105629750Y-80112500I243750J0D01*
G01*
G37*
G04 #@! TD.AperFunction*
G04 #@! TA.AperFunction,SMDPad,CuDef*
G36*
G01*
X103724750Y-81987500D02*
X104637250Y-81987500D01*
G75*
G02*
X104881000Y-82231250I0J-243750D01*
G01*
X104881000Y-82718750D01*
G75*
G02*
X104637250Y-82962500I-243750J0D01*
G01*
X103724750Y-82962500D01*
G75*
G02*
X103481000Y-82718750I0J243750D01*
G01*
X103481000Y-82231250D01*
G75*
G02*
X103724750Y-81987500I243750J0D01*
G01*
G37*
G04 #@! TD.AperFunction*
G04 #@! TA.AperFunction,SMDPad,CuDef*
G36*
G01*
X103724750Y-80112500D02*
X104637250Y-80112500D01*
G75*
G02*
X104881000Y-80356250I0J-243750D01*
G01*
X104881000Y-80843750D01*
G75*
G02*
X104637250Y-81087500I-243750J0D01*
G01*
X103724750Y-81087500D01*
G75*
G02*
X103481000Y-80843750I0J243750D01*
G01*
X103481000Y-80356250D01*
G75*
G02*
X103724750Y-80112500I243750J0D01*
G01*
G37*
G04 #@! TD.AperFunction*
G04 #@! TA.AperFunction,SMDPad,CuDef*
G36*
G01*
X101819750Y-81987500D02*
X102732250Y-81987500D01*
G75*
G02*
X102976000Y-82231250I0J-243750D01*
G01*
X102976000Y-82718750D01*
G75*
G02*
X102732250Y-82962500I-243750J0D01*
G01*
X101819750Y-82962500D01*
G75*
G02*
X101576000Y-82718750I0J243750D01*
G01*
X101576000Y-82231250D01*
G75*
G02*
X101819750Y-81987500I243750J0D01*
G01*
G37*
G04 #@! TD.AperFunction*
G04 #@! TA.AperFunction,SMDPad,CuDef*
G36*
G01*
X101819750Y-80112500D02*
X102732250Y-80112500D01*
G75*
G02*
X102976000Y-80356250I0J-243750D01*
G01*
X102976000Y-80843750D01*
G75*
G02*
X102732250Y-81087500I-243750J0D01*
G01*
X101819750Y-81087500D01*
G75*
G02*
X101576000Y-80843750I0J243750D01*
G01*
X101576000Y-80356250D01*
G75*
G02*
X101819750Y-80112500I243750J0D01*
G01*
G37*
G04 #@! TD.AperFunction*
G04 #@! TA.AperFunction,SMDPad,CuDef*
G36*
G01*
X105629750Y-86589500D02*
X106542250Y-86589500D01*
G75*
G02*
X106786000Y-86833250I0J-243750D01*
G01*
X106786000Y-87320750D01*
G75*
G02*
X106542250Y-87564500I-243750J0D01*
G01*
X105629750Y-87564500D01*
G75*
G02*
X105386000Y-87320750I0J243750D01*
G01*
X105386000Y-86833250D01*
G75*
G02*
X105629750Y-86589500I243750J0D01*
G01*
G37*
G04 #@! TD.AperFunction*
G04 #@! TA.AperFunction,SMDPad,CuDef*
G36*
G01*
X105629750Y-84714500D02*
X106542250Y-84714500D01*
G75*
G02*
X106786000Y-84958250I0J-243750D01*
G01*
X106786000Y-85445750D01*
G75*
G02*
X106542250Y-85689500I-243750J0D01*
G01*
X105629750Y-85689500D01*
G75*
G02*
X105386000Y-85445750I0J243750D01*
G01*
X105386000Y-84958250D01*
G75*
G02*
X105629750Y-84714500I243750J0D01*
G01*
G37*
G04 #@! TD.AperFunction*
G04 #@! TA.AperFunction,SMDPad,CuDef*
G36*
G01*
X110896100Y-123806350D02*
X110896100Y-124718850D01*
G75*
G02*
X110652350Y-124962600I-243750J0D01*
G01*
X110164850Y-124962600D01*
G75*
G02*
X109921100Y-124718850I0J243750D01*
G01*
X109921100Y-123806350D01*
G75*
G02*
X110164850Y-123562600I243750J0D01*
G01*
X110652350Y-123562600D01*
G75*
G02*
X110896100Y-123806350I0J-243750D01*
G01*
G37*
G04 #@! TD.AperFunction*
G04 #@! TA.AperFunction,SMDPad,CuDef*
G36*
G01*
X112771100Y-123806350D02*
X112771100Y-124718850D01*
G75*
G02*
X112527350Y-124962600I-243750J0D01*
G01*
X112039850Y-124962600D01*
G75*
G02*
X111796100Y-124718850I0J243750D01*
G01*
X111796100Y-123806350D01*
G75*
G02*
X112039850Y-123562600I243750J0D01*
G01*
X112527350Y-123562600D01*
G75*
G02*
X112771100Y-123806350I0J-243750D01*
G01*
G37*
G04 #@! TD.AperFunction*
G04 #@! TA.AperFunction,SMDPad,CuDef*
G36*
G01*
X141890000Y-83191750D02*
X141890000Y-84104250D01*
G75*
G02*
X141646250Y-84348000I-243750J0D01*
G01*
X141158750Y-84348000D01*
G75*
G02*
X140915000Y-84104250I0J243750D01*
G01*
X140915000Y-83191750D01*
G75*
G02*
X141158750Y-82948000I243750J0D01*
G01*
X141646250Y-82948000D01*
G75*
G02*
X141890000Y-83191750I0J-243750D01*
G01*
G37*
G04 #@! TD.AperFunction*
G04 #@! TA.AperFunction,SMDPad,CuDef*
G36*
G01*
X143765000Y-83191750D02*
X143765000Y-84104250D01*
G75*
G02*
X143521250Y-84348000I-243750J0D01*
G01*
X143033750Y-84348000D01*
G75*
G02*
X142790000Y-84104250I0J243750D01*
G01*
X142790000Y-83191750D01*
G75*
G02*
X143033750Y-82948000I243750J0D01*
G01*
X143521250Y-82948000D01*
G75*
G02*
X143765000Y-83191750I0J-243750D01*
G01*
G37*
G04 #@! TD.AperFunction*
D17*
X160696000Y-103714000D03*
X160696000Y-108714000D03*
X160696000Y-113714000D03*
D18*
X160696000Y-118714000D03*
D17*
X160696000Y-82505000D03*
X160696000Y-87505000D03*
X160696000Y-92505000D03*
D18*
X160696000Y-97505000D03*
D17*
X132516000Y-124288000D03*
X127516000Y-124288000D03*
X122516000Y-124288000D03*
D18*
X117516000Y-124288000D03*
D17*
X153725000Y-124288000D03*
X148725000Y-124288000D03*
X143725000Y-124288000D03*
D18*
X138725000Y-124288000D03*
G04 #@! TA.AperFunction,ComponentPad*
G36*
G01*
X110353000Y-121227000D02*
X110353000Y-119477000D01*
G75*
G02*
X111228000Y-118602000I875000J0D01*
G01*
X112978000Y-118602000D01*
G75*
G02*
X113853000Y-119477000I0J-875000D01*
G01*
X113853000Y-121227000D01*
G75*
G02*
X112978000Y-122102000I-875000J0D01*
G01*
X111228000Y-122102000D01*
G75*
G02*
X110353000Y-121227000I0J875000D01*
G01*
G37*
G04 #@! TD.AperFunction*
G04 #@! TA.AperFunction,ComponentPad*
G36*
G01*
X107603000Y-116652000D02*
X107603000Y-114652000D01*
G75*
G02*
X108353000Y-113902000I750000J0D01*
G01*
X109853000Y-113902000D01*
G75*
G02*
X110603000Y-114652000I0J-750000D01*
G01*
X110603000Y-116652000D01*
G75*
G02*
X109853000Y-117402000I-750000J0D01*
G01*
X108353000Y-117402000D01*
G75*
G02*
X107603000Y-116652000I0J750000D01*
G01*
G37*
G04 #@! TD.AperFunction*
D19*
X115103000Y-115652000D03*
D20*
X157260000Y-75244800D03*
X157260000Y-77784800D03*
X154720000Y-75244800D03*
X154720000Y-77784800D03*
X152180000Y-75244800D03*
X152180000Y-77784800D03*
X149640000Y-75244800D03*
X149640000Y-77784800D03*
X147100000Y-75244800D03*
X147100000Y-77784800D03*
X144560000Y-75244800D03*
X144560000Y-77784800D03*
X142020000Y-75244800D03*
X142020000Y-77784800D03*
X139480000Y-75244800D03*
X139480000Y-77784800D03*
X136940000Y-75244800D03*
X136940000Y-77784800D03*
X134400000Y-75244800D03*
X134400000Y-77784800D03*
X131860000Y-75244800D03*
X131860000Y-77784800D03*
X129320000Y-75244800D03*
X129320000Y-77784800D03*
X126780000Y-75244800D03*
X126780000Y-77784800D03*
X124240000Y-75244800D03*
X124240000Y-77784800D03*
X121700000Y-75244800D03*
X121700000Y-77784800D03*
X119160000Y-75244800D03*
X119160000Y-77784800D03*
X116620000Y-75244800D03*
X116620000Y-77784800D03*
X114080000Y-75244800D03*
X114080000Y-77784800D03*
X111540000Y-75244800D03*
X111540000Y-77784800D03*
X109000000Y-75244800D03*
D21*
X109000000Y-77784800D03*
G04 #@! TA.AperFunction,SMDPad,CuDef*
G36*
G01*
X111537600Y-127453000D02*
X111537600Y-126203000D01*
G75*
G02*
X111787600Y-125953000I250000J0D01*
G01*
X112537600Y-125953000D01*
G75*
G02*
X112787600Y-126203000I0J-250000D01*
G01*
X112787600Y-127453000D01*
G75*
G02*
X112537600Y-127703000I-250000J0D01*
G01*
X111787600Y-127703000D01*
G75*
G02*
X111537600Y-127453000I0J250000D01*
G01*
G37*
G04 #@! TD.AperFunction*
G04 #@! TA.AperFunction,SMDPad,CuDef*
G36*
G01*
X108737600Y-127453000D02*
X108737600Y-126203000D01*
G75*
G02*
X108987600Y-125953000I250000J0D01*
G01*
X109737600Y-125953000D01*
G75*
G02*
X109987600Y-126203000I0J-250000D01*
G01*
X109987600Y-127453000D01*
G75*
G02*
X109737600Y-127703000I-250000J0D01*
G01*
X108987600Y-127703000D01*
G75*
G02*
X108737600Y-127453000I0J250000D01*
G01*
G37*
G04 #@! TD.AperFunction*
G04 #@! TA.AperFunction,SMDPad,CuDef*
G36*
G01*
X142739150Y-101219900D02*
X143651650Y-101219900D01*
G75*
G02*
X143895400Y-101463650I0J-243750D01*
G01*
X143895400Y-101951150D01*
G75*
G02*
X143651650Y-102194900I-243750J0D01*
G01*
X142739150Y-102194900D01*
G75*
G02*
X142495400Y-101951150I0J243750D01*
G01*
X142495400Y-101463650D01*
G75*
G02*
X142739150Y-101219900I243750J0D01*
G01*
G37*
G04 #@! TD.AperFunction*
G04 #@! TA.AperFunction,SMDPad,CuDef*
G36*
G01*
X142739150Y-99344900D02*
X143651650Y-99344900D01*
G75*
G02*
X143895400Y-99588650I0J-243750D01*
G01*
X143895400Y-100076150D01*
G75*
G02*
X143651650Y-100319900I-243750J0D01*
G01*
X142739150Y-100319900D01*
G75*
G02*
X142495400Y-100076150I0J243750D01*
G01*
X142495400Y-99588650D01*
G75*
G02*
X142739150Y-99344900I243750J0D01*
G01*
G37*
G04 #@! TD.AperFunction*
G04 #@! TA.AperFunction,SMDPad,CuDef*
G36*
G01*
X141729400Y-104807150D02*
X141729400Y-105719650D01*
G75*
G02*
X141485650Y-105963400I-243750J0D01*
G01*
X140998150Y-105963400D01*
G75*
G02*
X140754400Y-105719650I0J243750D01*
G01*
X140754400Y-104807150D01*
G75*
G02*
X140998150Y-104563400I243750J0D01*
G01*
X141485650Y-104563400D01*
G75*
G02*
X141729400Y-104807150I0J-243750D01*
G01*
G37*
G04 #@! TD.AperFunction*
G04 #@! TA.AperFunction,SMDPad,CuDef*
G36*
G01*
X143604400Y-104807150D02*
X143604400Y-105719650D01*
G75*
G02*
X143360650Y-105963400I-243750J0D01*
G01*
X142873150Y-105963400D01*
G75*
G02*
X142629400Y-105719650I0J243750D01*
G01*
X142629400Y-104807150D01*
G75*
G02*
X142873150Y-104563400I243750J0D01*
G01*
X143360650Y-104563400D01*
G75*
G02*
X143604400Y-104807150I0J-243750D01*
G01*
G37*
G04 #@! TD.AperFunction*
G04 #@! TA.AperFunction,SMDPad,CuDef*
G36*
G01*
X123435150Y-101219900D02*
X124347650Y-101219900D01*
G75*
G02*
X124591400Y-101463650I0J-243750D01*
G01*
X124591400Y-101951150D01*
G75*
G02*
X124347650Y-102194900I-243750J0D01*
G01*
X123435150Y-102194900D01*
G75*
G02*
X123191400Y-101951150I0J243750D01*
G01*
X123191400Y-101463650D01*
G75*
G02*
X123435150Y-101219900I243750J0D01*
G01*
G37*
G04 #@! TD.AperFunction*
G04 #@! TA.AperFunction,SMDPad,CuDef*
G36*
G01*
X123435150Y-99344900D02*
X124347650Y-99344900D01*
G75*
G02*
X124591400Y-99588650I0J-243750D01*
G01*
X124591400Y-100076150D01*
G75*
G02*
X124347650Y-100319900I-243750J0D01*
G01*
X123435150Y-100319900D01*
G75*
G02*
X123191400Y-100076150I0J243750D01*
G01*
X123191400Y-99588650D01*
G75*
G02*
X123435150Y-99344900I243750J0D01*
G01*
G37*
G04 #@! TD.AperFunction*
G04 #@! TA.AperFunction,SMDPad,CuDef*
G36*
G01*
X122423100Y-104807150D02*
X122423100Y-105719650D01*
G75*
G02*
X122179350Y-105963400I-243750J0D01*
G01*
X121691850Y-105963400D01*
G75*
G02*
X121448100Y-105719650I0J243750D01*
G01*
X121448100Y-104807150D01*
G75*
G02*
X121691850Y-104563400I243750J0D01*
G01*
X122179350Y-104563400D01*
G75*
G02*
X122423100Y-104807150I0J-243750D01*
G01*
G37*
G04 #@! TD.AperFunction*
G04 #@! TA.AperFunction,SMDPad,CuDef*
G36*
G01*
X124298100Y-104807150D02*
X124298100Y-105719650D01*
G75*
G02*
X124054350Y-105963400I-243750J0D01*
G01*
X123566850Y-105963400D01*
G75*
G02*
X123323100Y-105719650I0J243750D01*
G01*
X123323100Y-104807150D01*
G75*
G02*
X123566850Y-104563400I243750J0D01*
G01*
X124054350Y-104563400D01*
G75*
G02*
X124298100Y-104807150I0J-243750D01*
G01*
G37*
G04 #@! TD.AperFunction*
G04 #@! TA.AperFunction,SMDPad,CuDef*
G36*
G01*
X117556250Y-106312500D02*
X116643750Y-106312500D01*
G75*
G02*
X116400000Y-106068750I0J243750D01*
G01*
X116400000Y-105581250D01*
G75*
G02*
X116643750Y-105337500I243750J0D01*
G01*
X117556250Y-105337500D01*
G75*
G02*
X117800000Y-105581250I0J-243750D01*
G01*
X117800000Y-106068750D01*
G75*
G02*
X117556250Y-106312500I-243750J0D01*
G01*
G37*
G04 #@! TD.AperFunction*
G04 #@! TA.AperFunction,SMDPad,CuDef*
G36*
G01*
X117556250Y-108187500D02*
X116643750Y-108187500D01*
G75*
G02*
X116400000Y-107943750I0J243750D01*
G01*
X116400000Y-107456250D01*
G75*
G02*
X116643750Y-107212500I243750J0D01*
G01*
X117556250Y-107212500D01*
G75*
G02*
X117800000Y-107456250I0J-243750D01*
G01*
X117800000Y-107943750D01*
G75*
G02*
X117556250Y-108187500I-243750J0D01*
G01*
G37*
G04 #@! TD.AperFunction*
G04 #@! TA.AperFunction,SMDPad,CuDef*
G36*
G01*
X110122000Y-106466000D02*
X110122000Y-107566000D01*
G75*
G02*
X109872000Y-107816000I-250000J0D01*
G01*
X106872000Y-107816000D01*
G75*
G02*
X106622000Y-107566000I0J250000D01*
G01*
X106622000Y-106466000D01*
G75*
G02*
X106872000Y-106216000I250000J0D01*
G01*
X109872000Y-106216000D01*
G75*
G02*
X110122000Y-106466000I0J-250000D01*
G01*
G37*
G04 #@! TD.AperFunction*
G04 #@! TA.AperFunction,SMDPad,CuDef*
G36*
G01*
X115522000Y-106466000D02*
X115522000Y-107566000D01*
G75*
G02*
X115272000Y-107816000I-250000J0D01*
G01*
X112272000Y-107816000D01*
G75*
G02*
X112022000Y-107566000I0J250000D01*
G01*
X112022000Y-106466000D01*
G75*
G02*
X112272000Y-106216000I250000J0D01*
G01*
X115272000Y-106216000D01*
G75*
G02*
X115522000Y-106466000I0J-250000D01*
G01*
G37*
G04 #@! TD.AperFunction*
G04 #@! TA.AperFunction,SMDPad,CuDef*
G36*
G01*
X144573001Y-88283000D02*
X141722999Y-88283000D01*
G75*
G02*
X141473000Y-88033001I0J249999D01*
G01*
X141473000Y-87182999D01*
G75*
G02*
X141722999Y-86933000I249999J0D01*
G01*
X144573001Y-86933000D01*
G75*
G02*
X144823000Y-87182999I0J-249999D01*
G01*
X144823000Y-88033001D01*
G75*
G02*
X144573001Y-88283000I-249999J0D01*
G01*
G37*
G04 #@! TD.AperFunction*
G04 #@! TA.AperFunction,SMDPad,CuDef*
G36*
G01*
X144573001Y-94083000D02*
X141722999Y-94083000D01*
G75*
G02*
X141473000Y-93833001I0J249999D01*
G01*
X141473000Y-92982999D01*
G75*
G02*
X141722999Y-92733000I249999J0D01*
G01*
X144573001Y-92733000D01*
G75*
G02*
X144823000Y-92982999I0J-249999D01*
G01*
X144823000Y-93833001D01*
G75*
G02*
X144573001Y-94083000I-249999J0D01*
G01*
G37*
G04 #@! TD.AperFunction*
G04 #@! TA.AperFunction,SMDPad,CuDef*
G36*
G01*
X128043750Y-88812500D02*
X128956250Y-88812500D01*
G75*
G02*
X129200000Y-89056250I0J-243750D01*
G01*
X129200000Y-89543750D01*
G75*
G02*
X128956250Y-89787500I-243750J0D01*
G01*
X128043750Y-89787500D01*
G75*
G02*
X127800000Y-89543750I0J243750D01*
G01*
X127800000Y-89056250D01*
G75*
G02*
X128043750Y-88812500I243750J0D01*
G01*
G37*
G04 #@! TD.AperFunction*
G04 #@! TA.AperFunction,SMDPad,CuDef*
G36*
G01*
X128043750Y-86937500D02*
X128956250Y-86937500D01*
G75*
G02*
X129200000Y-87181250I0J-243750D01*
G01*
X129200000Y-87668750D01*
G75*
G02*
X128956250Y-87912500I-243750J0D01*
G01*
X128043750Y-87912500D01*
G75*
G02*
X127800000Y-87668750I0J243750D01*
G01*
X127800000Y-87181250D01*
G75*
G02*
X128043750Y-86937500I243750J0D01*
G01*
G37*
G04 #@! TD.AperFunction*
G04 #@! TA.AperFunction,SMDPad,CuDef*
G36*
G01*
X151396999Y-117618600D02*
X154247001Y-117618600D01*
G75*
G02*
X154497000Y-117868599I0J-249999D01*
G01*
X154497000Y-118718601D01*
G75*
G02*
X154247001Y-118968600I-249999J0D01*
G01*
X151396999Y-118968600D01*
G75*
G02*
X151147000Y-118718601I0J249999D01*
G01*
X151147000Y-117868599D01*
G75*
G02*
X151396999Y-117618600I249999J0D01*
G01*
G37*
G04 #@! TD.AperFunction*
G04 #@! TA.AperFunction,SMDPad,CuDef*
G36*
G01*
X151396999Y-111818600D02*
X154247001Y-111818600D01*
G75*
G02*
X154497000Y-112068599I0J-249999D01*
G01*
X154497000Y-112918601D01*
G75*
G02*
X154247001Y-113168600I-249999J0D01*
G01*
X151396999Y-113168600D01*
G75*
G02*
X151147000Y-112918601I0J249999D01*
G01*
X151147000Y-112068599D01*
G75*
G02*
X151396999Y-111818600I249999J0D01*
G01*
G37*
G04 #@! TD.AperFunction*
G04 #@! TA.AperFunction,SMDPad,CuDef*
G36*
G01*
X140681750Y-113737500D02*
X141594250Y-113737500D01*
G75*
G02*
X141838000Y-113981250I0J-243750D01*
G01*
X141838000Y-114468750D01*
G75*
G02*
X141594250Y-114712500I-243750J0D01*
G01*
X140681750Y-114712500D01*
G75*
G02*
X140438000Y-114468750I0J243750D01*
G01*
X140438000Y-113981250D01*
G75*
G02*
X140681750Y-113737500I243750J0D01*
G01*
G37*
G04 #@! TD.AperFunction*
G04 #@! TA.AperFunction,SMDPad,CuDef*
G36*
G01*
X140681750Y-111862500D02*
X141594250Y-111862500D01*
G75*
G02*
X141838000Y-112106250I0J-243750D01*
G01*
X141838000Y-112593750D01*
G75*
G02*
X141594250Y-112837500I-243750J0D01*
G01*
X140681750Y-112837500D01*
G75*
G02*
X140438000Y-112593750I0J243750D01*
G01*
X140438000Y-112106250D01*
G75*
G02*
X140681750Y-111862500I243750J0D01*
G01*
G37*
G04 #@! TD.AperFunction*
G04 #@! TA.AperFunction,SMDPad,CuDef*
G36*
G01*
X142735599Y-117576600D02*
X145585601Y-117576600D01*
G75*
G02*
X145835600Y-117826599I0J-249999D01*
G01*
X145835600Y-118676601D01*
G75*
G02*
X145585601Y-118926600I-249999J0D01*
G01*
X142735599Y-118926600D01*
G75*
G02*
X142485600Y-118676601I0J249999D01*
G01*
X142485600Y-117826599D01*
G75*
G02*
X142735599Y-117576600I249999J0D01*
G01*
G37*
G04 #@! TD.AperFunction*
G04 #@! TA.AperFunction,SMDPad,CuDef*
G36*
G01*
X142735599Y-111776600D02*
X145585601Y-111776600D01*
G75*
G02*
X145835600Y-112026599I0J-249999D01*
G01*
X145835600Y-112876601D01*
G75*
G02*
X145585601Y-113126600I-249999J0D01*
G01*
X142735599Y-113126600D01*
G75*
G02*
X142485600Y-112876601I0J249999D01*
G01*
X142485600Y-112026599D01*
G75*
G02*
X142735599Y-111776600I249999J0D01*
G01*
G37*
G04 #@! TD.AperFunction*
G04 #@! TA.AperFunction,SMDPad,CuDef*
G36*
G01*
X154925001Y-88275000D02*
X152074999Y-88275000D01*
G75*
G02*
X151825000Y-88025001I0J249999D01*
G01*
X151825000Y-87174999D01*
G75*
G02*
X152074999Y-86925000I249999J0D01*
G01*
X154925001Y-86925000D01*
G75*
G02*
X155175000Y-87174999I0J-249999D01*
G01*
X155175000Y-88025001D01*
G75*
G02*
X154925001Y-88275000I-249999J0D01*
G01*
G37*
G04 #@! TD.AperFunction*
G04 #@! TA.AperFunction,SMDPad,CuDef*
G36*
G01*
X154925001Y-94075000D02*
X152074999Y-94075000D01*
G75*
G02*
X151825000Y-93825001I0J249999D01*
G01*
X151825000Y-92974999D01*
G75*
G02*
X152074999Y-92725000I249999J0D01*
G01*
X154925001Y-92725000D01*
G75*
G02*
X155175000Y-92974999I0J-249999D01*
G01*
X155175000Y-93825001D01*
G75*
G02*
X154925001Y-94075000I-249999J0D01*
G01*
G37*
G04 #@! TD.AperFunction*
G04 #@! TA.AperFunction,SMDPad,CuDef*
G36*
G01*
X123710999Y-117618600D02*
X126561001Y-117618600D01*
G75*
G02*
X126811000Y-117868599I0J-249999D01*
G01*
X126811000Y-118718601D01*
G75*
G02*
X126561001Y-118968600I-249999J0D01*
G01*
X123710999Y-118968600D01*
G75*
G02*
X123461000Y-118718601I0J249999D01*
G01*
X123461000Y-117868599D01*
G75*
G02*
X123710999Y-117618600I249999J0D01*
G01*
G37*
G04 #@! TD.AperFunction*
G04 #@! TA.AperFunction,SMDPad,CuDef*
G36*
G01*
X123710999Y-111818600D02*
X126561001Y-111818600D01*
G75*
G02*
X126811000Y-112068599I0J-249999D01*
G01*
X126811000Y-112918601D01*
G75*
G02*
X126561001Y-113168600I-249999J0D01*
G01*
X123710999Y-113168600D01*
G75*
G02*
X123461000Y-112918601I0J249999D01*
G01*
X123461000Y-112068599D01*
G75*
G02*
X123710999Y-111818600I249999J0D01*
G01*
G37*
G04 #@! TD.AperFunction*
G04 #@! TA.AperFunction,SMDPad,CuDef*
G36*
G01*
X133108999Y-117618600D02*
X135959001Y-117618600D01*
G75*
G02*
X136209000Y-117868599I0J-249999D01*
G01*
X136209000Y-118718601D01*
G75*
G02*
X135959001Y-118968600I-249999J0D01*
G01*
X133108999Y-118968600D01*
G75*
G02*
X132859000Y-118718601I0J249999D01*
G01*
X132859000Y-117868599D01*
G75*
G02*
X133108999Y-117618600I249999J0D01*
G01*
G37*
G04 #@! TD.AperFunction*
G04 #@! TA.AperFunction,SMDPad,CuDef*
G36*
G01*
X133108999Y-111818600D02*
X135959001Y-111818600D01*
G75*
G02*
X136209000Y-112068599I0J-249999D01*
G01*
X136209000Y-112918601D01*
G75*
G02*
X135959001Y-113168600I-249999J0D01*
G01*
X133108999Y-113168600D01*
G75*
G02*
X132859000Y-112918601I0J249999D01*
G01*
X132859000Y-112068599D01*
G75*
G02*
X133108999Y-111818600I249999J0D01*
G01*
G37*
G04 #@! TD.AperFunction*
G04 #@! TA.AperFunction,SMDPad,CuDef*
G36*
G01*
X136125001Y-88275000D02*
X133274999Y-88275000D01*
G75*
G02*
X133025000Y-88025001I0J249999D01*
G01*
X133025000Y-87174999D01*
G75*
G02*
X133274999Y-86925000I249999J0D01*
G01*
X136125001Y-86925000D01*
G75*
G02*
X136375000Y-87174999I0J-249999D01*
G01*
X136375000Y-88025001D01*
G75*
G02*
X136125001Y-88275000I-249999J0D01*
G01*
G37*
G04 #@! TD.AperFunction*
G04 #@! TA.AperFunction,SMDPad,CuDef*
G36*
G01*
X136125001Y-94075000D02*
X133274999Y-94075000D01*
G75*
G02*
X133025000Y-93825001I0J249999D01*
G01*
X133025000Y-92974999D01*
G75*
G02*
X133274999Y-92725000I249999J0D01*
G01*
X136125001Y-92725000D01*
G75*
G02*
X136375000Y-92974999I0J-249999D01*
G01*
X136375000Y-93825001D01*
G75*
G02*
X136125001Y-94075000I-249999J0D01*
G01*
G37*
G04 #@! TD.AperFunction*
G04 #@! TA.AperFunction,SMDPad,CuDef*
G36*
G01*
X126942001Y-88283000D02*
X124091999Y-88283000D01*
G75*
G02*
X123842000Y-88033001I0J249999D01*
G01*
X123842000Y-87182999D01*
G75*
G02*
X124091999Y-86933000I249999J0D01*
G01*
X126942001Y-86933000D01*
G75*
G02*
X127192000Y-87182999I0J-249999D01*
G01*
X127192000Y-88033001D01*
G75*
G02*
X126942001Y-88283000I-249999J0D01*
G01*
G37*
G04 #@! TD.AperFunction*
G04 #@! TA.AperFunction,SMDPad,CuDef*
G36*
G01*
X126942001Y-94083000D02*
X124091999Y-94083000D01*
G75*
G02*
X123842000Y-93833001I0J249999D01*
G01*
X123842000Y-92982999D01*
G75*
G02*
X124091999Y-92733000I249999J0D01*
G01*
X126942001Y-92733000D01*
G75*
G02*
X127192000Y-92982999I0J-249999D01*
G01*
X127192000Y-93833001D01*
G75*
G02*
X126942001Y-94083000I-249999J0D01*
G01*
G37*
G04 #@! TD.AperFunction*
G04 #@! TA.AperFunction,SMDPad,CuDef*
G36*
G01*
X140707150Y-101219900D02*
X141619650Y-101219900D01*
G75*
G02*
X141863400Y-101463650I0J-243750D01*
G01*
X141863400Y-101951150D01*
G75*
G02*
X141619650Y-102194900I-243750J0D01*
G01*
X140707150Y-102194900D01*
G75*
G02*
X140463400Y-101951150I0J243750D01*
G01*
X140463400Y-101463650D01*
G75*
G02*
X140707150Y-101219900I243750J0D01*
G01*
G37*
G04 #@! TD.AperFunction*
G04 #@! TA.AperFunction,SMDPad,CuDef*
G36*
G01*
X140707150Y-99344900D02*
X141619650Y-99344900D01*
G75*
G02*
X141863400Y-99588650I0J-243750D01*
G01*
X141863400Y-100076150D01*
G75*
G02*
X141619650Y-100319900I-243750J0D01*
G01*
X140707150Y-100319900D01*
G75*
G02*
X140463400Y-100076150I0J243750D01*
G01*
X140463400Y-99588650D01*
G75*
G02*
X140707150Y-99344900I243750J0D01*
G01*
G37*
G04 #@! TD.AperFunction*
G04 #@! TA.AperFunction,SMDPad,CuDef*
G36*
G01*
X140556250Y-92150000D02*
X139643750Y-92150000D01*
G75*
G02*
X139400000Y-91906250I0J243750D01*
G01*
X139400000Y-91418750D01*
G75*
G02*
X139643750Y-91175000I243750J0D01*
G01*
X140556250Y-91175000D01*
G75*
G02*
X140800000Y-91418750I0J-243750D01*
G01*
X140800000Y-91906250D01*
G75*
G02*
X140556250Y-92150000I-243750J0D01*
G01*
G37*
G04 #@! TD.AperFunction*
G04 #@! TA.AperFunction,SMDPad,CuDef*
G36*
G01*
X140556250Y-94025000D02*
X139643750Y-94025000D01*
G75*
G02*
X139400000Y-93781250I0J243750D01*
G01*
X139400000Y-93293750D01*
G75*
G02*
X139643750Y-93050000I243750J0D01*
G01*
X140556250Y-93050000D01*
G75*
G02*
X140800000Y-93293750I0J-243750D01*
G01*
X140800000Y-93781250D01*
G75*
G02*
X140556250Y-94025000I-243750J0D01*
G01*
G37*
G04 #@! TD.AperFunction*
G04 #@! TA.AperFunction,SMDPad,CuDef*
G36*
G01*
X146726950Y-113737500D02*
X147639450Y-113737500D01*
G75*
G02*
X147883200Y-113981250I0J-243750D01*
G01*
X147883200Y-114468750D01*
G75*
G02*
X147639450Y-114712500I-243750J0D01*
G01*
X146726950Y-114712500D01*
G75*
G02*
X146483200Y-114468750I0J243750D01*
G01*
X146483200Y-113981250D01*
G75*
G02*
X146726950Y-113737500I243750J0D01*
G01*
G37*
G04 #@! TD.AperFunction*
G04 #@! TA.AperFunction,SMDPad,CuDef*
G36*
G01*
X146726950Y-111862500D02*
X147639450Y-111862500D01*
G75*
G02*
X147883200Y-112106250I0J-243750D01*
G01*
X147883200Y-112593750D01*
G75*
G02*
X147639450Y-112837500I-243750J0D01*
G01*
X146726950Y-112837500D01*
G75*
G02*
X146483200Y-112593750I0J243750D01*
G01*
X146483200Y-112106250D01*
G75*
G02*
X146726950Y-111862500I243750J0D01*
G01*
G37*
G04 #@! TD.AperFunction*
G04 #@! TA.AperFunction,SMDPad,CuDef*
G36*
G01*
X153512500Y-110756250D02*
X153512500Y-109843750D01*
G75*
G02*
X153756250Y-109600000I243750J0D01*
G01*
X154243750Y-109600000D01*
G75*
G02*
X154487500Y-109843750I0J-243750D01*
G01*
X154487500Y-110756250D01*
G75*
G02*
X154243750Y-111000000I-243750J0D01*
G01*
X153756250Y-111000000D01*
G75*
G02*
X153512500Y-110756250I0J243750D01*
G01*
G37*
G04 #@! TD.AperFunction*
G04 #@! TA.AperFunction,SMDPad,CuDef*
G36*
G01*
X151637500Y-110756250D02*
X151637500Y-109843750D01*
G75*
G02*
X151881250Y-109600000I243750J0D01*
G01*
X152368750Y-109600000D01*
G75*
G02*
X152612500Y-109843750I0J-243750D01*
G01*
X152612500Y-110756250D01*
G75*
G02*
X152368750Y-111000000I-243750J0D01*
G01*
X151881250Y-111000000D01*
G75*
G02*
X151637500Y-110756250I0J243750D01*
G01*
G37*
G04 #@! TD.AperFunction*
G04 #@! TA.AperFunction,SMDPad,CuDef*
G36*
G01*
X155287500Y-95956250D02*
X155287500Y-95043750D01*
G75*
G02*
X155531250Y-94800000I243750J0D01*
G01*
X156018750Y-94800000D01*
G75*
G02*
X156262500Y-95043750I0J-243750D01*
G01*
X156262500Y-95956250D01*
G75*
G02*
X156018750Y-96200000I-243750J0D01*
G01*
X155531250Y-96200000D01*
G75*
G02*
X155287500Y-95956250I0J243750D01*
G01*
G37*
G04 #@! TD.AperFunction*
G04 #@! TA.AperFunction,SMDPad,CuDef*
G36*
G01*
X153412500Y-95956250D02*
X153412500Y-95043750D01*
G75*
G02*
X153656250Y-94800000I243750J0D01*
G01*
X154143750Y-94800000D01*
G75*
G02*
X154387500Y-95043750I0J-243750D01*
G01*
X154387500Y-95956250D01*
G75*
G02*
X154143750Y-96200000I-243750J0D01*
G01*
X153656250Y-96200000D01*
G75*
G02*
X153412500Y-95956250I0J243750D01*
G01*
G37*
G04 #@! TD.AperFunction*
G04 #@! TA.AperFunction,SMDPad,CuDef*
G36*
G01*
X150956250Y-92187500D02*
X150043750Y-92187500D01*
G75*
G02*
X149800000Y-91943750I0J243750D01*
G01*
X149800000Y-91456250D01*
G75*
G02*
X150043750Y-91212500I243750J0D01*
G01*
X150956250Y-91212500D01*
G75*
G02*
X151200000Y-91456250I0J-243750D01*
G01*
X151200000Y-91943750D01*
G75*
G02*
X150956250Y-92187500I-243750J0D01*
G01*
G37*
G04 #@! TD.AperFunction*
G04 #@! TA.AperFunction,SMDPad,CuDef*
G36*
G01*
X150956250Y-94062500D02*
X150043750Y-94062500D01*
G75*
G02*
X149800000Y-93818750I0J243750D01*
G01*
X149800000Y-93331250D01*
G75*
G02*
X150043750Y-93087500I243750J0D01*
G01*
X150956250Y-93087500D01*
G75*
G02*
X151200000Y-93331250I0J-243750D01*
G01*
X151200000Y-93818750D01*
G75*
G02*
X150956250Y-94062500I-243750J0D01*
G01*
G37*
G04 #@! TD.AperFunction*
G04 #@! TA.AperFunction,SMDPad,CuDef*
G36*
G01*
X146556250Y-92212500D02*
X145643750Y-92212500D01*
G75*
G02*
X145400000Y-91968750I0J243750D01*
G01*
X145400000Y-91481250D01*
G75*
G02*
X145643750Y-91237500I243750J0D01*
G01*
X146556250Y-91237500D01*
G75*
G02*
X146800000Y-91481250I0J-243750D01*
G01*
X146800000Y-91968750D01*
G75*
G02*
X146556250Y-92212500I-243750J0D01*
G01*
G37*
G04 #@! TD.AperFunction*
G04 #@! TA.AperFunction,SMDPad,CuDef*
G36*
G01*
X146556250Y-94087500D02*
X145643750Y-94087500D01*
G75*
G02*
X145400000Y-93843750I0J243750D01*
G01*
X145400000Y-93356250D01*
G75*
G02*
X145643750Y-93112500I243750J0D01*
G01*
X146556250Y-93112500D01*
G75*
G02*
X146800000Y-93356250I0J-243750D01*
G01*
X146800000Y-93843750D01*
G75*
G02*
X146556250Y-94087500I-243750J0D01*
G01*
G37*
G04 #@! TD.AperFunction*
G04 #@! TA.AperFunction,SMDPad,CuDef*
G36*
G01*
X121428550Y-101219900D02*
X122341050Y-101219900D01*
G75*
G02*
X122584800Y-101463650I0J-243750D01*
G01*
X122584800Y-101951150D01*
G75*
G02*
X122341050Y-102194900I-243750J0D01*
G01*
X121428550Y-102194900D01*
G75*
G02*
X121184800Y-101951150I0J243750D01*
G01*
X121184800Y-101463650D01*
G75*
G02*
X121428550Y-101219900I243750J0D01*
G01*
G37*
G04 #@! TD.AperFunction*
G04 #@! TA.AperFunction,SMDPad,CuDef*
G36*
G01*
X121428550Y-99344900D02*
X122341050Y-99344900D01*
G75*
G02*
X122584800Y-99588650I0J-243750D01*
G01*
X122584800Y-100076150D01*
G75*
G02*
X122341050Y-100319900I-243750J0D01*
G01*
X121428550Y-100319900D01*
G75*
G02*
X121184800Y-100076150I0J243750D01*
G01*
X121184800Y-99588650D01*
G75*
G02*
X121428550Y-99344900I243750J0D01*
G01*
G37*
G04 #@! TD.AperFunction*
G04 #@! TA.AperFunction,SMDPad,CuDef*
G36*
G01*
X121657150Y-113716700D02*
X122569650Y-113716700D01*
G75*
G02*
X122813400Y-113960450I0J-243750D01*
G01*
X122813400Y-114447950D01*
G75*
G02*
X122569650Y-114691700I-243750J0D01*
G01*
X121657150Y-114691700D01*
G75*
G02*
X121413400Y-114447950I0J243750D01*
G01*
X121413400Y-113960450D01*
G75*
G02*
X121657150Y-113716700I243750J0D01*
G01*
G37*
G04 #@! TD.AperFunction*
G04 #@! TA.AperFunction,SMDPad,CuDef*
G36*
G01*
X121657150Y-111841700D02*
X122569650Y-111841700D01*
G75*
G02*
X122813400Y-112085450I0J-243750D01*
G01*
X122813400Y-112572950D01*
G75*
G02*
X122569650Y-112816700I-243750J0D01*
G01*
X121657150Y-112816700D01*
G75*
G02*
X121413400Y-112572950I0J243750D01*
G01*
X121413400Y-112085450D01*
G75*
G02*
X121657150Y-111841700I243750J0D01*
G01*
G37*
G04 #@! TD.AperFunction*
G04 #@! TA.AperFunction,SMDPad,CuDef*
G36*
G01*
X127727750Y-113742100D02*
X128640250Y-113742100D01*
G75*
G02*
X128884000Y-113985850I0J-243750D01*
G01*
X128884000Y-114473350D01*
G75*
G02*
X128640250Y-114717100I-243750J0D01*
G01*
X127727750Y-114717100D01*
G75*
G02*
X127484000Y-114473350I0J243750D01*
G01*
X127484000Y-113985850D01*
G75*
G02*
X127727750Y-113742100I243750J0D01*
G01*
G37*
G04 #@! TD.AperFunction*
G04 #@! TA.AperFunction,SMDPad,CuDef*
G36*
G01*
X127727750Y-111867100D02*
X128640250Y-111867100D01*
G75*
G02*
X128884000Y-112110850I0J-243750D01*
G01*
X128884000Y-112598350D01*
G75*
G02*
X128640250Y-112842100I-243750J0D01*
G01*
X127727750Y-112842100D01*
G75*
G02*
X127484000Y-112598350I0J243750D01*
G01*
X127484000Y-112110850D01*
G75*
G02*
X127727750Y-111867100I243750J0D01*
G01*
G37*
G04 #@! TD.AperFunction*
G04 #@! TA.AperFunction,SMDPad,CuDef*
G36*
G01*
X122925250Y-92150000D02*
X122012750Y-92150000D01*
G75*
G02*
X121769000Y-91906250I0J243750D01*
G01*
X121769000Y-91418750D01*
G75*
G02*
X122012750Y-91175000I243750J0D01*
G01*
X122925250Y-91175000D01*
G75*
G02*
X123169000Y-91418750I0J-243750D01*
G01*
X123169000Y-91906250D01*
G75*
G02*
X122925250Y-92150000I-243750J0D01*
G01*
G37*
G04 #@! TD.AperFunction*
G04 #@! TA.AperFunction,SMDPad,CuDef*
G36*
G01*
X122925250Y-94025000D02*
X122012750Y-94025000D01*
G75*
G02*
X121769000Y-93781250I0J243750D01*
G01*
X121769000Y-93293750D01*
G75*
G02*
X122012750Y-93050000I243750J0D01*
G01*
X122925250Y-93050000D01*
G75*
G02*
X123169000Y-93293750I0J-243750D01*
G01*
X123169000Y-93781250D01*
G75*
G02*
X122925250Y-94025000I-243750J0D01*
G01*
G37*
G04 #@! TD.AperFunction*
G04 #@! TA.AperFunction,SMDPad,CuDef*
G36*
G01*
X135212500Y-110656250D02*
X135212500Y-109743750D01*
G75*
G02*
X135456250Y-109500000I243750J0D01*
G01*
X135943750Y-109500000D01*
G75*
G02*
X136187500Y-109743750I0J-243750D01*
G01*
X136187500Y-110656250D01*
G75*
G02*
X135943750Y-110900000I-243750J0D01*
G01*
X135456250Y-110900000D01*
G75*
G02*
X135212500Y-110656250I0J243750D01*
G01*
G37*
G04 #@! TD.AperFunction*
G04 #@! TA.AperFunction,SMDPad,CuDef*
G36*
G01*
X133337500Y-110656250D02*
X133337500Y-109743750D01*
G75*
G02*
X133581250Y-109500000I243750J0D01*
G01*
X134068750Y-109500000D01*
G75*
G02*
X134312500Y-109743750I0J-243750D01*
G01*
X134312500Y-110656250D01*
G75*
G02*
X134068750Y-110900000I-243750J0D01*
G01*
X133581250Y-110900000D01*
G75*
G02*
X133337500Y-110656250I0J243750D01*
G01*
G37*
G04 #@! TD.AperFunction*
G04 #@! TA.AperFunction,SMDPad,CuDef*
G36*
G01*
X136350000Y-95956250D02*
X136350000Y-95043750D01*
G75*
G02*
X136593750Y-94800000I243750J0D01*
G01*
X137081250Y-94800000D01*
G75*
G02*
X137325000Y-95043750I0J-243750D01*
G01*
X137325000Y-95956250D01*
G75*
G02*
X137081250Y-96200000I-243750J0D01*
G01*
X136593750Y-96200000D01*
G75*
G02*
X136350000Y-95956250I0J243750D01*
G01*
G37*
G04 #@! TD.AperFunction*
G04 #@! TA.AperFunction,SMDPad,CuDef*
G36*
G01*
X134475000Y-95956250D02*
X134475000Y-95043750D01*
G75*
G02*
X134718750Y-94800000I243750J0D01*
G01*
X135206250Y-94800000D01*
G75*
G02*
X135450000Y-95043750I0J-243750D01*
G01*
X135450000Y-95956250D01*
G75*
G02*
X135206250Y-96200000I-243750J0D01*
G01*
X134718750Y-96200000D01*
G75*
G02*
X134475000Y-95956250I0J243750D01*
G01*
G37*
G04 #@! TD.AperFunction*
G04 #@! TA.AperFunction,SMDPad,CuDef*
G36*
G01*
X129021250Y-92150000D02*
X128108750Y-92150000D01*
G75*
G02*
X127865000Y-91906250I0J243750D01*
G01*
X127865000Y-91418750D01*
G75*
G02*
X128108750Y-91175000I243750J0D01*
G01*
X129021250Y-91175000D01*
G75*
G02*
X129265000Y-91418750I0J-243750D01*
G01*
X129265000Y-91906250D01*
G75*
G02*
X129021250Y-92150000I-243750J0D01*
G01*
G37*
G04 #@! TD.AperFunction*
G04 #@! TA.AperFunction,SMDPad,CuDef*
G36*
G01*
X129021250Y-94025000D02*
X128108750Y-94025000D01*
G75*
G02*
X127865000Y-93781250I0J243750D01*
G01*
X127865000Y-93293750D01*
G75*
G02*
X128108750Y-93050000I243750J0D01*
G01*
X129021250Y-93050000D01*
G75*
G02*
X129265000Y-93293750I0J-243750D01*
G01*
X129265000Y-93781250D01*
G75*
G02*
X129021250Y-94025000I-243750J0D01*
G01*
G37*
G04 #@! TD.AperFunction*
G04 #@! TA.AperFunction,SMDPad,CuDef*
G36*
G01*
X142787500Y-81856250D02*
X142787500Y-80943750D01*
G75*
G02*
X143031250Y-80700000I243750J0D01*
G01*
X143518750Y-80700000D01*
G75*
G02*
X143762500Y-80943750I0J-243750D01*
G01*
X143762500Y-81856250D01*
G75*
G02*
X143518750Y-82100000I-243750J0D01*
G01*
X143031250Y-82100000D01*
G75*
G02*
X142787500Y-81856250I0J243750D01*
G01*
G37*
G04 #@! TD.AperFunction*
G04 #@! TA.AperFunction,SMDPad,CuDef*
G36*
G01*
X140912500Y-81856250D02*
X140912500Y-80943750D01*
G75*
G02*
X141156250Y-80700000I243750J0D01*
G01*
X141643750Y-80700000D01*
G75*
G02*
X141887500Y-80943750I0J-243750D01*
G01*
X141887500Y-81856250D01*
G75*
G02*
X141643750Y-82100000I-243750J0D01*
G01*
X141156250Y-82100000D01*
G75*
G02*
X140912500Y-81856250I0J243750D01*
G01*
G37*
G04 #@! TD.AperFunction*
D22*
X150688400Y-97287800D03*
X149393000Y-101478800D03*
X150688400Y-101478800D03*
X149393000Y-105517400D03*
X148072200Y-106812800D03*
X149393000Y-102698000D03*
X149393000Y-106812800D03*
X150688400Y-108108200D03*
X149393000Y-108108200D03*
X150688400Y-103968000D03*
X150688400Y-102672600D03*
X148072200Y-99878600D03*
X150688400Y-105517400D03*
X148072200Y-102698000D03*
X150688400Y-106812800D03*
X149393000Y-97287800D03*
X150688400Y-99878600D03*
X149393000Y-98583200D03*
X148072200Y-98583200D03*
X148072200Y-97287800D03*
X148072200Y-103968000D03*
X148072200Y-105517400D03*
X149393000Y-103968000D03*
X148072200Y-108108200D03*
X148072200Y-101478800D03*
X149393000Y-99878600D03*
X150688400Y-98583200D03*
X131282800Y-97313200D03*
X131282800Y-98608600D03*
X128666600Y-99904000D03*
X131282800Y-99904000D03*
X129987400Y-101504200D03*
X129987400Y-98608600D03*
X128666600Y-101504200D03*
X131282800Y-101504200D03*
X128666600Y-98608600D03*
X129987400Y-99904000D03*
X129987400Y-97313200D03*
X128666600Y-97313200D03*
X131282800Y-106838200D03*
X131282800Y-103993400D03*
X129987400Y-105542800D03*
X128666600Y-103993400D03*
X128666600Y-105542800D03*
X131282800Y-105542800D03*
X129987400Y-103993400D03*
X128666600Y-106838200D03*
X129987400Y-102723400D03*
X128666600Y-102723400D03*
X129987400Y-106838200D03*
X131282800Y-102698000D03*
X131282800Y-108133600D03*
X128666600Y-108133600D03*
X129987400Y-108133600D03*
X107559200Y-126802600D03*
X144186000Y-114204200D03*
X125136000Y-114204200D03*
X124551800Y-103510800D03*
X143805000Y-103510800D03*
X152800000Y-115000000D03*
X134500000Y-115300000D03*
X143200000Y-91700000D03*
X125500000Y-91700000D03*
X158500000Y-82200000D03*
X154600000Y-102200000D03*
X135700000Y-91400000D03*
X136657090Y-105100000D03*
D23*
X145430600Y-110470400D03*
X122545200Y-98303800D03*
X121148200Y-115982200D03*
X122494400Y-95459000D03*
D22*
X155200000Y-101300000D03*
X149943647Y-95243647D03*
X135700000Y-104200000D03*
X137601398Y-99898602D03*
X140800000Y-85400000D03*
X136685493Y-99923755D03*
X135650038Y-99950012D03*
X135700000Y-105118900D03*
X135700000Y-106300000D03*
X158100000Y-98800000D03*
X158800000Y-101700000D03*
X154674158Y-104823700D03*
X156047800Y-106617500D03*
D24*
X156514011Y-86627989D02*
X156514011Y-86627990D01*
X133772000Y-101478800D02*
X133772000Y-101961400D01*
X133772000Y-101961400D02*
X133772000Y-102469400D01*
X133772000Y-102469400D02*
X133772000Y-102977400D01*
X133772000Y-103968000D02*
X133772000Y-103485400D01*
X133772000Y-103485400D02*
X133772000Y-102977400D01*
X126202800Y-103968000D02*
X126202800Y-103485400D01*
X126202800Y-101478800D02*
X126202800Y-101961400D01*
X126202800Y-101961400D02*
X126202800Y-102469400D01*
X126202800Y-102469400D02*
X126202800Y-102977400D01*
X126202800Y-102977400D02*
X126202800Y-103485400D01*
X153076000Y-103968000D02*
X153076000Y-103485400D01*
X153076000Y-103485400D02*
X153076000Y-102977400D01*
X153076000Y-102977400D02*
X153076000Y-102469400D01*
X153076000Y-102469400D02*
X153076000Y-101961400D01*
X153076000Y-101961400D02*
X153076000Y-101478800D01*
X145506800Y-103968000D02*
X145506800Y-103485400D01*
X145506800Y-103485400D02*
X145506800Y-102977400D01*
X145506800Y-102469400D02*
X145506800Y-102977400D01*
X145506800Y-101961400D02*
X145506800Y-102469400D01*
X145506800Y-101478800D02*
X145506800Y-101961400D01*
X108372000Y-115476000D02*
X108928000Y-116032000D01*
X106340000Y-80600000D02*
X104308000Y-80600000D01*
X104308000Y-80600000D02*
X102276000Y-80600000D01*
X102276000Y-80600000D02*
X101275990Y-81600010D01*
X102022000Y-88982000D02*
X102022000Y-91014000D01*
X102276000Y-85202000D02*
X104181000Y-85202000D01*
X106086000Y-85202000D02*
X104181000Y-85202000D01*
X101275990Y-86202010D02*
X102276000Y-85202000D01*
X101275990Y-88235990D02*
X101275990Y-86202010D01*
X102022000Y-88982000D02*
X101275990Y-88235990D01*
X102276000Y-85202000D02*
X101275990Y-84201990D01*
X101275990Y-81600010D02*
X101275990Y-84201990D01*
X112929999Y-76394801D02*
X114080000Y-75244800D01*
X108149997Y-76394801D02*
X112929999Y-76394801D01*
X106086000Y-78458798D02*
X108149997Y-76394801D01*
X106086000Y-80600000D02*
X106086000Y-78458798D01*
X130709999Y-76394801D02*
X131860000Y-75244800D01*
X125390001Y-76394801D02*
X130709999Y-76394801D01*
X124240000Y-75244800D02*
X125390001Y-76394801D01*
X109362600Y-126828000D02*
X107584600Y-126828000D01*
X107584600Y-126828000D02*
X107559200Y-126802600D01*
X144165200Y-114225000D02*
X144186000Y-114204200D01*
X141138000Y-114225000D02*
X144165200Y-114225000D01*
X144206800Y-114225000D02*
X144186000Y-114204200D01*
X147183200Y-114225000D02*
X144206800Y-114225000D01*
X122113400Y-114204200D02*
X125136000Y-114204200D01*
X125161400Y-114229600D02*
X125136000Y-114204200D01*
X128184000Y-114229600D02*
X125161400Y-114229600D01*
X144160600Y-114229600D02*
X144186000Y-114204200D01*
X144160600Y-118251600D02*
X144160600Y-114229600D01*
X125136000Y-118293600D02*
X125136000Y-114204200D01*
X128560400Y-91928400D02*
X128565000Y-91933000D01*
X126202800Y-103485400D02*
X124577200Y-103485400D01*
X124577200Y-103485400D02*
X124551800Y-103510800D01*
X123688200Y-103510800D02*
X124551800Y-103510800D01*
X121935600Y-105263400D02*
X123688200Y-103510800D01*
X145506800Y-103485400D02*
X143830400Y-103485400D01*
X143830400Y-103485400D02*
X143805000Y-103510800D01*
X142994500Y-103510800D02*
X143805000Y-103510800D01*
X141241900Y-105263400D02*
X142994500Y-103510800D01*
X108372000Y-114921000D02*
X109103000Y-115652000D01*
X108372000Y-107016000D02*
X108372000Y-114921000D01*
X109563000Y-105825000D02*
X117100000Y-105825000D01*
X108372000Y-107016000D02*
X109563000Y-105825000D01*
X154797010Y-113146424D02*
X152943434Y-115000000D01*
X152943434Y-115000000D02*
X152800000Y-115000000D01*
X154000000Y-110300000D02*
X154797010Y-111097010D01*
X154797010Y-111097010D02*
X154797010Y-113146424D01*
X152822000Y-115022000D02*
X152800000Y-115000000D01*
X152822000Y-118293600D02*
X152822000Y-115022000D01*
X135700000Y-110200000D02*
X136509010Y-111009010D01*
X136509010Y-113290990D02*
X134500000Y-115300000D01*
X136509010Y-111009010D02*
X136509010Y-113290990D01*
X134534000Y-115334000D02*
X134500000Y-115300000D01*
X134534000Y-118293600D02*
X134534000Y-115334000D01*
D25*
X143581000Y-81108000D02*
X143581000Y-81851500D01*
D24*
X133323000Y-82682800D02*
X133323000Y-83317800D01*
X133323000Y-83317800D02*
X133323000Y-83978200D01*
X143148000Y-87608000D02*
X143148000Y-91648000D01*
X143148000Y-91648000D02*
X143200000Y-91700000D01*
X143225000Y-91725000D02*
X143200000Y-91700000D01*
X146100000Y-91725000D02*
X143225000Y-91725000D01*
X143033000Y-91533000D02*
X143200000Y-91700000D01*
X143162500Y-91662500D02*
X143200000Y-91700000D01*
X140100000Y-91662500D02*
X143162500Y-91662500D01*
X125517000Y-87608000D02*
X125517000Y-91683000D01*
X125517000Y-91683000D02*
X125500000Y-91700000D01*
X125462500Y-91662500D02*
X125500000Y-91700000D01*
X122469000Y-91662500D02*
X125462500Y-91662500D01*
X125537500Y-91662500D02*
X125500000Y-91700000D01*
X128565000Y-91662500D02*
X125537500Y-91662500D01*
X128500000Y-91597500D02*
X128565000Y-91662500D01*
X128500000Y-89300000D02*
X128500000Y-91597500D01*
X153500000Y-87600000D02*
X153500000Y-91700000D01*
X150500000Y-91700000D02*
X153500000Y-91700000D01*
X154427834Y-91700000D02*
X153500000Y-91700000D01*
X155775000Y-93047166D02*
X154427834Y-91700000D01*
X155775000Y-95500000D02*
X155775000Y-93047166D01*
X153500000Y-84140000D02*
X151992000Y-82632000D01*
X153500000Y-87600000D02*
X153500000Y-84140000D01*
X133272200Y-82632000D02*
X133323000Y-82682800D01*
X129132000Y-82632000D02*
X133272200Y-82632000D01*
X157111979Y-80811979D02*
X158500000Y-82200000D01*
X143275000Y-81400000D02*
X143863021Y-80811979D01*
X143863021Y-80811979D02*
X157111979Y-80811979D01*
X133323000Y-86223000D02*
X133323000Y-85934000D01*
X134700000Y-87600000D02*
X133323000Y-86223000D01*
X132286399Y-84078201D02*
X132386400Y-83978200D01*
X132386400Y-83978200D02*
X133323000Y-83978200D01*
X132286399Y-85691401D02*
X132286399Y-84078201D01*
X132528998Y-85934000D02*
X132286399Y-85691401D01*
X133323000Y-85934000D02*
X132528998Y-85934000D01*
X153076000Y-102469400D02*
X154330600Y-102469400D01*
X154330600Y-102469400D02*
X154600000Y-102200000D01*
X136837500Y-95500000D02*
X136837500Y-92537500D01*
X136837500Y-92537500D02*
X135700000Y-91400000D01*
X135936894Y-103485400D02*
X136657090Y-104205596D01*
X136657090Y-104205596D02*
X136657090Y-105100000D01*
X133772000Y-103485400D02*
X135936894Y-103485400D01*
D25*
X109896000Y-81108000D02*
X112436000Y-81108000D01*
X112436000Y-81108000D02*
X114976000Y-81108000D01*
X114976000Y-81108000D02*
X117516000Y-81108000D01*
X109000000Y-80212000D02*
X109896000Y-81108000D01*
X109000000Y-77784800D02*
X109000000Y-80212000D01*
X109896000Y-91776000D02*
X112436000Y-91776000D01*
X112436000Y-91776000D02*
X114976000Y-91776000D01*
X114976000Y-91776000D02*
X117516000Y-91776000D01*
X118766001Y-82358001D02*
X117516000Y-81108000D01*
X117516000Y-91776000D02*
X118766001Y-90525999D01*
X118766001Y-90525999D02*
X118766001Y-82866001D01*
X118766001Y-82866001D02*
X118766001Y-82358001D01*
X141519000Y-81108000D02*
X141265000Y-81362000D01*
D24*
X143297000Y-83853500D02*
X143502500Y-83648000D01*
D25*
X117516000Y-81108000D02*
X122528000Y-81108000D01*
X143277500Y-83277500D02*
X141400000Y-81400000D01*
X143277500Y-83648000D02*
X143277500Y-83277500D01*
X141362000Y-81362000D02*
X139165000Y-81362000D01*
X141400000Y-81400000D02*
X141362000Y-81362000D01*
X124052000Y-82632000D02*
X122528000Y-81108000D01*
X144293500Y-82632000D02*
X143277500Y-83648000D01*
X146912000Y-82632000D02*
X144293500Y-82632000D01*
D24*
X130371999Y-80007999D02*
X132386400Y-82022400D01*
X113763199Y-80007999D02*
X130371999Y-80007999D01*
X132386400Y-82022400D02*
X133323000Y-82022400D01*
X111540000Y-77784800D02*
X113763199Y-80007999D01*
X114080000Y-77784800D02*
X115879200Y-79584000D01*
X133323000Y-81362000D02*
X132291698Y-81362000D01*
X132291698Y-81362000D02*
X130537688Y-79607989D01*
X115903189Y-79607989D02*
X115879200Y-79584000D01*
X130537688Y-79607989D02*
X115903189Y-79607989D01*
D25*
X126202800Y-108463800D02*
X126202800Y-108062901D01*
X145506800Y-108463800D02*
X145506800Y-108062901D01*
X145506800Y-96983000D02*
X145506800Y-97383899D01*
X114928000Y-108172000D02*
X114928000Y-116032000D01*
X113772000Y-107016000D02*
X114928000Y-108172000D01*
X145506800Y-108463800D02*
X145506800Y-110394200D01*
X145506800Y-110394200D02*
X145430600Y-110470400D01*
X126202800Y-96983000D02*
X126202800Y-97383899D01*
X121884800Y-99832400D02*
X121884800Y-98964200D01*
X121884800Y-98964200D02*
X122545200Y-98303800D01*
X120963390Y-115797390D02*
X121148200Y-115982200D01*
X122113400Y-112329200D02*
X120963390Y-113479210D01*
X120963390Y-113479210D02*
X120963390Y-115797390D01*
X122469000Y-93808000D02*
X122469000Y-95433600D01*
X122469000Y-95433600D02*
X122494400Y-95459000D01*
X116416000Y-107016000D02*
X117100000Y-107700000D01*
X113772000Y-107016000D02*
X116416000Y-107016000D01*
X141433044Y-86482990D02*
X138949990Y-88966044D01*
X144862956Y-86482990D02*
X141433044Y-86482990D01*
X147250010Y-88870044D02*
X144862956Y-86482990D01*
X147250010Y-94600090D02*
X147250010Y-88870044D01*
X145506800Y-96343300D02*
X147250010Y-94600090D01*
X145506800Y-96983000D02*
X145506800Y-96343300D01*
X124678800Y-95459000D02*
X122494400Y-95459000D01*
X126202800Y-96983000D02*
X124678800Y-95459000D01*
X138949990Y-92387490D02*
X138949990Y-88966044D01*
X140100000Y-93537500D02*
X138949990Y-92387490D01*
D24*
X127111102Y-98481600D02*
X126202800Y-98481600D01*
X127239401Y-95530401D02*
X127239401Y-98353301D01*
X127239401Y-98353301D02*
X127111102Y-98481600D01*
X125517000Y-93808000D02*
X127239401Y-95530401D01*
X125646500Y-93537500D02*
X125517000Y-93408000D01*
X128565000Y-93537500D02*
X125646500Y-93537500D01*
X126202800Y-105466600D02*
X126202800Y-104984000D01*
X126202800Y-104984000D02*
X127168801Y-104984000D01*
X127639411Y-104513390D02*
X127639411Y-96202583D01*
X127168801Y-104984000D02*
X127639411Y-104513390D01*
X127639411Y-96202583D02*
X129565010Y-94276984D01*
X128500000Y-84540000D02*
X126592000Y-82632000D01*
X128500000Y-87425000D02*
X128500000Y-84540000D01*
X129565010Y-88490010D02*
X128500000Y-87425000D01*
X129565010Y-94276984D02*
X129565010Y-88490010D01*
X133264000Y-93808000D02*
X135270600Y-93808000D01*
X132735399Y-97362701D02*
X132735399Y-96603299D01*
X132838298Y-97465600D02*
X132735399Y-97362701D01*
X133772000Y-97465600D02*
X132838298Y-97465600D01*
X133919201Y-96543299D02*
X134962500Y-95500000D01*
X132795399Y-96543299D02*
X133919201Y-96543299D01*
X132735399Y-96603299D02*
X132795399Y-96543299D01*
X134962500Y-93662500D02*
X134700000Y-93400000D01*
X134962500Y-95500000D02*
X134962500Y-93662500D01*
X134251898Y-112493600D02*
X134534000Y-112493600D01*
X134673000Y-112354600D02*
X134534000Y-112493600D01*
X133772000Y-107981200D02*
X134708600Y-107981200D01*
X134808601Y-108084099D02*
X134748601Y-108024099D01*
X133825000Y-110200000D02*
X134808601Y-109216399D01*
X134808601Y-109216399D02*
X134808601Y-108084099D01*
X133825000Y-111784600D02*
X134534000Y-112493600D01*
X133825000Y-110200000D02*
X133825000Y-111784600D01*
X128045000Y-112493600D02*
X128184000Y-112354600D01*
X127354600Y-107208698D02*
X127354600Y-112493600D01*
X126202800Y-106965200D02*
X127111102Y-106965200D01*
X127111102Y-106965200D02*
X127354600Y-107208698D01*
X125136000Y-112493600D02*
X127354600Y-112493600D01*
X127354600Y-112493600D02*
X128045000Y-112493600D01*
X126202800Y-100970800D02*
X125644000Y-100970800D01*
X122672310Y-102494910D02*
X121884800Y-101707400D01*
X124572884Y-102494910D02*
X122672310Y-102494910D01*
X124891410Y-102176384D02*
X124572884Y-102494910D01*
X124891410Y-101418590D02*
X124891410Y-102176384D01*
X125339200Y-100970800D02*
X124891410Y-101418590D01*
X126202800Y-100970800D02*
X125339200Y-100970800D01*
X126202800Y-100462800D02*
X125266200Y-100462800D01*
X124021600Y-101707400D02*
X123891400Y-101707400D01*
X125266200Y-100462800D02*
X124021600Y-101707400D01*
X124039200Y-99980200D02*
X123891400Y-99832400D01*
X126202800Y-99980200D02*
X124039200Y-99980200D01*
X145405200Y-98481600D02*
X145362301Y-98524499D01*
X145506800Y-98481600D02*
X145405200Y-98481600D01*
X145908000Y-93408000D02*
X146100000Y-93600000D01*
X143148000Y-93408000D02*
X145908000Y-93408000D01*
X143148000Y-97031102D02*
X143148000Y-93408000D01*
X144598498Y-98481600D02*
X143148000Y-97031102D01*
X145506800Y-98481600D02*
X144598498Y-98481600D01*
X145506800Y-105466600D02*
X145506800Y-104984000D01*
X149300020Y-82783980D02*
X149452000Y-82632000D01*
X149300020Y-92375020D02*
X149300020Y-82783980D01*
X150500000Y-93575000D02*
X149300020Y-92375020D01*
X150500000Y-93778096D02*
X150500000Y-93575000D01*
X147400000Y-96878096D02*
X150500000Y-93778096D01*
X145506800Y-104984000D02*
X146472801Y-104984000D01*
X147162599Y-104294202D02*
X147162599Y-98837401D01*
X146472801Y-104984000D02*
X147162599Y-104294202D01*
X147162599Y-98837401D02*
X147400000Y-98600000D01*
X147400000Y-98600000D02*
X147400000Y-96878096D01*
X153142698Y-95500000D02*
X153900000Y-95500000D01*
X152039399Y-96603299D02*
X153142698Y-95500000D01*
X152039399Y-97362701D02*
X152039399Y-96603299D01*
X152142298Y-97465600D02*
X152039399Y-97362701D01*
X153076000Y-97465600D02*
X152142298Y-97465600D01*
X153900000Y-94000000D02*
X153300000Y-93400000D01*
X153900000Y-95500000D02*
X153900000Y-94000000D01*
X152142298Y-107981200D02*
X153076000Y-107981200D01*
X152822000Y-110997000D02*
X152125000Y-110300000D01*
X152822000Y-112493600D02*
X152822000Y-110997000D01*
X152039399Y-108084099D02*
X152039399Y-110214399D01*
X152039399Y-110214399D02*
X152125000Y-110300000D01*
X152142298Y-107981200D02*
X152039399Y-108084099D01*
X146841000Y-112493600D02*
X146980000Y-112354600D01*
X146980000Y-112354600D02*
X146820308Y-112354600D01*
X146883000Y-112451600D02*
X146980000Y-112354600D01*
X143932000Y-112451600D02*
X146883000Y-112451600D01*
X143932000Y-107603400D02*
X143932000Y-112451600D01*
X144570200Y-106965200D02*
X143932000Y-107603400D01*
X145506800Y-106965200D02*
X144570200Y-106965200D01*
X141950910Y-102494910D02*
X141163400Y-101707400D01*
X143876884Y-102494910D02*
X141950910Y-102494910D01*
X144195410Y-102176384D02*
X143876884Y-102494910D01*
X144598498Y-100970800D02*
X144195410Y-101373888D01*
X144195410Y-101373888D02*
X144195410Y-102176384D01*
X145506800Y-100970800D02*
X144598498Y-100970800D01*
X144440000Y-100462800D02*
X143195400Y-101707400D01*
X145506800Y-100462800D02*
X144440000Y-100462800D01*
X143343200Y-99980200D02*
X143195400Y-99832400D01*
X145506800Y-99980200D02*
X143343200Y-99980200D01*
X112162600Y-124383600D02*
X112283600Y-124262600D01*
X112162600Y-126828000D02*
X112162600Y-124383600D01*
X155242901Y-103303463D02*
X155242901Y-101342901D01*
X153076000Y-104476000D02*
X154070364Y-104476000D01*
X155242901Y-101342901D02*
X155200000Y-101300000D01*
X154070364Y-104476000D02*
X155242901Y-103303463D01*
X153076000Y-98481600D02*
X152139400Y-98481600D01*
X151331301Y-96631301D02*
X149943647Y-95243647D01*
X151331301Y-97673501D02*
X151331301Y-96631301D01*
X152139400Y-98481600D02*
X151331301Y-97673501D01*
X133772000Y-104476000D02*
X133797400Y-104501400D01*
X135424000Y-104476000D02*
X133772000Y-104476000D01*
X135700000Y-104200000D02*
X135424000Y-104476000D01*
X133772000Y-98481600D02*
X136090098Y-98481600D01*
X136184396Y-98481600D02*
X136090098Y-98481600D01*
X137601398Y-99898602D02*
X136184396Y-98481600D01*
X140476900Y-82022400D02*
X139165000Y-82022400D01*
X141402500Y-82948000D02*
X140476900Y-82022400D01*
X141402500Y-83648000D02*
X141402500Y-82948000D01*
X141402500Y-83648000D02*
X141402500Y-84797500D01*
X141402500Y-84797500D02*
X140800000Y-85400000D01*
X138582010Y-115966210D02*
X138582010Y-116095142D01*
X138582010Y-99970016D02*
X138582010Y-115966210D01*
X154360000Y-124288000D02*
X153159999Y-123087999D01*
X138582010Y-118709410D02*
X138582010Y-115966210D01*
X153159999Y-123087999D02*
X142960599Y-123087999D01*
X142960599Y-123087999D02*
X138582010Y-118709410D01*
X136611994Y-98000000D02*
X138582010Y-99970016D01*
X134300000Y-98000000D02*
X136611994Y-98000000D01*
X134273600Y-97973600D02*
X134300000Y-98000000D01*
X133772000Y-97973600D02*
X134273600Y-97973600D01*
X155560001Y-124864001D02*
X154936001Y-125488001D01*
X155560001Y-123711999D02*
X155560001Y-124864001D01*
X154936001Y-123087999D02*
X154923999Y-123087999D01*
X155560001Y-123711999D02*
X154936001Y-123087999D01*
X149925001Y-125488001D02*
X154936001Y-125488001D01*
X148725000Y-124288000D02*
X149925001Y-125488001D01*
X154535991Y-122687989D02*
X155560001Y-123711999D01*
X136160693Y-96983000D02*
X138982020Y-99804327D01*
X133772000Y-96983000D02*
X136160693Y-96983000D01*
X138982020Y-118543722D02*
X143126287Y-122687989D01*
X138982020Y-99804327D02*
X138982020Y-118543722D01*
X143126287Y-122687989D02*
X154535991Y-122687989D01*
X141959969Y-126688031D02*
X144360000Y-124288000D01*
X114844591Y-125853688D02*
X115678934Y-126688031D01*
X114844591Y-120544780D02*
X114844591Y-125853688D01*
X115678934Y-126688031D02*
X141959969Y-126688031D01*
X118616001Y-116773370D02*
X118616001Y-99007199D01*
X114844591Y-120544780D02*
X118616001Y-116773370D01*
X125294498Y-97973600D02*
X123846698Y-96525800D01*
X126202800Y-97973600D02*
X125294498Y-97973600D01*
X123846698Y-96525800D02*
X121097400Y-96525800D01*
X118616001Y-99007199D02*
X121097400Y-96525800D01*
X119016011Y-99776999D02*
X121479810Y-97313200D01*
X125266200Y-98964200D02*
X126202800Y-98964200D01*
X119016011Y-116939059D02*
X119016011Y-99776999D01*
X137359979Y-126288021D02*
X115844623Y-126288021D01*
X139360000Y-124288000D02*
X137359979Y-126288021D01*
X121479810Y-97313200D02*
X123615200Y-97313200D01*
X115844623Y-126288021D02*
X115244601Y-125687999D01*
X123615200Y-97313200D02*
X125266200Y-98964200D01*
X115244601Y-125687999D02*
X115244601Y-120710469D01*
X115244601Y-120710469D02*
X119016011Y-116939059D01*
X116010312Y-125888011D02*
X130915989Y-125888011D01*
X115644611Y-125522310D02*
X116010312Y-125888011D01*
X124646502Y-106482600D02*
X119416021Y-111713081D01*
X119416021Y-117104748D02*
X115644611Y-120876158D01*
X126202800Y-106482600D02*
X124646502Y-106482600D01*
X115644611Y-120876158D02*
X115644611Y-125522310D01*
X130915989Y-125888011D02*
X132516000Y-124288000D01*
X119416021Y-111713081D02*
X119416021Y-117104748D01*
X126315999Y-125488001D02*
X116176001Y-125488001D01*
X127516000Y-124288000D02*
X126315999Y-125488001D01*
X116044621Y-125356621D02*
X116176001Y-125488001D01*
X116044621Y-121041847D02*
X116044621Y-125356621D01*
X124221600Y-107473200D02*
X119816031Y-111878769D01*
X126202800Y-107473200D02*
X124221600Y-107473200D01*
X119816031Y-117270437D02*
X116044621Y-121041847D01*
X119816031Y-111878769D02*
X119816031Y-117270437D01*
X123788792Y-124288000D02*
X122516000Y-124288000D01*
X132555820Y-115520972D02*
X123788792Y-124288000D01*
X132555820Y-108743380D02*
X132555820Y-115520972D01*
X132835400Y-108463800D02*
X132555820Y-108743380D01*
X133772000Y-108463800D02*
X132835400Y-108463800D01*
X133772000Y-107524000D02*
X133754501Y-107541499D01*
X133772000Y-107473200D02*
X133772000Y-107524000D01*
X118716001Y-123087999D02*
X117516000Y-124288000D01*
X132155810Y-114693984D02*
X123761795Y-123087999D01*
X123761795Y-123087999D02*
X118716001Y-123087999D01*
X132155810Y-108181088D02*
X132155810Y-108944190D01*
X133772000Y-107473200D02*
X132863698Y-107473200D01*
X132863698Y-107473200D02*
X132155810Y-108181088D01*
X132155810Y-108944190D02*
X132155810Y-114693984D01*
X162500011Y-84309011D02*
X160696000Y-82505000D01*
X153076000Y-97973600D02*
X158258898Y-97973600D01*
X162500011Y-98606691D02*
X162500011Y-84309011D01*
X159390310Y-99105012D02*
X162001690Y-99105012D01*
X158258898Y-97973600D02*
X159390310Y-99105012D01*
X162001690Y-99105012D02*
X162500011Y-98606691D01*
X154009702Y-96983000D02*
X153076000Y-96983000D01*
X157902000Y-96983000D02*
X154009702Y-96983000D01*
X159624001Y-98705001D02*
X157902000Y-96983000D01*
X161836001Y-98705001D02*
X159624001Y-98705001D01*
X162100000Y-98441002D02*
X161836001Y-98705001D01*
X162100000Y-88909000D02*
X162100000Y-98441002D01*
X160696000Y-87505000D02*
X162100000Y-88909000D01*
X145506800Y-97973600D02*
X146443400Y-97973600D01*
X146443400Y-97973600D02*
X146543401Y-97873599D01*
X148796710Y-81211989D02*
X148031989Y-81976710D01*
X146543401Y-96603299D02*
X146543401Y-96643401D01*
X160696000Y-92124000D02*
X159495999Y-90923999D01*
X148031989Y-95114711D02*
X146543401Y-96603299D01*
X146543401Y-97873599D02*
X146543401Y-96643401D01*
X154747289Y-81211989D02*
X148796710Y-81211989D01*
X159495999Y-85960699D02*
X154747289Y-81211989D01*
X148031989Y-81976710D02*
X148031989Y-95114711D01*
X159495999Y-90923999D02*
X159495999Y-85960699D01*
X146443400Y-98964200D02*
X145506800Y-98964200D01*
X146999990Y-98407610D02*
X146443400Y-98964200D01*
X148431999Y-95280399D02*
X146999990Y-96712408D01*
X159095989Y-95523989D02*
X159095989Y-86126387D01*
X148431999Y-82142399D02*
X148431999Y-95280399D01*
X160696000Y-97124000D02*
X159095989Y-95523989D01*
X146999990Y-96712408D02*
X146999990Y-98407610D01*
X154581601Y-81611999D02*
X148962399Y-81611999D01*
X148962399Y-81611999D02*
X148431999Y-82142399D01*
X159095989Y-86126387D02*
X154581601Y-81611999D01*
X146440502Y-106482600D02*
X145506800Y-106482600D01*
X162296011Y-112450310D02*
X162296011Y-119453991D01*
X159495999Y-104392001D02*
X159495999Y-109650298D01*
X159495999Y-109650298D02*
X162296011Y-112450310D01*
X160696000Y-103192000D02*
X159495999Y-104392001D01*
X161836001Y-119914001D02*
X150537699Y-119914001D01*
X150537699Y-119914001D02*
X148773990Y-118150292D01*
X146954600Y-106996698D02*
X146440502Y-106482600D01*
X148773990Y-118150292D02*
X148773990Y-111368491D01*
X162296011Y-119453991D02*
X161836001Y-119914001D01*
X148773990Y-111368491D02*
X146954600Y-109549102D01*
X146954600Y-109549102D02*
X146954600Y-106996698D01*
X162696019Y-110192019D02*
X160696000Y-108192000D01*
X162001690Y-120314011D02*
X162696019Y-119619681D01*
X162696019Y-119619681D02*
X162696019Y-110192019D01*
X145506800Y-107473200D02*
X146415102Y-107473200D01*
X146415102Y-107473200D02*
X146548200Y-107606298D01*
X150372011Y-120314011D02*
X162001690Y-120314011D01*
X146548200Y-107606298D02*
X146548200Y-109708400D01*
X150372010Y-120314011D02*
X148373980Y-118315981D01*
X150372011Y-120314011D02*
X150372010Y-120314011D01*
X148373980Y-111534180D02*
X146554590Y-109714791D01*
X148373980Y-118315981D02*
X148373980Y-111534180D01*
X155445800Y-108463800D02*
X160696000Y-113714000D01*
X153076000Y-108463800D02*
X155445800Y-108463800D01*
X161896001Y-116991999D02*
X160696000Y-118192000D01*
X156231202Y-107473200D02*
X161896001Y-113137999D01*
X161896001Y-113137999D02*
X161896001Y-113143601D01*
X153076000Y-107473200D02*
X156231202Y-107473200D01*
X161896001Y-113143601D02*
X161896001Y-116991999D01*
X107737000Y-88728000D02*
X106213000Y-87204000D01*
X107737000Y-88728000D02*
X109896000Y-88728000D01*
X136685493Y-99783985D02*
X136685493Y-99923755D01*
X135865708Y-98964200D02*
X136685493Y-99783985D01*
X133772000Y-98964200D02*
X135865708Y-98964200D01*
X107370520Y-83662520D02*
X112436000Y-88728000D01*
X103463520Y-83662520D02*
X107370520Y-83662520D01*
X102276000Y-82475000D02*
X103463520Y-83662520D01*
X133797400Y-100437400D02*
X133772000Y-100462800D01*
X133772000Y-100462800D02*
X135137250Y-100462800D01*
X135137250Y-100462800D02*
X135650038Y-99950012D01*
X109510510Y-83262510D02*
X114976000Y-88728000D01*
X104968510Y-83262510D02*
X109510510Y-83262510D01*
X104181000Y-82475000D02*
X104968510Y-83262510D01*
X133797400Y-105009400D02*
X133772000Y-104984000D01*
X135565100Y-104984000D02*
X133772000Y-104984000D01*
X135700000Y-105118900D02*
X135565100Y-104984000D01*
X116604002Y-88728000D02*
X117516000Y-88728000D01*
X110351002Y-82475000D02*
X116604002Y-88728000D01*
X106340000Y-82475000D02*
X110351002Y-82475000D01*
X135517400Y-106482600D02*
X133772000Y-106482600D01*
X135700000Y-106300000D02*
X135517400Y-106482600D01*
X132596702Y-106965200D02*
X133772000Y-106965200D01*
X132080801Y-107481101D02*
X132596702Y-106965200D01*
X130983805Y-107481101D02*
X132080801Y-107481101D01*
X130639899Y-107825007D02*
X130983805Y-107481101D01*
X130639899Y-111834099D02*
X130639899Y-107825007D01*
X131155800Y-112350000D02*
X130639899Y-111834099D01*
X134680302Y-100970800D02*
X133772000Y-100970800D01*
X137300000Y-103590498D02*
X134680302Y-100970800D01*
X137300000Y-105851494D02*
X137300000Y-103590498D01*
X136186294Y-106965200D02*
X137300000Y-105851494D01*
X133772000Y-106965200D02*
X136186294Y-106965200D01*
X106555982Y-96055982D02*
X109896000Y-99396000D01*
X106555982Y-93058482D02*
X106555982Y-96055982D01*
X104384500Y-90887000D02*
X106555982Y-93058482D01*
X103897000Y-90887000D02*
X104384500Y-90887000D01*
X153110202Y-98929998D02*
X153076000Y-98964200D01*
X153076000Y-98964200D02*
X157935800Y-98964200D01*
X157935800Y-98964200D02*
X158100000Y-98800000D01*
X112436000Y-97521000D02*
X112436000Y-99396000D01*
X103897000Y-88982000D02*
X112436000Y-97521000D01*
X153076000Y-100462800D02*
X156562800Y-100462800D01*
X156562800Y-100462800D02*
X157562800Y-100462800D01*
X157562800Y-100462800D02*
X158800000Y-101700000D01*
X107356000Y-91776000D02*
X114976000Y-99396000D01*
X107356000Y-90944698D02*
X107356000Y-91776000D01*
X104393292Y-87981990D02*
X107356000Y-90944698D01*
X103180990Y-87981990D02*
X104393292Y-87981990D01*
X102276000Y-87077000D02*
X103180990Y-87981990D01*
X153076000Y-104984000D02*
X154513858Y-104984000D01*
X154513858Y-104984000D02*
X154674158Y-104823700D01*
X114441697Y-98295999D02*
X116415999Y-98295999D01*
X116415999Y-98295999D02*
X117516000Y-99396000D01*
X107756010Y-91610312D02*
X114441697Y-98295999D01*
X107756010Y-90652010D02*
X107756010Y-91610312D01*
X104181000Y-87077000D02*
X107756010Y-90652010D01*
X155912900Y-106482600D02*
X156047800Y-106617500D01*
X153076000Y-106482600D02*
X155912900Y-106482600D01*
X152039399Y-101099099D02*
X152039399Y-106836901D01*
X152039399Y-106836901D02*
X152167698Y-106965200D01*
X152167698Y-100970800D02*
X152039399Y-101099099D01*
X153076000Y-100970800D02*
X152167698Y-100970800D01*
X149774000Y-114229600D02*
X150774010Y-113229590D01*
X150774010Y-113229590D02*
X150774010Y-111913756D01*
X152167698Y-106965200D02*
X153076000Y-106965200D01*
X151639389Y-107493509D02*
X152167698Y-106965200D01*
X151331301Y-107801597D02*
X151639389Y-107493509D01*
X151331301Y-111356465D02*
X151331301Y-107801597D01*
X150774010Y-111913756D02*
X151331301Y-111356465D01*
X132325711Y-98084409D02*
X132325711Y-99499912D01*
X132805999Y-99980200D02*
X133772000Y-99980200D01*
X131925701Y-97684399D02*
X132325711Y-98084409D01*
X131925701Y-92979379D02*
X131925701Y-97684399D01*
X139165000Y-85273600D02*
X138228400Y-85273600D01*
X132325711Y-99499912D02*
X132805999Y-99980200D01*
X136924971Y-89375029D02*
X135530049Y-89375029D01*
X135530049Y-89375029D02*
X131925701Y-92979379D01*
X138128399Y-88171601D02*
X136924971Y-89375029D01*
X138128399Y-85373601D02*
X138128399Y-88171601D01*
X138228400Y-85273600D02*
X138128399Y-85373601D01*
X139165000Y-87973204D02*
X139165000Y-85934000D01*
X132335389Y-93135390D02*
X135695739Y-89775040D01*
X132863699Y-99472200D02*
X132725722Y-99334223D01*
X135695739Y-89775040D02*
X137363164Y-89775040D01*
X133772000Y-99472200D02*
X132863699Y-99472200D01*
X132335389Y-97528387D02*
X132335389Y-93135390D01*
X132725722Y-99334223D02*
X132725722Y-97918720D01*
X132725722Y-97918720D02*
X132335389Y-97528387D01*
X137363164Y-89775040D02*
X139165000Y-87973204D01*
X135001434Y-85273600D02*
X133323000Y-85273600D01*
X136675010Y-88252824D02*
X136675010Y-86947176D01*
X136675010Y-86947176D02*
X135001434Y-85273600D01*
X136352824Y-88575010D02*
X136675010Y-88252824D01*
X132033903Y-100546901D02*
X129678807Y-100546901D01*
X132335389Y-105532288D02*
X132335389Y-100848387D01*
X130239889Y-93533795D02*
X135198674Y-88575010D01*
X135198674Y-88575010D02*
X136352824Y-88575010D01*
X133772000Y-105974600D02*
X132777701Y-105974600D01*
X132335389Y-100848387D02*
X132033903Y-100546901D01*
X129344499Y-100212593D02*
X129344499Y-96255501D01*
X132777701Y-105974600D02*
X132335389Y-105532288D01*
X129678807Y-100546901D02*
X129344499Y-100212593D01*
X129344499Y-96255501D02*
X130239889Y-95360111D01*
X130239889Y-95360111D02*
X130239889Y-93533795D01*
X132835400Y-105466600D02*
X133772000Y-105466600D01*
X132735399Y-105366599D02*
X132835400Y-105466600D01*
X132735399Y-105366599D02*
X132735399Y-100682698D01*
X134906732Y-84613200D02*
X133323000Y-84613200D01*
X137075020Y-88418513D02*
X137075020Y-86781488D01*
X137075020Y-86781488D02*
X134906732Y-84613200D01*
X135364361Y-88975020D02*
X134600000Y-89739382D01*
X137075020Y-88418513D02*
X136518513Y-88975020D01*
X136518513Y-88975020D02*
X135364361Y-88975020D01*
X134600000Y-89739382D02*
X130639899Y-93699483D01*
X130639899Y-97621793D02*
X130639899Y-96939899D01*
X130974207Y-97956101D02*
X130639899Y-97621793D01*
X131631704Y-97956101D02*
X130974207Y-97956101D01*
X131925701Y-98250098D02*
X131631704Y-97956101D01*
X131925701Y-99873000D02*
X131925701Y-98250098D01*
X132735399Y-100682698D02*
X131925701Y-99873000D01*
X130639899Y-93699483D02*
X130639899Y-96939899D01*
X138506919Y-79999980D02*
X160532681Y-79999980D01*
X160532681Y-79999980D02*
X163300033Y-82767332D01*
X137728389Y-82817789D02*
X137728389Y-80778510D01*
X163300033Y-82767332D02*
X163300033Y-99399967D01*
X162719800Y-99980200D02*
X153076000Y-99980200D01*
X137728389Y-80778510D02*
X138506919Y-79999980D01*
X163300033Y-99399967D02*
X162719800Y-99980200D01*
X138228400Y-83317800D02*
X137728389Y-82817789D01*
X139165000Y-83317800D02*
X138228400Y-83317800D01*
X162900022Y-82933021D02*
X162900022Y-98772380D01*
X138228400Y-82682800D02*
X138128400Y-82582800D01*
X153108823Y-99505023D02*
X153076000Y-99472200D01*
X162167379Y-99505023D02*
X153108823Y-99505023D01*
X162900022Y-98772380D02*
X162167379Y-99505023D01*
X138672608Y-80399991D02*
X160366992Y-80399991D01*
X160366992Y-80399991D02*
X162900022Y-82933021D01*
X138128400Y-80944199D02*
X138672608Y-80399991D01*
X138128400Y-82582800D02*
X138128400Y-80944199D01*
X139165000Y-82682800D02*
X138228400Y-82682800D01*
X161245061Y-79199961D02*
X164100055Y-82054955D01*
X164100055Y-82054955D02*
X164100055Y-99731345D01*
X154012600Y-105974600D02*
X153076000Y-105974600D01*
X164100055Y-99731345D02*
X162994151Y-100837249D01*
X162994151Y-100837249D02*
X161178345Y-100837249D01*
X161178345Y-100837249D02*
X156040994Y-105974600D01*
X136928367Y-83313167D02*
X136928367Y-80447132D01*
X156040994Y-105974600D02*
X154012600Y-105974600D01*
X136928367Y-80447132D02*
X138175542Y-79199959D01*
X138228400Y-84613200D02*
X136928367Y-83313167D01*
X139165000Y-84613200D02*
X138228400Y-84613200D01*
X138175542Y-79199959D02*
X161245061Y-79199961D01*
X138341230Y-79599969D02*
X161079370Y-79599970D01*
X161012656Y-100437238D02*
X155983294Y-105466600D01*
X163700044Y-99565656D02*
X162828462Y-100437238D01*
X138228400Y-83978200D02*
X137328378Y-83078178D01*
X137328378Y-80612821D02*
X138341230Y-79599969D01*
X137328378Y-83078178D02*
X137328378Y-80612821D01*
X161079370Y-79599970D02*
X163700044Y-82220644D01*
X139165000Y-83978200D02*
X138228400Y-83978200D01*
X155983294Y-105466600D02*
X153076000Y-105466600D01*
X163700044Y-82220644D02*
X163700044Y-99565656D01*
X162828462Y-100437238D02*
X161012656Y-100437238D01*
X127239401Y-104347701D02*
X127111102Y-104476000D01*
X127239401Y-99600499D02*
X127239401Y-104347701D01*
X127111102Y-99472200D02*
X127239401Y-99600499D01*
X127111102Y-104476000D02*
X126202800Y-104476000D01*
X126202800Y-99472200D02*
X127111102Y-99472200D01*
X124598000Y-104476000D02*
X126202800Y-104476000D01*
X123810600Y-105263400D02*
X124598000Y-104476000D01*
X124521800Y-105974600D02*
X123810600Y-105263400D01*
X126202800Y-105974600D02*
X124521800Y-105974600D01*
X127754610Y-106618108D02*
X127111102Y-105974600D01*
X127754610Y-110417804D02*
X127754610Y-106618108D01*
X127111102Y-105974600D02*
X126202800Y-105974600D01*
X131155800Y-113818994D02*
X127754610Y-110417804D01*
X131155800Y-114225000D02*
X131155800Y-113818994D01*
X146415102Y-104476000D02*
X145506800Y-104476000D01*
X146543401Y-104347701D02*
X146415102Y-104476000D01*
X146543401Y-99572201D02*
X146543401Y-104347701D01*
X146443400Y-99472200D02*
X146543401Y-99572201D01*
X145506800Y-99472200D02*
X146443400Y-99472200D01*
X143904300Y-104476000D02*
X145506800Y-104476000D01*
X143116900Y-105263400D02*
X143904300Y-104476000D01*
X143828100Y-105974600D02*
X143116900Y-105263400D01*
X145506800Y-105974600D02*
X143828100Y-105974600D01*
X149774000Y-112354600D02*
X149774000Y-111802804D01*
X149774000Y-111802804D02*
X147354610Y-109383414D01*
X147354610Y-109383414D02*
X147354610Y-106831009D01*
X147354610Y-106831009D02*
X147196300Y-106672699D01*
X147196300Y-106672699D02*
X147209000Y-106685400D01*
X146498201Y-105974600D02*
X145506800Y-105974600D01*
X147196300Y-106672699D02*
X146498201Y-105974600D01*
D26*
G36*
X163049016Y-73732312D02*
G01*
X163480930Y-73862714D01*
X163879285Y-74074524D01*
X164228914Y-74359675D01*
X164516497Y-74707303D01*
X164731086Y-75104177D01*
X164864498Y-75535161D01*
X164915001Y-76015663D01*
X164915000Y-125966495D01*
X164867688Y-126449016D01*
X164737287Y-126880927D01*
X164525480Y-127279280D01*
X164240325Y-127628914D01*
X163892697Y-127916497D01*
X163495825Y-128131085D01*
X163064834Y-128264500D01*
X162584346Y-128315000D01*
X112740550Y-128315000D01*
X112877450Y-128273472D01*
X113030986Y-128191405D01*
X113165562Y-128080962D01*
X113276005Y-127946386D01*
X113358072Y-127792850D01*
X113408608Y-127626254D01*
X113425672Y-127453000D01*
X113425672Y-126203000D01*
X113408608Y-126029746D01*
X113358072Y-125863150D01*
X113276005Y-125709614D01*
X113165562Y-125575038D01*
X113030986Y-125464595D01*
X113012397Y-125454659D01*
X113017264Y-125452058D01*
X113150892Y-125342392D01*
X113260558Y-125208764D01*
X113342047Y-125056309D01*
X113392228Y-124890885D01*
X113409172Y-124718850D01*
X113409172Y-123806350D01*
X113392228Y-123634315D01*
X113342047Y-123468891D01*
X113260558Y-123316436D01*
X113150892Y-123182808D01*
X113017264Y-123073142D01*
X112864809Y-122991653D01*
X112699385Y-122941472D01*
X112527350Y-122924528D01*
X112039850Y-122924528D01*
X111867815Y-122941472D01*
X111702391Y-122991653D01*
X111549936Y-123073142D01*
X111416308Y-123182808D01*
X111411092Y-123189164D01*
X111347285Y-123111415D01*
X111250594Y-123032063D01*
X111140280Y-122973098D01*
X111020582Y-122936788D01*
X110896100Y-122924528D01*
X110694350Y-122927600D01*
X110535600Y-123086350D01*
X110535600Y-124135600D01*
X110555600Y-124135600D01*
X110555600Y-124389600D01*
X110535600Y-124389600D01*
X110535600Y-125438850D01*
X110694350Y-125597600D01*
X110896100Y-125600672D01*
X111020582Y-125588412D01*
X111140280Y-125552102D01*
X111250594Y-125493137D01*
X111347285Y-125413785D01*
X111411092Y-125336036D01*
X111416308Y-125342392D01*
X111427601Y-125351660D01*
X111427601Y-125393298D01*
X111294214Y-125464595D01*
X111159638Y-125575038D01*
X111049195Y-125709614D01*
X110967128Y-125863150D01*
X110916592Y-126029746D01*
X110899528Y-126203000D01*
X110899528Y-127453000D01*
X110916592Y-127626254D01*
X110967128Y-127792850D01*
X111049195Y-127946386D01*
X111159638Y-128080962D01*
X111294214Y-128191405D01*
X111447750Y-128273472D01*
X111584650Y-128315000D01*
X109940550Y-128315000D01*
X110077450Y-128273472D01*
X110230986Y-128191405D01*
X110365562Y-128080962D01*
X110476005Y-127946386D01*
X110558072Y-127792850D01*
X110608608Y-127626254D01*
X110625672Y-127453000D01*
X110625672Y-126203000D01*
X110608608Y-126029746D01*
X110558072Y-125863150D01*
X110476005Y-125709614D01*
X110365562Y-125575038D01*
X110244645Y-125475805D01*
X110281600Y-125438850D01*
X110281600Y-124389600D01*
X109444850Y-124389600D01*
X109286100Y-124548350D01*
X109283028Y-124962600D01*
X109295288Y-125087082D01*
X109331598Y-125206780D01*
X109389405Y-125314928D01*
X108987600Y-125314928D01*
X108814346Y-125331992D01*
X108647750Y-125382528D01*
X108494214Y-125464595D01*
X108359638Y-125575038D01*
X108249195Y-125709614D01*
X108167128Y-125863150D01*
X108124365Y-126004120D01*
X108022410Y-125935996D01*
X107844443Y-125862280D01*
X107655515Y-125824700D01*
X107462885Y-125824700D01*
X107273957Y-125862280D01*
X107095990Y-125935996D01*
X106935825Y-126043015D01*
X106799615Y-126179225D01*
X106692596Y-126339390D01*
X106618880Y-126517357D01*
X106581300Y-126706285D01*
X106581300Y-126898915D01*
X106618880Y-127087843D01*
X106692596Y-127265810D01*
X106799615Y-127425975D01*
X106935825Y-127562185D01*
X107095990Y-127669204D01*
X107273957Y-127742920D01*
X107462885Y-127780500D01*
X107655515Y-127780500D01*
X107844443Y-127742920D01*
X108022410Y-127669204D01*
X108114746Y-127607507D01*
X108116592Y-127626254D01*
X108167128Y-127792850D01*
X108249195Y-127946386D01*
X108359638Y-128080962D01*
X108494214Y-128191405D01*
X108647750Y-128273472D01*
X108784650Y-128315000D01*
X103633504Y-128315000D01*
X103150984Y-128267688D01*
X102719073Y-128137287D01*
X102320720Y-127925480D01*
X101971086Y-127640325D01*
X101683503Y-127292697D01*
X101468915Y-126895825D01*
X101335500Y-126464834D01*
X101285000Y-125984346D01*
X101285000Y-125298495D01*
X102166000Y-125298495D01*
X102166000Y-125689505D01*
X102242282Y-126073003D01*
X102391915Y-126434250D01*
X102609149Y-126759364D01*
X102885636Y-127035851D01*
X103210750Y-127253085D01*
X103571997Y-127402718D01*
X103955495Y-127479000D01*
X104346505Y-127479000D01*
X104730003Y-127402718D01*
X105091250Y-127253085D01*
X105416364Y-127035851D01*
X105692851Y-126759364D01*
X105910085Y-126434250D01*
X106059718Y-126073003D01*
X106136000Y-125689505D01*
X106136000Y-125298495D01*
X106059718Y-124914997D01*
X105910085Y-124553750D01*
X105692851Y-124228636D01*
X105416364Y-123952149D01*
X105091250Y-123734915D01*
X104730003Y-123585282D01*
X104615973Y-123562600D01*
X109283028Y-123562600D01*
X109286100Y-123976850D01*
X109444850Y-124135600D01*
X110281600Y-124135600D01*
X110281600Y-123086350D01*
X110122850Y-122927600D01*
X109921100Y-122924528D01*
X109796618Y-122936788D01*
X109676920Y-122973098D01*
X109566606Y-123032063D01*
X109469915Y-123111415D01*
X109390563Y-123208106D01*
X109331598Y-123318420D01*
X109295288Y-123438118D01*
X109283028Y-123562600D01*
X104615973Y-123562600D01*
X104346505Y-123509000D01*
X103955495Y-123509000D01*
X103571997Y-123585282D01*
X103210750Y-123734915D01*
X102885636Y-123952149D01*
X102609149Y-124228636D01*
X102391915Y-124553750D01*
X102242282Y-124914997D01*
X102166000Y-125298495D01*
X101285000Y-125298495D01*
X101285000Y-110185000D01*
X105133647Y-110185000D01*
X105162601Y-110182148D01*
X105165573Y-110182169D01*
X105175092Y-110181236D01*
X105223218Y-110176178D01*
X105234283Y-110175088D01*
X105234652Y-110174976D01*
X105272140Y-110171036D01*
X105332990Y-110158545D01*
X105393942Y-110146918D01*
X105403096Y-110144155D01*
X105403102Y-110144153D01*
X105496317Y-110115298D01*
X105553533Y-110091246D01*
X105611119Y-110067980D01*
X105619564Y-110063490D01*
X105705401Y-110017077D01*
X105756867Y-109982362D01*
X105808821Y-109948364D01*
X105816232Y-109942320D01*
X105891421Y-109880118D01*
X105935162Y-109836070D01*
X105979522Y-109792631D01*
X105985618Y-109785261D01*
X105985623Y-109785256D01*
X105985627Y-109785250D01*
X106047294Y-109709640D01*
X106081632Y-109657959D01*
X106116733Y-109606694D01*
X106121282Y-109598281D01*
X106167094Y-109512120D01*
X106190758Y-109454704D01*
X106215208Y-109397661D01*
X106218036Y-109388525D01*
X106246241Y-109295107D01*
X106258303Y-109234187D01*
X106271209Y-109173470D01*
X106272209Y-109163958D01*
X106281731Y-109066841D01*
X106281731Y-109066837D01*
X106285000Y-109033647D01*
X106285000Y-108227578D01*
X106378614Y-108304405D01*
X106532150Y-108386472D01*
X106698746Y-108437008D01*
X106872000Y-108454072D01*
X107637000Y-108454072D01*
X107637001Y-113468370D01*
X107581829Y-113497860D01*
X107371485Y-113670485D01*
X107198860Y-113880829D01*
X107070589Y-114120808D01*
X106991599Y-114381201D01*
X106964928Y-114652000D01*
X106964928Y-116652000D01*
X106991599Y-116922799D01*
X107070589Y-117183192D01*
X107198860Y-117423171D01*
X107371485Y-117633515D01*
X107581829Y-117806140D01*
X107821808Y-117934411D01*
X108082201Y-118013401D01*
X108353000Y-118040072D01*
X109853000Y-118040072D01*
X110123799Y-118013401D01*
X110384192Y-117934411D01*
X110624171Y-117806140D01*
X110834515Y-117633515D01*
X111007140Y-117423171D01*
X111135411Y-117183192D01*
X111214401Y-116922799D01*
X111241072Y-116652000D01*
X111241072Y-114652000D01*
X111214401Y-114381201D01*
X111135411Y-114120808D01*
X111018457Y-113902000D01*
X112714928Y-113902000D01*
X112718000Y-115366250D01*
X112876750Y-115525000D01*
X114976000Y-115525000D01*
X114976000Y-113425750D01*
X115230000Y-113425750D01*
X115230000Y-115525000D01*
X117329250Y-115525000D01*
X117488000Y-115366250D01*
X117491072Y-113902000D01*
X117478812Y-113777518D01*
X117442502Y-113657820D01*
X117383537Y-113547506D01*
X117304185Y-113450815D01*
X117207494Y-113371463D01*
X117097180Y-113312498D01*
X116977482Y-113276188D01*
X116853000Y-113263928D01*
X115388750Y-113267000D01*
X115230000Y-113425750D01*
X114976000Y-113425750D01*
X114817250Y-113267000D01*
X113353000Y-113263928D01*
X113228518Y-113276188D01*
X113108820Y-113312498D01*
X112998506Y-113371463D01*
X112901815Y-113450815D01*
X112822463Y-113547506D01*
X112763498Y-113657820D01*
X112727188Y-113777518D01*
X112714928Y-113902000D01*
X111018457Y-113902000D01*
X111007140Y-113880829D01*
X110834515Y-113670485D01*
X110624171Y-113497860D01*
X110384192Y-113369589D01*
X110123799Y-113290599D01*
X109853000Y-113263928D01*
X109107000Y-113263928D01*
X109107000Y-108454072D01*
X109872000Y-108454072D01*
X110045254Y-108437008D01*
X110211850Y-108386472D01*
X110365386Y-108304405D01*
X110499962Y-108193962D01*
X110610405Y-108059386D01*
X110692472Y-107905850D01*
X110719727Y-107816000D01*
X111383928Y-107816000D01*
X111396188Y-107940482D01*
X111432498Y-108060180D01*
X111491463Y-108170494D01*
X111570815Y-108267185D01*
X111667506Y-108346537D01*
X111777820Y-108405502D01*
X111897518Y-108441812D01*
X112022000Y-108454072D01*
X113486250Y-108451000D01*
X113645000Y-108292250D01*
X113645000Y-107143000D01*
X111545750Y-107143000D01*
X111387000Y-107301750D01*
X111383928Y-107816000D01*
X110719727Y-107816000D01*
X110743008Y-107739254D01*
X110760072Y-107566000D01*
X110760072Y-106560000D01*
X111385983Y-106560000D01*
X111387000Y-106730250D01*
X111545750Y-106889000D01*
X113645000Y-106889000D01*
X113645000Y-106869000D01*
X113899000Y-106869000D01*
X113899000Y-106889000D01*
X113919000Y-106889000D01*
X113919000Y-107143000D01*
X113899000Y-107143000D01*
X113899000Y-108292250D01*
X114057750Y-108451000D01*
X115522000Y-108454072D01*
X115646482Y-108441812D01*
X115766180Y-108405502D01*
X115797482Y-108388771D01*
X115810498Y-108431680D01*
X115869463Y-108541994D01*
X115948815Y-108638685D01*
X116045506Y-108718037D01*
X116155820Y-108777002D01*
X116275518Y-108813312D01*
X116400000Y-108825572D01*
X116814250Y-108822500D01*
X116973000Y-108663750D01*
X116973000Y-107827000D01*
X116953000Y-107827000D01*
X116953000Y-107573000D01*
X116973000Y-107573000D01*
X116973000Y-107553000D01*
X117227000Y-107553000D01*
X117227000Y-107573000D01*
X117247000Y-107573000D01*
X117247000Y-107827000D01*
X117227000Y-107827000D01*
X117227000Y-108663750D01*
X117385750Y-108822500D01*
X117800000Y-108825572D01*
X117881001Y-108817594D01*
X117881001Y-116468923D01*
X117489935Y-116859989D01*
X117488000Y-115937750D01*
X117329250Y-115779000D01*
X115230000Y-115779000D01*
X115230000Y-117878250D01*
X115388750Y-118037000D01*
X116310990Y-118038935D01*
X114491072Y-119858853D01*
X114491072Y-119477000D01*
X114461999Y-119181814D01*
X114375896Y-118897972D01*
X114236073Y-118636382D01*
X114047903Y-118407097D01*
X113818618Y-118218927D01*
X113557028Y-118079104D01*
X113427840Y-118039915D01*
X114817250Y-118037000D01*
X114976000Y-117878250D01*
X114976000Y-115779000D01*
X112876750Y-115779000D01*
X112718000Y-115937750D01*
X112714928Y-117402000D01*
X112727188Y-117526482D01*
X112763498Y-117646180D01*
X112822463Y-117756494D01*
X112901815Y-117853185D01*
X112998506Y-117932537D01*
X113075131Y-117973494D01*
X112978000Y-117963928D01*
X111228000Y-117963928D01*
X110932814Y-117993001D01*
X110648972Y-118079104D01*
X110387382Y-118218927D01*
X110158097Y-118407097D01*
X109969927Y-118636382D01*
X109830104Y-118897972D01*
X109744001Y-119181814D01*
X109714928Y-119477000D01*
X109714928Y-121227000D01*
X109744001Y-121522186D01*
X109830104Y-121806028D01*
X109969927Y-122067618D01*
X110158097Y-122296903D01*
X110387382Y-122485073D01*
X110648972Y-122624896D01*
X110932814Y-122710999D01*
X111228000Y-122740072D01*
X112978000Y-122740072D01*
X113273186Y-122710999D01*
X113557028Y-122624896D01*
X113818618Y-122485073D01*
X114047903Y-122296903D01*
X114109591Y-122221736D01*
X114109592Y-125817573D01*
X114106035Y-125853688D01*
X114120226Y-125997773D01*
X114152340Y-126103635D01*
X114162255Y-126136321D01*
X114230505Y-126264008D01*
X114322354Y-126375926D01*
X114350399Y-126398942D01*
X115133680Y-127182224D01*
X115156696Y-127210269D01*
X115268614Y-127302118D01*
X115396301Y-127370368D01*
X115492820Y-127399647D01*
X115534848Y-127412396D01*
X115549066Y-127413796D01*
X115642829Y-127423031D01*
X115642836Y-127423031D01*
X115678933Y-127426586D01*
X115715030Y-127423031D01*
X141923864Y-127423031D01*
X141959969Y-127426587D01*
X141996074Y-127423031D01*
X142104054Y-127412396D01*
X142242602Y-127370368D01*
X142370289Y-127302118D01*
X142482207Y-127210269D01*
X142505228Y-127182219D01*
X143864447Y-125823000D01*
X143876184Y-125823000D01*
X144172743Y-125764011D01*
X144452095Y-125648299D01*
X144703505Y-125480312D01*
X144917312Y-125266505D01*
X145085299Y-125015095D01*
X145201011Y-124735743D01*
X145260000Y-124439184D01*
X145260000Y-124136816D01*
X145201011Y-123840257D01*
X145193862Y-123822999D01*
X147256138Y-123822999D01*
X147248989Y-123840257D01*
X147190000Y-124136816D01*
X147190000Y-124439184D01*
X147248989Y-124735743D01*
X147364701Y-125015095D01*
X147532688Y-125266505D01*
X147746495Y-125480312D01*
X147997905Y-125648299D01*
X148277257Y-125764011D01*
X148573816Y-125823000D01*
X148876184Y-125823000D01*
X149163419Y-125765866D01*
X149379747Y-125982194D01*
X149402763Y-126010239D01*
X149478503Y-126072397D01*
X149514681Y-126102088D01*
X149642367Y-126170338D01*
X149780916Y-126212366D01*
X149925001Y-126226557D01*
X149961106Y-126223001D01*
X154899896Y-126223001D01*
X154936001Y-126226557D01*
X154972106Y-126223001D01*
X155080086Y-126212366D01*
X155218634Y-126170338D01*
X155346321Y-126102088D01*
X155458239Y-126010239D01*
X155481259Y-125982189D01*
X156054194Y-125409255D01*
X156082239Y-125386239D01*
X156153592Y-125299295D01*
X160115000Y-125299295D01*
X160115000Y-125690305D01*
X160191282Y-126073803D01*
X160340915Y-126435050D01*
X160558149Y-126760164D01*
X160834636Y-127036651D01*
X161159750Y-127253885D01*
X161520997Y-127403518D01*
X161904495Y-127479800D01*
X162295505Y-127479800D01*
X162679003Y-127403518D01*
X163040250Y-127253885D01*
X163365364Y-127036651D01*
X163641851Y-126760164D01*
X163859085Y-126435050D01*
X164008718Y-126073803D01*
X164085000Y-125690305D01*
X164085000Y-125299295D01*
X164008718Y-124915797D01*
X163859085Y-124554550D01*
X163641851Y-124229436D01*
X163365364Y-123952949D01*
X163040250Y-123735715D01*
X162679003Y-123586082D01*
X162295505Y-123509800D01*
X161904495Y-123509800D01*
X161520997Y-123586082D01*
X161159750Y-123735715D01*
X160834636Y-123952949D01*
X160558149Y-124229436D01*
X160340915Y-124554550D01*
X160191282Y-124915797D01*
X160115000Y-125299295D01*
X156153592Y-125299295D01*
X156174088Y-125274321D01*
X156242338Y-125146634D01*
X156284366Y-125008086D01*
X156295001Y-124900106D01*
X156295001Y-124900097D01*
X156298556Y-124864002D01*
X156295001Y-124827907D01*
X156295001Y-123748104D01*
X156298557Y-123711999D01*
X156284366Y-123567914D01*
X156279842Y-123553000D01*
X156242338Y-123429366D01*
X156174088Y-123301679D01*
X156142770Y-123263518D01*
X156105254Y-123217805D01*
X156105251Y-123217802D01*
X156082238Y-123189761D01*
X156054198Y-123166749D01*
X155481258Y-122593809D01*
X155458239Y-122565761D01*
X155430190Y-122542742D01*
X155081249Y-122193801D01*
X155058229Y-122165751D01*
X154946311Y-122073902D01*
X154818624Y-122005652D01*
X154680076Y-121963624D01*
X154572096Y-121952989D01*
X154535991Y-121949433D01*
X154499886Y-121952989D01*
X143430734Y-121952989D01*
X139717020Y-118239276D01*
X139717020Y-111862500D01*
X139799928Y-111862500D01*
X139803000Y-112064250D01*
X139961750Y-112223000D01*
X141011000Y-112223000D01*
X141011000Y-111386250D01*
X140852250Y-111227500D01*
X140438000Y-111224428D01*
X140313518Y-111236688D01*
X140193820Y-111272998D01*
X140083506Y-111331963D01*
X139986815Y-111411315D01*
X139907463Y-111508006D01*
X139848498Y-111618320D01*
X139812188Y-111738018D01*
X139799928Y-111862500D01*
X139717020Y-111862500D01*
X139717020Y-99840432D01*
X139720576Y-99804327D01*
X139706385Y-99660242D01*
X139664357Y-99521694D01*
X139596107Y-99394007D01*
X139555806Y-99344900D01*
X139825328Y-99344900D01*
X139828400Y-99546650D01*
X139987150Y-99705400D01*
X141036400Y-99705400D01*
X141036400Y-98868650D01*
X140877650Y-98709900D01*
X140463400Y-98706828D01*
X140338918Y-98719088D01*
X140219220Y-98755398D01*
X140108906Y-98814363D01*
X140012215Y-98893715D01*
X139932863Y-98990406D01*
X139873898Y-99100720D01*
X139837588Y-99220418D01*
X139825328Y-99344900D01*
X139555806Y-99344900D01*
X139540817Y-99326637D01*
X139527273Y-99310133D01*
X139527270Y-99310130D01*
X139504257Y-99282089D01*
X139476217Y-99259077D01*
X137055211Y-96838072D01*
X137081250Y-96838072D01*
X137253285Y-96821128D01*
X137418709Y-96770947D01*
X137571164Y-96689458D01*
X137704792Y-96579792D01*
X137814458Y-96446164D01*
X137895947Y-96293709D01*
X137946128Y-96128285D01*
X137963072Y-95956250D01*
X137963072Y-95043750D01*
X137946128Y-94871715D01*
X137895947Y-94706291D01*
X137814458Y-94553836D01*
X137704792Y-94420208D01*
X137572500Y-94311638D01*
X137572500Y-94025000D01*
X138761928Y-94025000D01*
X138774188Y-94149482D01*
X138810498Y-94269180D01*
X138869463Y-94379494D01*
X138948815Y-94476185D01*
X139045506Y-94555537D01*
X139155820Y-94614502D01*
X139275518Y-94650812D01*
X139400000Y-94663072D01*
X139814250Y-94660000D01*
X139973000Y-94501250D01*
X139973000Y-93664500D01*
X138923750Y-93664500D01*
X138765000Y-93823250D01*
X138761928Y-94025000D01*
X137572500Y-94025000D01*
X137572500Y-92573605D01*
X137576056Y-92537500D01*
X137561865Y-92393415D01*
X137558526Y-92382407D01*
X137519837Y-92254867D01*
X137451587Y-92127180D01*
X137359738Y-92015262D01*
X137331693Y-91992246D01*
X136677900Y-91338454D01*
X136677900Y-91303685D01*
X136640320Y-91114757D01*
X136566604Y-90936790D01*
X136459585Y-90776625D01*
X136323375Y-90640415D01*
X136163210Y-90533396D01*
X136106823Y-90510040D01*
X137327059Y-90510040D01*
X137363164Y-90513596D01*
X137399269Y-90510040D01*
X137507249Y-90499405D01*
X137645797Y-90457377D01*
X137773484Y-90389127D01*
X137885402Y-90297278D01*
X137908422Y-90269228D01*
X139659197Y-88518454D01*
X139687237Y-88495442D01*
X139710250Y-88467401D01*
X139710253Y-88467398D01*
X139763958Y-88401958D01*
X139779087Y-88383524D01*
X139847337Y-88255837D01*
X139889365Y-88117289D01*
X139893068Y-88079690D01*
X139903556Y-87973204D01*
X139900000Y-87937099D01*
X139900000Y-86749872D01*
X139901600Y-86749872D01*
X140026082Y-86737612D01*
X140145780Y-86701302D01*
X140256094Y-86642337D01*
X140352785Y-86562985D01*
X140432137Y-86466294D01*
X140491102Y-86355980D01*
X140497963Y-86333364D01*
X140514757Y-86340320D01*
X140703685Y-86377900D01*
X140896315Y-86377900D01*
X141085243Y-86340320D01*
X141263210Y-86266604D01*
X141423375Y-86159585D01*
X141559585Y-86023375D01*
X141666604Y-85863210D01*
X141740320Y-85685243D01*
X141777900Y-85496315D01*
X141777900Y-85461547D01*
X141896693Y-85342754D01*
X141924738Y-85319738D01*
X142016587Y-85207820D01*
X142042974Y-85158453D01*
X142084837Y-85080134D01*
X142126865Y-84941585D01*
X142137205Y-84836604D01*
X142269792Y-84727792D01*
X142340000Y-84642244D01*
X142410208Y-84727792D01*
X142543836Y-84837458D01*
X142696291Y-84918947D01*
X142861715Y-84969128D01*
X143033750Y-84986072D01*
X143521250Y-84986072D01*
X143693285Y-84969128D01*
X143858709Y-84918947D01*
X144011164Y-84837458D01*
X144144792Y-84727792D01*
X144254458Y-84594164D01*
X144335947Y-84441709D01*
X144386128Y-84276285D01*
X144403072Y-84104250D01*
X144403072Y-83774006D01*
X144660079Y-83517000D01*
X145880741Y-83517000D01*
X146048238Y-83684497D01*
X146270167Y-83832785D01*
X146516761Y-83934928D01*
X146778544Y-83987000D01*
X147045456Y-83987000D01*
X147296989Y-83936967D01*
X147296990Y-91005427D01*
X147289458Y-90991336D01*
X147179792Y-90857708D01*
X147046164Y-90748042D01*
X146893709Y-90666553D01*
X146728285Y-90616372D01*
X146556250Y-90599428D01*
X145643750Y-90599428D01*
X145471715Y-90616372D01*
X145306291Y-90666553D01*
X145153836Y-90748042D01*
X145020208Y-90857708D01*
X144911638Y-90990000D01*
X143883000Y-90990000D01*
X143883000Y-88921072D01*
X144573001Y-88921072D01*
X144746255Y-88904008D01*
X144912851Y-88853472D01*
X145066387Y-88771405D01*
X145200962Y-88660962D01*
X145311405Y-88526387D01*
X145393472Y-88372851D01*
X145444008Y-88206255D01*
X145461072Y-88033001D01*
X145461072Y-87182999D01*
X145444008Y-87009745D01*
X145393472Y-86843149D01*
X145311405Y-86689613D01*
X145200962Y-86555038D01*
X145066387Y-86444595D01*
X144912851Y-86362528D01*
X144746255Y-86311992D01*
X144573001Y-86294928D01*
X141722999Y-86294928D01*
X141549745Y-86311992D01*
X141383149Y-86362528D01*
X141229613Y-86444595D01*
X141095038Y-86555038D01*
X140984595Y-86689613D01*
X140902528Y-86843149D01*
X140851992Y-87009745D01*
X140834928Y-87182999D01*
X140834928Y-88033001D01*
X140851992Y-88206255D01*
X140902528Y-88372851D01*
X140984595Y-88526387D01*
X141095038Y-88660962D01*
X141229613Y-88771405D01*
X141383149Y-88853472D01*
X141549745Y-88904008D01*
X141722999Y-88921072D01*
X142413000Y-88921072D01*
X142413001Y-90927500D01*
X141288362Y-90927500D01*
X141179792Y-90795208D01*
X141046164Y-90685542D01*
X140893709Y-90604053D01*
X140728285Y-90553872D01*
X140556250Y-90536928D01*
X139643750Y-90536928D01*
X139471715Y-90553872D01*
X139306291Y-90604053D01*
X139153836Y-90685542D01*
X139020208Y-90795208D01*
X138910542Y-90928836D01*
X138829053Y-91081291D01*
X138778872Y-91246715D01*
X138761928Y-91418750D01*
X138761928Y-91906250D01*
X138778872Y-92078285D01*
X138829053Y-92243709D01*
X138910542Y-92396164D01*
X139020208Y-92529792D01*
X139026564Y-92535008D01*
X138948815Y-92598815D01*
X138869463Y-92695506D01*
X138810498Y-92805820D01*
X138774188Y-92925518D01*
X138761928Y-93050000D01*
X138765000Y-93251750D01*
X138923750Y-93410500D01*
X139973000Y-93410500D01*
X139973000Y-93390500D01*
X140227000Y-93390500D01*
X140227000Y-93410500D01*
X140247000Y-93410500D01*
X140247000Y-93664500D01*
X140227000Y-93664500D01*
X140227000Y-94501250D01*
X140385750Y-94660000D01*
X140800000Y-94663072D01*
X140924482Y-94650812D01*
X141044180Y-94614502D01*
X141154494Y-94555537D01*
X141182386Y-94532647D01*
X141229613Y-94571405D01*
X141383149Y-94653472D01*
X141549745Y-94704008D01*
X141722999Y-94721072D01*
X142413001Y-94721072D01*
X142413000Y-96994997D01*
X142409444Y-97031102D01*
X142423635Y-97175187D01*
X142434643Y-97211474D01*
X142465663Y-97313734D01*
X142533913Y-97441421D01*
X142625762Y-97553339D01*
X142653808Y-97576356D01*
X143798769Y-98721318D01*
X143651650Y-98706828D01*
X142739150Y-98706828D01*
X142567115Y-98723772D01*
X142401691Y-98773953D01*
X142260568Y-98849385D01*
X142217894Y-98814363D01*
X142107580Y-98755398D01*
X141987882Y-98719088D01*
X141863400Y-98706828D01*
X141449150Y-98709900D01*
X141290400Y-98868650D01*
X141290400Y-99705400D01*
X141310400Y-99705400D01*
X141310400Y-99959400D01*
X141290400Y-99959400D01*
X141290400Y-99979400D01*
X141036400Y-99979400D01*
X141036400Y-99959400D01*
X139987150Y-99959400D01*
X139828400Y-100118150D01*
X139825328Y-100319900D01*
X139837588Y-100444382D01*
X139873898Y-100564080D01*
X139932863Y-100674394D01*
X140012215Y-100771085D01*
X140089964Y-100834892D01*
X140083608Y-100840108D01*
X139973942Y-100973736D01*
X139892453Y-101126191D01*
X139842272Y-101291615D01*
X139825328Y-101463650D01*
X139825328Y-101951150D01*
X139842272Y-102123185D01*
X139892453Y-102288609D01*
X139973942Y-102441064D01*
X140083608Y-102574692D01*
X140217236Y-102684358D01*
X140369691Y-102765847D01*
X140535115Y-102816028D01*
X140707150Y-102832972D01*
X141249525Y-102832972D01*
X141405656Y-102989103D01*
X141428672Y-103017148D01*
X141540590Y-103108997D01*
X141668277Y-103177247D01*
X141806825Y-103219275D01*
X141914805Y-103229910D01*
X141914814Y-103229910D01*
X141950909Y-103233465D01*
X141987004Y-103229910D01*
X142235943Y-103229910D01*
X141535605Y-103930248D01*
X141485650Y-103925328D01*
X140998150Y-103925328D01*
X140826115Y-103942272D01*
X140660691Y-103992453D01*
X140508236Y-104073942D01*
X140374608Y-104183608D01*
X140264942Y-104317236D01*
X140183453Y-104469691D01*
X140133272Y-104635115D01*
X140116328Y-104807150D01*
X140116328Y-105719650D01*
X140133272Y-105891685D01*
X140183453Y-106057109D01*
X140264942Y-106209564D01*
X140374608Y-106343192D01*
X140508236Y-106452858D01*
X140660691Y-106534347D01*
X140826115Y-106584528D01*
X140998150Y-106601472D01*
X141485650Y-106601472D01*
X141657685Y-106584528D01*
X141823109Y-106534347D01*
X141975564Y-106452858D01*
X142109192Y-106343192D01*
X142179400Y-106257644D01*
X142249608Y-106343192D01*
X142383236Y-106452858D01*
X142535691Y-106534347D01*
X142701115Y-106584528D01*
X142873150Y-106601472D01*
X143360650Y-106601472D01*
X143429088Y-106594731D01*
X143545466Y-106656937D01*
X143684015Y-106698965D01*
X143786859Y-106709094D01*
X143437808Y-107058146D01*
X143409762Y-107081163D01*
X143317913Y-107193081D01*
X143249663Y-107320768D01*
X143228274Y-107391278D01*
X143207635Y-107459315D01*
X143193444Y-107603400D01*
X143197000Y-107639505D01*
X143197001Y-111138528D01*
X142735599Y-111138528D01*
X142562345Y-111155592D01*
X142395749Y-111206128D01*
X142242213Y-111288195D01*
X142190306Y-111330794D01*
X142082180Y-111272998D01*
X141962482Y-111236688D01*
X141838000Y-111224428D01*
X141423750Y-111227500D01*
X141265000Y-111386250D01*
X141265000Y-112223000D01*
X141285000Y-112223000D01*
X141285000Y-112477000D01*
X141265000Y-112477000D01*
X141265000Y-112497000D01*
X141011000Y-112497000D01*
X141011000Y-112477000D01*
X139961750Y-112477000D01*
X139803000Y-112635750D01*
X139799928Y-112837500D01*
X139812188Y-112961982D01*
X139848498Y-113081680D01*
X139907463Y-113191994D01*
X139986815Y-113288685D01*
X140064564Y-113352492D01*
X140058208Y-113357708D01*
X139948542Y-113491336D01*
X139867053Y-113643791D01*
X139816872Y-113809215D01*
X139799928Y-113981250D01*
X139799928Y-114468750D01*
X139816872Y-114640785D01*
X139867053Y-114806209D01*
X139948542Y-114958664D01*
X140058208Y-115092292D01*
X140191836Y-115201958D01*
X140344291Y-115283447D01*
X140509715Y-115333628D01*
X140681750Y-115350572D01*
X141594250Y-115350572D01*
X141766285Y-115333628D01*
X141931709Y-115283447D01*
X142084164Y-115201958D01*
X142217792Y-115092292D01*
X142326362Y-114960000D01*
X143425601Y-114960000D01*
X143425600Y-116938528D01*
X142735599Y-116938528D01*
X142562345Y-116955592D01*
X142395749Y-117006128D01*
X142242213Y-117088195D01*
X142107638Y-117198638D01*
X141997195Y-117333213D01*
X141915128Y-117486749D01*
X141864592Y-117653345D01*
X141847528Y-117826599D01*
X141847528Y-118676601D01*
X141864592Y-118849855D01*
X141915128Y-119016451D01*
X141997195Y-119169987D01*
X142107638Y-119304562D01*
X142242213Y-119415005D01*
X142395749Y-119497072D01*
X142562345Y-119547608D01*
X142735599Y-119564672D01*
X145585601Y-119564672D01*
X145758855Y-119547608D01*
X145925451Y-119497072D01*
X146078987Y-119415005D01*
X146213562Y-119304562D01*
X146324005Y-119169987D01*
X146406072Y-119016451D01*
X146456608Y-118849855D01*
X146473672Y-118676601D01*
X146473672Y-117826599D01*
X146456608Y-117653345D01*
X146406072Y-117486749D01*
X146324005Y-117333213D01*
X146213562Y-117198638D01*
X146078987Y-117088195D01*
X145925451Y-117006128D01*
X145758855Y-116955592D01*
X145585601Y-116938528D01*
X144895600Y-116938528D01*
X144895600Y-114960000D01*
X145994838Y-114960000D01*
X146103408Y-115092292D01*
X146237036Y-115201958D01*
X146389491Y-115283447D01*
X146554915Y-115333628D01*
X146726950Y-115350572D01*
X147638980Y-115350572D01*
X147638980Y-118279876D01*
X147635424Y-118315981D01*
X147638980Y-118352085D01*
X147649615Y-118460065D01*
X147691643Y-118598613D01*
X147759893Y-118726300D01*
X147851742Y-118838218D01*
X147879788Y-118861235D01*
X149826756Y-120808204D01*
X149849772Y-120836249D01*
X149961690Y-120928098D01*
X150089377Y-120996348D01*
X150185896Y-121025627D01*
X150227924Y-121038376D01*
X150242142Y-121039776D01*
X150335905Y-121049011D01*
X150335912Y-121049011D01*
X150372009Y-121052566D01*
X150408106Y-121049011D01*
X161965585Y-121049011D01*
X162001690Y-121052567D01*
X162037795Y-121049011D01*
X162145775Y-121038376D01*
X162284323Y-120996348D01*
X162412010Y-120928098D01*
X162523928Y-120836249D01*
X162546949Y-120808198D01*
X163190217Y-120164930D01*
X163218256Y-120141919D01*
X163241269Y-120113878D01*
X163241272Y-120113875D01*
X163310106Y-120030001D01*
X163333569Y-119986104D01*
X163378356Y-119902314D01*
X163420384Y-119763766D01*
X163431019Y-119655786D01*
X163431019Y-119655778D01*
X163434574Y-119619681D01*
X163431019Y-119583586D01*
X163431019Y-110228124D01*
X163434575Y-110192019D01*
X163420384Y-110047933D01*
X163403123Y-109991033D01*
X163378356Y-109909386D01*
X163310106Y-109781699D01*
X163218257Y-109669781D01*
X163190212Y-109646765D01*
X162231000Y-108687553D01*
X162231000Y-108562816D01*
X162172011Y-108266257D01*
X162056299Y-107986905D01*
X161888312Y-107735495D01*
X161674505Y-107521688D01*
X161423095Y-107353701D01*
X161143743Y-107237989D01*
X160847184Y-107179000D01*
X160544816Y-107179000D01*
X160248257Y-107237989D01*
X160230999Y-107245138D01*
X160230999Y-105182862D01*
X160248257Y-105190011D01*
X160544816Y-105249000D01*
X160847184Y-105249000D01*
X161143743Y-105190011D01*
X161423095Y-105074299D01*
X161674505Y-104906312D01*
X161888312Y-104692505D01*
X162056299Y-104441095D01*
X162172011Y-104161743D01*
X162231000Y-103865184D01*
X162231000Y-103562816D01*
X162172011Y-103266257D01*
X162056299Y-102986905D01*
X161888312Y-102735495D01*
X161674505Y-102521688D01*
X161423095Y-102353701D01*
X161143743Y-102237989D01*
X160871253Y-102183788D01*
X161482792Y-101572249D01*
X162958046Y-101572249D01*
X162994151Y-101575805D01*
X163030256Y-101572249D01*
X163138236Y-101561614D01*
X163276784Y-101519586D01*
X163404471Y-101451336D01*
X163516389Y-101359487D01*
X163539409Y-101331437D01*
X164594248Y-100276599D01*
X164622293Y-100253583D01*
X164714142Y-100141665D01*
X164782392Y-100013978D01*
X164824420Y-99875430D01*
X164835055Y-99767450D01*
X164835055Y-99767441D01*
X164838610Y-99731346D01*
X164835055Y-99695251D01*
X164835055Y-82091049D01*
X164838610Y-82054954D01*
X164835055Y-82018859D01*
X164835055Y-82018850D01*
X164824420Y-81910870D01*
X164782392Y-81772322D01*
X164714142Y-81644635D01*
X164687425Y-81612081D01*
X164645308Y-81560761D01*
X164645305Y-81560758D01*
X164622292Y-81532717D01*
X164594252Y-81509705D01*
X161790315Y-78705769D01*
X161767299Y-78677724D01*
X161655381Y-78585875D01*
X161527694Y-78517625D01*
X161527684Y-78517622D01*
X161389146Y-78475596D01*
X161245061Y-78461405D01*
X161208946Y-78464962D01*
X158585620Y-78464962D01*
X158687932Y-78217958D01*
X158745000Y-77931060D01*
X158745000Y-77638540D01*
X158687932Y-77351642D01*
X158575990Y-77081389D01*
X158413475Y-76838168D01*
X158206632Y-76631325D01*
X158032240Y-76514800D01*
X158206632Y-76398275D01*
X158305612Y-76299295D01*
X160115000Y-76299295D01*
X160115000Y-76690305D01*
X160191282Y-77073803D01*
X160340915Y-77435050D01*
X160558149Y-77760164D01*
X160834636Y-78036651D01*
X161159750Y-78253885D01*
X161520997Y-78403518D01*
X161904495Y-78479800D01*
X162295505Y-78479800D01*
X162679003Y-78403518D01*
X163040250Y-78253885D01*
X163365364Y-78036651D01*
X163641851Y-77760164D01*
X163859085Y-77435050D01*
X164008718Y-77073803D01*
X164085000Y-76690305D01*
X164085000Y-76299295D01*
X164008718Y-75915797D01*
X163859085Y-75554550D01*
X163641851Y-75229436D01*
X163365364Y-74952949D01*
X163040250Y-74735715D01*
X162679003Y-74586082D01*
X162295505Y-74509800D01*
X161904495Y-74509800D01*
X161520997Y-74586082D01*
X161159750Y-74735715D01*
X160834636Y-74952949D01*
X160558149Y-75229436D01*
X160340915Y-75554550D01*
X160191282Y-75915797D01*
X160115000Y-76299295D01*
X158305612Y-76299295D01*
X158413475Y-76191432D01*
X158575990Y-75948211D01*
X158687932Y-75677958D01*
X158745000Y-75391060D01*
X158745000Y-75098540D01*
X158687932Y-74811642D01*
X158575990Y-74541389D01*
X158413475Y-74298168D01*
X158206632Y-74091325D01*
X157963411Y-73928810D01*
X157693158Y-73816868D01*
X157406260Y-73759800D01*
X157113740Y-73759800D01*
X156826842Y-73816868D01*
X156556589Y-73928810D01*
X156313368Y-74091325D01*
X156106525Y-74298168D01*
X155990000Y-74472560D01*
X155873475Y-74298168D01*
X155666632Y-74091325D01*
X155423411Y-73928810D01*
X155153158Y-73816868D01*
X154866260Y-73759800D01*
X154573740Y-73759800D01*
X154286842Y-73816868D01*
X154016589Y-73928810D01*
X153773368Y-74091325D01*
X153566525Y-74298168D01*
X153450000Y-74472560D01*
X153333475Y-74298168D01*
X153126632Y-74091325D01*
X152883411Y-73928810D01*
X152613158Y-73816868D01*
X152326260Y-73759800D01*
X152033740Y-73759800D01*
X151746842Y-73816868D01*
X151476589Y-73928810D01*
X151233368Y-74091325D01*
X151026525Y-74298168D01*
X150910000Y-74472560D01*
X150793475Y-74298168D01*
X150586632Y-74091325D01*
X150343411Y-73928810D01*
X150073158Y-73816868D01*
X149786260Y-73759800D01*
X149493740Y-73759800D01*
X149206842Y-73816868D01*
X148936589Y-73928810D01*
X148693368Y-74091325D01*
X148486525Y-74298168D01*
X148370000Y-74472560D01*
X148253475Y-74298168D01*
X148046632Y-74091325D01*
X147803411Y-73928810D01*
X147533158Y-73816868D01*
X147246260Y-73759800D01*
X146953740Y-73759800D01*
X146666842Y-73816868D01*
X146396589Y-73928810D01*
X146153368Y-74091325D01*
X145946525Y-74298168D01*
X145830000Y-74472560D01*
X145713475Y-74298168D01*
X145506632Y-74091325D01*
X145263411Y-73928810D01*
X144993158Y-73816868D01*
X144706260Y-73759800D01*
X144413740Y-73759800D01*
X144126842Y-73816868D01*
X143856589Y-73928810D01*
X143613368Y-74091325D01*
X143406525Y-74298168D01*
X143290000Y-74472560D01*
X143173475Y-74298168D01*
X142966632Y-74091325D01*
X142723411Y-73928810D01*
X142453158Y-73816868D01*
X142166260Y-73759800D01*
X141873740Y-73759800D01*
X141586842Y-73816868D01*
X141316589Y-73928810D01*
X141073368Y-74091325D01*
X140866525Y-74298168D01*
X140750000Y-74472560D01*
X140633475Y-74298168D01*
X140426632Y-74091325D01*
X140183411Y-73928810D01*
X139913158Y-73816868D01*
X139626260Y-73759800D01*
X139333740Y-73759800D01*
X139046842Y-73816868D01*
X138776589Y-73928810D01*
X138533368Y-74091325D01*
X138326525Y-74298168D01*
X138210000Y-74472560D01*
X138093475Y-74298168D01*
X137886632Y-74091325D01*
X137643411Y-73928810D01*
X137373158Y-73816868D01*
X137086260Y-73759800D01*
X136793740Y-73759800D01*
X136506842Y-73816868D01*
X136236589Y-73928810D01*
X135993368Y-74091325D01*
X135786525Y-74298168D01*
X135670000Y-74472560D01*
X135553475Y-74298168D01*
X135346632Y-74091325D01*
X135103411Y-73928810D01*
X134833158Y-73816868D01*
X134546260Y-73759800D01*
X134253740Y-73759800D01*
X133966842Y-73816868D01*
X133696589Y-73928810D01*
X133453368Y-74091325D01*
X133246525Y-74298168D01*
X133130000Y-74472560D01*
X133013475Y-74298168D01*
X132806632Y-74091325D01*
X132563411Y-73928810D01*
X132293158Y-73816868D01*
X132006260Y-73759800D01*
X131713740Y-73759800D01*
X131426842Y-73816868D01*
X131156589Y-73928810D01*
X130913368Y-74091325D01*
X130706525Y-74298168D01*
X130590000Y-74472560D01*
X130473475Y-74298168D01*
X130266632Y-74091325D01*
X130023411Y-73928810D01*
X129753158Y-73816868D01*
X129466260Y-73759800D01*
X129173740Y-73759800D01*
X128886842Y-73816868D01*
X128616589Y-73928810D01*
X128373368Y-74091325D01*
X128166525Y-74298168D01*
X128050000Y-74472560D01*
X127933475Y-74298168D01*
X127726632Y-74091325D01*
X127483411Y-73928810D01*
X127213158Y-73816868D01*
X126926260Y-73759800D01*
X126633740Y-73759800D01*
X126346842Y-73816868D01*
X126076589Y-73928810D01*
X125833368Y-74091325D01*
X125626525Y-74298168D01*
X125510000Y-74472560D01*
X125393475Y-74298168D01*
X125186632Y-74091325D01*
X124943411Y-73928810D01*
X124673158Y-73816868D01*
X124386260Y-73759800D01*
X124093740Y-73759800D01*
X123806842Y-73816868D01*
X123536589Y-73928810D01*
X123293368Y-74091325D01*
X123086525Y-74298168D01*
X122970000Y-74472560D01*
X122853475Y-74298168D01*
X122646632Y-74091325D01*
X122403411Y-73928810D01*
X122133158Y-73816868D01*
X121846260Y-73759800D01*
X121553740Y-73759800D01*
X121266842Y-73816868D01*
X120996589Y-73928810D01*
X120753368Y-74091325D01*
X120546525Y-74298168D01*
X120430000Y-74472560D01*
X120313475Y-74298168D01*
X120106632Y-74091325D01*
X119863411Y-73928810D01*
X119593158Y-73816868D01*
X119306260Y-73759800D01*
X119013740Y-73759800D01*
X118726842Y-73816868D01*
X118456589Y-73928810D01*
X118213368Y-74091325D01*
X118006525Y-74298168D01*
X117890000Y-74472560D01*
X117773475Y-74298168D01*
X117566632Y-74091325D01*
X117323411Y-73928810D01*
X117053158Y-73816868D01*
X116766260Y-73759800D01*
X116473740Y-73759800D01*
X116186842Y-73816868D01*
X115916589Y-73928810D01*
X115673368Y-74091325D01*
X115466525Y-74298168D01*
X115350000Y-74472560D01*
X115233475Y-74298168D01*
X115026632Y-74091325D01*
X114783411Y-73928810D01*
X114513158Y-73816868D01*
X114226260Y-73759800D01*
X113933740Y-73759800D01*
X113646842Y-73816868D01*
X113376589Y-73928810D01*
X113133368Y-74091325D01*
X112926525Y-74298168D01*
X112810000Y-74472560D01*
X112693475Y-74298168D01*
X112486632Y-74091325D01*
X112243411Y-73928810D01*
X111973158Y-73816868D01*
X111686260Y-73759800D01*
X111393740Y-73759800D01*
X111106842Y-73816868D01*
X110836589Y-73928810D01*
X110593368Y-74091325D01*
X110386525Y-74298168D01*
X110270000Y-74472560D01*
X110153475Y-74298168D01*
X109946632Y-74091325D01*
X109703411Y-73928810D01*
X109433158Y-73816868D01*
X109146260Y-73759800D01*
X108853740Y-73759800D01*
X108566842Y-73816868D01*
X108296589Y-73928810D01*
X108053368Y-74091325D01*
X107846525Y-74298168D01*
X107684010Y-74541389D01*
X107572068Y-74811642D01*
X107515000Y-75098540D01*
X107515000Y-75391060D01*
X107572068Y-75677958D01*
X107646354Y-75857302D01*
X107627759Y-75872563D01*
X107604744Y-75900607D01*
X105958722Y-77546630D01*
X106059718Y-77302803D01*
X106136000Y-76919305D01*
X106136000Y-76528295D01*
X106059718Y-76144797D01*
X105910085Y-75783550D01*
X105692851Y-75458436D01*
X105416364Y-75181949D01*
X105091250Y-74964715D01*
X104730003Y-74815082D01*
X104346505Y-74738800D01*
X103955495Y-74738800D01*
X103571997Y-74815082D01*
X103210750Y-74964715D01*
X102885636Y-75181949D01*
X102609149Y-75458436D01*
X102391915Y-75783550D01*
X102242282Y-76144797D01*
X102166000Y-76528295D01*
X102166000Y-76919305D01*
X102242282Y-77302803D01*
X102391915Y-77664050D01*
X102609149Y-77989164D01*
X102885636Y-78265651D01*
X103210750Y-78482885D01*
X103571997Y-78632518D01*
X103955495Y-78708800D01*
X104346505Y-78708800D01*
X104730003Y-78632518D01*
X105091250Y-78482885D01*
X105366388Y-78299044D01*
X105361635Y-78314713D01*
X105347444Y-78458798D01*
X105351001Y-78494913D01*
X105351001Y-79523744D01*
X105292291Y-79541553D01*
X105139836Y-79623042D01*
X105133500Y-79628242D01*
X105127164Y-79623042D01*
X104974709Y-79541553D01*
X104809285Y-79491372D01*
X104637250Y-79474428D01*
X103724750Y-79474428D01*
X103552715Y-79491372D01*
X103387291Y-79541553D01*
X103234836Y-79623042D01*
X103228500Y-79628242D01*
X103222164Y-79623042D01*
X103069709Y-79541553D01*
X102904285Y-79491372D01*
X102732250Y-79474428D01*
X101819750Y-79474428D01*
X101647715Y-79491372D01*
X101482291Y-79541553D01*
X101329836Y-79623042D01*
X101285000Y-79659838D01*
X101285000Y-76033505D01*
X101332312Y-75550984D01*
X101462714Y-75119070D01*
X101674524Y-74720715D01*
X101959675Y-74371086D01*
X102307303Y-74083503D01*
X102704177Y-73868914D01*
X103135161Y-73735502D01*
X103615654Y-73685000D01*
X162566495Y-73685000D01*
X163049016Y-73732312D01*
G37*
X163049016Y-73732312D02*
X163480930Y-73862714D01*
X163879285Y-74074524D01*
X164228914Y-74359675D01*
X164516497Y-74707303D01*
X164731086Y-75104177D01*
X164864498Y-75535161D01*
X164915001Y-76015663D01*
X164915000Y-125966495D01*
X164867688Y-126449016D01*
X164737287Y-126880927D01*
X164525480Y-127279280D01*
X164240325Y-127628914D01*
X163892697Y-127916497D01*
X163495825Y-128131085D01*
X163064834Y-128264500D01*
X162584346Y-128315000D01*
X112740550Y-128315000D01*
X112877450Y-128273472D01*
X113030986Y-128191405D01*
X113165562Y-128080962D01*
X113276005Y-127946386D01*
X113358072Y-127792850D01*
X113408608Y-127626254D01*
X113425672Y-127453000D01*
X113425672Y-126203000D01*
X113408608Y-126029746D01*
X113358072Y-125863150D01*
X113276005Y-125709614D01*
X113165562Y-125575038D01*
X113030986Y-125464595D01*
X113012397Y-125454659D01*
X113017264Y-125452058D01*
X113150892Y-125342392D01*
X113260558Y-125208764D01*
X113342047Y-125056309D01*
X113392228Y-124890885D01*
X113409172Y-124718850D01*
X113409172Y-123806350D01*
X113392228Y-123634315D01*
X113342047Y-123468891D01*
X113260558Y-123316436D01*
X113150892Y-123182808D01*
X113017264Y-123073142D01*
X112864809Y-122991653D01*
X112699385Y-122941472D01*
X112527350Y-122924528D01*
X112039850Y-122924528D01*
X111867815Y-122941472D01*
X111702391Y-122991653D01*
X111549936Y-123073142D01*
X111416308Y-123182808D01*
X111411092Y-123189164D01*
X111347285Y-123111415D01*
X111250594Y-123032063D01*
X111140280Y-122973098D01*
X111020582Y-122936788D01*
X110896100Y-122924528D01*
X110694350Y-122927600D01*
X110535600Y-123086350D01*
X110535600Y-124135600D01*
X110555600Y-124135600D01*
X110555600Y-124389600D01*
X110535600Y-124389600D01*
X110535600Y-125438850D01*
X110694350Y-125597600D01*
X110896100Y-125600672D01*
X111020582Y-125588412D01*
X111140280Y-125552102D01*
X111250594Y-125493137D01*
X111347285Y-125413785D01*
X111411092Y-125336036D01*
X111416308Y-125342392D01*
X111427601Y-125351660D01*
X111427601Y-125393298D01*
X111294214Y-125464595D01*
X111159638Y-125575038D01*
X111049195Y-125709614D01*
X110967128Y-125863150D01*
X110916592Y-126029746D01*
X110899528Y-126203000D01*
X110899528Y-127453000D01*
X110916592Y-127626254D01*
X110967128Y-127792850D01*
X111049195Y-127946386D01*
X111159638Y-128080962D01*
X111294214Y-128191405D01*
X111447750Y-128273472D01*
X111584650Y-128315000D01*
X109940550Y-128315000D01*
X110077450Y-128273472D01*
X110230986Y-128191405D01*
X110365562Y-128080962D01*
X110476005Y-127946386D01*
X110558072Y-127792850D01*
X110608608Y-127626254D01*
X110625672Y-127453000D01*
X110625672Y-126203000D01*
X110608608Y-126029746D01*
X110558072Y-125863150D01*
X110476005Y-125709614D01*
X110365562Y-125575038D01*
X110244645Y-125475805D01*
X110281600Y-125438850D01*
X110281600Y-124389600D01*
X109444850Y-124389600D01*
X109286100Y-124548350D01*
X109283028Y-124962600D01*
X109295288Y-125087082D01*
X109331598Y-125206780D01*
X109389405Y-125314928D01*
X108987600Y-125314928D01*
X108814346Y-125331992D01*
X108647750Y-125382528D01*
X108494214Y-125464595D01*
X108359638Y-125575038D01*
X108249195Y-125709614D01*
X108167128Y-125863150D01*
X108124365Y-126004120D01*
X108022410Y-125935996D01*
X107844443Y-125862280D01*
X107655515Y-125824700D01*
X107462885Y-125824700D01*
X107273957Y-125862280D01*
X107095990Y-125935996D01*
X106935825Y-126043015D01*
X106799615Y-126179225D01*
X106692596Y-126339390D01*
X106618880Y-126517357D01*
X106581300Y-126706285D01*
X106581300Y-126898915D01*
X106618880Y-127087843D01*
X106692596Y-127265810D01*
X106799615Y-127425975D01*
X106935825Y-127562185D01*
X107095990Y-127669204D01*
X107273957Y-127742920D01*
X107462885Y-127780500D01*
X107655515Y-127780500D01*
X107844443Y-127742920D01*
X108022410Y-127669204D01*
X108114746Y-127607507D01*
X108116592Y-127626254D01*
X108167128Y-127792850D01*
X108249195Y-127946386D01*
X108359638Y-128080962D01*
X108494214Y-128191405D01*
X108647750Y-128273472D01*
X108784650Y-128315000D01*
X103633504Y-128315000D01*
X103150984Y-128267688D01*
X102719073Y-128137287D01*
X102320720Y-127925480D01*
X101971086Y-127640325D01*
X101683503Y-127292697D01*
X101468915Y-126895825D01*
X101335500Y-126464834D01*
X101285000Y-125984346D01*
X101285000Y-125298495D01*
X102166000Y-125298495D01*
X102166000Y-125689505D01*
X102242282Y-126073003D01*
X102391915Y-126434250D01*
X102609149Y-126759364D01*
X102885636Y-127035851D01*
X103210750Y-127253085D01*
X103571997Y-127402718D01*
X103955495Y-127479000D01*
X104346505Y-127479000D01*
X104730003Y-127402718D01*
X105091250Y-127253085D01*
X105416364Y-127035851D01*
X105692851Y-126759364D01*
X105910085Y-126434250D01*
X106059718Y-126073003D01*
X106136000Y-125689505D01*
X106136000Y-125298495D01*
X106059718Y-124914997D01*
X105910085Y-124553750D01*
X105692851Y-124228636D01*
X105416364Y-123952149D01*
X105091250Y-123734915D01*
X104730003Y-123585282D01*
X104615973Y-123562600D01*
X109283028Y-123562600D01*
X109286100Y-123976850D01*
X109444850Y-124135600D01*
X110281600Y-124135600D01*
X110281600Y-123086350D01*
X110122850Y-122927600D01*
X109921100Y-122924528D01*
X109796618Y-122936788D01*
X109676920Y-122973098D01*
X109566606Y-123032063D01*
X109469915Y-123111415D01*
X109390563Y-123208106D01*
X109331598Y-123318420D01*
X109295288Y-123438118D01*
X109283028Y-123562600D01*
X104615973Y-123562600D01*
X104346505Y-123509000D01*
X103955495Y-123509000D01*
X103571997Y-123585282D01*
X103210750Y-123734915D01*
X102885636Y-123952149D01*
X102609149Y-124228636D01*
X102391915Y-124553750D01*
X102242282Y-124914997D01*
X102166000Y-125298495D01*
X101285000Y-125298495D01*
X101285000Y-110185000D01*
X105133647Y-110185000D01*
X105162601Y-110182148D01*
X105165573Y-110182169D01*
X105175092Y-110181236D01*
X105223218Y-110176178D01*
X105234283Y-110175088D01*
X105234652Y-110174976D01*
X105272140Y-110171036D01*
X105332990Y-110158545D01*
X105393942Y-110146918D01*
X105403096Y-110144155D01*
X105403102Y-110144153D01*
X105496317Y-110115298D01*
X105553533Y-110091246D01*
X105611119Y-110067980D01*
X105619564Y-110063490D01*
X105705401Y-110017077D01*
X105756867Y-109982362D01*
X105808821Y-109948364D01*
X105816232Y-109942320D01*
X105891421Y-109880118D01*
X105935162Y-109836070D01*
X105979522Y-109792631D01*
X105985618Y-109785261D01*
X105985623Y-109785256D01*
X105985627Y-109785250D01*
X106047294Y-109709640D01*
X106081632Y-109657959D01*
X106116733Y-109606694D01*
X106121282Y-109598281D01*
X106167094Y-109512120D01*
X106190758Y-109454704D01*
X106215208Y-109397661D01*
X106218036Y-109388525D01*
X106246241Y-109295107D01*
X106258303Y-109234187D01*
X106271209Y-109173470D01*
X106272209Y-109163958D01*
X106281731Y-109066841D01*
X106281731Y-109066837D01*
X106285000Y-109033647D01*
X106285000Y-108227578D01*
X106378614Y-108304405D01*
X106532150Y-108386472D01*
X106698746Y-108437008D01*
X106872000Y-108454072D01*
X107637000Y-108454072D01*
X107637001Y-113468370D01*
X107581829Y-113497860D01*
X107371485Y-113670485D01*
X107198860Y-113880829D01*
X107070589Y-114120808D01*
X106991599Y-114381201D01*
X106964928Y-114652000D01*
X106964928Y-116652000D01*
X106991599Y-116922799D01*
X107070589Y-117183192D01*
X107198860Y-117423171D01*
X107371485Y-117633515D01*
X107581829Y-117806140D01*
X107821808Y-117934411D01*
X108082201Y-118013401D01*
X108353000Y-118040072D01*
X109853000Y-118040072D01*
X110123799Y-118013401D01*
X110384192Y-117934411D01*
X110624171Y-117806140D01*
X110834515Y-117633515D01*
X111007140Y-117423171D01*
X111135411Y-117183192D01*
X111214401Y-116922799D01*
X111241072Y-116652000D01*
X111241072Y-114652000D01*
X111214401Y-114381201D01*
X111135411Y-114120808D01*
X111018457Y-113902000D01*
X112714928Y-113902000D01*
X112718000Y-115366250D01*
X112876750Y-115525000D01*
X114976000Y-115525000D01*
X114976000Y-113425750D01*
X115230000Y-113425750D01*
X115230000Y-115525000D01*
X117329250Y-115525000D01*
X117488000Y-115366250D01*
X117491072Y-113902000D01*
X117478812Y-113777518D01*
X117442502Y-113657820D01*
X117383537Y-113547506D01*
X117304185Y-113450815D01*
X117207494Y-113371463D01*
X117097180Y-113312498D01*
X116977482Y-113276188D01*
X116853000Y-113263928D01*
X115388750Y-113267000D01*
X115230000Y-113425750D01*
X114976000Y-113425750D01*
X114817250Y-113267000D01*
X113353000Y-113263928D01*
X113228518Y-113276188D01*
X113108820Y-113312498D01*
X112998506Y-113371463D01*
X112901815Y-113450815D01*
X112822463Y-113547506D01*
X112763498Y-113657820D01*
X112727188Y-113777518D01*
X112714928Y-113902000D01*
X111018457Y-113902000D01*
X111007140Y-113880829D01*
X110834515Y-113670485D01*
X110624171Y-113497860D01*
X110384192Y-113369589D01*
X110123799Y-113290599D01*
X109853000Y-113263928D01*
X109107000Y-113263928D01*
X109107000Y-108454072D01*
X109872000Y-108454072D01*
X110045254Y-108437008D01*
X110211850Y-108386472D01*
X110365386Y-108304405D01*
X110499962Y-108193962D01*
X110610405Y-108059386D01*
X110692472Y-107905850D01*
X110719727Y-107816000D01*
X111383928Y-107816000D01*
X111396188Y-107940482D01*
X111432498Y-108060180D01*
X111491463Y-108170494D01*
X111570815Y-108267185D01*
X111667506Y-108346537D01*
X111777820Y-108405502D01*
X111897518Y-108441812D01*
X112022000Y-108454072D01*
X113486250Y-108451000D01*
X113645000Y-108292250D01*
X113645000Y-107143000D01*
X111545750Y-107143000D01*
X111387000Y-107301750D01*
X111383928Y-107816000D01*
X110719727Y-107816000D01*
X110743008Y-107739254D01*
X110760072Y-107566000D01*
X110760072Y-106560000D01*
X111385983Y-106560000D01*
X111387000Y-106730250D01*
X111545750Y-106889000D01*
X113645000Y-106889000D01*
X113645000Y-106869000D01*
X113899000Y-106869000D01*
X113899000Y-106889000D01*
X113919000Y-106889000D01*
X113919000Y-107143000D01*
X113899000Y-107143000D01*
X113899000Y-108292250D01*
X114057750Y-108451000D01*
X115522000Y-108454072D01*
X115646482Y-108441812D01*
X115766180Y-108405502D01*
X115797482Y-108388771D01*
X115810498Y-108431680D01*
X115869463Y-108541994D01*
X115948815Y-108638685D01*
X116045506Y-108718037D01*
X116155820Y-108777002D01*
X116275518Y-108813312D01*
X116400000Y-108825572D01*
X116814250Y-108822500D01*
X116973000Y-108663750D01*
X116973000Y-107827000D01*
X116953000Y-107827000D01*
X116953000Y-107573000D01*
X116973000Y-107573000D01*
X116973000Y-107553000D01*
X117227000Y-107553000D01*
X117227000Y-107573000D01*
X117247000Y-107573000D01*
X117247000Y-107827000D01*
X117227000Y-107827000D01*
X117227000Y-108663750D01*
X117385750Y-108822500D01*
X117800000Y-108825572D01*
X117881001Y-108817594D01*
X117881001Y-116468923D01*
X117489935Y-116859989D01*
X117488000Y-115937750D01*
X117329250Y-115779000D01*
X115230000Y-115779000D01*
X115230000Y-117878250D01*
X115388750Y-118037000D01*
X116310990Y-118038935D01*
X114491072Y-119858853D01*
X114491072Y-119477000D01*
X114461999Y-119181814D01*
X114375896Y-118897972D01*
X114236073Y-118636382D01*
X114047903Y-118407097D01*
X113818618Y-118218927D01*
X113557028Y-118079104D01*
X113427840Y-118039915D01*
X114817250Y-118037000D01*
X114976000Y-117878250D01*
X114976000Y-115779000D01*
X112876750Y-115779000D01*
X112718000Y-115937750D01*
X112714928Y-117402000D01*
X112727188Y-117526482D01*
X112763498Y-117646180D01*
X112822463Y-117756494D01*
X112901815Y-117853185D01*
X112998506Y-117932537D01*
X113075131Y-117973494D01*
X112978000Y-117963928D01*
X111228000Y-117963928D01*
X110932814Y-117993001D01*
X110648972Y-118079104D01*
X110387382Y-118218927D01*
X110158097Y-118407097D01*
X109969927Y-118636382D01*
X109830104Y-118897972D01*
X109744001Y-119181814D01*
X109714928Y-119477000D01*
X109714928Y-121227000D01*
X109744001Y-121522186D01*
X109830104Y-121806028D01*
X109969927Y-122067618D01*
X110158097Y-122296903D01*
X110387382Y-122485073D01*
X110648972Y-122624896D01*
X110932814Y-122710999D01*
X111228000Y-122740072D01*
X112978000Y-122740072D01*
X113273186Y-122710999D01*
X113557028Y-122624896D01*
X113818618Y-122485073D01*
X114047903Y-122296903D01*
X114109591Y-122221736D01*
X114109592Y-125817573D01*
X114106035Y-125853688D01*
X114120226Y-125997773D01*
X114152340Y-126103635D01*
X114162255Y-126136321D01*
X114230505Y-126264008D01*
X114322354Y-126375926D01*
X114350399Y-126398942D01*
X115133680Y-127182224D01*
X115156696Y-127210269D01*
X115268614Y-127302118D01*
X115396301Y-127370368D01*
X115492820Y-127399647D01*
X115534848Y-127412396D01*
X115549066Y-127413796D01*
X115642829Y-127423031D01*
X115642836Y-127423031D01*
X115678933Y-127426586D01*
X115715030Y-127423031D01*
X141923864Y-127423031D01*
X141959969Y-127426587D01*
X141996074Y-127423031D01*
X142104054Y-127412396D01*
X142242602Y-127370368D01*
X142370289Y-127302118D01*
X142482207Y-127210269D01*
X142505228Y-127182219D01*
X143864447Y-125823000D01*
X143876184Y-125823000D01*
X144172743Y-125764011D01*
X144452095Y-125648299D01*
X144703505Y-125480312D01*
X144917312Y-125266505D01*
X145085299Y-125015095D01*
X145201011Y-124735743D01*
X145260000Y-124439184D01*
X145260000Y-124136816D01*
X145201011Y-123840257D01*
X145193862Y-123822999D01*
X147256138Y-123822999D01*
X147248989Y-123840257D01*
X147190000Y-124136816D01*
X147190000Y-124439184D01*
X147248989Y-124735743D01*
X147364701Y-125015095D01*
X147532688Y-125266505D01*
X147746495Y-125480312D01*
X147997905Y-125648299D01*
X148277257Y-125764011D01*
X148573816Y-125823000D01*
X148876184Y-125823000D01*
X149163419Y-125765866D01*
X149379747Y-125982194D01*
X149402763Y-126010239D01*
X149478503Y-126072397D01*
X149514681Y-126102088D01*
X149642367Y-126170338D01*
X149780916Y-126212366D01*
X149925001Y-126226557D01*
X149961106Y-126223001D01*
X154899896Y-126223001D01*
X154936001Y-126226557D01*
X154972106Y-126223001D01*
X155080086Y-126212366D01*
X155218634Y-126170338D01*
X155346321Y-126102088D01*
X155458239Y-126010239D01*
X155481259Y-125982189D01*
X156054194Y-125409255D01*
X156082239Y-125386239D01*
X156153592Y-125299295D01*
X160115000Y-125299295D01*
X160115000Y-125690305D01*
X160191282Y-126073803D01*
X160340915Y-126435050D01*
X160558149Y-126760164D01*
X160834636Y-127036651D01*
X161159750Y-127253885D01*
X161520997Y-127403518D01*
X161904495Y-127479800D01*
X162295505Y-127479800D01*
X162679003Y-127403518D01*
X163040250Y-127253885D01*
X163365364Y-127036651D01*
X163641851Y-126760164D01*
X163859085Y-126435050D01*
X164008718Y-126073803D01*
X164085000Y-125690305D01*
X164085000Y-125299295D01*
X164008718Y-124915797D01*
X163859085Y-124554550D01*
X163641851Y-124229436D01*
X163365364Y-123952949D01*
X163040250Y-123735715D01*
X162679003Y-123586082D01*
X162295505Y-123509800D01*
X161904495Y-123509800D01*
X161520997Y-123586082D01*
X161159750Y-123735715D01*
X160834636Y-123952949D01*
X160558149Y-124229436D01*
X160340915Y-124554550D01*
X160191282Y-124915797D01*
X160115000Y-125299295D01*
X156153592Y-125299295D01*
X156174088Y-125274321D01*
X156242338Y-125146634D01*
X156284366Y-125008086D01*
X156295001Y-124900106D01*
X156295001Y-124900097D01*
X156298556Y-124864002D01*
X156295001Y-124827907D01*
X156295001Y-123748104D01*
X156298557Y-123711999D01*
X156284366Y-123567914D01*
X156279842Y-123553000D01*
X156242338Y-123429366D01*
X156174088Y-123301679D01*
X156142770Y-123263518D01*
X156105254Y-123217805D01*
X156105251Y-123217802D01*
X156082238Y-123189761D01*
X156054198Y-123166749D01*
X155481258Y-122593809D01*
X155458239Y-122565761D01*
X155430190Y-122542742D01*
X155081249Y-122193801D01*
X155058229Y-122165751D01*
X154946311Y-122073902D01*
X154818624Y-122005652D01*
X154680076Y-121963624D01*
X154572096Y-121952989D01*
X154535991Y-121949433D01*
X154499886Y-121952989D01*
X143430734Y-121952989D01*
X139717020Y-118239276D01*
X139717020Y-111862500D01*
X139799928Y-111862500D01*
X139803000Y-112064250D01*
X139961750Y-112223000D01*
X141011000Y-112223000D01*
X141011000Y-111386250D01*
X140852250Y-111227500D01*
X140438000Y-111224428D01*
X140313518Y-111236688D01*
X140193820Y-111272998D01*
X140083506Y-111331963D01*
X139986815Y-111411315D01*
X139907463Y-111508006D01*
X139848498Y-111618320D01*
X139812188Y-111738018D01*
X139799928Y-111862500D01*
X139717020Y-111862500D01*
X139717020Y-99840432D01*
X139720576Y-99804327D01*
X139706385Y-99660242D01*
X139664357Y-99521694D01*
X139596107Y-99394007D01*
X139555806Y-99344900D01*
X139825328Y-99344900D01*
X139828400Y-99546650D01*
X139987150Y-99705400D01*
X141036400Y-99705400D01*
X141036400Y-98868650D01*
X140877650Y-98709900D01*
X140463400Y-98706828D01*
X140338918Y-98719088D01*
X140219220Y-98755398D01*
X140108906Y-98814363D01*
X140012215Y-98893715D01*
X139932863Y-98990406D01*
X139873898Y-99100720D01*
X139837588Y-99220418D01*
X139825328Y-99344900D01*
X139555806Y-99344900D01*
X139540817Y-99326637D01*
X139527273Y-99310133D01*
X139527270Y-99310130D01*
X139504257Y-99282089D01*
X139476217Y-99259077D01*
X137055211Y-96838072D01*
X137081250Y-96838072D01*
X137253285Y-96821128D01*
X137418709Y-96770947D01*
X137571164Y-96689458D01*
X137704792Y-96579792D01*
X137814458Y-96446164D01*
X137895947Y-96293709D01*
X137946128Y-96128285D01*
X137963072Y-95956250D01*
X137963072Y-95043750D01*
X137946128Y-94871715D01*
X137895947Y-94706291D01*
X137814458Y-94553836D01*
X137704792Y-94420208D01*
X137572500Y-94311638D01*
X137572500Y-94025000D01*
X138761928Y-94025000D01*
X138774188Y-94149482D01*
X138810498Y-94269180D01*
X138869463Y-94379494D01*
X138948815Y-94476185D01*
X139045506Y-94555537D01*
X139155820Y-94614502D01*
X139275518Y-94650812D01*
X139400000Y-94663072D01*
X139814250Y-94660000D01*
X139973000Y-94501250D01*
X139973000Y-93664500D01*
X138923750Y-93664500D01*
X138765000Y-93823250D01*
X138761928Y-94025000D01*
X137572500Y-94025000D01*
X137572500Y-92573605D01*
X137576056Y-92537500D01*
X137561865Y-92393415D01*
X137558526Y-92382407D01*
X137519837Y-92254867D01*
X137451587Y-92127180D01*
X137359738Y-92015262D01*
X137331693Y-91992246D01*
X136677900Y-91338454D01*
X136677900Y-91303685D01*
X136640320Y-91114757D01*
X136566604Y-90936790D01*
X136459585Y-90776625D01*
X136323375Y-90640415D01*
X136163210Y-90533396D01*
X136106823Y-90510040D01*
X137327059Y-90510040D01*
X137363164Y-90513596D01*
X137399269Y-90510040D01*
X137507249Y-90499405D01*
X137645797Y-90457377D01*
X137773484Y-90389127D01*
X137885402Y-90297278D01*
X137908422Y-90269228D01*
X139659197Y-88518454D01*
X139687237Y-88495442D01*
X139710250Y-88467401D01*
X139710253Y-88467398D01*
X139763958Y-88401958D01*
X139779087Y-88383524D01*
X139847337Y-88255837D01*
X139889365Y-88117289D01*
X139893068Y-88079690D01*
X139903556Y-87973204D01*
X139900000Y-87937099D01*
X139900000Y-86749872D01*
X139901600Y-86749872D01*
X140026082Y-86737612D01*
X140145780Y-86701302D01*
X140256094Y-86642337D01*
X140352785Y-86562985D01*
X140432137Y-86466294D01*
X140491102Y-86355980D01*
X140497963Y-86333364D01*
X140514757Y-86340320D01*
X140703685Y-86377900D01*
X140896315Y-86377900D01*
X141085243Y-86340320D01*
X141263210Y-86266604D01*
X141423375Y-86159585D01*
X141559585Y-86023375D01*
X141666604Y-85863210D01*
X141740320Y-85685243D01*
X141777900Y-85496315D01*
X141777900Y-85461547D01*
X141896693Y-85342754D01*
X141924738Y-85319738D01*
X142016587Y-85207820D01*
X142042974Y-85158453D01*
X142084837Y-85080134D01*
X142126865Y-84941585D01*
X142137205Y-84836604D01*
X142269792Y-84727792D01*
X142340000Y-84642244D01*
X142410208Y-84727792D01*
X142543836Y-84837458D01*
X142696291Y-84918947D01*
X142861715Y-84969128D01*
X143033750Y-84986072D01*
X143521250Y-84986072D01*
X143693285Y-84969128D01*
X143858709Y-84918947D01*
X144011164Y-84837458D01*
X144144792Y-84727792D01*
X144254458Y-84594164D01*
X144335947Y-84441709D01*
X144386128Y-84276285D01*
X144403072Y-84104250D01*
X144403072Y-83774006D01*
X144660079Y-83517000D01*
X145880741Y-83517000D01*
X146048238Y-83684497D01*
X146270167Y-83832785D01*
X146516761Y-83934928D01*
X146778544Y-83987000D01*
X147045456Y-83987000D01*
X147296989Y-83936967D01*
X147296990Y-91005427D01*
X147289458Y-90991336D01*
X147179792Y-90857708D01*
X147046164Y-90748042D01*
X146893709Y-90666553D01*
X146728285Y-90616372D01*
X146556250Y-90599428D01*
X145643750Y-90599428D01*
X145471715Y-90616372D01*
X145306291Y-90666553D01*
X145153836Y-90748042D01*
X145020208Y-90857708D01*
X144911638Y-90990000D01*
X143883000Y-90990000D01*
X143883000Y-88921072D01*
X144573001Y-88921072D01*
X144746255Y-88904008D01*
X144912851Y-88853472D01*
X145066387Y-88771405D01*
X145200962Y-88660962D01*
X145311405Y-88526387D01*
X145393472Y-88372851D01*
X145444008Y-88206255D01*
X145461072Y-88033001D01*
X145461072Y-87182999D01*
X145444008Y-87009745D01*
X145393472Y-86843149D01*
X145311405Y-86689613D01*
X145200962Y-86555038D01*
X145066387Y-86444595D01*
X144912851Y-86362528D01*
X144746255Y-86311992D01*
X144573001Y-86294928D01*
X141722999Y-86294928D01*
X141549745Y-86311992D01*
X141383149Y-86362528D01*
X141229613Y-86444595D01*
X141095038Y-86555038D01*
X140984595Y-86689613D01*
X140902528Y-86843149D01*
X140851992Y-87009745D01*
X140834928Y-87182999D01*
X140834928Y-88033001D01*
X140851992Y-88206255D01*
X140902528Y-88372851D01*
X140984595Y-88526387D01*
X141095038Y-88660962D01*
X141229613Y-88771405D01*
X141383149Y-88853472D01*
X141549745Y-88904008D01*
X141722999Y-88921072D01*
X142413000Y-88921072D01*
X142413001Y-90927500D01*
X141288362Y-90927500D01*
X141179792Y-90795208D01*
X141046164Y-90685542D01*
X140893709Y-90604053D01*
X140728285Y-90553872D01*
X140556250Y-90536928D01*
X139643750Y-90536928D01*
X139471715Y-90553872D01*
X139306291Y-90604053D01*
X139153836Y-90685542D01*
X139020208Y-90795208D01*
X138910542Y-90928836D01*
X138829053Y-91081291D01*
X138778872Y-91246715D01*
X138761928Y-91418750D01*
X138761928Y-91906250D01*
X138778872Y-92078285D01*
X138829053Y-92243709D01*
X138910542Y-92396164D01*
X139020208Y-92529792D01*
X139026564Y-92535008D01*
X138948815Y-92598815D01*
X138869463Y-92695506D01*
X138810498Y-92805820D01*
X138774188Y-92925518D01*
X138761928Y-93050000D01*
X138765000Y-93251750D01*
X138923750Y-93410500D01*
X139973000Y-93410500D01*
X139973000Y-93390500D01*
X140227000Y-93390500D01*
X140227000Y-93410500D01*
X140247000Y-93410500D01*
X140247000Y-93664500D01*
X140227000Y-93664500D01*
X140227000Y-94501250D01*
X140385750Y-94660000D01*
X140800000Y-94663072D01*
X140924482Y-94650812D01*
X141044180Y-94614502D01*
X141154494Y-94555537D01*
X141182386Y-94532647D01*
X141229613Y-94571405D01*
X141383149Y-94653472D01*
X141549745Y-94704008D01*
X141722999Y-94721072D01*
X142413001Y-94721072D01*
X142413000Y-96994997D01*
X142409444Y-97031102D01*
X142423635Y-97175187D01*
X142434643Y-97211474D01*
X142465663Y-97313734D01*
X142533913Y-97441421D01*
X142625762Y-97553339D01*
X142653808Y-97576356D01*
X143798769Y-98721318D01*
X143651650Y-98706828D01*
X142739150Y-98706828D01*
X142567115Y-98723772D01*
X142401691Y-98773953D01*
X142260568Y-98849385D01*
X142217894Y-98814363D01*
X142107580Y-98755398D01*
X141987882Y-98719088D01*
X141863400Y-98706828D01*
X141449150Y-98709900D01*
X141290400Y-98868650D01*
X141290400Y-99705400D01*
X141310400Y-99705400D01*
X141310400Y-99959400D01*
X141290400Y-99959400D01*
X141290400Y-99979400D01*
X141036400Y-99979400D01*
X141036400Y-99959400D01*
X139987150Y-99959400D01*
X139828400Y-100118150D01*
X139825328Y-100319900D01*
X139837588Y-100444382D01*
X139873898Y-100564080D01*
X139932863Y-100674394D01*
X140012215Y-100771085D01*
X140089964Y-100834892D01*
X140083608Y-100840108D01*
X139973942Y-100973736D01*
X139892453Y-101126191D01*
X139842272Y-101291615D01*
X139825328Y-101463650D01*
X139825328Y-101951150D01*
X139842272Y-102123185D01*
X139892453Y-102288609D01*
X139973942Y-102441064D01*
X140083608Y-102574692D01*
X140217236Y-102684358D01*
X140369691Y-102765847D01*
X140535115Y-102816028D01*
X140707150Y-102832972D01*
X141249525Y-102832972D01*
X141405656Y-102989103D01*
X141428672Y-103017148D01*
X141540590Y-103108997D01*
X141668277Y-103177247D01*
X141806825Y-103219275D01*
X141914805Y-103229910D01*
X141914814Y-103229910D01*
X141950909Y-103233465D01*
X141987004Y-103229910D01*
X142235943Y-103229910D01*
X141535605Y-103930248D01*
X141485650Y-103925328D01*
X140998150Y-103925328D01*
X140826115Y-103942272D01*
X140660691Y-103992453D01*
X140508236Y-104073942D01*
X140374608Y-104183608D01*
X140264942Y-104317236D01*
X140183453Y-104469691D01*
X140133272Y-104635115D01*
X140116328Y-104807150D01*
X140116328Y-105719650D01*
X140133272Y-105891685D01*
X140183453Y-106057109D01*
X140264942Y-106209564D01*
X140374608Y-106343192D01*
X140508236Y-106452858D01*
X140660691Y-106534347D01*
X140826115Y-106584528D01*
X140998150Y-106601472D01*
X141485650Y-106601472D01*
X141657685Y-106584528D01*
X141823109Y-106534347D01*
X141975564Y-106452858D01*
X142109192Y-106343192D01*
X142179400Y-106257644D01*
X142249608Y-106343192D01*
X142383236Y-106452858D01*
X142535691Y-106534347D01*
X142701115Y-106584528D01*
X142873150Y-106601472D01*
X143360650Y-106601472D01*
X143429088Y-106594731D01*
X143545466Y-106656937D01*
X143684015Y-106698965D01*
X143786859Y-106709094D01*
X143437808Y-107058146D01*
X143409762Y-107081163D01*
X143317913Y-107193081D01*
X143249663Y-107320768D01*
X143228274Y-107391278D01*
X143207635Y-107459315D01*
X143193444Y-107603400D01*
X143197000Y-107639505D01*
X143197001Y-111138528D01*
X142735599Y-111138528D01*
X142562345Y-111155592D01*
X142395749Y-111206128D01*
X142242213Y-111288195D01*
X142190306Y-111330794D01*
X142082180Y-111272998D01*
X141962482Y-111236688D01*
X141838000Y-111224428D01*
X141423750Y-111227500D01*
X141265000Y-111386250D01*
X141265000Y-112223000D01*
X141285000Y-112223000D01*
X141285000Y-112477000D01*
X141265000Y-112477000D01*
X141265000Y-112497000D01*
X141011000Y-112497000D01*
X141011000Y-112477000D01*
X139961750Y-112477000D01*
X139803000Y-112635750D01*
X139799928Y-112837500D01*
X139812188Y-112961982D01*
X139848498Y-113081680D01*
X139907463Y-113191994D01*
X139986815Y-113288685D01*
X140064564Y-113352492D01*
X140058208Y-113357708D01*
X139948542Y-113491336D01*
X139867053Y-113643791D01*
X139816872Y-113809215D01*
X139799928Y-113981250D01*
X139799928Y-114468750D01*
X139816872Y-114640785D01*
X139867053Y-114806209D01*
X139948542Y-114958664D01*
X140058208Y-115092292D01*
X140191836Y-115201958D01*
X140344291Y-115283447D01*
X140509715Y-115333628D01*
X140681750Y-115350572D01*
X141594250Y-115350572D01*
X141766285Y-115333628D01*
X141931709Y-115283447D01*
X142084164Y-115201958D01*
X142217792Y-115092292D01*
X142326362Y-114960000D01*
X143425601Y-114960000D01*
X143425600Y-116938528D01*
X142735599Y-116938528D01*
X142562345Y-116955592D01*
X142395749Y-117006128D01*
X142242213Y-117088195D01*
X142107638Y-117198638D01*
X141997195Y-117333213D01*
X141915128Y-117486749D01*
X141864592Y-117653345D01*
X141847528Y-117826599D01*
X141847528Y-118676601D01*
X141864592Y-118849855D01*
X141915128Y-119016451D01*
X141997195Y-119169987D01*
X142107638Y-119304562D01*
X142242213Y-119415005D01*
X142395749Y-119497072D01*
X142562345Y-119547608D01*
X142735599Y-119564672D01*
X145585601Y-119564672D01*
X145758855Y-119547608D01*
X145925451Y-119497072D01*
X146078987Y-119415005D01*
X146213562Y-119304562D01*
X146324005Y-119169987D01*
X146406072Y-119016451D01*
X146456608Y-118849855D01*
X146473672Y-118676601D01*
X146473672Y-117826599D01*
X146456608Y-117653345D01*
X146406072Y-117486749D01*
X146324005Y-117333213D01*
X146213562Y-117198638D01*
X146078987Y-117088195D01*
X145925451Y-117006128D01*
X145758855Y-116955592D01*
X145585601Y-116938528D01*
X144895600Y-116938528D01*
X144895600Y-114960000D01*
X145994838Y-114960000D01*
X146103408Y-115092292D01*
X146237036Y-115201958D01*
X146389491Y-115283447D01*
X146554915Y-115333628D01*
X146726950Y-115350572D01*
X147638980Y-115350572D01*
X147638980Y-118279876D01*
X147635424Y-118315981D01*
X147638980Y-118352085D01*
X147649615Y-118460065D01*
X147691643Y-118598613D01*
X147759893Y-118726300D01*
X147851742Y-118838218D01*
X147879788Y-118861235D01*
X149826756Y-120808204D01*
X149849772Y-120836249D01*
X149961690Y-120928098D01*
X150089377Y-120996348D01*
X150185896Y-121025627D01*
X150227924Y-121038376D01*
X150242142Y-121039776D01*
X150335905Y-121049011D01*
X150335912Y-121049011D01*
X150372009Y-121052566D01*
X150408106Y-121049011D01*
X161965585Y-121049011D01*
X162001690Y-121052567D01*
X162037795Y-121049011D01*
X162145775Y-121038376D01*
X162284323Y-120996348D01*
X162412010Y-120928098D01*
X162523928Y-120836249D01*
X162546949Y-120808198D01*
X163190217Y-120164930D01*
X163218256Y-120141919D01*
X163241269Y-120113878D01*
X163241272Y-120113875D01*
X163310106Y-120030001D01*
X163333569Y-119986104D01*
X163378356Y-119902314D01*
X163420384Y-119763766D01*
X163431019Y-119655786D01*
X163431019Y-119655778D01*
X163434574Y-119619681D01*
X163431019Y-119583586D01*
X163431019Y-110228124D01*
X163434575Y-110192019D01*
X163420384Y-110047933D01*
X163403123Y-109991033D01*
X163378356Y-109909386D01*
X163310106Y-109781699D01*
X163218257Y-109669781D01*
X163190212Y-109646765D01*
X162231000Y-108687553D01*
X162231000Y-108562816D01*
X162172011Y-108266257D01*
X162056299Y-107986905D01*
X161888312Y-107735495D01*
X161674505Y-107521688D01*
X161423095Y-107353701D01*
X161143743Y-107237989D01*
X160847184Y-107179000D01*
X160544816Y-107179000D01*
X160248257Y-107237989D01*
X160230999Y-107245138D01*
X160230999Y-105182862D01*
X160248257Y-105190011D01*
X160544816Y-105249000D01*
X160847184Y-105249000D01*
X161143743Y-105190011D01*
X161423095Y-105074299D01*
X161674505Y-104906312D01*
X161888312Y-104692505D01*
X162056299Y-104441095D01*
X162172011Y-104161743D01*
X162231000Y-103865184D01*
X162231000Y-103562816D01*
X162172011Y-103266257D01*
X162056299Y-102986905D01*
X161888312Y-102735495D01*
X161674505Y-102521688D01*
X161423095Y-102353701D01*
X161143743Y-102237989D01*
X160871253Y-102183788D01*
X161482792Y-101572249D01*
X162958046Y-101572249D01*
X162994151Y-101575805D01*
X163030256Y-101572249D01*
X163138236Y-101561614D01*
X163276784Y-101519586D01*
X163404471Y-101451336D01*
X163516389Y-101359487D01*
X163539409Y-101331437D01*
X164594248Y-100276599D01*
X164622293Y-100253583D01*
X164714142Y-100141665D01*
X164782392Y-100013978D01*
X164824420Y-99875430D01*
X164835055Y-99767450D01*
X164835055Y-99767441D01*
X164838610Y-99731346D01*
X164835055Y-99695251D01*
X164835055Y-82091049D01*
X164838610Y-82054954D01*
X164835055Y-82018859D01*
X164835055Y-82018850D01*
X164824420Y-81910870D01*
X164782392Y-81772322D01*
X164714142Y-81644635D01*
X164687425Y-81612081D01*
X164645308Y-81560761D01*
X164645305Y-81560758D01*
X164622292Y-81532717D01*
X164594252Y-81509705D01*
X161790315Y-78705769D01*
X161767299Y-78677724D01*
X161655381Y-78585875D01*
X161527694Y-78517625D01*
X161527684Y-78517622D01*
X161389146Y-78475596D01*
X161245061Y-78461405D01*
X161208946Y-78464962D01*
X158585620Y-78464962D01*
X158687932Y-78217958D01*
X158745000Y-77931060D01*
X158745000Y-77638540D01*
X158687932Y-77351642D01*
X158575990Y-77081389D01*
X158413475Y-76838168D01*
X158206632Y-76631325D01*
X158032240Y-76514800D01*
X158206632Y-76398275D01*
X158305612Y-76299295D01*
X160115000Y-76299295D01*
X160115000Y-76690305D01*
X160191282Y-77073803D01*
X160340915Y-77435050D01*
X160558149Y-77760164D01*
X160834636Y-78036651D01*
X161159750Y-78253885D01*
X161520997Y-78403518D01*
X161904495Y-78479800D01*
X162295505Y-78479800D01*
X162679003Y-78403518D01*
X163040250Y-78253885D01*
X163365364Y-78036651D01*
X163641851Y-77760164D01*
X163859085Y-77435050D01*
X164008718Y-77073803D01*
X164085000Y-76690305D01*
X164085000Y-76299295D01*
X164008718Y-75915797D01*
X163859085Y-75554550D01*
X163641851Y-75229436D01*
X163365364Y-74952949D01*
X163040250Y-74735715D01*
X162679003Y-74586082D01*
X162295505Y-74509800D01*
X161904495Y-74509800D01*
X161520997Y-74586082D01*
X161159750Y-74735715D01*
X160834636Y-74952949D01*
X160558149Y-75229436D01*
X160340915Y-75554550D01*
X160191282Y-75915797D01*
X160115000Y-76299295D01*
X158305612Y-76299295D01*
X158413475Y-76191432D01*
X158575990Y-75948211D01*
X158687932Y-75677958D01*
X158745000Y-75391060D01*
X158745000Y-75098540D01*
X158687932Y-74811642D01*
X158575990Y-74541389D01*
X158413475Y-74298168D01*
X158206632Y-74091325D01*
X157963411Y-73928810D01*
X157693158Y-73816868D01*
X157406260Y-73759800D01*
X157113740Y-73759800D01*
X156826842Y-73816868D01*
X156556589Y-73928810D01*
X156313368Y-74091325D01*
X156106525Y-74298168D01*
X155990000Y-74472560D01*
X155873475Y-74298168D01*
X155666632Y-74091325D01*
X155423411Y-73928810D01*
X155153158Y-73816868D01*
X154866260Y-73759800D01*
X154573740Y-73759800D01*
X154286842Y-73816868D01*
X154016589Y-73928810D01*
X153773368Y-74091325D01*
X153566525Y-74298168D01*
X153450000Y-74472560D01*
X153333475Y-74298168D01*
X153126632Y-74091325D01*
X152883411Y-73928810D01*
X152613158Y-73816868D01*
X152326260Y-73759800D01*
X152033740Y-73759800D01*
X151746842Y-73816868D01*
X151476589Y-73928810D01*
X151233368Y-74091325D01*
X151026525Y-74298168D01*
X150910000Y-74472560D01*
X150793475Y-74298168D01*
X150586632Y-74091325D01*
X150343411Y-73928810D01*
X150073158Y-73816868D01*
X149786260Y-73759800D01*
X149493740Y-73759800D01*
X149206842Y-73816868D01*
X148936589Y-73928810D01*
X148693368Y-74091325D01*
X148486525Y-74298168D01*
X148370000Y-74472560D01*
X148253475Y-74298168D01*
X148046632Y-74091325D01*
X147803411Y-73928810D01*
X147533158Y-73816868D01*
X147246260Y-73759800D01*
X146953740Y-73759800D01*
X146666842Y-73816868D01*
X146396589Y-73928810D01*
X146153368Y-74091325D01*
X145946525Y-74298168D01*
X145830000Y-74472560D01*
X145713475Y-74298168D01*
X145506632Y-74091325D01*
X145263411Y-73928810D01*
X144993158Y-73816868D01*
X144706260Y-73759800D01*
X144413740Y-73759800D01*
X144126842Y-73816868D01*
X143856589Y-73928810D01*
X143613368Y-74091325D01*
X143406525Y-74298168D01*
X143290000Y-74472560D01*
X143173475Y-74298168D01*
X142966632Y-74091325D01*
X142723411Y-73928810D01*
X142453158Y-73816868D01*
X142166260Y-73759800D01*
X141873740Y-73759800D01*
X141586842Y-73816868D01*
X141316589Y-73928810D01*
X141073368Y-74091325D01*
X140866525Y-74298168D01*
X140750000Y-74472560D01*
X140633475Y-74298168D01*
X140426632Y-74091325D01*
X140183411Y-73928810D01*
X139913158Y-73816868D01*
X139626260Y-73759800D01*
X139333740Y-73759800D01*
X139046842Y-73816868D01*
X138776589Y-73928810D01*
X138533368Y-74091325D01*
X138326525Y-74298168D01*
X138210000Y-74472560D01*
X138093475Y-74298168D01*
X137886632Y-74091325D01*
X137643411Y-73928810D01*
X137373158Y-73816868D01*
X137086260Y-73759800D01*
X136793740Y-73759800D01*
X136506842Y-73816868D01*
X136236589Y-73928810D01*
X135993368Y-74091325D01*
X135786525Y-74298168D01*
X135670000Y-74472560D01*
X135553475Y-74298168D01*
X135346632Y-74091325D01*
X135103411Y-73928810D01*
X134833158Y-73816868D01*
X134546260Y-73759800D01*
X134253740Y-73759800D01*
X133966842Y-73816868D01*
X133696589Y-73928810D01*
X133453368Y-74091325D01*
X133246525Y-74298168D01*
X133130000Y-74472560D01*
X133013475Y-74298168D01*
X132806632Y-74091325D01*
X132563411Y-73928810D01*
X132293158Y-73816868D01*
X132006260Y-73759800D01*
X131713740Y-73759800D01*
X131426842Y-73816868D01*
X131156589Y-73928810D01*
X130913368Y-74091325D01*
X130706525Y-74298168D01*
X130590000Y-74472560D01*
X130473475Y-74298168D01*
X130266632Y-74091325D01*
X130023411Y-73928810D01*
X129753158Y-73816868D01*
X129466260Y-73759800D01*
X129173740Y-73759800D01*
X128886842Y-73816868D01*
X128616589Y-73928810D01*
X128373368Y-74091325D01*
X128166525Y-74298168D01*
X128050000Y-74472560D01*
X127933475Y-74298168D01*
X127726632Y-74091325D01*
X127483411Y-73928810D01*
X127213158Y-73816868D01*
X126926260Y-73759800D01*
X126633740Y-73759800D01*
X126346842Y-73816868D01*
X126076589Y-73928810D01*
X125833368Y-74091325D01*
X125626525Y-74298168D01*
X125510000Y-74472560D01*
X125393475Y-74298168D01*
X125186632Y-74091325D01*
X124943411Y-73928810D01*
X124673158Y-73816868D01*
X124386260Y-73759800D01*
X124093740Y-73759800D01*
X123806842Y-73816868D01*
X123536589Y-73928810D01*
X123293368Y-74091325D01*
X123086525Y-74298168D01*
X122970000Y-74472560D01*
X122853475Y-74298168D01*
X122646632Y-74091325D01*
X122403411Y-73928810D01*
X122133158Y-73816868D01*
X121846260Y-73759800D01*
X121553740Y-73759800D01*
X121266842Y-73816868D01*
X120996589Y-73928810D01*
X120753368Y-74091325D01*
X120546525Y-74298168D01*
X120430000Y-74472560D01*
X120313475Y-74298168D01*
X120106632Y-74091325D01*
X119863411Y-73928810D01*
X119593158Y-73816868D01*
X119306260Y-73759800D01*
X119013740Y-73759800D01*
X118726842Y-73816868D01*
X118456589Y-73928810D01*
X118213368Y-74091325D01*
X118006525Y-74298168D01*
X117890000Y-74472560D01*
X117773475Y-74298168D01*
X117566632Y-74091325D01*
X117323411Y-73928810D01*
X117053158Y-73816868D01*
X116766260Y-73759800D01*
X116473740Y-73759800D01*
X116186842Y-73816868D01*
X115916589Y-73928810D01*
X115673368Y-74091325D01*
X115466525Y-74298168D01*
X115350000Y-74472560D01*
X115233475Y-74298168D01*
X115026632Y-74091325D01*
X114783411Y-73928810D01*
X114513158Y-73816868D01*
X114226260Y-73759800D01*
X113933740Y-73759800D01*
X113646842Y-73816868D01*
X113376589Y-73928810D01*
X113133368Y-74091325D01*
X112926525Y-74298168D01*
X112810000Y-74472560D01*
X112693475Y-74298168D01*
X112486632Y-74091325D01*
X112243411Y-73928810D01*
X111973158Y-73816868D01*
X111686260Y-73759800D01*
X111393740Y-73759800D01*
X111106842Y-73816868D01*
X110836589Y-73928810D01*
X110593368Y-74091325D01*
X110386525Y-74298168D01*
X110270000Y-74472560D01*
X110153475Y-74298168D01*
X109946632Y-74091325D01*
X109703411Y-73928810D01*
X109433158Y-73816868D01*
X109146260Y-73759800D01*
X108853740Y-73759800D01*
X108566842Y-73816868D01*
X108296589Y-73928810D01*
X108053368Y-74091325D01*
X107846525Y-74298168D01*
X107684010Y-74541389D01*
X107572068Y-74811642D01*
X107515000Y-75098540D01*
X107515000Y-75391060D01*
X107572068Y-75677958D01*
X107646354Y-75857302D01*
X107627759Y-75872563D01*
X107604744Y-75900607D01*
X105958722Y-77546630D01*
X106059718Y-77302803D01*
X106136000Y-76919305D01*
X106136000Y-76528295D01*
X106059718Y-76144797D01*
X105910085Y-75783550D01*
X105692851Y-75458436D01*
X105416364Y-75181949D01*
X105091250Y-74964715D01*
X104730003Y-74815082D01*
X104346505Y-74738800D01*
X103955495Y-74738800D01*
X103571997Y-74815082D01*
X103210750Y-74964715D01*
X102885636Y-75181949D01*
X102609149Y-75458436D01*
X102391915Y-75783550D01*
X102242282Y-76144797D01*
X102166000Y-76528295D01*
X102166000Y-76919305D01*
X102242282Y-77302803D01*
X102391915Y-77664050D01*
X102609149Y-77989164D01*
X102885636Y-78265651D01*
X103210750Y-78482885D01*
X103571997Y-78632518D01*
X103955495Y-78708800D01*
X104346505Y-78708800D01*
X104730003Y-78632518D01*
X105091250Y-78482885D01*
X105366388Y-78299044D01*
X105361635Y-78314713D01*
X105347444Y-78458798D01*
X105351001Y-78494913D01*
X105351001Y-79523744D01*
X105292291Y-79541553D01*
X105139836Y-79623042D01*
X105133500Y-79628242D01*
X105127164Y-79623042D01*
X104974709Y-79541553D01*
X104809285Y-79491372D01*
X104637250Y-79474428D01*
X103724750Y-79474428D01*
X103552715Y-79491372D01*
X103387291Y-79541553D01*
X103234836Y-79623042D01*
X103228500Y-79628242D01*
X103222164Y-79623042D01*
X103069709Y-79541553D01*
X102904285Y-79491372D01*
X102732250Y-79474428D01*
X101819750Y-79474428D01*
X101647715Y-79491372D01*
X101482291Y-79541553D01*
X101329836Y-79623042D01*
X101285000Y-79659838D01*
X101285000Y-76033505D01*
X101332312Y-75550984D01*
X101462714Y-75119070D01*
X101674524Y-74720715D01*
X101959675Y-74371086D01*
X102307303Y-74083503D01*
X102704177Y-73868914D01*
X103135161Y-73735502D01*
X103615654Y-73685000D01*
X162566495Y-73685000D01*
X163049016Y-73732312D01*
G36*
X124838814Y-108222500D02*
G01*
X124831200Y-108292350D01*
X124865234Y-108326384D01*
X124880442Y-108373929D01*
X124941061Y-108483343D01*
X124960333Y-108506117D01*
X124831200Y-108635250D01*
X124842334Y-108737391D01*
X124880442Y-108856529D01*
X124941061Y-108965943D01*
X125021860Y-109061428D01*
X125119736Y-109139315D01*
X125230925Y-109196612D01*
X125351156Y-109231115D01*
X125475808Y-109241500D01*
X125917050Y-109238500D01*
X126075800Y-109079750D01*
X126075800Y-108324100D01*
X126329800Y-108324100D01*
X126329800Y-109079750D01*
X126488550Y-109238500D01*
X126619600Y-109239391D01*
X126619601Y-111186300D01*
X126561001Y-111180528D01*
X123710999Y-111180528D01*
X123537745Y-111197592D01*
X123371149Y-111248128D01*
X123217613Y-111330195D01*
X123204349Y-111341081D01*
X123167894Y-111311163D01*
X123057580Y-111252198D01*
X122937882Y-111215888D01*
X122813400Y-111203628D01*
X122399150Y-111206700D01*
X122240400Y-111365450D01*
X122240400Y-112202200D01*
X122260400Y-112202200D01*
X122260400Y-112456200D01*
X122240400Y-112456200D01*
X122240400Y-112476200D01*
X121986400Y-112476200D01*
X121986400Y-112456200D01*
X120937150Y-112456200D01*
X120778400Y-112614950D01*
X120775328Y-112816700D01*
X120787588Y-112941182D01*
X120823898Y-113060880D01*
X120882863Y-113171194D01*
X120962215Y-113267885D01*
X121039964Y-113331692D01*
X121033608Y-113336908D01*
X120923942Y-113470536D01*
X120842453Y-113622991D01*
X120792272Y-113788415D01*
X120775328Y-113960450D01*
X120775328Y-114447950D01*
X120792272Y-114619985D01*
X120842453Y-114785409D01*
X120923942Y-114937864D01*
X121033608Y-115071492D01*
X121167236Y-115181158D01*
X121319691Y-115262647D01*
X121485115Y-115312828D01*
X121657150Y-115329772D01*
X122569650Y-115329772D01*
X122741685Y-115312828D01*
X122907109Y-115262647D01*
X123059564Y-115181158D01*
X123193192Y-115071492D01*
X123301762Y-114939200D01*
X124401001Y-114939200D01*
X124401000Y-116980528D01*
X123710999Y-116980528D01*
X123537745Y-116997592D01*
X123371149Y-117048128D01*
X123217613Y-117130195D01*
X123083038Y-117240638D01*
X122972595Y-117375213D01*
X122890528Y-117528749D01*
X122839992Y-117695345D01*
X122822928Y-117868599D01*
X122822928Y-118718601D01*
X122839992Y-118891855D01*
X122890528Y-119058451D01*
X122972595Y-119211987D01*
X123083038Y-119346562D01*
X123217613Y-119457005D01*
X123371149Y-119539072D01*
X123537745Y-119589608D01*
X123710999Y-119606672D01*
X126203676Y-119606672D01*
X123457349Y-122352999D01*
X118752106Y-122352999D01*
X118716001Y-122349443D01*
X118571916Y-122363634D01*
X118433367Y-122405662D01*
X118305681Y-122473912D01*
X118193763Y-122565761D01*
X118170748Y-122593805D01*
X118014625Y-122749928D01*
X116779621Y-122749928D01*
X116779621Y-121346293D01*
X120310224Y-117815691D01*
X120338269Y-117792675D01*
X120430118Y-117680757D01*
X120498368Y-117553070D01*
X120534714Y-117433253D01*
X120540396Y-117414523D01*
X120543069Y-117387381D01*
X120551031Y-117306542D01*
X120551031Y-117306535D01*
X120554586Y-117270438D01*
X120551031Y-117234341D01*
X120551031Y-112183215D01*
X120777086Y-111957160D01*
X120778400Y-112043450D01*
X120937150Y-112202200D01*
X121986400Y-112202200D01*
X121986400Y-111365450D01*
X121827650Y-111206700D01*
X121529755Y-111204491D01*
X124526047Y-108208200D01*
X124837255Y-108208200D01*
X124838814Y-108222500D01*
G37*
X124838814Y-108222500D02*
X124831200Y-108292350D01*
X124865234Y-108326384D01*
X124880442Y-108373929D01*
X124941061Y-108483343D01*
X124960333Y-108506117D01*
X124831200Y-108635250D01*
X124842334Y-108737391D01*
X124880442Y-108856529D01*
X124941061Y-108965943D01*
X125021860Y-109061428D01*
X125119736Y-109139315D01*
X125230925Y-109196612D01*
X125351156Y-109231115D01*
X125475808Y-109241500D01*
X125917050Y-109238500D01*
X126075800Y-109079750D01*
X126075800Y-108324100D01*
X126329800Y-108324100D01*
X126329800Y-109079750D01*
X126488550Y-109238500D01*
X126619600Y-109239391D01*
X126619601Y-111186300D01*
X126561001Y-111180528D01*
X123710999Y-111180528D01*
X123537745Y-111197592D01*
X123371149Y-111248128D01*
X123217613Y-111330195D01*
X123204349Y-111341081D01*
X123167894Y-111311163D01*
X123057580Y-111252198D01*
X122937882Y-111215888D01*
X122813400Y-111203628D01*
X122399150Y-111206700D01*
X122240400Y-111365450D01*
X122240400Y-112202200D01*
X122260400Y-112202200D01*
X122260400Y-112456200D01*
X122240400Y-112456200D01*
X122240400Y-112476200D01*
X121986400Y-112476200D01*
X121986400Y-112456200D01*
X120937150Y-112456200D01*
X120778400Y-112614950D01*
X120775328Y-112816700D01*
X120787588Y-112941182D01*
X120823898Y-113060880D01*
X120882863Y-113171194D01*
X120962215Y-113267885D01*
X121039964Y-113331692D01*
X121033608Y-113336908D01*
X120923942Y-113470536D01*
X120842453Y-113622991D01*
X120792272Y-113788415D01*
X120775328Y-113960450D01*
X120775328Y-114447950D01*
X120792272Y-114619985D01*
X120842453Y-114785409D01*
X120923942Y-114937864D01*
X121033608Y-115071492D01*
X121167236Y-115181158D01*
X121319691Y-115262647D01*
X121485115Y-115312828D01*
X121657150Y-115329772D01*
X122569650Y-115329772D01*
X122741685Y-115312828D01*
X122907109Y-115262647D01*
X123059564Y-115181158D01*
X123193192Y-115071492D01*
X123301762Y-114939200D01*
X124401001Y-114939200D01*
X124401000Y-116980528D01*
X123710999Y-116980528D01*
X123537745Y-116997592D01*
X123371149Y-117048128D01*
X123217613Y-117130195D01*
X123083038Y-117240638D01*
X122972595Y-117375213D01*
X122890528Y-117528749D01*
X122839992Y-117695345D01*
X122822928Y-117868599D01*
X122822928Y-118718601D01*
X122839992Y-118891855D01*
X122890528Y-119058451D01*
X122972595Y-119211987D01*
X123083038Y-119346562D01*
X123217613Y-119457005D01*
X123371149Y-119539072D01*
X123537745Y-119589608D01*
X123710999Y-119606672D01*
X126203676Y-119606672D01*
X123457349Y-122352999D01*
X118752106Y-122352999D01*
X118716001Y-122349443D01*
X118571916Y-122363634D01*
X118433367Y-122405662D01*
X118305681Y-122473912D01*
X118193763Y-122565761D01*
X118170748Y-122593805D01*
X118014625Y-122749928D01*
X116779621Y-122749928D01*
X116779621Y-121346293D01*
X120310224Y-117815691D01*
X120338269Y-117792675D01*
X120430118Y-117680757D01*
X120498368Y-117553070D01*
X120534714Y-117433253D01*
X120540396Y-117414523D01*
X120543069Y-117387381D01*
X120551031Y-117306542D01*
X120551031Y-117306535D01*
X120554586Y-117270438D01*
X120551031Y-117234341D01*
X120551031Y-112183215D01*
X120777086Y-111957160D01*
X120778400Y-112043450D01*
X120937150Y-112202200D01*
X121986400Y-112202200D01*
X121986400Y-111365450D01*
X121827650Y-111206700D01*
X121529755Y-111204491D01*
X124526047Y-108208200D01*
X124837255Y-108208200D01*
X124838814Y-108222500D01*
G36*
X145633800Y-109079750D02*
G01*
X145792550Y-109238500D01*
X145813201Y-109238640D01*
X145813201Y-109744505D01*
X145823836Y-109852485D01*
X145865864Y-109991033D01*
X145934114Y-110118720D01*
X146025963Y-110230638D01*
X146054002Y-110253649D01*
X147024781Y-111224428D01*
X146726950Y-111224428D01*
X146554915Y-111241372D01*
X146389491Y-111291553D01*
X146237036Y-111373042D01*
X146209705Y-111395472D01*
X146078987Y-111288195D01*
X145925451Y-111206128D01*
X145758855Y-111155592D01*
X145585601Y-111138528D01*
X144667000Y-111138528D01*
X144667000Y-109232102D01*
X144779808Y-109241500D01*
X145221050Y-109238500D01*
X145379800Y-109079750D01*
X145379800Y-108324100D01*
X145633800Y-108324100D01*
X145633800Y-109079750D01*
G37*
X145633800Y-109079750D02*
X145792550Y-109238500D01*
X145813201Y-109238640D01*
X145813201Y-109744505D01*
X145823836Y-109852485D01*
X145865864Y-109991033D01*
X145934114Y-110118720D01*
X146025963Y-110230638D01*
X146054002Y-110253649D01*
X147024781Y-111224428D01*
X146726950Y-111224428D01*
X146554915Y-111241372D01*
X146389491Y-111291553D01*
X146237036Y-111373042D01*
X146209705Y-111395472D01*
X146078987Y-111288195D01*
X145925451Y-111206128D01*
X145758855Y-111155592D01*
X145585601Y-111138528D01*
X144667000Y-111138528D01*
X144667000Y-109232102D01*
X144779808Y-109241500D01*
X145221050Y-109238500D01*
X145379800Y-109079750D01*
X145379800Y-108324100D01*
X145633800Y-108324100D01*
X145633800Y-109079750D01*
G36*
X123969381Y-98706828D02*
G01*
X123435150Y-98706828D01*
X123263115Y-98723772D01*
X123097691Y-98773953D01*
X122971950Y-98841163D01*
X122939294Y-98814363D01*
X122828980Y-98755398D01*
X122709282Y-98719088D01*
X122584800Y-98706828D01*
X122170550Y-98709900D01*
X122011800Y-98868650D01*
X122011800Y-99705400D01*
X122031800Y-99705400D01*
X122031800Y-99959400D01*
X122011800Y-99959400D01*
X122011800Y-99979400D01*
X121757800Y-99979400D01*
X121757800Y-99959400D01*
X120708550Y-99959400D01*
X120549800Y-100118150D01*
X120546728Y-100319900D01*
X120558988Y-100444382D01*
X120595298Y-100564080D01*
X120654263Y-100674394D01*
X120733615Y-100771085D01*
X120811364Y-100834892D01*
X120805008Y-100840108D01*
X120695342Y-100973736D01*
X120613853Y-101126191D01*
X120563672Y-101291615D01*
X120546728Y-101463650D01*
X120546728Y-101951150D01*
X120563672Y-102123185D01*
X120613853Y-102288609D01*
X120695342Y-102441064D01*
X120805008Y-102574692D01*
X120938636Y-102684358D01*
X121091091Y-102765847D01*
X121256515Y-102816028D01*
X121428550Y-102832972D01*
X121970925Y-102832972D01*
X122127056Y-102989103D01*
X122150072Y-103017148D01*
X122261990Y-103108997D01*
X122389677Y-103177247D01*
X122528225Y-103219275D01*
X122636205Y-103229910D01*
X122636214Y-103229910D01*
X122672309Y-103233465D01*
X122708404Y-103229910D01*
X122929643Y-103229910D01*
X122229305Y-103930248D01*
X122179350Y-103925328D01*
X121691850Y-103925328D01*
X121519815Y-103942272D01*
X121354391Y-103992453D01*
X121201936Y-104073942D01*
X121068308Y-104183608D01*
X120958642Y-104317236D01*
X120877153Y-104469691D01*
X120826972Y-104635115D01*
X120810028Y-104807150D01*
X120810028Y-105719650D01*
X120826972Y-105891685D01*
X120877153Y-106057109D01*
X120958642Y-106209564D01*
X121068308Y-106343192D01*
X121201936Y-106452858D01*
X121354391Y-106534347D01*
X121519815Y-106584528D01*
X121691850Y-106601472D01*
X122179350Y-106601472D01*
X122351385Y-106584528D01*
X122516809Y-106534347D01*
X122669264Y-106452858D01*
X122802892Y-106343192D01*
X122873100Y-106257644D01*
X122943308Y-106343192D01*
X123076936Y-106452858D01*
X123229391Y-106534347D01*
X123394815Y-106584528D01*
X123495236Y-106594419D01*
X119751011Y-110338645D01*
X119751011Y-100081445D01*
X120553192Y-99279264D01*
X120546728Y-99344900D01*
X120549800Y-99546650D01*
X120708550Y-99705400D01*
X121757800Y-99705400D01*
X121757800Y-98868650D01*
X121599050Y-98709900D01*
X121184800Y-98706828D01*
X121119164Y-98713292D01*
X121784257Y-98048200D01*
X123310754Y-98048200D01*
X123969381Y-98706828D01*
G37*
X123969381Y-98706828D02*
X123435150Y-98706828D01*
X123263115Y-98723772D01*
X123097691Y-98773953D01*
X122971950Y-98841163D01*
X122939294Y-98814363D01*
X122828980Y-98755398D01*
X122709282Y-98719088D01*
X122584800Y-98706828D01*
X122170550Y-98709900D01*
X122011800Y-98868650D01*
X122011800Y-99705400D01*
X122031800Y-99705400D01*
X122031800Y-99959400D01*
X122011800Y-99959400D01*
X122011800Y-99979400D01*
X121757800Y-99979400D01*
X121757800Y-99959400D01*
X120708550Y-99959400D01*
X120549800Y-100118150D01*
X120546728Y-100319900D01*
X120558988Y-100444382D01*
X120595298Y-100564080D01*
X120654263Y-100674394D01*
X120733615Y-100771085D01*
X120811364Y-100834892D01*
X120805008Y-100840108D01*
X120695342Y-100973736D01*
X120613853Y-101126191D01*
X120563672Y-101291615D01*
X120546728Y-101463650D01*
X120546728Y-101951150D01*
X120563672Y-102123185D01*
X120613853Y-102288609D01*
X120695342Y-102441064D01*
X120805008Y-102574692D01*
X120938636Y-102684358D01*
X121091091Y-102765847D01*
X121256515Y-102816028D01*
X121428550Y-102832972D01*
X121970925Y-102832972D01*
X122127056Y-102989103D01*
X122150072Y-103017148D01*
X122261990Y-103108997D01*
X122389677Y-103177247D01*
X122528225Y-103219275D01*
X122636205Y-103229910D01*
X122636214Y-103229910D01*
X122672309Y-103233465D01*
X122708404Y-103229910D01*
X122929643Y-103229910D01*
X122229305Y-103930248D01*
X122179350Y-103925328D01*
X121691850Y-103925328D01*
X121519815Y-103942272D01*
X121354391Y-103992453D01*
X121201936Y-104073942D01*
X121068308Y-104183608D01*
X120958642Y-104317236D01*
X120877153Y-104469691D01*
X120826972Y-104635115D01*
X120810028Y-104807150D01*
X120810028Y-105719650D01*
X120826972Y-105891685D01*
X120877153Y-106057109D01*
X120958642Y-106209564D01*
X121068308Y-106343192D01*
X121201936Y-106452858D01*
X121354391Y-106534347D01*
X121519815Y-106584528D01*
X121691850Y-106601472D01*
X122179350Y-106601472D01*
X122351385Y-106584528D01*
X122516809Y-106534347D01*
X122669264Y-106452858D01*
X122802892Y-106343192D01*
X122873100Y-106257644D01*
X122943308Y-106343192D01*
X123076936Y-106452858D01*
X123229391Y-106534347D01*
X123394815Y-106584528D01*
X123495236Y-106594419D01*
X119751011Y-110338645D01*
X119751011Y-100081445D01*
X120553192Y-99279264D01*
X120546728Y-99344900D01*
X120549800Y-99546650D01*
X120708550Y-99705400D01*
X121757800Y-99705400D01*
X121757800Y-98868650D01*
X121599050Y-98709900D01*
X121184800Y-98706828D01*
X121119164Y-98713292D01*
X121784257Y-98048200D01*
X123310754Y-98048200D01*
X123969381Y-98706828D01*
G36*
X122697000Y-82528579D02*
G01*
X122697000Y-82765456D01*
X122749072Y-83027239D01*
X122851215Y-83273833D01*
X122999503Y-83495762D01*
X123188238Y-83684497D01*
X123410167Y-83832785D01*
X123656761Y-83934928D01*
X123918544Y-83987000D01*
X124185456Y-83987000D01*
X124447239Y-83934928D01*
X124693833Y-83832785D01*
X124915762Y-83684497D01*
X125104497Y-83495762D01*
X125252785Y-83273833D01*
X125322000Y-83106734D01*
X125391215Y-83273833D01*
X125539503Y-83495762D01*
X125728238Y-83684497D01*
X125950167Y-83832785D01*
X126196761Y-83934928D01*
X126458544Y-83987000D01*
X126725456Y-83987000D01*
X126877342Y-83956788D01*
X127765001Y-84844448D01*
X127765000Y-86348744D01*
X127706291Y-86366553D01*
X127553836Y-86448042D01*
X127496712Y-86494923D01*
X127435387Y-86444595D01*
X127281851Y-86362528D01*
X127115255Y-86311992D01*
X126942001Y-86294928D01*
X124091999Y-86294928D01*
X123918745Y-86311992D01*
X123752149Y-86362528D01*
X123598613Y-86444595D01*
X123464038Y-86555038D01*
X123353595Y-86689613D01*
X123271528Y-86843149D01*
X123220992Y-87009745D01*
X123203928Y-87182999D01*
X123203928Y-88033001D01*
X123220992Y-88206255D01*
X123271528Y-88372851D01*
X123353595Y-88526387D01*
X123464038Y-88660962D01*
X123598613Y-88771405D01*
X123752149Y-88853472D01*
X123918745Y-88904008D01*
X124091999Y-88921072D01*
X124782000Y-88921072D01*
X124782001Y-90927500D01*
X123657362Y-90927500D01*
X123548792Y-90795208D01*
X123415164Y-90685542D01*
X123262709Y-90604053D01*
X123097285Y-90553872D01*
X122925250Y-90536928D01*
X122012750Y-90536928D01*
X121840715Y-90553872D01*
X121675291Y-90604053D01*
X121522836Y-90685542D01*
X121389208Y-90795208D01*
X121279542Y-90928836D01*
X121198053Y-91081291D01*
X121147872Y-91246715D01*
X121130928Y-91418750D01*
X121130928Y-91906250D01*
X121147872Y-92078285D01*
X121198053Y-92243709D01*
X121279542Y-92396164D01*
X121389208Y-92529792D01*
X121395564Y-92535008D01*
X121317815Y-92598815D01*
X121238463Y-92695506D01*
X121179498Y-92805820D01*
X121143188Y-92925518D01*
X121130928Y-93050000D01*
X121134000Y-93251750D01*
X121292750Y-93410500D01*
X122342000Y-93410500D01*
X122342000Y-93390500D01*
X122596000Y-93390500D01*
X122596000Y-93410500D01*
X122616000Y-93410500D01*
X122616000Y-93664500D01*
X122596000Y-93664500D01*
X122596000Y-94501250D01*
X122754750Y-94660000D01*
X123169000Y-94663072D01*
X123293482Y-94650812D01*
X123413180Y-94614502D01*
X123523494Y-94555537D01*
X123551386Y-94532647D01*
X123598613Y-94571405D01*
X123752149Y-94653472D01*
X123918745Y-94704008D01*
X124091999Y-94721072D01*
X125390626Y-94721072D01*
X126504401Y-95834848D01*
X126504401Y-96208192D01*
X126488550Y-96208300D01*
X126329800Y-96367050D01*
X126329800Y-97122700D01*
X126075800Y-97122700D01*
X126075800Y-96367050D01*
X125917050Y-96208300D01*
X125475808Y-96205300D01*
X125351156Y-96215685D01*
X125230925Y-96250188D01*
X125119736Y-96307485D01*
X125021860Y-96385372D01*
X124941061Y-96480857D01*
X124905460Y-96545115D01*
X124391956Y-96031612D01*
X124368936Y-96003562D01*
X124257018Y-95911713D01*
X124129331Y-95843463D01*
X123990783Y-95801435D01*
X123882803Y-95790800D01*
X123846698Y-95787244D01*
X123810593Y-95790800D01*
X121133496Y-95790800D01*
X121097399Y-95787245D01*
X121061302Y-95790800D01*
X121061295Y-95790800D01*
X120967532Y-95800035D01*
X120953314Y-95801435D01*
X120930687Y-95808299D01*
X120814767Y-95843463D01*
X120687080Y-95911713D01*
X120575162Y-96003562D01*
X120552146Y-96031607D01*
X118353808Y-98229946D01*
X118195727Y-98124320D01*
X117934574Y-98016147D01*
X117657335Y-97961000D01*
X117374665Y-97961000D01*
X117162624Y-98003178D01*
X116961257Y-97801811D01*
X116938237Y-97773761D01*
X116826319Y-97681912D01*
X116698632Y-97613662D01*
X116560084Y-97571634D01*
X116452104Y-97560999D01*
X116415999Y-97557443D01*
X116379894Y-97560999D01*
X114746144Y-97560999D01*
X111210145Y-94025000D01*
X121130928Y-94025000D01*
X121143188Y-94149482D01*
X121179498Y-94269180D01*
X121238463Y-94379494D01*
X121317815Y-94476185D01*
X121414506Y-94555537D01*
X121524820Y-94614502D01*
X121644518Y-94650812D01*
X121769000Y-94663072D01*
X122183250Y-94660000D01*
X122342000Y-94501250D01*
X122342000Y-93664500D01*
X121292750Y-93664500D01*
X121134000Y-93823250D01*
X121130928Y-94025000D01*
X111210145Y-94025000D01*
X110333258Y-93148114D01*
X110575727Y-93047680D01*
X110810759Y-92890637D01*
X111010637Y-92690759D01*
X111030521Y-92661000D01*
X111301479Y-92661000D01*
X111321363Y-92690759D01*
X111521241Y-92890637D01*
X111756273Y-93047680D01*
X112017426Y-93155853D01*
X112294665Y-93211000D01*
X112577335Y-93211000D01*
X112854574Y-93155853D01*
X113115727Y-93047680D01*
X113350759Y-92890637D01*
X113550637Y-92690759D01*
X113570521Y-92661000D01*
X113841479Y-92661000D01*
X113861363Y-92690759D01*
X114061241Y-92890637D01*
X114296273Y-93047680D01*
X114557426Y-93155853D01*
X114834665Y-93211000D01*
X115117335Y-93211000D01*
X115394574Y-93155853D01*
X115655727Y-93047680D01*
X115890759Y-92890637D01*
X116090637Y-92690759D01*
X116110521Y-92661000D01*
X116381479Y-92661000D01*
X116401363Y-92690759D01*
X116601241Y-92890637D01*
X116836273Y-93047680D01*
X117097426Y-93155853D01*
X117374665Y-93211000D01*
X117657335Y-93211000D01*
X117934574Y-93155853D01*
X118195727Y-93047680D01*
X118430759Y-92890637D01*
X118630637Y-92690759D01*
X118787680Y-92455727D01*
X118895853Y-92194574D01*
X118951000Y-91917335D01*
X118951000Y-91634665D01*
X118944017Y-91599561D01*
X119361051Y-91182528D01*
X119394818Y-91154816D01*
X119424384Y-91118791D01*
X119486860Y-91042663D01*
X119505412Y-91020058D01*
X119587590Y-90866312D01*
X119638196Y-90699489D01*
X119651001Y-90569476D01*
X119651001Y-90569466D01*
X119655282Y-90526000D01*
X119651001Y-90482534D01*
X119651001Y-82401466D01*
X119655282Y-82358000D01*
X119651001Y-82314534D01*
X119651001Y-82314524D01*
X119638196Y-82184511D01*
X119587590Y-82017688D01*
X119574394Y-81993000D01*
X122161422Y-81993000D01*
X122697000Y-82528579D01*
G37*
X122697000Y-82528579D02*
X122697000Y-82765456D01*
X122749072Y-83027239D01*
X122851215Y-83273833D01*
X122999503Y-83495762D01*
X123188238Y-83684497D01*
X123410167Y-83832785D01*
X123656761Y-83934928D01*
X123918544Y-83987000D01*
X124185456Y-83987000D01*
X124447239Y-83934928D01*
X124693833Y-83832785D01*
X124915762Y-83684497D01*
X125104497Y-83495762D01*
X125252785Y-83273833D01*
X125322000Y-83106734D01*
X125391215Y-83273833D01*
X125539503Y-83495762D01*
X125728238Y-83684497D01*
X125950167Y-83832785D01*
X126196761Y-83934928D01*
X126458544Y-83987000D01*
X126725456Y-83987000D01*
X126877342Y-83956788D01*
X127765001Y-84844448D01*
X127765000Y-86348744D01*
X127706291Y-86366553D01*
X127553836Y-86448042D01*
X127496712Y-86494923D01*
X127435387Y-86444595D01*
X127281851Y-86362528D01*
X127115255Y-86311992D01*
X126942001Y-86294928D01*
X124091999Y-86294928D01*
X123918745Y-86311992D01*
X123752149Y-86362528D01*
X123598613Y-86444595D01*
X123464038Y-86555038D01*
X123353595Y-86689613D01*
X123271528Y-86843149D01*
X123220992Y-87009745D01*
X123203928Y-87182999D01*
X123203928Y-88033001D01*
X123220992Y-88206255D01*
X123271528Y-88372851D01*
X123353595Y-88526387D01*
X123464038Y-88660962D01*
X123598613Y-88771405D01*
X123752149Y-88853472D01*
X123918745Y-88904008D01*
X124091999Y-88921072D01*
X124782000Y-88921072D01*
X124782001Y-90927500D01*
X123657362Y-90927500D01*
X123548792Y-90795208D01*
X123415164Y-90685542D01*
X123262709Y-90604053D01*
X123097285Y-90553872D01*
X122925250Y-90536928D01*
X122012750Y-90536928D01*
X121840715Y-90553872D01*
X121675291Y-90604053D01*
X121522836Y-90685542D01*
X121389208Y-90795208D01*
X121279542Y-90928836D01*
X121198053Y-91081291D01*
X121147872Y-91246715D01*
X121130928Y-91418750D01*
X121130928Y-91906250D01*
X121147872Y-92078285D01*
X121198053Y-92243709D01*
X121279542Y-92396164D01*
X121389208Y-92529792D01*
X121395564Y-92535008D01*
X121317815Y-92598815D01*
X121238463Y-92695506D01*
X121179498Y-92805820D01*
X121143188Y-92925518D01*
X121130928Y-93050000D01*
X121134000Y-93251750D01*
X121292750Y-93410500D01*
X122342000Y-93410500D01*
X122342000Y-93390500D01*
X122596000Y-93390500D01*
X122596000Y-93410500D01*
X122616000Y-93410500D01*
X122616000Y-93664500D01*
X122596000Y-93664500D01*
X122596000Y-94501250D01*
X122754750Y-94660000D01*
X123169000Y-94663072D01*
X123293482Y-94650812D01*
X123413180Y-94614502D01*
X123523494Y-94555537D01*
X123551386Y-94532647D01*
X123598613Y-94571405D01*
X123752149Y-94653472D01*
X123918745Y-94704008D01*
X124091999Y-94721072D01*
X125390626Y-94721072D01*
X126504401Y-95834848D01*
X126504401Y-96208192D01*
X126488550Y-96208300D01*
X126329800Y-96367050D01*
X126329800Y-97122700D01*
X126075800Y-97122700D01*
X126075800Y-96367050D01*
X125917050Y-96208300D01*
X125475808Y-96205300D01*
X125351156Y-96215685D01*
X125230925Y-96250188D01*
X125119736Y-96307485D01*
X125021860Y-96385372D01*
X124941061Y-96480857D01*
X124905460Y-96545115D01*
X124391956Y-96031612D01*
X124368936Y-96003562D01*
X124257018Y-95911713D01*
X124129331Y-95843463D01*
X123990783Y-95801435D01*
X123882803Y-95790800D01*
X123846698Y-95787244D01*
X123810593Y-95790800D01*
X121133496Y-95790800D01*
X121097399Y-95787245D01*
X121061302Y-95790800D01*
X121061295Y-95790800D01*
X120967532Y-95800035D01*
X120953314Y-95801435D01*
X120930687Y-95808299D01*
X120814767Y-95843463D01*
X120687080Y-95911713D01*
X120575162Y-96003562D01*
X120552146Y-96031607D01*
X118353808Y-98229946D01*
X118195727Y-98124320D01*
X117934574Y-98016147D01*
X117657335Y-97961000D01*
X117374665Y-97961000D01*
X117162624Y-98003178D01*
X116961257Y-97801811D01*
X116938237Y-97773761D01*
X116826319Y-97681912D01*
X116698632Y-97613662D01*
X116560084Y-97571634D01*
X116452104Y-97560999D01*
X116415999Y-97557443D01*
X116379894Y-97560999D01*
X114746144Y-97560999D01*
X111210145Y-94025000D01*
X121130928Y-94025000D01*
X121143188Y-94149482D01*
X121179498Y-94269180D01*
X121238463Y-94379494D01*
X121317815Y-94476185D01*
X121414506Y-94555537D01*
X121524820Y-94614502D01*
X121644518Y-94650812D01*
X121769000Y-94663072D01*
X122183250Y-94660000D01*
X122342000Y-94501250D01*
X122342000Y-93664500D01*
X121292750Y-93664500D01*
X121134000Y-93823250D01*
X121130928Y-94025000D01*
X111210145Y-94025000D01*
X110333258Y-93148114D01*
X110575727Y-93047680D01*
X110810759Y-92890637D01*
X111010637Y-92690759D01*
X111030521Y-92661000D01*
X111301479Y-92661000D01*
X111321363Y-92690759D01*
X111521241Y-92890637D01*
X111756273Y-93047680D01*
X112017426Y-93155853D01*
X112294665Y-93211000D01*
X112577335Y-93211000D01*
X112854574Y-93155853D01*
X113115727Y-93047680D01*
X113350759Y-92890637D01*
X113550637Y-92690759D01*
X113570521Y-92661000D01*
X113841479Y-92661000D01*
X113861363Y-92690759D01*
X114061241Y-92890637D01*
X114296273Y-93047680D01*
X114557426Y-93155853D01*
X114834665Y-93211000D01*
X115117335Y-93211000D01*
X115394574Y-93155853D01*
X115655727Y-93047680D01*
X115890759Y-92890637D01*
X116090637Y-92690759D01*
X116110521Y-92661000D01*
X116381479Y-92661000D01*
X116401363Y-92690759D01*
X116601241Y-92890637D01*
X116836273Y-93047680D01*
X117097426Y-93155853D01*
X117374665Y-93211000D01*
X117657335Y-93211000D01*
X117934574Y-93155853D01*
X118195727Y-93047680D01*
X118430759Y-92890637D01*
X118630637Y-92690759D01*
X118787680Y-92455727D01*
X118895853Y-92194574D01*
X118951000Y-91917335D01*
X118951000Y-91634665D01*
X118944017Y-91599561D01*
X119361051Y-91182528D01*
X119394818Y-91154816D01*
X119424384Y-91118791D01*
X119486860Y-91042663D01*
X119505412Y-91020058D01*
X119587590Y-90866312D01*
X119638196Y-90699489D01*
X119651001Y-90569476D01*
X119651001Y-90569466D01*
X119655282Y-90526000D01*
X119651001Y-90482534D01*
X119651001Y-82401466D01*
X119655282Y-82358000D01*
X119651001Y-82314534D01*
X119651001Y-82314524D01*
X119638196Y-82184511D01*
X119587590Y-82017688D01*
X119574394Y-81993000D01*
X122161422Y-81993000D01*
X122697000Y-82528579D01*
G36*
X147296990Y-94810263D02*
G01*
X146049209Y-96058045D01*
X146021163Y-96081062D01*
X145929314Y-96192980D01*
X145921594Y-96207423D01*
X145792550Y-96208300D01*
X145633800Y-96367050D01*
X145633800Y-97122700D01*
X145379800Y-97122700D01*
X145379800Y-96367050D01*
X145221050Y-96208300D01*
X144779808Y-96205300D01*
X144655156Y-96215685D01*
X144534925Y-96250188D01*
X144423736Y-96307485D01*
X144325860Y-96385372D01*
X144245061Y-96480857D01*
X144184442Y-96590271D01*
X144146334Y-96709409D01*
X144135200Y-96811550D01*
X144179648Y-96855998D01*
X144135200Y-96855998D01*
X144135200Y-96978856D01*
X143883000Y-96726656D01*
X143883000Y-94721072D01*
X144573001Y-94721072D01*
X144746255Y-94704008D01*
X144912851Y-94653472D01*
X145066387Y-94571405D01*
X145106728Y-94538298D01*
X145153836Y-94576958D01*
X145306291Y-94658447D01*
X145471715Y-94708628D01*
X145643750Y-94725572D01*
X146556250Y-94725572D01*
X146728285Y-94708628D01*
X146893709Y-94658447D01*
X147046164Y-94576958D01*
X147179792Y-94467292D01*
X147289458Y-94333664D01*
X147296990Y-94319573D01*
X147296990Y-94810263D01*
G37*
X147296990Y-94810263D02*
X146049209Y-96058045D01*
X146021163Y-96081062D01*
X145929314Y-96192980D01*
X145921594Y-96207423D01*
X145792550Y-96208300D01*
X145633800Y-96367050D01*
X145633800Y-97122700D01*
X145379800Y-97122700D01*
X145379800Y-96367050D01*
X145221050Y-96208300D01*
X144779808Y-96205300D01*
X144655156Y-96215685D01*
X144534925Y-96250188D01*
X144423736Y-96307485D01*
X144325860Y-96385372D01*
X144245061Y-96480857D01*
X144184442Y-96590271D01*
X144146334Y-96709409D01*
X144135200Y-96811550D01*
X144179648Y-96855998D01*
X144135200Y-96855998D01*
X144135200Y-96978856D01*
X143883000Y-96726656D01*
X143883000Y-94721072D01*
X144573001Y-94721072D01*
X144746255Y-94704008D01*
X144912851Y-94653472D01*
X145066387Y-94571405D01*
X145106728Y-94538298D01*
X145153836Y-94576958D01*
X145306291Y-94658447D01*
X145471715Y-94708628D01*
X145643750Y-94725572D01*
X146556250Y-94725572D01*
X146728285Y-94708628D01*
X146893709Y-94658447D01*
X147046164Y-94576958D01*
X147179792Y-94467292D01*
X147289458Y-94333664D01*
X147296990Y-94319573D01*
X147296990Y-94810263D01*
M02*
